<svg xmlns="http://www.w3.org/2000/svg" width="1024" height="1024" viewBox="0 0 1024 1024" version="1.1">
	<path d="M 679.250 495.973 C 676.913 497.034, 675 498.264, 675 498.707 C 675 499.150, 673.639 500.114, 671.975 500.851 C 670.312 501.587, 664.866 506.309, 659.873 511.345 C 654.881 516.380, 650.505 520.561, 650.148 520.635 C 646.705 521.349, 645 522.522, 645 524.176 C 645 525.244, 644.557 525.844, 644.015 525.510 C 642.632 524.655, 639.008 530.947, 639.004 534.211 C 639.002 535.702, 638.175 537.727, 637.167 538.711 C 636.159 539.695, 632.897 544.100, 629.917 548.500 C 626.938 552.900, 624.201 556.728, 623.835 557.007 C 622.327 558.155, 611 572.508, 611 573.270 C 611 573.724, 608.975 576.009, 606.500 578.346 C 604.025 580.684, 602 583.347, 602 584.263 C 602 586.145, 604.857 587.960, 606.750 587.282 C 609.213 586.398, 607.918 588.268, 603.010 592.681 C 598.705 596.552, 598.166 597.442, 599.086 599.161 C 599.673 600.258, 600.750 600.926, 601.479 600.646 C 603.545 599.854, 606.426 602.448, 605.670 604.419 C 605.309 605.358, 604.561 605.847, 604.007 605.504 C 603.365 605.107, 603 607.621, 603 612.441 C 603 617.201, 603.401 620, 604.083 620 C 604.679 620, 604.971 620.563, 604.732 621.250 C 604.493 621.938, 605.380 623.801, 606.702 625.390 C 608.025 626.980, 608.858 628.929, 608.553 629.722 C 608.249 630.515, 608 632.278, 608 633.641 C 608 635.197, 607.589 635.864, 606.893 635.434 C 605.640 634.660, 606.027 636.134, 609.532 645.500 C 611.133 649.776, 612.354 651.588, 613.782 651.806 C 614.884 651.974, 616.763 653.386, 617.958 654.945 C 619.441 656.881, 620.745 657.618, 622.070 657.271 C 623.137 656.992, 624.626 657.275, 625.379 657.899 C 626.131 658.524, 627.479 658.754, 628.373 658.410 C 629.515 657.972, 630.002 658.340, 630.007 659.643 C 630.015 661.897, 633.023 666.405, 634.750 666.750 C 635.438 666.888, 636.007 666.213, 636.015 665.250 C 636.028 663.754, 636.172 663.718, 637.001 665 C 637.904 666.398, 638.803 669.029, 642.026 679.717 C 642.726 682.036, 643.681 683.697, 644.149 683.408 C 644.617 683.119, 645 683.616, 645 684.512 C 645 687.739, 647.816 689.413, 650.811 687.967 C 654.313 686.276, 656 685.972, 656 687.033 C 656 687.504, 658.537 686.728, 661.638 685.308 C 664.813 683.855, 669.491 682.621, 672.348 682.483 C 675.138 682.349, 677.588 681.736, 677.793 681.120 C 678.358 679.426, 683 679.737, 683 681.469 C 683 683.623, 685.208 682.411, 687.500 679.001 C 688.818 677.040, 690.071 676.205, 691.175 676.556 C 692.358 676.931, 692.952 676.414, 693.198 674.794 C 693.390 673.532, 694.099 672.613, 694.774 672.750 C 695.448 672.888, 696 672.550, 696 672 C 696 669.940, 699.086 671.097, 700 673.500 C 701.025 676.197, 702.527 676.759, 703.338 674.750 C 703.615 674.063, 703.878 674.700, 703.921 676.167 C 703.964 677.633, 704.563 679.044, 705.250 679.302 C 706.116 679.627, 705.886 680.257, 704.500 681.353 C 703.400 682.224, 702.816 682.951, 703.203 682.968 C 704.543 683.029, 709 680.675, 709 679.907 C 709 679.079, 713.006 677.473, 714.250 677.802 C 714.663 677.911, 715 677.550, 715 677 C 715 676.450, 715.337 676.053, 715.750 676.118 C 717.814 676.444, 719.034 675.805, 720.081 673.848 C 721.062 672.016, 720.993 671.789, 719.616 672.317 C 718.580 672.715, 718 672.410, 718 671.469 C 718 670.661, 718.450 670, 719 670 C 719.550 670, 720 669.501, 720 668.892 C 720 668.221, 719.053 668.021, 717.604 668.384 C 715.944 668.801, 715.023 668.502, 714.604 667.411 C 713.029 663.306, 714.650 659, 717.771 659 C 719.417 659, 721.363 657.158, 722.282 654.730 C 722.651 653.756, 724.313 652.687, 725.976 652.355 C 728.175 651.915, 729 651.184, 729 649.675 C 729 648.061, 728.733 647.867, 727.800 648.800 C 725.937 650.663, 725.215 650.253, 724.481 646.916 C 723.957 644.528, 724.263 643.404, 725.835 641.939 C 727.855 640.057, 727.874 640.078, 729.104 645.574 C 730.301 650.922, 730.441 651.092, 733.420 650.801 C 736.297 650.520, 736.486 650.256, 736.285 646.796 C 736.167 644.759, 736.688 641.903, 737.442 640.450 C 738.588 638.241, 738.596 637.125, 737.495 633.653 C 736.771 631.369, 734.298 623.455, 732 616.067 C 728.502 604.820, 725.467 598.423, 722.006 595 C 721.728 594.725, 721.423 592.925, 721.328 591 C 721.042 585.165, 719.359 577.850, 716.726 571 C 708.877 550.574, 708.077 548.835, 706.870 549.580 C 705.602 550.364, 702 548.110, 702 546.532 C 702 544.556, 698.745 543.766, 693.712 544.521 C 688.496 545.303, 686.561 542.601, 687.615 536.007 C 688.253 532.016, 692.706 529, 697.961 529 C 699.018 529, 700.243 528.438, 700.684 527.750 C 701.736 526.111, 701.816 522, 700.796 522 C 700.358 522, 700 521.438, 699.999 520.750 C 699.999 520.063, 698.199 516.575, 695.999 513 C 693.799 509.425, 691.732 505.080, 691.406 503.344 C 690.877 500.529, 685.755 493.965, 684.131 494.022 C 683.784 494.034, 681.587 494.912, 679.250 495.973" stroke="none" fill="black" fill-rule="evenodd"/>
</svg>