<svg xmlns="http://www.w3.org/2000/svg" width="1024" height="1024" viewBox="0 0 1024 1024" version="1.1">
	<path d="M 502 974.066 C 502 975.752, 502.466 978.002, 503.035 979.066 C 503.971 980.814, 503.719 981, 500.419 981 C 497.259 981, 496.837 981.270, 497.290 983 C 497.630 984.300, 497.320 985, 496.406 985 C 495.633 985, 495 985.598, 495 986.329 C 495 987.251, 496.737 987.728, 500.675 987.887 C 503.797 988.014, 506.609 988.144, 506.925 988.177 C 510.809 988.582, 529.735 987.595, 527.500 987.104 C 523.916 986.317, 526.158 985, 531.082 985 C 533.103 985, 534 984.503, 534 983.383 C 534 982.259, 534.609 981.926, 536 982.290 C 537.100 982.577, 538 982.405, 538 981.906 C 538 981.408, 539.073 981, 540.383 981 C 543.472 981, 544.471 976.803, 542.084 973.855 C 540.587 972.007, 540.017 971.918, 536.213 972.943 C 532.292 973.998, 532 974.317, 532 977.539 C 532 980.970, 531.962 981, 527.535 981 C 522.805 981, 521 979.361, 521 975.066 C 521 973.328, 520.375 973, 517.059 973 C 514.891 973, 512.840 972.550, 512.500 972 C 512.160 971.450, 509.659 971, 506.941 971 C 502.094 971, 502 971.058, 502 974.066" stroke="none" fill="black" fill-rule="evenodd"/>
</svg>