<svg xmlns="http://www.w3.org/2000/svg" width="1024" height="1024" viewBox="0 0 1024 1024" version="1.1">
	<path d="M 425.686 500.750 C 425.449 501.163, 424.950 503.607, 424.576 506.182 C 423.781 511.671, 418.190 518.203, 412.169 520.678 C 407.256 522.697, 403 526.857, 403 529.638 C 403 532.747, 400.594 541.567, 398.264 547 C 395.708 552.960, 391.310 571.038, 390.662 578.249 C 390.172 583.694, 390.273 584.030, 392.572 584.608 C 397.262 585.785, 395.026 591.604, 390.284 590.562 C 386.430 589.716, 385.534 590.887, 383.578 599.321 C 380.769 611.432, 381.785 616.504, 386.824 615.534 C 389.681 614.984, 389.569 615.797, 386.323 619.185 C 384.850 620.722, 383.936 622.269, 384.290 622.623 C 384.644 622.977, 386.382 621.632, 388.151 619.634 C 389.920 617.635, 391.960 616, 392.684 616 C 393.411 616, 394 614.912, 394 613.567 C 394 611.922, 394.728 610.905, 396.250 610.424 C 397.488 610.032, 399.850 608.719, 401.500 607.504 C 403.150 606.289, 405.288 605.018, 406.250 604.679 C 407.212 604.340, 408 603.343, 408 602.464 C 408 601.320, 408.569 601.046, 410 601.500 C 411.100 601.849, 412 601.767, 412 601.317 C 412 600.868, 413.012 600.475, 414.250 600.444 C 415.488 600.412, 417.924 600.048, 419.665 599.633 C 422.258 599.015, 422.915 599.205, 423.299 600.689 C 423.680 602.161, 423.790 602.194, 423.884 600.867 C 424.024 598.894, 427.917 597.686, 429.609 599.090 C 430.436 599.777, 431.054 599.722, 431.551 598.917 C 433.096 596.418, 454 600.463, 454 603.261 C 454 603.851, 454.277 604.056, 454.616 603.718 C 455.324 603.010, 463.620 607.102, 469.500 611.060 C 471.700 612.541, 473.950 613.790, 474.500 613.836 C 475.050 613.883, 475.644 614.839, 475.820 615.960 C 475.995 617.082, 476.544 618, 477.038 618 C 477.533 618, 477.650 618.749, 477.299 619.664 C 476.881 620.753, 477.049 621.088, 477.786 620.632 C 479.485 619.582, 482.281 624.486, 481.531 627.201 C 480.924 629.398, 480.963 629.417, 482.408 627.614 C 483.865 625.795, 483.961 625.821, 485.106 628.333 C 485.758 629.765, 486.619 630.736, 487.017 630.489 C 487.416 630.243, 488.785 630.947, 490.061 632.053 L 492.380 634.064 494.440 632.008 C 495.573 630.877, 497.253 627.825, 498.172 625.226 C 499.092 622.626, 499.880 621.288, 499.922 622.250 C 500.033 624.755, 503.645 624.467, 504.316 621.899 C 504.914 619.612, 507 620.180, 507 622.630 C 507 623.952, 507.200 623.943, 508.581 622.562 C 509.450 621.693, 510.575 621.237, 511.081 621.550 C 511.586 621.862, 512 620.904, 512 619.419 C 512 617.935, 512.686 616.219, 513.524 615.606 C 515.452 614.197, 514.459 608, 512.305 608 C 511.379 608, 510.976 607.192, 511.180 605.750 C 511.599 602.803, 516.964 601.830, 517.063 604.684 C 517.115 606.155, 517.299 606.073, 518.031 604.250 C 518.529 603.013, 519.612 602, 520.439 602 C 523.248 602, 524.044 592.739, 521.533 589.265 C 521.440 589.136, 519.611 589.924, 517.470 591.015 C 515.329 592.107, 512.772 592.745, 511.788 592.433 C 510.380 591.986, 510 592.424, 510 594.498 C 510 597.432, 508.392 601, 507.070 601 C 506.597 601, 506.663 599.313, 507.216 597.250 C 509.435 588.968, 509.302 585.713, 506.578 581.706 C 503.860 577.705, 503.181 575.781, 505.200 577.800 C 507.091 579.691, 508.287 579.205, 507.658 576.802 C 507.342 575.593, 507.493 574.111, 507.993 573.508 C 508.593 572.786, 507.431 571.235, 504.582 568.956 C 500.591 565.764, 500.299 565.213, 500.762 561.750 C 501.069 559.456, 500.851 558, 500.201 558 C 499.617 558, 498.995 557.023, 498.820 555.828 C 498.079 550.799, 492.496 554.537, 491.474 560.746 C 491.134 562.811, 490.391 565.459, 489.823 566.631 C 489.255 567.803, 489.095 569.725, 489.469 570.902 C 490.070 572.797, 489.799 573.016, 487.108 572.811 C 481.819 572.408, 481.756 567.246, 486.905 556 C 487.960 553.695, 488.002 553.773, 487.447 557 C 485.777 566.709, 485.708 568.537, 487.059 567.264 C 490.433 564.087, 492.744 550, 489.892 550 C 489.401 550, 489 548.933, 489 547.630 C 489 545.674, 488.213 545.040, 484.500 544 C 480.666 542.927, 479.990 542.352, 479.930 540.120 C 479.821 536.085, 478.519 533.205, 477.731 535.258 C 477.212 536.612, 476.633 536.688, 474.107 535.734 C 469.395 533.956, 466.603 536.975, 467.323 543.071 C 467.911 548.049, 466.222 552.702, 464.010 552.197 C 462.051 551.750, 461.033 553.967, 461.015 558.715 C 460.992 565.102, 454.710 567.540, 451.378 562.455 C 448.896 558.665, 452.964 552.670, 457.250 553.802 C 457.663 553.911, 458 553.564, 458 553.031 C 458 552.499, 458.563 552.261, 459.250 552.503 C 460.751 553.032, 464.632 550.298, 463.701 549.368 C 463.342 549.009, 462.475 549.178, 461.774 549.744 C 461.073 550.311, 458.590 551.089, 456.255 551.474 C 453.921 551.859, 451.757 552.585, 451.446 553.087 C 450.597 554.461, 448.998 554.184, 449.503 552.750 C 449.745 552.063, 449.299 550.650, 448.511 549.612 C 447.132 547.795, 446.943 547.843, 443.504 550.862 C 439.642 554.253, 437.719 554.897, 438.643 552.489 C 439.058 551.407, 438.764 551.153, 437.611 551.596 C 436.435 552.047, 436 551.629, 436 550.048 C 436 548.857, 436.390 548.123, 436.866 548.417 C 439.087 549.790, 441.899 543.942, 442.155 537.422 L 442.312 533.411 450.906 533.431 C 460.648 533.454, 464.299 532.111, 463.811 528.682 C 463.541 526.788, 462.776 526.459, 458.018 526.190 C 454.170 525.972, 451.998 525.301, 450.729 523.940 C 449.735 522.873, 448.313 522, 447.568 522 C 442.904 522, 446.626 515.370, 453.498 511.436 C 456.040 509.981, 454.798 507.127, 450.998 505.693 C 449.349 505.071, 448 504.210, 448 503.781 C 448 503.351, 446.200 503, 444 503 C 441.111 503, 440 502.583, 440 501.500 C 440 499.893, 426.584 499.190, 425.686 500.750" stroke="none" fill="black" fill-rule="evenodd"/>
</svg>