<svg xmlns="http://www.w3.org/2000/svg" width="1024" height="1024" viewBox="0 0 1024 1024" version="1.1">
	<path d="M 425.750 598.689 C 424.788 598.941, 423.990 599.676, 423.978 600.323 C 423.966 600.970, 423.076 602.625, 422 604 C 418.739 608.169, 419.349 610.651, 423.676 610.814 C 425.698 610.890, 427.611 611.328, 427.926 611.787 C 428.242 612.246, 432.389 613.130, 437.141 613.752 C 448.672 615.259, 457.367 619.251, 463.976 626.072 C 469.945 632.233, 474 634.765, 474 632.332 C 474 631.205, 474.641 630.944, 476.352 631.374 C 480.113 632.317, 483.056 626.260, 480.633 622.562 C 479.658 621.074, 478.424 620.238, 477.786 620.632 C 477.049 621.088, 476.881 620.753, 477.299 619.664 C 477.650 618.749, 477.533 618, 477.038 618 C 476.544 618, 475.995 616.987, 475.820 615.750 C 475.644 614.513, 475.275 613.712, 475 613.970 C 474.725 614.229, 472.475 613.074, 470 611.404 C 463.708 607.159, 455.350 602.983, 454.616 603.718 C 454.277 604.056, 454 603.851, 454 603.261 C 454 600.437, 434.367 596.621, 431.610 598.908 C 430.634 599.719, 429.972 599.763, 429.530 599.049 C 428.855 597.957, 428.633 597.936, 425.750 598.689" stroke="none" fill="black" fill-rule="evenodd"/>
</svg>