<svg xmlns="http://www.w3.org/2000/svg" width="1024" height="1024" viewBox="0 0 1024 1024" version="1.1">
	<path d="M 178 328 C 178 329.650, 177.583 331, 177.073 331 C 174.609 331, 175.896 341.601, 178.610 343.662 C 179.925 344.659, 179.743 345.013, 177.320 346.169 C 174.350 347.586, 173.208 351.709, 174.434 356.594 C 175.022 358.937, 182.167 361.967, 182.785 360.135 C 183.200 358.905, 187.740 359.982, 189.112 361.635 C 190.750 363.609, 189.875 364.121, 184.855 364.130 C 178.213 364.143, 177.408 364.604, 177.298 368.455 C 177.142 373.980, 179.877 375.162, 188.557 373.318 C 192.376 372.506, 196.175 371.582, 197 371.263 C 197.825 370.945, 199.024 370.766, 199.665 370.867 C 203.736 371.503, 206.044 359.768, 202.053 358.724 C 200.366 358.283, 200.177 351.939, 201.858 352.154 C 203.776 352.401, 205.048 351.886, 204.543 351.069 C 204.226 350.557, 204.418 349.859, 204.970 349.519 C 205.995 348.885, 205.809 343.476, 204.725 342.392 C 204.395 342.062, 202.776 342.464, 201.127 343.287 C 197.906 344.894, 195.974 343.426, 198.278 341.122 C 199.107 340.293, 199.087 340, 198.200 340 C 197.451 340, 197 338.366, 197 335.649 C 197 333.256, 196.506 329.881, 195.902 328.149 L 194.804 325 186.402 325 L 178 325 178 328" stroke="none" fill="black" fill-rule="evenodd"/>
</svg>