<svg xmlns="http://www.w3.org/2000/svg" width="1024" height="1024" viewBox="0 0 1024 1024" version="1.1">
	<path d="M 758.724 444.134 C 756.483 445.389, 756.548 446.548, 759 449 C 760.100 450.100, 761 451.830, 761 452.845 C 761 454.665, 763.891 458, 765.468 458 C 765.915 458, 766.864 457.212, 767.579 456.250 C 768.675 454.774, 769.201 454.697, 770.939 455.758 C 772.452 456.682, 773 456.707, 773 455.853 C 773 455.148, 773.720 455.342, 774.829 456.345 C 775.835 457.255, 777.101 458, 777.644 458 C 778.186 458, 779.381 459.575, 780.299 461.500 C 781.217 463.425, 782.476 465, 783.097 465 C 783.805 465, 784.045 466.215, 783.741 468.250 C 783.219 471.748, 787.266 478.937, 789.781 478.979 C 790.486 478.990, 791.315 479.658, 791.624 480.462 C 791.932 481.266, 793.043 482.196, 794.092 482.529 C 795.142 482.862, 796 483.806, 796 484.626 C 796 485.447, 796.398 485.872, 796.884 485.572 C 797.701 485.067, 799.012 487.608, 800.457 492.500 C 801.217 495.075, 806.114 500.446, 808.555 501.383 C 809.943 501.915, 810.111 502.314, 809.188 502.884 C 807.702 503.802, 808.358 505.907, 811.875 511.500 C 815.334 517, 818.127 520.039, 819.145 519.410 C 819.615 519.120, 820 520.034, 820 521.441 C 820 522.848, 820.450 524, 821 524 C 821.550 524, 822 524.727, 822 525.615 C 822 530.254, 829.911 540.571, 831.498 538.003 C 831.839 537.451, 833.666 537, 835.559 537 C 837.452 537, 839 536.550, 839 536 C 839 535.450, 839.476 535, 840.059 535 C 841.908 535, 849.085 528.671, 847.998 527.998 C 847.413 527.637, 848.060 526.771, 849.481 526.010 C 853.509 523.855, 852.745 521.357, 848 521.171 C 845.800 521.085, 844 521.409, 844 521.891 C 844 523.432, 839.443 523.699, 838.078 522.238 C 837.354 521.463, 835.924 521.048, 834.901 521.316 C 833.590 521.658, 832.444 520.836, 831.020 518.533 C 828.507 514.466, 828.509 514.421, 831.250 514.305 C 838.419 514.003, 838.898 513.746, 838.281 510.537 C 837.596 506.977, 835.021 502.698, 834.965 505.027 C 834.943 505.926, 834.435 505.611, 833.663 504.219 C 832.966 502.964, 832.082 502.251, 831.698 502.635 C 831.077 503.256, 830.601 501.659, 830.858 499.820 C 830.911 499.446, 829.806 496.634, 828.404 493.571 C 826.017 488.358, 825.748 488.110, 824.177 489.683 C 822.607 491.256, 822.465 491.105, 821.950 487.310 C 821.414 483.361, 818.861 479.473, 817.619 480.714 C 817.279 481.055, 817 480.310, 817 479.060 C 817 477.449, 816.562 476.954, 815.500 477.362 C 814.675 477.678, 814 477.501, 814 476.969 C 814 476.436, 813.582 476, 813.071 476 C 812.556 476, 812.373 478.120, 812.659 480.750 C 813.535 488.784, 813.411 489.140, 811 485.500 C 809.907 483.850, 809.010 481.352, 809.007 479.949 C 808.998 476.578, 806.779 471.895, 805.430 472.399 C 804.812 472.630, 803.496 469.251, 802.315 464.399 C 801.190 459.780, 800.621 456, 801.051 456 C 801.481 456, 802.060 456.563, 802.338 457.250 C 802.741 458.250, 802.858 458.250, 802.921 457.250 C 802.964 456.563, 803.730 456, 804.622 456 C 805.919 456, 806.006 455.712, 805.053 454.564 C 804.153 453.480, 804.140 452.607, 804.999 451.002 C 806.129 448.891, 806.078 448.881, 797.818 449.534 C 793.243 449.897, 787.925 450.525, 786 450.932 C 781.277 451.928, 774.816 451.307, 773.815 449.760 C 773.166 448.757, 772.824 448.772, 772.139 449.834 C 771.453 450.897, 771.147 450.826, 770.631 449.480 C 770.275 448.552, 769.354 448.034, 768.586 448.329 C 767.817 448.624, 766.363 447.954, 765.355 446.840 C 762.660 443.862, 760.666 443.048, 758.724 444.134" stroke="none" fill="black" fill-rule="evenodd"/>
</svg>