<svg xmlns="http://www.w3.org/2000/svg" width="1024" height="1024" viewBox="0 0 1024 1024" version="1.1">
	<path d="M 735.500 408.208 C 733.011 409.635, 731.074 412.077, 731.032 413.840 C 730.972 416.366, 721.877 422.660, 719.981 421.488 C 719.453 421.162, 713.545 424.968, 706.853 429.947 C 695.149 438.655, 691.648 440.248, 689.322 437.922 C 688.729 437.329, 686.951 436.991, 685.372 437.172 L 682.500 437.500 682.390 449 C 682.236 465.218, 682.267 465, 680.136 465 C 678.847 465, 677.740 466.392, 676.551 469.506 C 675.604 471.985, 674.466 473.788, 674.022 473.513 C 673.022 472.896, 671.717 477.733, 672.528 479.046 C 673.822 481.139, 680.257 477.730, 686.092 471.861 C 687.535 470.409, 690.148 468.907, 691.899 468.522 C 696.366 467.541, 708.738 463.505, 713.470 461.484 C 720.203 458.610, 731.748 461.675, 730.474 466 C 729.863 468.074, 731.295 473.013, 732.426 472.731 C 732.935 472.604, 733.968 473.850, 734.721 475.500 L 736.091 478.500 735.582 474.586 C 735.302 472.434, 735.443 471.084, 735.896 471.586 C 737.249 473.088, 741.637 482.097, 744.020 488.268 C 746.486 494.655, 750.915 500.862, 752.605 500.298 C 753.206 500.098, 755.003 500.472, 756.599 501.129 C 758.194 501.786, 759.837 502.250, 760.250 502.161 C 760.663 502.073, 761 502.620, 761 503.379 C 761 504.137, 762.569 507.363, 764.486 510.547 C 768.536 517.272, 769.712 522.143, 768.126 525.624 C 767.507 526.982, 767 528.987, 767 530.078 C 767 531.170, 766.328 532.321, 765.507 532.636 C 763.744 533.312, 764.180 535.775, 767.564 544.250 C 768.827 547.413, 769.484 550, 769.024 550 C 768.564 550, 768.423 550.900, 768.710 552 C 768.998 553.100, 769.617 554, 770.085 554 C 770.554 554, 770.677 554.678, 770.359 555.508 C 769.633 557.400, 772.944 562.708, 773.893 561.173 C 774.264 560.573, 775.627 562.751, 776.923 566.014 C 778.219 569.276, 779.666 571.706, 780.140 571.414 C 780.613 571.121, 781.002 572.146, 781.004 573.691 C 781.006 575.236, 781.906 577.973, 783.004 579.774 C 784.102 581.575, 785 583.514, 785 584.084 C 785 585.044, 790.426 597.198, 795.008 606.500 C 799.559 615.740, 798.643 619.512, 790.612 624.592 C 788.130 626.163, 785.607 628.366, 785.006 629.488 C 782.833 633.550, 772.807 637.349, 763.582 637.605 C 758.742 637.740, 754.008 638.446, 752.357 639.279 C 750.785 640.071, 748.263 641.016, 746.750 641.379 C 742.524 642.392, 742.702 648.652, 747 650.150 C 748.650 650.725, 750 651.778, 750 652.489 C 750 653.610, 753.367 655.122, 756.500 655.409 C 757.050 655.459, 759.975 658.080, 763 661.234 C 769.905 668.434, 770.445 669.082, 772.005 672.063 C 772.707 673.403, 774.529 675.625, 776.053 677 C 778.745 679.428, 780.156 684.582, 780.159 692 C 780.159 693.375, 780.634 699.626, 781.214 705.891 C 782.008 714.465, 781.956 720.171, 781.004 728.963 C 780.027 737.986, 780.008 741.146, 780.922 742.853 C 784.388 749.330, 789.947 808.900, 790.704 847.663 C 791.187 872.444, 791.533 877.733, 792.646 877.306 C 793.391 877.020, 794 876.307, 794 875.722 C 794 873.735, 797.105 871.215, 798.957 871.699 C 800.948 872.220, 802.160 876.963, 800.884 879.243 C 800.469 879.985, 800.543 881.246, 801.049 882.046 C 801.555 882.846, 801.976 883.093, 801.985 882.595 C 801.993 882.097, 802.844 882.454, 803.876 883.388 C 805.615 884.962, 805.800 884.965, 806.388 883.431 C 806.878 882.153, 807.337 882.035, 808.396 882.913 C 809.503 883.832, 809.925 883.323, 810.582 880.276 C 811.723 874.982, 811.680 874.462, 810.127 874.791 C 809.219 874.983, 808.969 874.522, 809.389 873.430 C 809.848 872.233, 809.604 871.938, 808.504 872.360 C 807.272 872.833, 807.018 872.099, 807.155 868.471 C 807.293 864.837, 807.673 864, 809.187 864 C 813.839 864, 813.982 852.622, 809.433 844.472 C 805.582 837.576, 806.716 832.648, 812.258 832.189 C 814.948 831.967, 816.186 832.322, 816.615 833.439 C 816.967 834.356, 818.408 835, 820.107 835 C 826.348 835, 828.718 840.668, 824.417 845.306 C 822.996 846.838, 821.481 849.323, 821.050 850.827 C 820.072 854.237, 821.999 863, 823.727 863 C 824.427 863, 825 863.579, 825 864.286 C 825 864.993, 825.788 865.617, 826.750 865.673 C 831.392 865.943, 835.461 866.883, 835.751 867.752 C 836.764 870.792, 838.971 872.289, 842.589 872.390 L 846.500 872.500 846.193 867.680 L 845.885 862.860 850.451 863.545 C 854.517 864.155, 854.999 864.026, 854.850 862.365 C 854.535 858.850, 855 856.882, 856 857.500 C 856.550 857.840, 857 857.672, 857 857.126 C 857 856.581, 856.041 855.830, 854.868 855.458 C 853.335 854.972, 853.091 854.562, 854.001 853.999 C 854.905 853.440, 855.292 849.603, 855.358 840.547 L 855.450 827.876 860.710 828.120 C 863.603 828.254, 866.236 828.098, 866.560 827.773 C 866.885 827.448, 868.461 827.559, 870.062 828.018 C 872.900 828.832, 875.031 827.755, 873.030 826.519 C 872.479 826.178, 872.213 824.909, 872.440 823.700 C 872.666 822.490, 872.885 820.990, 872.926 820.367 C 873.011 819.062, 877 817.755, 877 819.031 C 877 820.251, 880.977 819.774, 881.118 818.537 C 881.184 817.967, 881.164 816.938, 881.075 816.250 C 880.985 815.563, 881.354 815, 881.894 815 C 883.115 815, 882.979 810.939, 881.701 809.250 C 881.089 808.442, 881.129 808, 881.815 808 C 882.460 808, 882.660 806.680, 882.327 804.627 C 881.706 800.804, 883.025 799.408, 885.836 800.912 C 887.259 801.674, 888.189 801.473, 889.685 800.079 C 891.757 798.148, 891.751 798.277, 890.551 782.367 C 889.980 774.801, 890.420 773.799, 894.783 772.730 C 899.085 771.675, 901.826 781.619, 898.649 786.758 C 898.204 787.478, 898.376 788, 899.058 788 C 899.741 788, 900.014 788.838, 899.710 790 C 899.423 791.100, 899.553 792, 900 792 C 900.447 792, 900.577 792.900, 900.290 794 C 899.986 795.162, 900.259 796, 900.942 796 C 901.589 796, 901.871 796.399, 901.570 796.887 C 900.507 798.606, 903.847 800.193, 907.049 799.489 L 910.179 798.802 909.781 804.401 L 909.382 810 912.691 810 C 914.511 810, 916 809.495, 916 808.878 C 916 808.104, 916.469 808.144, 917.507 809.006 C 918.707 810.002, 919.909 810.005, 923.418 809.023 C 928.256 807.668, 928.295 807.297, 924.512 798.500 C 923.803 796.850, 922.919 794.375, 922.548 793 C 922.178 791.625, 921.482 789.600, 921.002 788.500 C 917.101 779.558, 916.022 776.403, 915.815 773.321 C 915.684 771.370, 915.028 769.564, 914.358 769.307 C 913.688 769.050, 912.652 767.638, 912.057 766.170 C 911.461 764.701, 909.855 761.971, 908.487 760.102 C 907.119 758.233, 906 755.672, 906 754.411 C 906 753.150, 905.589 751.864, 905.087 751.554 C 904.585 751.243, 903.876 749.079, 903.512 746.745 C 902.842 742.443, 900.825 735.963, 898.455 730.500 C 897.740 728.850, 896.827 726.150, 896.428 724.500 C 896.028 722.850, 895.094 720.612, 894.351 719.527 C 893.608 718.443, 893 716.793, 893 715.861 C 893 714.929, 892.663 714.017, 892.250 713.833 C 890.463 713.039, 885.996 705.175, 886.534 703.772 C 886.859 702.926, 886.492 700.718, 885.719 698.867 C 884.946 697.015, 883.998 693.813, 883.612 691.750 C 882.967 688.308, 882.636 688, 879.580 688 C 874.805 688, 873.370 682.152, 876.550 675.654 C 877.797 673.106, 877.726 672.384, 875.881 668.766 C 873.237 663.584, 871 654.987, 871 650.010 C 871 645.312, 870.233 644.708, 866.197 646.232 C 861.926 647.844, 859.941 645.844, 856.531 636.497 C 853.916 629.325, 853.885 629.003, 855.557 626.172 C 856.990 623.747, 857.089 622.695, 856.142 619.977 C 855.319 617.618, 855.304 616.339, 856.087 615.396 C 857.476 613.722, 856.610 612.367, 852.937 610.467 C 849.428 608.653, 848.694 602.830, 851.750 601.052 C 857.148 597.911, 857.308 597.525, 855.046 593.091 C 853.899 590.841, 852.625 589, 852.217 589 C 851.808 589, 851.030 587.987, 850.487 586.750 C 849.636 584.809, 848.745 584.500, 844 584.500 L 838.500 584.500 838.585 588 C 838.632 589.925, 839.027 593.413, 839.463 595.750 C 839.978 598.512, 839.895 600, 839.226 600 C 837.795 600, 835.951 594.316, 836.702 592.222 C 837.041 591.275, 836.955 590.829, 836.511 591.232 C 835.466 592.178, 832 588.194, 832 586.047 C 832 585.141, 831.558 583.958, 831.018 583.418 C 828.710 581.110, 826.930 572.569, 828.511 571.390 C 830.701 569.757, 830.330 565.585, 827.500 560 C 826.125 557.287, 825.016 554.039, 825.035 552.783 C 825.074 550.319, 827.468 545.341, 828.419 545.750 C 831.194 546.944, 829.916 544.920, 824.001 538.750 C 815.941 530.344, 805 516.235, 805 514.247 C 805 513.496, 804.550 513.160, 804 513.500 C 803.450 513.840, 803 513.605, 803 512.979 C 803 512.352, 800.353 507.938, 797.118 503.170 C 793.884 498.401, 790.457 492.813, 789.504 490.750 C 788.552 488.688, 787.353 487, 786.840 487 C 786.327 487, 784.870 484.759, 783.601 482.020 C 782.332 479.281, 781.052 477.282, 780.756 477.577 C 780.460 477.873, 779.609 476.739, 778.865 475.057 C 778.121 473.376, 777.172 472, 776.756 472 C 776.340 472, 776 471.325, 776 470.500 C 776 469.675, 775.550 469, 775 469 C 774.450 469, 773.998 468.438, 773.995 467.750 C 773.993 467.063, 772.643 465.062, 770.995 463.304 C 769.348 461.547, 768 459.634, 768 459.054 C 768 458.474, 767.170 458, 766.155 458 C 763.925 458, 761 454.977, 761 452.671 C 761 451.752, 760.072 450.072, 758.938 448.938 C 757.803 447.803, 757.045 446.366, 757.252 445.744 C 757.459 445.122, 756.162 443.325, 754.369 441.751 C 752.576 440.176, 749.217 435.892, 746.904 432.230 C 742.912 425.910, 742.674 425.101, 742.213 416.286 C 741.689 406.256, 740.789 405.174, 735.500 408.208" stroke="none" fill="black" fill-rule="evenodd"/>
</svg>