<svg xmlns="http://www.w3.org/2000/svg" width="1024" height="1024" viewBox="0 0 1024 1024" version="1.1">
	<path d="M 712.500 905.148 C 701.962 910.557, 699 912.734, 699 915.068 C 699 916.131, 698.550 917, 698 917 C 697.450 917, 697 917.675, 697 918.500 C 697 919.325, 696.550 920, 696 920 C 695.450 920, 695 920.707, 695 921.571 C 695 922.977, 694.828 922.971, 693.372 921.515 C 691.869 920.012, 691.410 920.247, 687.355 924.601 C 684.501 927.665, 683.154 929.911, 683.505 931.017 C 684.373 933.750, 682.958 936.222, 680.842 935.669 C 679.526 935.325, 678.557 935.977, 677.620 937.838 C 675.683 941.687, 674.684 946.313, 675.960 945.525 C 676.532 945.171, 677 945.385, 677 946 C 677 946.615, 677.450 946.840, 678 946.500 C 678.550 946.160, 679.007 946.696, 679.015 947.691 C 679.028 949.225, 679.178 949.272, 680 948 C 680.533 947.175, 680.976 947.010, 680.985 947.633 C 680.998 948.641, 683.504 949.834, 685.096 949.591 C 685.424 949.541, 686.334 950.032, 687.117 950.682 C 688.296 951.660, 689.277 950.448, 692.788 943.682 C 701.034 927.792, 711.511 917.527, 726.859 910.303 C 730.906 908.398, 735.744 906.591, 737.609 906.289 C 740.545 905.812, 742.408 904.144, 740.250 903.923 C 739.837 903.881, 738.714 903.696, 737.754 903.513 C 736.794 903.329, 735.755 903.588, 735.445 904.089 C 734.550 905.536, 731.829 905.148, 730.543 903.389 C 729.471 901.923, 729.223 901.920, 727.790 903.353 C 726.356 904.787, 726.168 904.752, 725.701 902.964 C 724.920 899.978, 721.456 900.551, 712.500 905.148" stroke="none" fill="black" fill-rule="evenodd"/>
</svg>