<svg xmlns="http://www.w3.org/2000/svg" width="1024" height="1024" viewBox="0 0 1024 1024" version="1.1">
	<path d="M 502.961 251.157 C 504.803 252.910, 507.322 253.752, 512.961 254.500 C 519.954 255.428, 520.520 255.681, 520.770 258 C 521.478 264.562, 522.244 267.081, 524.584 270.528 C 526.346 273.125, 526.642 274.076, 525.557 273.660 C 524.701 273.332, 524 273.461, 524 273.948 C 524 274.435, 524.563 275.037, 525.250 275.286 C 526.250 275.648, 526.250 276.162, 525.250 277.856 C 524.563 279.020, 524.014 282.341, 524.032 285.236 C 524.061 290.082, 524.180 290.346, 525.532 288.559 C 526.339 287.491, 527 287.029, 527 287.531 C 527 288.034, 527.706 287.437, 528.568 286.206 C 529.431 284.974, 530.543 284.217, 531.039 284.524 C 532.515 285.437, 533.351 280.128, 531.989 278.487 C 530.950 277.235, 531.170 277, 533.378 277 C 535.984 277, 536 277.049, 536 284.806 C 536 291.562, 536.336 293.067, 538.500 296 C 539.875 297.864, 541 298.934, 541 298.379 C 541 297.825, 542.590 296.612, 544.534 295.685 C 548.525 293.782, 550.414 293.521, 549.500 295 C 549.160 295.550, 549.359 296, 549.941 296 C 550.523 296, 551 295.325, 551 294.500 C 551 291.750, 562.508 294.369, 564.271 297.520 C 565.631 299.949, 568.808 297.095, 569.535 292.792 C 569.887 290.707, 570.538 289, 570.981 289 C 572.223 289, 572.924 286.424, 572.315 284.096 C 572.013 282.943, 571.144 282, 570.383 282 C 569.623 282, 569 281.084, 569 279.965 C 569 276.373, 566.039 273, 562.885 273 C 560.132 273, 560 273.207, 560 277.500 C 560 283.206, 557.551 283.753, 556.642 278.250 C 555.704 272.575, 555.746 272.434, 559.500 268.568 C 561.425 266.585, 562.984 264.409, 562.965 263.732 C 562.828 258.981, 556.444 255.046, 548.823 255.015 C 545.783 255.003, 544.608 255.650, 542.045 258.750 C 539.493 261.836, 538.774 262.234, 537.987 261 C 537.461 260.175, 537.024 259.799, 537.015 260.164 C 537.007 260.528, 535.763 260.498, 534.250 260.095 C 532.100 259.523, 531.391 258.630, 531 256.004 C 530.402 251.988, 526.226 250.692, 510.088 249.514 L 500.500 248.814 502.961 251.157" stroke="none" fill="black" fill-rule="evenodd"/>
</svg>