<svg xmlns="http://www.w3.org/2000/svg" width="1024" height="1024" viewBox="0 0 1024 1024" version="1.1">
	<path d="M 381 888.970 C 379.075 889.427, 374.357 890.503, 370.516 891.361 C 365.261 892.536, 363.074 893.551, 361.683 895.461 C 360.665 896.858, 359.379 898, 358.824 898 C 356.149 898, 353.366 901.538, 354.045 904.076 C 354.784 906.839, 352.617 911.296, 351.747 908.803 C 351.406 907.825, 350.756 907.976, 349.146 909.405 C 346.527 911.730, 346.130 909.619, 348.661 906.823 C 349.574 905.813, 350.086 904.753, 349.799 904.466 C 348.215 902.881, 332.054 922.741, 332.018 926.316 C 331.993 928.860, 330.085 932.145, 327.414 934.247 C 326.166 935.228, 324.608 937.712, 323.952 939.766 C 323.295 941.820, 322.363 943.928, 321.879 944.450 C 320.095 946.378, 320.496 946.684, 327.250 948.543 C 327.663 948.657, 328.381 948.806, 328.847 948.875 C 329.313 948.944, 330.183 950.013, 330.780 951.250 C 331.643 953.041, 331.878 953.143, 331.932 951.750 C 331.970 950.785, 332.785 949.989, 333.750 949.976 C 334.845 949.962, 336.330 948.185, 337.720 945.226 C 339.901 940.585, 341.298 938.220, 343.715 935.079 C 344.384 934.211, 346.285 931.607, 347.941 929.293 C 361.774 909.958, 397.312 901.875, 421.250 912.620 C 423.313 913.546, 425 914.636, 425 915.042 C 425 915.448, 427.018 916.728, 429.484 917.887 C 432.235 919.181, 434.890 921.445, 436.355 923.748 C 439.380 928.501, 437.808 929.854, 433.276 926.397 C 431.474 925.023, 430 924.094, 430 924.334 C 430 924.574, 428.438 923.339, 426.530 921.591 C 423.234 918.573, 415.308 916, 409.304 916 C 408.163 916, 406.008 915.367, 404.515 914.592 C 402.172 913.376, 401.324 913.384, 398.294 914.650 C 395.132 915.972, 394.603 915.951, 392.932 914.439 C 389.972 911.760, 375.720 914.514, 368.178 919.222 C 363.238 922.305, 361.081 923.553, 357.238 925.546 C 352.825 927.836, 348.792 932.770, 349.503 935.008 C 349.814 935.988, 349.347 937.510, 348.466 938.392 C 347.584 939.273, 347.095 940.783, 347.378 941.747 C 347.661 942.711, 347.278 944.850, 346.528 946.500 C 345.439 948.893, 345.138 949.095, 345.041 947.500 C 344.933 945.711, 344.776 945.765, 343.553 948.011 C 341.880 951.085, 342.637 956, 344.783 956 C 345.636 956, 346.043 956.290, 345.688 956.645 C 345.002 957.331, 335.040 958.669, 323.500 959.623 C 315.445 960.290, 312.263 961.995, 319.050 962.009 C 321.498 962.013, 325.863 962.301, 328.750 962.648 C 333.979 963.276, 334 963.293, 334.076 966.889 L 334.152 970.500 335.500 967 C 336.241 965.075, 336.882 964.288, 336.924 965.250 C 336.966 966.212, 337.655 967, 338.455 967 C 339.365 967, 340.129 968.404, 340.495 970.750 C 340.817 972.813, 341.522 976.159, 342.062 978.187 C 342.601 980.214, 342.938 982.239, 342.810 982.687 C 342.682 983.134, 342.892 984.992, 343.277 986.816 C 343.954 990.024, 344.116 990.120, 348.238 989.758 C 354.031 989.248, 357 987.475, 357 984.524 C 357 983.201, 357.485 981.819, 358.077 981.453 C 358.774 981.022, 359.038 981.795, 358.827 983.644 C 358.570 985.891, 359.222 987.086, 361.888 989.250 C 365.039 991.808, 365.920 992, 374.542 992 L 383.810 992 383.643 984 C 383.482 976.326, 384.200 973.903, 385.458 977.868 C 385.784 978.895, 386.106 981.483, 386.173 983.618 C 386.430 991.798, 386.714 992, 397.975 992 L 408 992 408 984.059 C 408 979.468, 408.454 975.837, 409.076 975.453 C 409.822 974.992, 410.053 977.431, 409.826 983.396 L 409.500 992.005 416.628 992.002 C 424.383 992, 425.455 991.366, 425.931 986.500 C 426.375 981.963, 426.343 980.955, 425.564 975 C 425.168 971.975, 425.217 969.950, 425.672 970.500 C 426.127 971.050, 427.625 971.500, 429 971.500 C 431.311 971.500, 431.523 971.897, 431.802 976.750 C 431.969 979.638, 432.419 981.993, 432.802 981.985 C 434.686 981.943, 436.250 979.961, 436.250 977.614 C 436.250 976.176, 436.644 975, 437.125 975 C 437.606 975, 438 974.325, 438 973.500 C 438 972.675, 437.550 972, 437 972 C 436.450 972, 436 970.902, 436 969.559 C 436 968.216, 435.550 966.840, 435 966.500 C 434.450 966.160, 434 964.748, 434 963.361 C 434 960.859, 434.046 960.846, 440.384 961.525 C 447.772 962.316, 453.776 961.131, 448.500 959.923 L 445.500 959.237 448.364 959.118 C 451.194 959.001, 451.219 958.947, 450.529 954.342 C 450.144 951.780, 448.572 946.943, 447.035 943.592 C 445.079 939.327, 444.579 937.279, 445.370 936.763 C 446.577 935.976, 451.991 946.130, 451.997 949.191 C 452.001 951.250, 453.621 952.422, 454.499 951.001 C 454.850 950.434, 456.615 949.352, 458.422 948.597 C 460.230 947.842, 461.923 946.386, 462.187 945.362 C 462.836 942.833, 460.328 937, 458.591 937 C 457.686 937, 457.371 936.299, 457.703 935.026 C 458.246 932.951, 455.039 924.010, 453.750 924.004 C 453.337 924.002, 453 923.311, 453 922.469 C 453 921.626, 452.325 920.678, 451.500 920.362 C 450.637 920.030, 450 918.537, 450 916.843 C 450 908.580, 436.072 896.485, 420.679 891.381 C 411.935 888.482, 388.950 887.085, 381 888.970" stroke="none" fill="black" fill-rule="evenodd"/>
</svg>