<svg xmlns="http://www.w3.org/2000/svg" width="1024" height="1024" viewBox="0 0 1024 1024" version="1.1">
	<path d="M 451.500 154.604 C 449.850 155.497, 447.469 157.301, 446.210 158.614 C 444.950 159.926, 443.084 161, 442.063 161 C 441.042 161, 438.736 162.676, 436.937 164.725 L 433.667 168.449 436.083 169.020 C 438.966 169.700, 439.090 170.670, 436.722 174 C 435.401 175.858, 434.738 176.170, 434.142 175.216 C 432.843 173.137, 430.002 174.942, 429.985 177.857 C 429.974 179.686, 429.709 180.089, 429.124 179.166 C 428.474 178.141, 427.782 178.462, 426.139 180.551 C 423.910 183.384, 423.272 187, 425 187 C 426.412 187, 426.241 188.616, 424.661 190.196 C 423.924 190.933, 423.060 192.203, 422.740 193.018 C 422.281 194.186, 422.141 194.129, 422.079 192.750 C 422.036 191.787, 421.714 191, 421.365 191 C 420.129 191, 416.069 196.054, 414.334 199.752 C 411.729 205.306, 410.167 206.644, 409.618 203.792 C 408.827 199.685, 409.348 196.530, 411.072 194.986 C 412.002 194.153, 412.945 192.578, 413.168 191.486 C 413.409 190.300, 414.242 189.614, 415.234 189.782 C 416.148 189.937, 417.366 189.184, 417.941 188.110 C 418.516 187.035, 419.606 185.536, 420.364 184.779 C 422.286 182.857, 425 177.419, 425 175.491 C 425 174.606, 425.385 174.120, 425.855 174.410 C 427.244 175.269, 434.194 164.386, 433.828 161.925 C 433.487 159.636, 433.435 159.680, 422.923 170.962 C 422.056 171.893, 420.314 174.644, 419.052 177.077 C 417.790 179.510, 415.913 183.075, 414.881 185 C 413.848 186.925, 412.812 188.950, 412.578 189.500 C 412.333 190.075, 411.745 189.918, 411.193 189.131 C 410.477 188.108, 409.020 190.005, 405.432 196.631 C 402.791 201.509, 400.371 205.725, 400.054 206 C 399.738 206.275, 398.402 208.846, 397.085 211.714 C 395.769 214.581, 394.311 216.692, 393.846 216.405 C 393.381 216.117, 392.984 216.921, 392.965 218.191 C 392.945 219.461, 392.286 221.625, 391.500 223 C 390.714 224.375, 390.055 226.281, 390.035 227.235 C 389.972 230.324, 383.977 239, 381.906 239 C 380.233 239, 380.146 239.260, 381.232 241 C 383.080 243.959, 386.580 243.519, 388.617 240.071 C 390.844 236.301, 394 235.305, 394 238.371 C 394 239.572, 393.355 241.476, 392.567 242.601 C 391.455 244.189, 391.350 245.613, 392.101 248.956 C 393.388 254.682, 393.046 254.807, 385.855 251.243 C 379.301 247.995, 376 248.329, 376 252.241 C 376 253.208, 375.550 254, 375 254 C 374.450 254, 374 254.723, 374 255.607 C 374 256.666, 373.457 257.006, 372.407 256.603 C 370.937 256.039, 370.521 256.625, 369.699 260.417 C 369.589 260.922, 370.474 261.406, 371.664 261.494 C 374.364 261.693, 386 271.642, 386 273.752 C 386 275.018, 386.325 274.950, 387.750 273.385 C 388.794 272.239, 390.508 271.583, 392 271.759 C 394.235 272.023, 394.306 271.935, 392.666 270.930 C 390.906 269.852, 390.917 269.726, 392.916 267.864 C 394.062 266.796, 395 265.096, 395 264.086 C 395 262.170, 400.215 260.397, 402.215 261.633 C 402.770 261.976, 403.591 261.662, 404.040 260.935 C 404.668 259.919, 405.412 259.867, 407.263 260.710 C 409.462 261.712, 409.770 261.525, 410.852 258.532 C 411.503 256.731, 411.777 254.583, 411.461 253.758 C 410.803 252.046, 413.690 248.690, 415.081 249.550 C 415.586 249.862, 416 249.191, 416 248.059 C 416 246.927, 416.355 246, 416.790 246 C 417.224 246, 419.773 241.542, 422.454 236.094 C 425.384 230.138, 427.806 226.372, 428.528 226.649 C 429.317 226.952, 429.958 225.377, 430.398 222.055 C 430.767 219.275, 431.474 217, 431.970 217 C 432.465 217, 433.440 215.425, 434.136 213.500 C 434.832 211.575, 435.730 210, 436.131 210 C 436.532 210, 437.903 207.863, 439.179 205.250 C 440.454 202.637, 441.773 200.275, 442.110 200 C 443.617 198.767, 446.092 192.683, 445.604 191.410 C 445.262 190.520, 445.723 190, 446.853 190 C 448.403 190, 450.637 186.382, 453.886 178.606 C 454.099 178.097, 453.642 177.923, 452.872 178.219 C 452.101 178.515, 449.938 177.477, 448.064 175.913 C 443.896 172.432, 446.142 170.626, 451.381 173.246 C 457.112 176.113, 457.630 176.044, 460.891 171.986 C 462.601 169.858, 464 167.299, 464 166.299 C 464 165.299, 464.917 163.908, 466.039 163.208 C 468.669 161.565, 467.674 160, 464 160 C 460.588 160, 459.345 158.494, 461.056 156.432 C 462.617 154.552, 462.056 154.026, 457.874 153.448 C 455.839 153.166, 453.310 153.625, 451.500 154.604" stroke="none" fill="black" fill-rule="evenodd"/>
</svg>