<svg xmlns="http://www.w3.org/2000/svg" width="1024" height="1024" viewBox="0 0 1024 1024" version="1.1">
	<path d="M 998.554 764.720 C 998.076 765.967, 992.180 765.818, 988.750 764.472 C 987.788 764.095, 987 764.221, 987 764.754 C 987 765.286, 985.425 765.596, 983.500 765.444 C 981.575 765.291, 979.942 765.466, 979.871 765.833 C 978.830 771.220, 979.597 775, 981.732 775 C 982.899 775, 983.105 775.723, 982.625 778.125 C 982.281 779.844, 982 781.699, 982 782.247 C 982 782.796, 981.314 782.676, 980.476 781.980 C 979.638 781.284, 978.625 781.066, 978.226 781.494 C 977.827 781.923, 978.063 782.475, 978.750 782.720 C 979.438 782.966, 979.964 783.917, 979.921 784.833 C 979.872 785.873, 979.652 786.030, 979.338 785.250 C 978.466 783.089, 976.829 783.885, 977.540 786.125 C 977.954 787.431, 977.831 788.014, 977.221 787.636 C 976.031 786.901, 974.715 791.193, 975.893 791.964 C 976.343 792.259, 977.131 794.300, 977.643 796.500 C 978.176 798.787, 979.167 800.500, 979.957 800.500 C 981.652 800.500, 986.583 810.044, 987.705 815.500 C 988.522 819.468, 988.563 819.498, 992.764 819.232 C 997.270 818.947, 997.030 818.641, 997.451 825.197 C 997.511 826.130, 997.876 827.209, 998.262 827.595 C 998.648 827.981, 998.698 829.355, 998.373 830.648 C 998.049 831.942, 998.207 833, 998.725 833 C 999.243 833, 999.667 833.675, 999.667 834.500 C 999.667 835.325, 999.292 836, 998.833 836 C 998.375 836, 998 836.653, 998 837.450 C 998 838.248, 997.261 839.314, 996.358 839.819 C 995.238 840.446, 994.905 841.494, 995.311 843.119 C 995.637 844.429, 996.199 846.850, 996.559 848.500 C 996.919 850.150, 998.545 852.638, 1000.173 854.028 C 1003.159 856.580, 1004.892 864.034, 1003.072 866.500 C 1002.318 867.522, 1003.048 877.230, 1004.953 891.500 C 1007.403 909.857, 1009.919 938.155, 1009.353 940.987 C 1008.293 946.285, 1004.945 944.523, 992.136 931.924 C 985.736 925.629, 978.587 918.778, 976.250 916.699 C 973.913 914.620, 972 912.314, 972 911.575 C 972 910.835, 970.894 909.505, 969.541 908.619 C 967.884 907.533, 966.433 904.904, 965.089 900.551 C 963.992 897, 962.173 893.173, 961.047 892.047 C 959.921 890.921, 959 889.057, 959 887.904 C 959 886.752, 958.097 884.540, 956.993 882.990 C 955.888 881.439, 954.717 877.994, 954.388 875.335 C 953.569 868.698, 951.925 865.134, 949.524 864.790 C 947.904 864.558, 947.374 863.501, 946.868 859.500 C 946.521 856.750, 945.670 853.150, 944.978 851.500 C 941.724 843.745, 941.174 842.335, 940.496 840 C 939.168 835.426, 935.016 828.433, 931.298 824.507 C 930.636 823.809, 930.335 822.998, 930.629 822.705 C 930.922 822.411, 930.699 821.306, 930.133 820.249 C 929.282 818.659, 928.273 818.398, 924.302 818.742 L 919.500 819.158 919.210 814.829 C 918.954 811.012, 916 805.451, 916 808.786 C 916 809.493, 914.620 810, 912.691 810 L 909.382 810 909.781 804.401 L 910.179 798.802 907.049 799.489 C 903.847 800.193, 900.507 798.606, 901.570 796.887 C 901.871 796.399, 901.589 796, 900.942 796 C 900.259 796, 899.986 795.162, 900.290 794 C 900.577 792.900, 900.447 792, 900 792 C 899.553 792, 899.423 791.100, 899.710 790 C 900.014 788.838, 899.741 788, 899.058 788 C 898.376 788, 898.204 787.478, 898.649 786.758 C 901.826 781.619, 899.085 771.675, 894.783 772.730 C 890.420 773.799, 889.980 774.801, 890.551 782.367 C 891.751 798.277, 891.757 798.148, 889.685 800.079 C 888.189 801.473, 887.259 801.674, 885.836 800.912 C 883.025 799.408, 881.706 800.804, 882.327 804.627 C 882.660 806.680, 882.460 808, 881.815 808 C 881.129 808, 881.089 808.442, 881.701 809.250 C 882.979 810.939, 883.115 815, 881.894 815 C 881.354 815, 880.985 815.563, 881.075 816.250 C 881.164 816.938, 881.184 817.967, 881.118 818.537 C 880.977 819.774, 877 820.251, 877 819.031 C 877 817.755, 873.011 819.062, 872.926 820.367 C 872.885 820.990, 872.666 822.490, 872.440 823.700 C 872.213 824.909, 872.479 826.178, 873.030 826.519 C 875.031 827.755, 872.900 828.832, 870.062 828.018 C 868.461 827.559, 866.885 827.448, 866.560 827.773 C 866.236 828.098, 863.603 828.254, 860.710 828.120 L 855.450 827.876 855.358 840.547 C 855.292 849.603, 854.905 853.440, 854.001 853.999 C 853.091 854.562, 853.335 854.972, 854.868 855.458 C 856.041 855.830, 857 856.581, 857 857.126 C 857 857.672, 856.550 857.840, 856 857.500 C 855 856.882, 854.535 858.850, 854.850 862.365 C 854.999 864.026, 854.517 864.155, 850.451 863.545 L 845.885 862.860 846.193 867.680 L 846.500 872.500 842.589 872.390 C 838.971 872.289, 836.764 870.792, 835.751 867.752 C 835.461 866.883, 831.392 865.943, 826.750 865.673 C 825.788 865.617, 825 864.993, 825 864.286 C 825 863.579, 824.427 863, 823.727 863 C 821.999 863, 820.072 854.237, 821.050 850.827 C 821.481 849.323, 822.996 846.838, 824.417 845.306 C 828.718 840.668, 826.348 835, 820.107 835 C 818.408 835, 816.967 834.356, 816.615 833.439 C 816.186 832.322, 814.948 831.967, 812.258 832.189 C 806.716 832.648, 805.582 837.576, 809.433 844.472 C 813.982 852.622, 813.839 864, 809.187 864 C 807.673 864, 807.293 864.837, 807.155 868.471 C 807.018 872.099, 807.272 872.833, 808.504 872.360 C 809.604 871.938, 809.848 872.233, 809.389 873.430 C 808.969 874.522, 809.219 874.983, 810.127 874.791 C 811.680 874.462, 811.723 874.982, 810.582 880.276 C 809.925 883.323, 809.503 883.832, 808.396 882.913 C 807.337 882.035, 806.878 882.153, 806.388 883.431 C 805.800 884.965, 805.615 884.962, 803.876 883.388 C 802.844 882.454, 801.993 882.097, 801.985 882.595 C 801.976 883.093, 801.555 882.846, 801.049 882.046 C 800.543 881.246, 800.469 879.985, 800.884 879.243 C 802.160 876.963, 800.948 872.220, 798.957 871.699 C 797.221 871.245, 794 873.694, 794 875.468 C 794 875.915, 793.318 876.779, 792.484 877.390 C 791.506 878.106, 790.636 881.410, 790.033 886.705 C 789.041 895.412, 787.569 899.271, 784.010 902.491 C 779.402 906.661, 779.509 907.470, 785.777 915.758 C 794.744 927.616, 798.585 933.820, 803.595 944.540 C 806.123 949.950, 809.498 955.597, 811.095 957.089 C 813.435 959.275, 814.002 960.648, 814.011 964.151 C 814.032 972.537, 815.034 975.838, 817.874 976.879 C 820.330 977.780, 820.354 977.847, 818.250 977.921 C 816.693 977.976, 816 978.616, 816 980 C 816 981.877, 816.667 982, 826.839 982 L 837.678 982 837.503 984.956 C 837.281 988.675, 838.731 989.053, 854.751 989.452 C 890.664 990.346, 899.192 989.801, 898.945 986.626 C 898.524 981.238, 898.740 981, 904.060 981 L 909.121 981 908.810 984.746 C 908.538 988.028, 908.129 988.557, 905.500 989.023 C 901.180 989.789, 904.363 990.596, 911.500 990.544 L 917.500 990.500 917.807 985.698 L 918.114 980.895 922.807 981.198 C 926.823 981.456, 927.468 981.789, 927.277 983.500 C 926.422 991.163, 925.932 990.472, 932.449 990.793 C 935.721 990.954, 939.018 991.600, 939.775 992.229 C 940.809 993.086, 941.330 993.084, 941.864 992.221 C 942.268 991.566, 946.762 990.776, 952.289 990.387 L 962.002 989.705 963.040 985.852 L 964.077 982 972.539 982 L 981 982 980.992 986.250 C 980.982 992.040, 978.688 993, 964.872 993 L 954.142 993 954.321 996.570 C 954.489 999.926, 954.669 1000.106, 957.330 999.579 C 959.224 999.203, 960.033 999.400, 959.776 1000.172 C 959.055 1002.336, 947.590 1003.256, 943.965 1001.441 C 942.055 1000.484, 932.348 1000.169, 904.572 1000.162 C 876.908 1000.156, 867.527 999.853, 866.968 998.949 C 866.559 998.286, 865.723 998.053, 865.112 998.431 C 864.500 998.809, 864 998.641, 864 998.059 C 864 997.477, 864.408 997, 864.906 997 C 865.405 997, 865.577 996.100, 865.290 995 C 864.857 993.344, 863.926 993, 859.883 993 C 855.667 993, 855 993.273, 855 995 C 855 997.166, 855.652 997.068, 840.326 997.205 C 833.592 997.264, 832.881 997.440, 834.517 998.636 C 836.781 1000.291, 836.447 1000.342, 825.314 1000.031 C 820.812 999.905, 816.537 1000.184, 815.814 1000.651 C 815.091 1001.118, 813.825 1001.516, 813 1001.536 C 809.089 1001.628, 802.334 1003.364, 800.874 1004.652 C 797.424 1007.694, 792.691 1007.425, 790.500 1004.061 C 789.400 1002.372, 787.952 1001.198, 787.282 1001.451 C 786.612 1001.705, 785.806 1001.495, 785.490 1000.983 C 785.143 1000.423, 751.523 1000.066, 700.708 1000.084 C 654.393 1000.100, 615.487 1000.088, 614.250 1000.057 C 612.882 1000.022, 612 999.376, 612 998.407 C 612 996.294, 589.131 996.597, 587.498 998.732 C 586.389 1000.182, 494.051 1001.267, 491.769 999.857 C 491.124 999.458, 490.129 999.421, 489.558 999.773 C 488.987 1000.126, 483.054 1000.282, 476.373 1000.121 C 468.405 999.928, 463.994 1000.201, 463.553 1000.913 C 462.790 1002.148, 449.381 1002.425, 448.637 1001.221 C 447.898 1000.026, 411 999.810, 411 1001.001 C 411 1002.323, 392.719 1002.319, 391.396 1000.996 C 390.046 999.646, 335.644 999.635, 331.007 1000.984 C 326.474 1002.302, 305.313 1002.316, 304.500 1001 C 303.507 999.393, 296.065 999.849, 292.917 1001.708 C 290.190 1003.319, 289.953 1003.319, 288.762 1001.709 C 286.899 999.188, 243.817 999.067, 236.468 1001.562 C 233.019 1002.733, 230.124 1003.020, 226.549 1002.543 C 220.588 1001.750, 218.829 1001.750, 213.500 1002.544 C 211.020 1002.913, 208.244 1002.607, 206.195 1001.737 C 203.341 1000.526, 201.975 1000.537, 196.195 1001.821 C 192.513 1002.639, 186.575 1003.243, 183 1003.163 C 179.425 1003.084, 173.531 1003.030, 169.902 1003.044 C 165.165 1003.063, 162.944 1002.637, 162.029 1001.535 C 160.931 1000.212, 161.175 1000, 163.794 1000 C 165.466 1000, 167.021 999.438, 167.250 998.750 C 167.649 997.552, 168.903 997.346, 177.250 997.107 C 180.298 997.020, 181 996.625, 181 995 C 181 993.889, 181.667 993, 182.500 993 C 183.325 993, 184 992.550, 184 992 C 184 991.450, 186.438 991, 189.418 991 C 197.268 991, 198 990.522, 198 985.393 L 198 981 206.940 981 L 215.879 981 216.190 984.750 C 216.496 988.456, 216.555 988.504, 221.187 988.802 L 225.873 989.104 226.187 985.360 C 226.643 979.904, 231.832 978.507, 236.178 982.670 C 238.413 984.812, 239.285 985.157, 239.910 984.146 C 240.438 983.291, 242.264 982.938, 245.103 983.143 C 248.438 983.384, 249.552 983.089, 249.780 981.905 C 250.350 978.944, 260.119 975.765, 261.547 978.075 C 261.987 978.787, 264.668 978.921, 269.480 978.470 C 277.316 977.735, 282.501 979.531, 281.333 982.575 C 280.613 984.452, 280.745 984.425, 286.982 981.416 C 289.986 979.967, 293.373 979.029, 294.693 979.282 C 296.724 979.670, 298.220 978.789, 298.566 977 C 299.784 970.712, 302.822 968.740, 308.176 970.760 C 312.765 972.492, 311.581 970.068, 305.121 964.500 C 295.456 956.171, 289.402 945.789, 291.888 941.808 C 292.537 940.769, 292.722 939.374, 292.299 938.709 C 291.876 938.044, 291.467 936.712, 291.390 935.750 C 291.113 932.291, 290.979 932.071, 289.500 932.638 C 288.221 933.129, 287.998 931.537, 287.985 921.857 C 287.976 915.611, 287.639 909.998, 287.235 909.385 C 285.997 907.507, 282.414 906.892, 279.394 908.040 C 277.816 908.640, 273.032 909.180, 268.762 909.239 C 264.493 909.299, 261 909.719, 261 910.174 C 261 910.628, 261.563 911.007, 262.250 911.015 C 263.154 911.026, 263.183 911.234, 262.357 911.765 C 261.728 912.169, 261.351 913.737, 261.519 915.250 C 261.800 917.787, 261.541 918.009, 258.162 918.118 C 256.148 918.184, 253.938 918.164, 253.250 918.075 C 252.563 917.985, 251.993 918.945, 251.985 920.206 C 251.960 923.916, 250.362 925.434, 246.303 925.606 C 244.212 925.695, 239.186 926.234, 235.136 926.804 C 231.086 927.375, 226.811 927.612, 225.636 927.332 C 224.461 927.052, 222.488 926.585, 221.250 926.295 C 219.945 925.989, 219 926.236, 219 926.883 C 219 927.498, 218.523 928, 217.941 928 C 217.359 928, 217.160 927.550, 217.500 927 C 217.840 926.450, 217.641 926, 217.059 926 C 216.477 926, 216 926.421, 216 926.936 C 216 927.451, 213.924 927.678, 211.387 927.440 L 206.774 927.008 207.214 930.004 C 207.456 931.652, 207.296 933, 206.858 933 C 206.421 933, 206.307 933.636, 206.605 934.412 C 207.036 935.536, 205.827 935.835, 200.687 935.875 C 197.135 935.902, 193.839 935.994, 193.364 936.080 C 190.295 936.636, 189.222 935.706, 188.392 931.771 C 187.550 927.780, 187.302 927.541, 184 927.521 C 180.597 927.501, 180.486 927.376, 180 923 L 179.500 918.500 175.167 918.188 C 171.884 917.952, 170.967 917.528, 171.385 916.438 C 171.689 915.647, 171.600 915, 171.188 915 C 170.776 915, 169.913 913.609, 169.272 911.909 C 168.630 910.208, 167.672 909.085, 167.143 909.412 C 164.479 911.058, 163 908.730, 163 902.893 C 163 899.652, 162.662 897, 162.250 896.999 C 161.137 896.998, 161.028 891.680, 162.114 890.367 C 162.730 889.622, 162.534 889.035, 161.542 888.655 C 160.713 888.336, 160.246 887.496, 160.506 886.788 C 161.341 884.515, 159.282 882.688, 155.993 882.781 C 151.754 882.902, 151.743 882.922, 151.723 890.463 C 151.709 895.417, 151.363 897, 150.294 897 C 149.517 897, 149.094 897.342, 149.352 897.761 C 149.909 898.661, 147.231 902.567, 146.207 902.350 C 145.818 902.268, 145.667 902.718, 145.872 903.350 C 147.029 906.929, 146.956 907.734, 145.309 909.529 C 143.235 911.788, 140.119 912.087, 138.144 910.215 C 137.074 909.201, 136.479 909.188, 135.318 910.151 C 134.371 910.937, 133.607 911.016, 133.174 910.374 C 132.279 909.050, 127.699 909.096, 126.750 910.439 C 126.230 911.174, 125.767 911.141, 125.241 910.331 C 124.824 909.689, 122.976 909.014, 121.134 908.831 L 117.786 908.500 117.353 900.044 C 116.845 890.106, 117.303 890.832, 111.168 890.242 C 105.552 889.702, 102 891.184, 102 894.067 C 102 895.164, 101.366 896.306, 100.591 896.604 C 99.540 897.007, 99.395 897.889, 100.021 900.072 C 100.483 901.683, 100.538 903, 100.143 903 C 99.748 903, 99.316 904.433, 99.183 906.184 C 99.049 907.934, 98.467 909.938, 97.888 910.636 C 97.309 911.333, 97.128 912.828, 97.486 913.957 C 97.926 915.341, 97.627 916.206, 96.569 916.612 C 95.706 916.943, 95 918.343, 95 919.724 C 95 921.741, 94.608 922.131, 93 921.710 C 91.431 921.300, 91 921.680, 91 923.471 C 91 926.429, 88.215 928.965, 87.045 927.073 C 86.416 926.054, 86.152 926.043, 85.826 927.021 C 85.528 927.917, 84.910 927.767, 83.631 926.488 C 81.363 924.221, 74.756 923.726, 71.224 925.560 C 69.726 926.338, 67.717 926.726, 66.759 926.423 C 65.801 926.119, 64.474 926.207, 63.809 926.618 C 62.110 927.668, 58 927.738, 58 926.716 C 58 926.248, 57.132 926.141, 56.071 926.477 C 54.324 927.032, 54.143 926.565, 54.143 921.508 C 54.143 909.729, 50.948 904.480, 45.500 907.309 C 40.828 909.735, 37.608 909.680, 35.247 907.133 C 34 905.787, 33.234 904.433, 33.544 904.122 C 33.855 903.812, 34.474 904.149, 34.920 904.871 C 35.486 905.786, 35.896 905.323, 36.274 903.344 C 36.584 901.727, 36.319 900.148, 35.659 899.676 C 34.861 899.106, 34.834 898.708, 35.573 898.399 C 36.163 898.153, 36.456 896.655, 36.224 895.070 C 35.857 892.573, 36.281 891.961, 39.400 890.480 C 43.240 888.658, 44.476 883.876, 41.800 881.200 C 40.043 879.443, 32.947 879.690, 31.583 881.556 C 30.075 883.618, 26.870 884.013, 25.199 882.342 C 24.461 881.604, 22.750 881, 21.397 881 C 18.900 881, 18.635 880.637, 17.564 875.750 C 16.740 871.987, 11.965 871.829, 10 875.500 C 9.264 876.875, 8.328 878, 7.920 878 C 7.062 878, 7.241 879.996, 8.241 881.594 C 9.482 883.578, 7.869 889.997, 6.119 890.033 C 5.229 890.052, 3.488 890.911, 2.250 891.944 L 0 893.821 0 958.911 L -0 1024.002 512.250 1023.751 L 1024.500 1023.500 1024.830 1012.500 C 1025.821 979.415, 1023.712 782.994, 1022.378 784.101 C 1021.333 784.969, 1021 784.944, 1021 784 C 1021 783.007, 1020.697 783.007, 1019.500 784 C 1018.675 784.685, 1018 784.802, 1018 784.261 C 1018 783.720, 1016.892 783.489, 1015.538 783.748 C 1012.746 784.282, 1009.461 781.681, 1010.600 779.838 C 1011.092 779.042, 1010.788 778.867, 1009.664 779.299 C 1008.577 779.716, 1008 779.428, 1008 778.469 C 1008 777.661, 1008.436 777, 1008.969 777 C 1009.501 777, 1009.679 776.328, 1009.364 775.506 C 1009.048 774.684, 1008.462 774.214, 1008.061 774.462 C 1007.659 774.710, 1007.375 772.686, 1007.428 769.965 C 1007.512 765.678, 1007.290 765.091, 1005.769 765.573 C 1004.587 765.949, 1004.178 765.701, 1004.517 764.815 C 1004.865 763.908, 1004.091 763.500, 1002.022 763.500 C 1000.372 763.500, 998.811 764.049, 998.554 764.720 M 0.472 958.500 C 0.472 994.800, 0.597 1009.505, 0.750 991.177 C 0.902 972.850, 0.902 943.150, 0.749 925.177 C 0.597 907.205, 0.472 922.200, 0.472 958.500" stroke="none" fill="black" fill-rule="evenodd"/>
</svg>