<svg xmlns="http://www.w3.org/2000/svg" width="1024" height="1024" viewBox="0 0 1024 1024" version="1.1">
	<path d="M 424.701 108.664 C 425.133 109.788, 424.958 110.092, 424.162 109.600 C 423.515 109.200, 422.313 109.544, 421.492 110.365 C 419.813 112.045, 419.467 116, 421 116 C 421.550 116, 422 116.684, 422 117.519 C 422 118.648, 421.345 118.874, 419.449 118.398 C 416.719 117.713, 414.981 119.173, 412.698 124.071 C 411.198 127.289, 405.871 131.949, 400 135.180 C 393.633 138.683, 391.558 139.017, 388.327 137.056 C 385.103 135.098, 378.442 135.415, 376.226 137.631 C 374.462 139.395, 368 134.804, 368 131.786 C 368 129.231, 364.140 123.795, 362.880 124.574 C 362.348 124.903, 361.302 124.665, 360.556 124.046 C 359.454 123.132, 359.068 123.870, 358.506 127.959 C 358.124 130.730, 357.383 133.263, 356.858 133.588 C 355.967 134.138, 356.458 140.966, 357.711 145.437 C 358.222 147.261, 358.328 147.272, 359.531 145.627 C 360.241 144.656, 361.073 144.309, 361.405 144.846 C 362.258 146.226, 366 145.035, 366 143.383 C 366 141.097, 367.836 141.826, 368.180 144.250 C 368.356 145.488, 368.950 146.415, 369.500 146.311 C 370.050 146.206, 371.465 147.028, 372.645 148.136 C 373.858 149.276, 375.049 149.729, 375.389 149.180 C 375.948 148.276, 386.585 146.516, 397 145.605 C 399.475 145.388, 403.295 144.973, 405.489 144.683 C 407.987 144.352, 409.756 144.593, 410.223 145.327 C 410.653 146.002, 411.006 145.226, 411.055 143.500 C 411.129 140.915, 411.259 140.777, 412 142.500 C 412.585 143.862, 412.892 144.021, 412.962 143 C 413.041 141.838, 413.394 141.937, 414.532 143.441 C 415.967 145.338, 416 145.332, 416 143.191 C 416 141.132, 416.908 140.567, 419.672 140.907 C 420.316 140.987, 421.051 140.253, 421.306 139.276 C 421.725 137.663, 421.779 137.673, 421.884 139.385 C 421.988 141.073, 422.191 141.021, 423.827 138.885 C 429.406 131.603, 431.281 123.377, 428.561 118.118 C 427.725 116.501, 427.340 113.949, 427.643 112.027 C 427.982 109.875, 427.699 108.425, 426.832 107.875 C 424.763 106.563, 424.003 106.844, 424.701 108.664" stroke="none" fill="black" fill-rule="evenodd"/>
</svg>