<svg xmlns="http://www.w3.org/2000/svg" width="1024" height="1024" viewBox="0 0 1024 1024" version="1.1">
	<path d="M 581.556 184.910 C 581.247 185.410, 581.296 186.609, 581.667 187.574 C 582.090 188.676, 581.951 189.088, 581.293 188.681 C 580.017 187.893, 570 190.748, 570 191.900 C 570 192.352, 568.859 192.505, 567.465 192.238 C 565.921 191.943, 564.210 192.405, 563.089 193.419 C 562.076 194.336, 559.617 195.350, 557.624 195.674 C 553.025 196.420, 553.060 196.661, 558.610 202.453 C 561.999 205.991, 563.433 206.917, 564.030 205.952 C 564.475 205.231, 565.439 204.507, 566.170 204.344 C 566.902 204.180, 569.719 203.492, 572.430 202.814 C 576.279 201.851, 577.449 201.846, 577.763 202.790 C 578.444 204.832, 581.349 204.133, 584.513 201.166 C 586.170 199.613, 588.082 198.527, 588.763 198.754 C 589.600 199.033, 590 197.946, 590 195.392 C 590 191.859, 590.094 191.742, 591.468 193.559 C 592.892 195.441, 592.937 195.428, 592.968 193.118 C 593.028 188.619, 583.499 181.765, 581.556 184.910" stroke="none" fill="black" fill-rule="evenodd"/>
</svg>