<svg xmlns="http://www.w3.org/2000/svg" width="1024" height="1024" viewBox="0 0 1024 1024" version="1.1">
	<path d="M 651.278 239.250 C 650.746 239.938, 650.030 241.287, 649.687 242.250 C 648.798 244.744, 645 244.541, 645 242 C 645 239.834, 643.022 239.410, 640.236 240.977 C 639.281 241.515, 632.200 243.542, 624.500 245.483 C 609.959 249.149, 605.550 251.550, 610.201 253.270 C 613.085 254.337, 614.139 255.990, 613.548 258.522 C 613.090 260.484, 613.334 260.517, 621.941 259.639 C 626.816 259.141, 632.039 259.044, 633.547 259.423 C 638.998 260.791, 634.206 262.142, 620.470 263.109 C 605.787 264.143, 605 264.319, 605 266.559 C 605 267.701, 606.816 268.008, 613.750 268.039 C 618.563 268.060, 626.209 268.139, 630.742 268.214 C 635.275 268.289, 639.287 268.046, 639.658 267.675 C 640.030 267.304, 641.992 267, 644.019 267 C 651.371 267, 657.883 260.133, 652.304 258.262 L 649.500 257.322 653 255.522 C 654.925 254.531, 656.831 253.221, 657.235 252.610 C 658.306 250.991, 658.161 247.221, 657.012 246.833 C 656.431 246.637, 656.652 245.293, 657.549 243.566 C 658.387 241.952, 658.845 240.039, 658.568 239.316 C 657.926 237.644, 652.558 237.595, 651.278 239.250" stroke="none" fill="black" fill-rule="evenodd"/>
</svg>