<svg xmlns="http://www.w3.org/2000/svg" width="1024" height="1024" viewBox="0 0 1024 1024" version="1.1">
	<path d="M 627.428 746.328 C 626.673 748.293, 628.735 753, 630.350 753 C 631.120 753, 632.031 754.406, 632.375 756.125 C 633.299 760.744, 633.169 761.385, 631.577 760.064 C 630.426 759.109, 630.070 759.324, 629.713 761.192 C 629.322 763.243, 629.257 763.194, 629.136 760.750 C 628.981 757.622, 627.585 757.165, 626.080 759.750 C 625.265 761.149, 625.038 761.199, 624.949 760 C 624.760 757.461, 622.094 764.310, 622.030 767.500 C 621.988 769.573, 621.704 770.081, 621.110 769.143 C 620.411 768.040, 620.100 768.029, 619.448 769.084 C 618.978 769.845, 619.133 770.544, 619.823 770.774 C 620.476 770.992, 620.939 772.798, 620.864 774.833 C 620.777 777.161, 620.569 777.678, 620.294 776.250 C 620.056 775.013, 619.501 774, 619.061 774 C 617.864 774, 616.874 781.444, 618.020 781.833 C 619.463 782.324, 619.213 794.361, 617.700 797.277 C 616.432 799.722, 616.361 799.736, 614.839 797.860 C 613.352 796.027, 613.228 796.138, 612.221 800.218 C 611.185 804.413, 609.328 814.799, 606.853 830.245 C 606.078 835.081, 605.295 837.522, 604.769 836.745 C 604.243 835.968, 604.034 836.629, 604.213 838.500 C 604.371 840.150, 604.950 841.505, 605.500 841.511 C 607.991 841.539, 614.406 849.574, 615.053 853.476 C 615.419 855.689, 616.056 858.737, 616.468 860.250 C 617.059 862.420, 616.878 863, 615.608 863 C 614.545 863, 613.966 863.931, 613.900 865.750 L 613.801 868.500 612.957 866 C 612.461 864.527, 612.351 867.892, 612.689 874.189 C 613.177 883.256, 613.017 885.126, 611.632 886.510 C 609.379 888.764, 609.584 890.501, 612.482 893.733 C 613.847 895.255, 617.243 899.425, 620.028 903 C 622.814 906.575, 625.747 910.293, 626.546 911.261 C 627.346 912.230, 628 913.953, 628 915.091 C 628 916.868, 628.421 917.066, 631 916.500 C 633.019 916.056, 634 916.229, 634 917.029 C 634 917.783, 634.875 917.997, 636.396 917.616 C 638.056 917.199, 638.977 917.498, 639.396 918.589 C 640.329 921.021, 640.111 924, 639 924 C 638.450 924, 638 924.675, 638 925.500 C 638 927.190, 640.547 927.542, 641.510 925.984 C 641.856 925.425, 642.586 925.244, 643.134 925.583 C 643.733 925.953, 643.445 926.956, 642.410 928.099 C 638.531 932.385, 643.330 929.558, 650.658 923.238 C 654.971 919.519, 660.621 915.132, 663.213 913.488 C 668.179 910.340, 668.714 909.202, 666.857 905.732 C 665.999 904.129, 665.999 903.500, 666.857 903.214 C 667.485 903.005, 668 902.244, 668 901.524 C 668 899.905, 670.485 898.865, 672.503 899.639 C 673.528 900.033, 674.440 899.182, 675.372 896.966 C 676.271 894.827, 676.932 894.192, 677.305 895.108 C 677.741 896.179, 678.327 895.981, 679.851 894.244 C 681.170 892.740, 681.968 892.404, 682.245 893.235 C 683.047 895.640, 686.005 891.246, 686.623 886.731 C 687.204 882.498, 690.205 878.905, 691.463 880.939 C 692.704 882.948, 698 878.935, 698 875.986 C 698 874.409, 698.450 872.840, 699 872.500 C 699.550 872.160, 700 872.407, 700 873.048 C 700 873.689, 700.663 873.960, 701.474 873.649 C 702.286 873.337, 703.394 873.849, 703.943 874.792 C 704.491 875.731, 704.953 876.037, 704.970 875.470 C 704.986 874.904, 707.250 873.567, 710 872.500 C 712.750 871.433, 715 870.262, 715 869.899 C 715 869.535, 717.025 868.728, 719.500 868.104 L 724 866.971 724 861.593 C 724 854.990, 726.898 852.397, 727.142 858.781 L 727.284 862.500 727.892 858.853 C 728.400 855.807, 728.712 855.436, 729.789 856.603 C 730.499 857.371, 730.724 858.007, 730.289 858.015 C 729.855 858.024, 730.175 858.508, 731 859.091 C 732.100 859.869, 732.174 860.285, 731.280 860.650 C 730.397 861.009, 730.535 861.653, 731.780 862.974 C 733.313 864.602, 734.725 864.742, 744.750 864.259 L 756 863.717 756 857.917 C 756 852.443, 754.779 849.478, 753.664 852.244 C 753.376 852.958, 753.124 852.692, 753.079 851.628 C 753.016 850.137, 752.714 849.992, 751.597 850.919 C 750.520 851.813, 750.074 851.784, 749.676 850.792 C 749.280 849.803, 749.139 849.793, 749.079 850.750 C 749.036 851.438, 748.606 852, 748.126 852 C 747.645 852, 747.469 848.063, 747.735 843.250 C 748.001 838.438, 747.760 832.925, 747.200 831 C 746.330 828.013, 746.163 827.866, 746.058 830 C 745.941 832.409, 745.883 832.429, 744.479 830.573 C 742.828 828.391, 741.966 828.803, 741.734 831.887 C 741.646 833.049, 741.220 834, 740.787 834 C 739.679 834, 739.801 839.761, 740.918 840.167 C 742.826 840.860, 740.843 846.192, 738.869 845.676 C 737.842 845.407, 736.768 845.567, 736.481 846.030 C 736.195 846.494, 735.095 846.808, 734.036 846.728 C 731.651 846.548, 730.658 843.029, 731.998 839.504 C 732.549 838.055, 732.955 835.887, 732.900 834.685 C 732.808 832.658, 732.743 832.680, 732 835 C 731.344 837.047, 731.181 836.650, 731.100 832.809 C 731.002 828.193, 729.695 825.782, 728.625 828.244 C 728.325 828.935, 728.095 826.350, 728.115 822.500 C 728.166 812.777, 728.213 813, 726.117 813 C 723.757 813, 723.060 815.504, 722.914 824.500 C 722.748 834.752, 721.741 836.890, 718.150 834.614 C 717.084 833.938, 716.912 831.060, 717.333 820.944 L 717.866 808.130 715.183 807.618 C 713.707 807.336, 710.138 806.815, 707.250 806.459 C 703.160 805.955, 702 805.425, 702 804.060 C 702 802.740, 700.150 801.771, 694.500 800.129 C 690.375 798.930, 687 797.396, 687 796.718 C 687 795.359, 679.401 792.634, 678.010 793.494 C 677.529 793.791, 676.993 792.807, 676.818 791.307 C 676.590 789.352, 675.793 788.414, 674.005 787.996 C 672.604 787.668, 671.350 786.555, 671.144 785.456 C 670.942 784.380, 670.152 783.140, 669.389 782.700 C 668.625 782.260, 668 781.332, 668 780.637 C 668 779.282, 662.910 774, 661.603 774 C 661.170 774, 659.679 773.106, 658.290 772.014 C 656.901 770.921, 655.368 770.273, 654.882 770.573 C 654.397 770.873, 654 770.685, 654 770.155 C 654 769.160, 650.695 765.108, 643.113 756.804 C 639.008 752.308, 636 750.700, 636 753 C 636 755.544, 634.019 753.620, 633.436 750.509 C 633.075 748.589, 632.377 747.267, 631.883 747.572 C 631.390 747.877, 630.716 747.423, 630.386 746.563 C 629.652 744.652, 628.118 744.530, 627.428 746.328" stroke="none" fill="black" fill-rule="evenodd"/>
</svg>