<svg xmlns="http://www.w3.org/2000/svg" width="1024" height="1024" viewBox="0 0 1024 1024" version="1.1">
	<path d="M 133.100 414.250 C 133.296 418.686, 134.568 420.816, 139 424.132 C 147.191 430.262, 151.895 432.978, 153.353 432.418 C 154.168 432.105, 155.464 432.824, 156.341 434.077 C 160.633 440.204, 167 441.744, 167 436.655 C 167 432.869, 164.556 430.121, 159.769 428.526 C 158.077 427.962, 156.311 426.712, 155.846 425.750 C 155.381 424.788, 154.613 423.212, 154.140 422.250 C 153.600 421.150, 152.111 420.487, 150.136 420.466 C 148.086 420.444, 146.471 419.689, 145.496 418.298 C 141.712 412.895, 132.912 410.021, 133.100 414.250" stroke="none" fill="black" fill-rule="evenodd"/>
</svg>