<svg xmlns="http://www.w3.org/2000/svg" width="1024" height="1024" viewBox="0 0 1024 1024" version="1.1">
	<path d="M 852.667 390.667 C 852.300 391.033, 852 393.058, 852 395.167 C 852 398.872, 850.696 400.313, 849.662 397.750 C 849.385 397.063, 849.122 398.413, 849.079 400.750 C 849.009 404.539, 847 407.196, 847 403.500 C 847 402.675, 846.605 402, 846.122 402 C 844.532 402, 843.347 404.421, 842.100 410.221 C 840.449 417.898, 835.533 427.484, 831.932 430.049 C 830.319 431.197, 829 432.781, 829 433.568 C 829 434.356, 828.325 435, 827.500 435 C 826.675 435, 826 435.525, 826 436.167 C 826 436.808, 825.720 437.054, 825.378 436.712 C 825.036 436.370, 822.674 437.133, 820.128 438.408 C 811.339 442.810, 800.786 444.202, 792 442.117 C 783.705 440.148, 779.012 441.582, 786.250 443.874 C 796.435 447.098, 806.980 447.247, 814.724 444.276 C 815.429 444.005, 816 444.497, 816 445.374 C 816 446.263, 814.899 447.190, 813.500 447.481 C 812.125 447.766, 809.888 448.230, 808.529 448.512 C 805.339 449.173, 803.392 452.562, 805.053 454.564 C 806.001 455.706, 805.930 456, 804.706 456 C 803.859 456, 802.940 456.563, 802.662 457.250 C 802.259 458.250, 802.142 458.250, 802.079 457.250 C 802.036 456.563, 801.611 456, 801.135 456 C 800.659 456, 801.190 459.780, 802.315 464.399 C 803.496 469.251, 804.812 472.630, 805.430 472.399 C 806.779 471.895, 808.998 476.578, 809.007 479.949 C 809.010 481.352, 809.907 483.850, 811 485.500 C 813.411 489.140, 813.535 488.784, 812.659 480.750 C 812.373 478.120, 812.556 476, 813.071 476 C 813.582 476, 814 476.436, 814 476.969 C 814 477.501, 814.675 477.678, 815.500 477.362 C 816.562 476.954, 817 477.449, 817 479.060 C 817 480.310, 817.279 481.055, 817.619 480.714 C 818.861 479.473, 821.414 483.361, 821.950 487.310 C 822.465 491.105, 822.607 491.256, 824.177 489.683 C 825.748 488.110, 826.017 488.358, 828.404 493.571 C 829.806 496.634, 830.911 499.446, 830.858 499.820 C 830.601 501.659, 831.077 503.256, 831.698 502.635 C 832.082 502.251, 832.966 502.964, 833.663 504.219 C 834.435 505.611, 834.943 505.926, 834.965 505.027 C 835.021 502.698, 837.596 506.977, 838.281 510.537 C 838.898 513.746, 838.419 514.003, 831.250 514.305 C 828.509 514.421, 828.507 514.466, 831.020 518.533 C 832.444 520.836, 833.590 521.658, 834.901 521.316 C 835.924 521.048, 837.354 521.463, 838.078 522.238 C 839.443 523.699, 844 523.432, 844 521.891 C 844 521.409, 845.800 521.085, 848 521.171 C 852.850 521.361, 853.397 523.621, 849.250 526.339 L 846.500 528.142 850.376 527.613 C 852.508 527.323, 854.825 526.268, 855.524 525.269 C 856.224 524.270, 858.417 522.817, 860.398 522.040 C 862.379 521.263, 864 520.010, 864 519.256 C 864 518.503, 867.263 516.315, 871.250 514.396 C 875.237 512.476, 880.525 509.823, 883 508.499 C 885.475 507.176, 892.302 504.217, 898.172 501.924 C 910.078 497.272, 909.839 497.725, 904.615 489.739 C 902.447 486.425, 900.968 485.105, 899.750 485.395 C 898.788 485.625, 898 485.405, 898 484.906 C 898 484.408, 898.956 484, 900.125 484 C 902.656 484, 902.348 480.923, 899.104 473.824 C 898.018 471.446, 895.993 466.800, 894.606 463.500 C 893.218 460.200, 892.064 458.001, 892.041 458.613 C 892.018 459.226, 890.987 459.676, 889.750 459.613 C 887.987 459.525, 887.375 458.742, 886.923 456 L 886.347 452.500 885.923 455.899 C 885.665 457.975, 884.721 459.711, 883.500 460.359 C 882.400 460.943, 880.246 462.251, 878.713 463.267 L 875.926 465.114 872.906 458.454 C 869.780 451.559, 869.636 446.866, 872.502 445.256 C 874.676 444.035, 874.885 438.469, 872.750 438.639 C 870.614 438.808, 870.413 436.163, 872.500 435.362 C 873.325 435.045, 874 434.173, 874 433.424 C 874 432.669, 873.378 432.302, 872.601 432.600 C 871.832 432.895, 870.972 432.763, 870.690 432.307 C 869.861 430.967, 872.330 428.500, 874.500 428.500 C 877.324 428.500, 877.688 423.083, 875.189 418.249 C 871.376 410.874, 868.218 403.447, 867.535 400.250 C 866.919 397.364, 866.048 396.561, 863.850 396.848 C 863.493 396.895, 862.905 395.758, 862.545 394.322 C 862.081 392.473, 861.578 392.022, 860.823 392.777 C 859.473 394.127, 857 393.232, 857 391.393 C 857 389.976, 853.881 389.453, 852.667 390.667" stroke="none" fill="black" fill-rule="evenodd"/>
</svg>