<svg xmlns="http://www.w3.org/2000/svg" width="1024" height="1024" viewBox="0 0 1024 1024" version="1.1">
	<path d="M 697.136 88.079 C 683.963 89.350, 676.978 96.120, 678.184 106.447 C 678.424 108.504, 678.161 110, 677.559 110 C 676.988 110, 677.703 111.097, 679.148 112.437 C 680.594 113.777, 682.387 116.252, 683.132 117.937 C 683.878 119.622, 684.828 121, 685.244 121 C 685.660 121, 686 122.140, 686 123.534 C 686 126.320, 690.252 131.045, 694.941 133.470 C 697.011 134.540, 702.057 135.084, 712.477 135.362 C 728.452 135.787, 729.210 135.564, 731.202 129.851 C 732.063 127.380, 735.221 125.266, 737.250 125.802 C 738.649 126.172, 738.420 119.888, 737.002 119 C 736.562 118.725, 735.885 115.946, 735.496 112.825 C 734.860 107.721, 735 107.017, 736.894 105.834 C 738.052 105.111, 739 103.992, 739 103.347 C 739 101.974, 729.422 95.261, 722.349 91.677 C 718.564 89.759, 705.951 86.346, 705.566 87.136 C 705.530 87.211, 701.736 87.636, 697.136 88.079" stroke="none" fill="black" fill-rule="evenodd"/>
</svg>