<svg xmlns="http://www.w3.org/2000/svg" width="1024" height="1024" viewBox="0 0 1024 1024" version="1.1">
	<path d="M 346 153.738 C 339.547 155.758, 326 163.353, 326 164.952 C 326 166.264, 324.964 166.972, 322.318 167.468 C 317.710 168.333, 307.863 175.288, 301.431 182.220 C 298.737 185.124, 295.966 187.730, 295.274 188.011 C 293.758 188.625, 281 202.986, 281 204.077 C 281 204.500, 279.338 205.394, 277.306 206.064 C 272.187 207.753, 263.694 215.757, 265.251 217.424 C 266.164 218.401, 267.100 218.193, 269.682 216.441 C 272.659 214.421, 274.248 214.208, 287.243 214.092 C 301.136 213.967, 318.757 216.027, 319.968 217.917 C 320.260 218.375, 322.525 219.222, 325 219.801 C 334.284 221.971, 341.560 224.070, 343.363 225.097 C 344.388 225.681, 346.137 226.334, 347.250 226.548 C 348.363 226.763, 350.035 227.627, 350.966 228.469 C 351.896 229.311, 352.978 230, 353.371 230 C 353.763 230, 355.014 230.867, 356.152 231.927 C 357.289 232.986, 358.812 233.626, 359.535 233.348 C 360.259 233.070, 361.587 233.966, 362.486 235.338 C 364.055 237.733, 363.428 240.818, 360.927 243 C 360.612 243.275, 360.067 244.280, 359.715 245.233 C 359.222 246.571, 358.371 246.824, 355.978 246.346 C 352.487 245.647, 348.322 247.424, 347.661 249.895 C 347.294 251.268, 347.215 251.251, 347.116 249.776 C 346.997 248.010, 342.499 245.172, 338.652 244.435 C 337.468 244.209, 336.006 243.350, 335.401 242.527 C 334.797 241.704, 334.009 241.324, 333.651 241.682 C 333.293 242.040, 333 241.885, 333 241.338 C 333 240.790, 330.787 239.305, 328.082 238.039 C 325.175 236.677, 323.358 235.230, 323.639 234.499 C 324.208 233.016, 321.397 232.097, 314 231.346 C 310.975 231.039, 306.530 229.936, 304.123 228.894 C 298.907 226.637, 297 226.507, 297 228.406 C 297 229.333, 296.299 229.629, 294.943 229.275 C 293.723 228.956, 293.100 228.181, 293.412 227.369 C 294.050 225.707, 295.735 225.887, 276.500 225.565 C 267.700 225.418, 261.962 225.484, 263.750 225.712 C 266.224 226.028, 267 226.616, 267 228.175 C 267 229.960, 266.566 230.141, 263.616 229.588 C 261.080 229.112, 260.085 229.337, 259.644 230.486 C 259.320 231.329, 258.706 231.925, 258.278 231.811 C 255.866 231.168, 246.724 239.057, 248.186 240.519 C 248.704 241.037, 253.962 239.368, 259 237.085 C 263.512 235.042, 292.814 234.793, 297.500 236.758 C 299.150 237.450, 303.425 238.654, 307 239.433 C 314.905 241.155, 324.378 244.646, 324.833 246.005 C 325.017 246.552, 325.802 247, 326.578 247 C 328.499 247, 345.253 255.721, 346.500 257.370 C 347.050 258.098, 348.906 259.419, 350.624 260.307 C 352.342 261.194, 355.697 263.738, 358.079 265.960 C 360.462 268.182, 362.901 270, 363.499 270 C 364.581 270, 387.622 292.687, 390.413 296.500 L 391.876 298.500 393.419 296.500 C 394.751 294.774, 395.099 294.705, 395.962 296 C 396.804 297.263, 397.360 297.041, 399.481 294.594 C 400.867 292.996, 402 292.241, 402 292.916 C 402 293.764, 402.463 293.679, 403.500 292.643 C 404.342 291.801, 405 289.357, 405 287.071 C 405 284.832, 405.395 283, 405.877 283 C 406.360 283, 408.047 280.526, 409.627 277.502 C 411.407 274.097, 413.153 272.004, 414.215 272.002 C 416.236 272, 418.390 268.458, 417.608 266.422 C 417.308 265.640, 417.415 265, 417.846 265 C 419.334 265, 422 257.919, 422 253.966 C 422 251.785, 422.406 250, 422.902 250 C 423.398 250, 424.293 248.762, 424.890 247.250 C 425.487 245.738, 427.556 241.593, 429.488 238.039 C 431.419 234.486, 433 230.998, 433 230.289 C 433 229.580, 433.450 229, 434 229 C 434.550 229, 435 228.255, 435 227.344 C 435 226.434, 436.125 224.214, 437.500 222.411 C 438.875 220.608, 440 217.978, 440 216.567 C 440 215.155, 440.450 214, 441 214 C 441.550 214, 442 213.325, 442 212.500 C 442 211.675, 442.450 211, 443 211 C 443.550 211, 444 210.516, 444 209.924 C 444 209.333, 445.800 205.767, 448 202 C 450.200 198.233, 452 194.442, 452 193.576 C 452 192.709, 452.438 192, 452.974 192 C 453.510 192, 454.668 190.610, 455.546 188.911 C 456.425 187.212, 458.215 184.619, 459.524 183.150 C 462.030 180.338, 467 171.560, 467 169.947 C 467 167.708, 462.888 169.280, 460.478 172.440 C 457.716 176.062, 457.115 176.115, 451.381 173.246 C 446.142 170.626, 443.896 172.432, 448.064 175.913 C 449.938 177.477, 452.101 178.515, 452.872 178.219 C 453.642 177.923, 454.099 178.097, 453.886 178.606 C 450.637 186.382, 448.403 190, 446.853 190 C 445.723 190, 445.262 190.520, 445.604 191.410 C 446.092 192.683, 443.617 198.767, 442.110 200 C 441.773 200.275, 440.454 202.637, 439.179 205.250 C 437.903 207.863, 436.532 210, 436.131 210 C 435.730 210, 434.832 211.575, 434.136 213.500 C 433.440 215.425, 432.465 217, 431.970 217 C 431.474 217, 430.767 219.275, 430.398 222.055 C 429.958 225.377, 429.317 226.952, 428.528 226.649 C 427.806 226.372, 425.384 230.138, 422.454 236.094 C 419.773 241.542, 417.224 246, 416.790 246 C 416.355 246, 416 246.927, 416 248.059 C 416 249.191, 415.586 249.862, 415.081 249.550 C 413.690 248.690, 410.803 252.046, 411.461 253.758 C 411.777 254.583, 411.503 256.731, 410.852 258.532 C 409.770 261.525, 409.462 261.712, 407.263 260.710 C 405.412 259.867, 404.668 259.919, 404.040 260.935 C 403.591 261.662, 402.770 261.976, 402.215 261.633 C 400.215 260.397, 395 262.170, 395 264.086 C 395 265.096, 394.062 266.796, 392.916 267.864 C 390.917 269.726, 390.906 269.852, 392.666 270.930 C 394.306 271.935, 394.235 272.023, 392 271.759 C 390.508 271.583, 388.794 272.239, 387.750 273.385 C 386.325 274.950, 386 275.018, 386 273.752 C 386 271.642, 374.364 261.693, 371.664 261.494 C 370.474 261.406, 369.531 261.147, 369.568 260.917 C 370.146 257.374, 371.007 256.065, 372.407 256.603 C 373.457 257.006, 374 256.666, 374 255.607 C 374 254.723, 374.450 254, 375 254 C 375.550 254, 376 253.208, 376 252.241 C 376 248.329, 379.301 247.995, 385.855 251.243 C 393.046 254.807, 393.388 254.682, 392.101 248.956 C 391.350 245.613, 391.455 244.189, 392.567 242.601 C 393.355 241.476, 394 239.572, 394 238.371 C 394 235.305, 390.844 236.301, 388.617 240.071 C 386.580 243.519, 383.080 243.959, 381.232 241 C 380.146 239.260, 380.233 239, 381.906 239 C 383.929 239, 390 230.314, 390 227.419 C 390 226.566, 390.478 224.975, 391.063 223.882 C 393.502 219.326, 391.468 218.452, 388.350 222.716 C 386.654 225.035, 384.981 226.648, 384.633 226.300 C 384.285 225.952, 384 226.642, 384 227.833 C 384 229.025, 383.448 229.888, 382.774 229.750 C 382.099 229.613, 381.388 230.547, 381.194 231.826 C 380.943 233.479, 380.380 233.976, 379.250 233.543 C 378.376 233.207, 377.334 233.459, 376.936 234.104 C 376.425 234.931, 375.538 234.647, 373.917 233.138 C 372.655 231.962, 371.003 231, 370.245 231 C 369.487 231, 367.413 229.891, 365.637 228.536 C 361.224 225.171, 344.423 217.459, 333.521 213.795 C 328.582 212.136, 323.779 209.898, 322.847 208.823 C 321.914 207.748, 320.780 206.899, 320.326 206.936 C 319.872 206.972, 317.377 206.721, 314.782 206.377 C 310.483 205.806, 310.156 205.577, 311.108 203.798 C 311.712 202.670, 312.770 202.082, 313.615 202.406 C 314.418 202.714, 315.332 202.299, 315.645 201.483 C 315.958 200.667, 317.066 200, 318.107 200 C 319.737 200, 320 199.229, 320 194.441 C 320 190.990, 319.621 189.116, 319 189.500 C 318.450 189.840, 318 189.641, 318 189.059 C 318 188.477, 318.369 188, 318.820 188 C 319.271 188, 321.480 186.425, 323.729 184.500 C 325.978 182.575, 328.423 181, 329.162 181 C 330.736 181, 336 175.681, 336 174.090 C 336 173.490, 336.405 173, 336.900 173 C 337.395 173, 339.420 171.380, 341.400 169.400 C 345.156 165.644, 346.149 162, 343.417 162 C 340.862 162, 342.361 159.666, 346.368 157.406 C 350.048 155.330, 349.770 152.558, 346 153.738" stroke="none" fill="black" fill-rule="evenodd"/>
</svg>