<svg xmlns="http://www.w3.org/2000/svg" width="1024" height="1024" viewBox="0 0 1024 1024" version="1.1">
	<path d="M 536 603.279 C 536 615.982, 533.534 625.357, 528.779 630.731 C 527.849 631.782, 526.917 635.533, 526.483 639.976 C 525.694 648.044, 523.818 654.439, 521.483 657.019 C 519.259 659.476, 511.034 693.333, 510.812 700.944 C 510.475 712.467, 512.154 730, 513.594 730 C 516.366 730, 516.668 732.544, 517.638 764 C 518.070 777.987, 517.818 785.467, 516.605 794.665 C 515.539 802.755, 515.315 807.612, 515.937 809.165 C 516.800 811.317, 516.894 811.344, 517.135 809.500 C 517.358 807.794, 518.975 869.052, 519.084 883.389 C 519.105 886.078, 518.645 888.755, 518.061 889.339 C 516.014 891.386, 516.746 900.700, 519 901.290 C 520.100 901.577, 521 901.350, 521 900.784 C 521 900.197, 521.677 900.317, 522.576 901.063 C 524.509 902.668, 525.961 900.925, 525.985 896.971 C 525.993 895.580, 526.921 893.780, 528.046 892.971 C 531.746 890.311, 533.420 886.599, 534.083 879.583 C 534.779 872.215, 536.419 869.774, 540.035 870.719 C 541.289 871.047, 543.233 870.124, 545.523 868.114 C 551.431 862.927, 556.650 864.161, 559.903 871.513 C 560.994 873.981, 562.411 876, 563.050 876 C 563.689 876, 565.097 877.125, 566.179 878.500 C 567.260 879.875, 568.764 881, 569.521 881 C 573.660 881, 577.897 888.432, 575.536 891.552 C 574.726 892.624, 574.049 894.756, 574.032 896.292 C 574.014 897.827, 573.163 899.982, 572.141 901.079 C 569.230 904.203, 568.257 918.659, 570.797 921.026 C 572.575 922.682, 572.724 922.672, 573.884 920.815 C 574.829 919.301, 575.763 919.009, 578.051 919.511 C 579.969 919.932, 581 919.761, 581 919.020 C 581 918.394, 581.401 918.130, 581.890 918.432 C 582.756 918.968, 585.086 914.793, 586.456 910.250 C 586.829 909.013, 587.632 908, 588.239 908 C 588.846 908, 590.165 907.255, 591.171 906.345 C 592.177 905.435, 593 905.162, 593 905.738 C 593 906.314, 593.563 907.001, 594.250 907.264 C 595.222 907.636, 595.523 903.374, 595.603 888.121 C 595.660 877.171, 596.196 866.732, 596.815 864.500 C 597.425 862.300, 598.617 855.550, 599.463 849.500 C 600.309 843.450, 601.703 835.350, 602.560 831.500 C 606.222 815.052, 607.097 810.007, 607.779 801.403 C 608.175 796.400, 609.074 791.615, 609.776 790.770 C 610.478 789.924, 611.700 785.918, 612.492 781.866 C 613.284 777.815, 614.398 772.927, 614.966 771.005 C 615.535 769.083, 616.458 764.808, 617.017 761.505 C 618.090 755.162, 618.974 751.165, 621.995 739 C 626.123 722.379, 627.409 712.266, 625.622 710.479 C 624.730 709.587, 623.986 707.877, 623.969 706.679 C 623.951 705.480, 622.601 701.811, 620.969 698.525 C 619.336 695.239, 618 691.779, 618 690.834 C 618 689.890, 617.562 688.847, 617.027 688.517 C 616.492 688.186, 615.575 686.135, 614.989 683.958 C 614.402 681.781, 613.490 680, 612.961 680 C 612.433 680, 612 678.861, 612 677.469 C 612 676.076, 611.325 674.678, 610.500 674.362 C 609.675 674.045, 609 672.736, 609 671.452 C 609 670.168, 608.550 668.840, 608 668.500 C 607.450 668.160, 607 667.057, 607 666.048 C 607 665.039, 606.325 663.955, 605.500 663.638 C 604.675 663.322, 603.997 662.261, 603.994 661.281 C 603.984 657.942, 601.895 651.947, 600.946 652.533 C 600.426 652.855, 600 652.228, 600 651.141 C 600 648.259, 598.927 645.927, 597.895 646.565 C 597.403 646.869, 597 646.393, 597 645.507 C 597 643.278, 593.048 636.266, 589.811 632.751 C 588.332 631.145, 586.820 628.406, 586.452 626.665 C 586.084 624.924, 584.983 621.925, 584.005 620 C 583.028 618.075, 581.468 613.800, 580.540 610.500 C 579.611 607.200, 578.210 602.415, 577.426 599.866 C 576.642 597.317, 576 594.478, 576 593.557 C 576 592.636, 575.550 592.160, 575 592.500 C 574.450 592.840, 574 592.641, 574 592.059 C 574 591.351, 567.706 591, 555 591 L 536 591 536 603.279" stroke="none" fill="black" fill-rule="evenodd"/>
</svg>