<svg xmlns="http://www.w3.org/2000/svg" width="1024" height="1024" viewBox="0 0 1024 1024" version="1.1">
	<path d="M 876.433 527.600 C 875.982 530.607, 876.138 532.991, 876.862 534.150 C 877.488 535.153, 878 537.131, 878 538.545 C 878 540.006, 878.432 540.851, 879 540.500 C 879.585 540.139, 880.033 541.256, 880.079 543.191 C 880.122 545.011, 880.385 545.938, 880.662 545.250 C 881.464 543.262, 883.714 543.800, 884.322 546.124 C 884.787 547.901, 885.336 548.127, 887.689 547.508 C 889.235 547.101, 891.175 546.699, 892 546.615 C 892.825 546.531, 894.453 545.924, 895.619 545.266 C 896.784 544.609, 898.021 544.355, 898.369 544.702 C 898.716 545.049, 899.006 544.471, 899.014 543.417 C 899.021 542.362, 899.270 540.596, 899.567 539.490 C 899.929 538.144, 899.102 536.354, 897.062 534.069 C 895.387 532.193, 893.453 529.385, 892.764 527.829 C 891.498 524.970, 889.299 524.344, 882.060 524.781 C 880.717 524.862, 879.062 524.466, 878.380 523.901 C 877.437 523.118, 876.973 524, 876.433 527.600" stroke="none" fill="black" fill-rule="evenodd"/>
</svg>