<svg xmlns="http://www.w3.org/2000/svg" width="1024" height="1024" viewBox="0 0 1024 1024" version="1.1">
	<path d="M 279.650 253.347 C 275.882 254.644, 272.507 256.148, 272.150 256.688 C 271.792 257.229, 270.600 258.181, 269.500 258.805 C 267.857 259.737, 267.797 259.945, 269.167 259.970 C 270.083 259.986, 271.015 260.546, 271.238 261.213 C 271.540 262.121, 273.169 261.963, 277.728 260.582 C 287.699 257.563, 298.330 258.631, 309 263.724 C 313.675 265.955, 318.625 268.298, 320 268.930 C 325.060 271.256, 327.337 272.920, 335.668 280.377 C 338.051 282.510, 340 284.817, 340 285.505 C 340 286.193, 340.619 287.269, 341.375 287.896 C 342.132 288.524, 343.037 290.829, 343.387 293.019 C 343.737 295.208, 344.414 297, 344.890 297 C 346.400 297, 348.212 302.753, 347.467 305.176 C 347.073 306.454, 347.070 307.200, 347.459 306.833 C 347.848 306.467, 349.142 307.142, 350.333 308.333 C 352.355 310.355, 352.498 311.448, 352.467 324.635 C 352.439 336.553, 352.661 338.684, 353.878 338.217 C 354.935 337.811, 355.177 338.213, 354.783 339.721 C 354.487 340.853, 354.590 342.337, 355.012 343.019 C 355.851 344.376, 357.932 336.071, 358.100 330.701 C 358.194 327.682, 358.242 327.642, 358.949 330 C 359.604 332.187, 359.794 331.905, 360.463 327.750 C 361.145 323.507, 362.950 321.048, 363.032 324.250 C 363.050 324.973, 363.662 324.710, 364.484 323.625 C 365.304 322.542, 366.558 322, 367.452 322.343 C 368.416 322.713, 369 322.383, 369 321.469 C 369 320.661, 369.450 320, 370 320 C 370.550 320, 371 318.815, 371 317.366 C 371 314.049, 368.926 307, 367.950 307 C 367.547 307, 366.921 305.822, 366.560 304.382 C 366.198 302.942, 365.607 302.059, 365.246 302.421 C 364.885 302.782, 363.786 300.143, 362.803 296.556 C 361.044 290.134, 357.512 284.566, 355.849 285.593 C 355.382 285.882, 355 285.226, 355 284.137 C 355 282.997, 352.777 280.210, 349.767 277.578 C 344.951 273.364, 342.077 271.697, 343.444 273.910 C 343.753 274.410, 343.733 275.532, 343.399 276.404 C 342.577 278.544, 337.020 272.714, 336.955 269.644 C 336.908 267.409, 326.479 260, 323.379 260 C 322.542 260, 321.187 259.330, 320.367 258.510 C 319.548 257.691, 316.317 256.286, 313.189 255.389 C 310.060 254.492, 306.962 253.328, 306.305 252.802 C 303.472 250.536, 286.828 250.876, 279.650 253.347" stroke="none" fill="black" fill-rule="evenodd"/>
</svg>