<svg xmlns="http://www.w3.org/2000/svg" width="1024" height="1024" viewBox="0 0 1024 1024" version="1.1">
	<path d="M 791.613 273.816 C 791.211 274.467, 791.160 275.450, 791.500 276 C 791.840 276.550, 791.699 277, 791.188 277 C 790.676 277, 789.957 279.266, 789.590 282.035 C 789.216 284.856, 788.499 286.809, 787.961 286.476 C 787.432 286.149, 787 286.809, 787 287.941 C 787 289.073, 787.642 290, 788.428 290 C 789.969 290, 789.887 293.175, 787.916 309.703 C 786.900 318.229, 787.400 322.543, 789.669 324.812 C 791.213 326.356, 791.482 333, 790 333 C 789.450 333, 789 334.545, 789 336.433 C 789 342.162, 785.330 342.319, 775 337.033 C 771.975 335.485, 763.968 331.859, 757.206 328.975 C 747.347 324.769, 744.618 323.163, 743.430 320.865 C 742.615 319.289, 741.565 318, 741.097 318 C 739.885 318, 737.905 320.572, 738.590 321.256 C 738.904 321.571, 738.696 322.700, 738.126 323.765 C 737.461 325.008, 737.378 328.349, 737.896 333.100 C 738.339 337.170, 738.319 340.650, 737.851 340.833 C 735.744 341.659, 737.302 342.983, 740.110 342.754 C 744.515 342.394, 746.396 345.401, 743.260 347.792 C 741.231 349.339, 741.121 349.866, 742.095 353.388 C 742.868 356.184, 742.864 357.466, 742.079 357.951 C 740.127 359.158, 741.937 368, 744.136 368 C 745.161 368, 746 367.541, 746 366.981 C 746 366.412, 747.033 366.221, 748.339 366.549 C 751.395 367.316, 777.061 361.305, 793.528 355.966 C 809.702 350.722, 812.123 349.535, 811.324 347.242 C 810.759 345.622, 810.839 345.615, 812.466 347.144 C 814.097 348.676, 814.723 348.557, 821.664 345.394 C 825.760 343.527, 829.723 342, 830.472 342 C 831.221 342, 831.983 341.627, 832.167 341.172 C 832.350 340.716, 836.224 337.966, 840.775 335.059 C 848.103 330.380, 851 327.660, 851 325.459 C 851 325.089, 850.381 325.023, 849.625 325.314 C 848.195 325.862, 847 320.421, 847 313.360 C 847 311.512, 846.569 310, 846.041 310 C 845.514 310, 844.288 307.762, 843.316 305.028 C 840.816 297.989, 839.182 296.329, 834.136 295.702 C 830.416 295.240, 829.697 295.443, 829.269 297.080 C 828.993 298.136, 828.158 299, 827.415 299 C 826.671 299, 826.292 299.598, 826.573 300.329 C 826.858 301.072, 826.084 302.103, 824.817 302.668 C 823.290 303.350, 822.196 305.115, 821.457 308.090 L 820.362 312.500 818.181 307.623 C 816.982 304.940, 816 302.128, 816 301.373 C 816 300.618, 815.523 300, 814.941 300 C 814.359 300, 814.172 299.530, 814.527 298.956 C 815.825 296.856, 809.447 289.485, 804.920 287.853 C 802.952 287.144, 802.025 285.765, 801.010 282.036 C 799.764 277.460, 798.308 276.023, 794.500 275.609 C 793.950 275.549, 793.240 274.855, 792.923 274.066 C 792.499 273.015, 792.150 272.948, 791.613 273.816" stroke="none" fill="black" fill-rule="evenodd"/>
</svg>