<svg xmlns="http://www.w3.org/2000/svg" width="1024" height="1024" viewBox="0 0 1024 1024" version="1.1">
	<path d="M 445.320 234.802 C 442.919 236.286, 442.719 240.810, 444.899 244.337 C 447.220 248.092, 447.904 253.304, 445.800 251.200 C 445.140 250.540, 443.898 250, 443.039 250 C 440.844 250, 440.696 255.626, 442.870 256.440 C 446.418 257.768, 450.157 260.244, 450.682 261.615 C 451.145 262.821, 451.440 262.781, 452.469 261.373 C 453.624 259.794, 454.856 259.793, 472.101 261.357 C 482.220 262.275, 492.386 263.020, 494.691 263.013 C 496.996 263.006, 499.165 263.457, 499.510 264.016 C 499.856 264.575, 500.557 264.774, 501.069 264.457 C 501.581 264.141, 502 264.809, 502 265.941 C 502 267.862, 501.412 268.001, 493.250 268.015 C 487.946 268.025, 485.037 268.371, 485.863 268.894 C 487.014 269.623, 487.014 269.842, 485.863 270.300 C 484.937 270.669, 485.079 270.867, 486.309 270.921 C 487.304 270.964, 487.869 271.403, 487.565 271.895 C 486.923 272.933, 489.207 273.972, 492.332 274.063 C 494.407 274.124, 494.397 274.168, 492.094 275.089 C 490.770 275.618, 483.010 276.152, 474.848 276.276 L 460.009 276.500 460.036 280 C 460.065 283.726, 463.749 289, 466.323 289 C 467.103 289, 469.482 290.793, 471.609 292.985 C 473.753 295.194, 477.570 297.723, 480.174 298.660 C 483.507 299.858, 485.040 301.024, 485.454 302.674 C 485.775 303.953, 486.705 305, 487.519 305 C 488.334 305, 489 305.439, 489 305.975 C 489 306.573, 489.870 306.620, 491.250 306.095 C 494.612 304.817, 494.685 304.839, 497.954 308.108 C 500.932 311.086, 501.606 311.183, 506.540 309.337 C 507.111 309.123, 508.153 310.534, 508.854 312.474 C 510.274 316.400, 512.645 316.989, 517 314.500 C 520.159 312.694, 521 312.660, 521 314.339 C 521 315.916, 525.714 318.295, 527.119 317.427 C 527.652 317.097, 528.743 317.372, 529.544 318.036 C 530.763 319.048, 531 318.762, 531 316.277 C 531 313.642, 533.512 310, 535.329 310 C 536.474 310, 536.069 313.589, 534.500 317.346 C 533.675 319.320, 533 321.348, 533 321.851 C 533 323.219, 537.738 323.862, 538.942 322.658 C 539.668 321.932, 540.948 322.325, 543.140 323.945 C 546.621 326.519, 552.713 328.273, 553.537 326.940 C 553.827 326.471, 554.725 326.341, 555.532 326.651 C 556.339 326.960, 557.788 326.872, 558.750 326.453 C 559.712 326.035, 561.288 325.790, 562.250 325.909 C 564.189 326.149, 564.816 321.622, 563 320.500 C 561.293 319.445, 561.784 315.703, 563.541 316.377 C 564.788 316.856, 565.027 316.255, 564.791 313.234 C 564.575 310.461, 564.886 309.493, 566 309.474 C 566.825 309.459, 568.063 309.095, 568.750 308.665 C 570.318 307.683, 572 308.663, 572 310.559 C 572 311.352, 572.723 312, 573.607 312 C 574.588 312, 575.001 312.556, 574.666 313.427 C 573.789 315.713, 576.608 317.305, 580.241 316.574 C 582.033 316.213, 584.263 315.840, 585.196 315.745 C 586.128 315.650, 587.442 314.543, 588.115 313.286 C 588.787 312.029, 589.928 311, 590.650 311 C 591.372 311, 592.243 309.878, 592.588 308.507 C 592.932 307.136, 593.584 306.243, 594.038 306.523 C 594.491 306.803, 595.149 306.568, 595.500 306 C 595.851 305.432, 596.670 305.300, 597.319 305.707 C 597.969 306.114, 598.950 306.503, 599.500 306.571 C 600.050 306.640, 601.089 306.764, 601.809 306.848 C 602.529 306.931, 602.840 307.450, 602.500 308 C 601.583 309.484, 604.578 309.213, 605.836 307.698 C 606.430 306.982, 606.677 305.480, 606.384 304.360 C 605.956 302.725, 606.299 302.356, 608.119 302.490 C 609.366 302.582, 610.549 303.146, 610.748 303.743 C 611.168 305.003, 616.348 303.786, 618.630 301.892 C 620.786 300.103, 619.743 298.560, 616 298 C 612.456 297.470, 610.960 295.613, 613.340 294.700 C 615.117 294.018, 623.272 295.985, 624.147 297.306 C 624.527 297.881, 626.083 297.365, 627.925 296.053 C 630.626 294.130, 630.976 293.388, 630.464 290.661 L 629.871 287.500 635.476 287.588 C 641.439 287.682, 641.794 287.441, 643.727 282 C 645.558 276.844, 645.368 275.768, 642.750 276.460 L 640.500 277.055 642.750 275.406 C 645.440 273.433, 645.664 271.320, 643.250 270.689 C 642.288 270.438, 643.018 270.180, 644.872 270.116 C 647.751 270.017, 648.063 269.781, 647 268.500 C 645.739 266.980, 640.897 266.436, 639.658 267.675 C 639.287 268.046, 635.275 268.289, 630.742 268.214 C 626.209 268.139, 618.563 268.060, 613.750 268.039 C 606.816 268.008, 605 267.701, 605 266.559 C 605 264.319, 605.787 264.143, 620.470 263.109 C 634.206 262.142, 638.998 260.791, 633.547 259.423 C 632.039 259.044, 626.816 259.141, 621.941 259.639 C 613.194 260.531, 613.084 260.515, 613.611 258.415 C 614.277 255.760, 611.678 253, 608.512 253 C 607.222 253, 605.938 252.438, 605.659 251.750 C 605.261 250.768, 604.966 250.762, 604.283 251.724 C 603.805 252.398, 600.236 253.399, 596.352 253.950 C 588.047 255.128, 585.927 255.828, 584.282 257.938 C 583.193 259.334, 583.060 259.314, 583.032 257.750 C 582.998 255.911, 580 255.227, 580 257.059 C 580 257.641, 579.550 257.840, 579 257.500 C 578.423 257.143, 578 258.082, 578 259.718 C 578 263.286, 575.465 267, 573.030 267 C 572.005 267, 569.765 265.096, 568.030 262.750 L 564.888 258.500 565.436 264 C 565.945 269.112, 565.905 269.253, 564.863 266 C 564.238 264.050, 563.525 263.099, 563.253 263.853 C 562.984 264.597, 561.198 266.820, 559.282 268.792 C 556.245 271.920, 555.875 272.833, 556.389 275.939 C 556.713 277.898, 556.983 280.063, 556.989 280.750 C 556.995 281.438, 557.675 282, 558.500 282 C 559.611 282, 560 280.833, 560 277.500 C 560 273.207, 560.132 273, 562.885 273 C 566.039 273, 569 276.373, 569 279.965 C 569 281.084, 569.623 282, 570.383 282 C 571.144 282, 572.013 282.943, 572.315 284.096 C 572.924 286.424, 572.223 289, 570.981 289 C 570.538 289, 569.887 290.707, 569.535 292.792 C 568.808 297.095, 565.631 299.949, 564.271 297.520 C 562.508 294.369, 551 291.750, 551 294.500 C 551 295.325, 550.523 296, 549.941 296 C 549.359 296, 549.160 295.550, 549.500 295 C 550.414 293.521, 548.525 293.782, 544.534 295.685 C 542.590 296.612, 541 297.825, 541 298.379 C 541 298.934, 539.875 297.864, 538.500 296 C 536.336 293.067, 536 291.562, 536 284.806 C 536 277.049, 535.984 277, 533.378 277 C 531.170 277, 530.950 277.235, 531.989 278.487 C 533.351 280.128, 532.515 285.437, 531.039 284.524 C 530.543 284.217, 529.431 284.974, 528.568 286.206 C 527.706 287.437, 527 288.034, 527 287.531 C 527 287.029, 526.339 287.491, 525.532 288.559 C 524.180 290.346, 524.061 290.082, 524.032 285.236 C 524.014 282.341, 524.563 279.020, 525.250 277.856 C 526.250 276.162, 526.250 275.648, 525.250 275.286 C 524.563 275.037, 524 274.435, 524 273.948 C 524 273.461, 524.701 273.332, 525.557 273.660 C 526.642 274.076, 526.346 273.125, 524.584 270.528 C 522.244 267.081, 521.478 264.562, 520.770 258 C 520.518 255.664, 519.980 255.434, 512.582 254.500 C 507.915 253.911, 504.493 252.987, 504.248 252.250 C 504.020 251.563, 503.019 251, 502.024 251 C 501.028 251, 499.955 250.325, 499.638 249.500 C 499.279 248.564, 497.753 248, 495.581 248 C 493.666 248, 491.740 247.393, 491.300 246.651 C 490.860 245.910, 483.743 243.461, 475.485 241.210 C 467.227 238.959, 459.767 236.848, 458.906 236.518 C 457.892 236.128, 456.955 236.722, 456.239 238.209 C 455.632 239.469, 455.105 240.015, 455.068 239.423 C 455.030 238.829, 453.769 238.523, 452.250 238.740 C 450.138 239.042, 449.150 238.548, 447.990 236.609 C 447.100 235.120, 446.005 234.379, 445.320 234.802" stroke="none" fill="black" fill-rule="evenodd"/>
</svg>