<svg xmlns="http://www.w3.org/2000/svg" width="1024" height="1024" viewBox="0 0 1024 1024" version="1.1">
	<path d="M 898.889 982.750 C 898.828 983.712, 898.853 985.457, 898.945 986.626 C 899.140 989.123, 894.264 989.834, 875.648 990.024 L 864.797 990.134 865.198 993.567 C 865.418 995.455, 865.239 997, 864.799 997 C 864.360 997, 864 997.477, 864 998.059 C 864 998.641, 864.500 998.809, 865.112 998.431 C 865.723 998.053, 866.559 998.286, 866.968 998.949 C 867.527 999.853, 876.908 1000.156, 904.572 1000.162 C 932.348 1000.169, 942.055 1000.484, 943.965 1001.441 C 947.590 1003.256, 959.055 1002.336, 959.776 1000.172 C 960.033 999.400, 959.224 999.203, 957.330 999.579 C 954.669 1000.106, 954.489 999.926, 954.321 996.570 L 954.142 993 964.872 993 C 978.688 993, 980.982 992.040, 980.992 986.250 L 981 982 972.539 982 L 964.077 982 963.040 985.852 L 962.002 989.705 952.289 990.387 C 946.762 990.776, 942.268 991.566, 941.864 992.221 C 941.330 993.084, 940.809 993.086, 939.775 992.229 C 939.018 991.600, 935.721 990.954, 932.449 990.793 C 926.946 990.522, 926.519 990.331, 926.750 988.250 C 926.888 987.013, 927.112 984.987, 927.250 983.750 C 927.474 981.737, 927.006 981.468, 922.807 981.198 L 918.114 980.895 917.807 985.698 L 917.500 990.500 911.500 990.544 C 904.363 990.596, 901.180 989.789, 905.500 989.023 C 908.129 988.557, 908.538 988.028, 908.810 984.746 L 909.121 981 904.060 981 C 899.950 981, 898.979 981.328, 898.889 982.750" stroke="none" fill="black" fill-rule="evenodd"/>
</svg>