<svg xmlns="http://www.w3.org/2000/svg" width="1024" height="1024" viewBox="0 0 1024 1024" version="1.1">
	<path d="M 240.501 268.144 C 239.531 277.208, 239.413 277.323, 231.614 276.826 C 225.837 276.459, 225 276.625, 225 278.144 C 225 279.100, 224.550 280.160, 224 280.500 C 221.616 281.973, 223.289 282.781, 226.250 281.586 C 229.822 280.145, 242.685 280.025, 244.887 281.413 C 245.843 282.016, 246.813 281.573, 248.009 279.988 C 249.625 277.846, 250.240 277.730, 256.971 278.294 C 264.324 278.911, 266.618 279.888, 271.640 284.542 C 273.728 286.477, 275.159 287.018, 277.139 286.622 C 279.261 286.198, 280.770 286.926, 284.408 290.128 C 289.647 294.740, 290.575 294.220, 285.835 289.330 C 282.965 286.369, 282.842 285.998, 284.515 285.356 C 287.295 284.289, 294.269 292.542, 293.598 296.104 C 293.329 297.536, 293.587 299.187, 294.171 299.771 C 295.108 300.708, 295.518 303.254, 296.300 313 C 296.481 315.265, 296.132 315.506, 292.590 315.567 C 289.518 315.620, 288.506 316.102, 287.872 317.817 C 287.428 319.018, 286.712 320.057, 286.282 320.128 C 285.852 320.198, 284.527 320.359, 283.338 320.487 C 278.170 321.040, 275.556 325.848, 279.582 327.393 C 282.657 328.573, 286 328.052, 286 326.393 C 286 325.509, 286.563 324.992, 287.250 325.243 C 287.938 325.495, 291.109 325.404, 294.298 325.042 C 300.067 324.387, 300.094 324.397, 299.798 326.928 C 299.568 328.891, 298.929 329.475, 297 329.486 C 294.933 329.498, 294.507 329.976, 294.539 332.250 C 294.580 335.050, 290.652 336.457, 289.814 333.943 C 289.172 332.017, 286.234 334.081, 285.681 336.846 C 284.992 340.291, 275 345.786, 275 342.720 C 275 342.114, 274.361 342.491, 273.581 343.559 C 272.189 345.463, 272.113 345.454, 269.645 343.137 L 267.130 340.773 263.335 342.637 C 260.427 344.065, 259.388 345.271, 258.886 347.801 C 258.011 352.216, 257.467 352.569, 255.349 350.095 C 252.104 346.305, 247.839 348.814, 246.446 355.332 C 245.123 361.524, 242 363.047, 242 357.500 C 242 355.575, 241.608 354, 241.129 354 C 239.954 354, 241.758 344.592, 243.015 344.167 C 243.557 343.983, 244 343.344, 244 342.745 C 244 342.147, 244.782 340.794, 245.737 339.738 C 247.386 337.916, 247.386 337.755, 245.737 336.549 C 243.605 334.991, 243.452 333.576, 245.500 334.362 C 246.520 334.753, 247 334.308, 247 332.969 C 247 331.434, 247.716 330.979, 250.250 330.904 C 256.756 330.712, 263.455 328.590, 263.839 326.600 C 264.092 325.282, 263.764 324.876, 262.758 325.263 C 259.316 326.583, 250 327.206, 250 326.115 C 250 325.502, 249.421 325, 248.714 325 C 248.007 325, 247.429 324.100, 247.429 323.001 C 247.429 321.449, 247.885 321.143, 249.464 321.634 C 251.393 322.233, 251.412 322.167, 249.817 320.378 C 248.891 319.340, 247.806 316.018, 247.406 312.995 C 246.760 308.117, 244.236 302.193, 240.448 296.663 C 239.258 294.925, 239.150 294.952, 238.444 297.163 C 238.034 298.448, 237.710 301.525, 237.725 304 C 237.739 306.475, 237.544 307.938, 237.292 307.250 C 236.113 304.037, 234.792 306.264, 235.513 310.250 C 236.333 314.784, 236.787 318.364, 236.919 321.333 C 236.963 322.342, 237.558 322.981, 238.241 322.753 C 239.988 322.171, 242.666 324.971, 241.217 325.866 C 240.608 326.242, 239.612 329.671, 239.002 333.486 C 238.393 337.301, 237.520 340.890, 237.063 341.461 C 236.605 342.033, 235.894 344.075, 235.481 345.999 C 235.069 347.924, 233.892 350.226, 232.866 351.116 C 231.840 352.006, 231 353.400, 231 354.214 C 231 355.028, 230.100 356.732, 229 358 C 227.900 359.268, 226.993 359.900, 226.985 359.403 C 226.977 358.906, 226.415 359.453, 225.735 360.618 C 225.056 361.782, 223.652 363.934, 222.615 365.399 C 220.449 368.457, 221.195 369.984, 223.999 368.233 C 225.385 367.367, 226.095 367.345, 226.594 368.152 C 226.972 368.763, 226.655 369.641, 225.890 370.103 C 221.375 372.831, 221.403 372.776, 223.017 375.687 C 224.705 378.733, 230.562 380.608, 232.740 378.800 C 233.647 378.048, 234 378.132, 234 379.100 C 234 379.840, 234.716 379.423, 235.590 378.175 C 237.244 375.814, 240.645 376.878, 239.658 379.448 C 239.383 380.167, 240.881 380.647, 243.795 380.774 C 246.309 380.883, 248.632 381.404, 248.957 381.931 C 249.283 382.458, 250.438 382.751, 251.525 382.583 C 252.611 382.414, 254.572 382.676, 255.882 383.164 C 258.817 384.257, 262 383.356, 262 381.433 C 262 380.645, 262.675 380, 263.500 380 C 264.325 380, 265 379.564, 265 379.031 C 265 378.499, 265.640 378.308, 266.422 378.608 C 268.063 379.238, 271.993 377.361, 273.601 375.181 C 274.206 374.360, 275.781 373.608, 277.101 373.511 C 278.549 373.405, 279.642 372.603, 279.858 371.488 C 280.217 369.633, 282.332 367, 283.464 367 C 283.797 367, 283.605 367.870, 283.035 368.934 C 282.466 369.998, 282.020 371.911, 282.044 373.184 C 282.076 374.879, 282.474 374.427, 283.529 371.500 C 284.321 369.300, 284.977 367.387, 284.985 367.250 C 284.993 367.113, 285.388 367, 285.861 367 C 286.335 367, 286.550 368.238, 286.340 369.750 L 285.957 372.500 287.131 370 C 288.122 367.888, 288.371 367.777, 288.732 369.283 C 289.110 370.862, 289.381 370.786, 291.080 368.626 C 292.136 367.283, 293 365.711, 293 365.133 C 293 363.462, 298.372 358.930, 299.735 359.452 C 301.897 360.281, 305.651 349.173, 306.139 340.500 C 306.376 336.287, 307.834 331.943, 309.377 330.850 C 309.882 330.492, 310.214 327.229, 310.114 323.600 C 310.014 319.950, 310.359 317, 310.887 317 C 312.817 317, 313.118 311.315, 311.381 307.672 C 310.126 305.041, 309.924 303.486, 310.631 301.902 C 311.521 299.907, 311.790 300.138, 314.001 304.794 C 316.048 309.106, 316.671 309.711, 318.216 308.884 C 319.512 308.191, 320.146 308.283, 320.437 309.207 C 320.661 309.918, 321.614 312.933, 322.555 315.906 C 324.974 323.555, 323.893 339.080, 320.354 347.500 C 318.967 350.800, 317.328 354.720, 316.711 356.212 C 315.241 359.769, 316.317 360.677, 319.519 358.580 C 321.367 357.369, 321.925 356.338, 321.484 354.951 C 321.016 353.476, 321.243 353.156, 322.435 353.613 C 323.326 353.955, 324 353.691, 324 352.999 C 324 352.220, 324.850 351.996, 326.364 352.376 C 328.551 352.925, 328.727 352.674, 328.727 349.002 C 328.727 344.833, 330.304 342, 332.622 342 C 333.380 342, 334 341.495, 334 340.878 C 334 340.051, 334.358 340.052, 335.360 340.884 C 336.137 341.529, 336.515 343.088, 336.241 344.521 C 335.859 346.520, 336.090 346.903, 337.381 346.407 C 338.271 346.066, 339 344.859, 339 343.726 C 339 342.594, 339.296 341.963, 339.658 342.325 C 341.295 343.962, 342.965 340.636, 342.372 336.922 C 341.988 334.524, 342.427 330.603, 343.538 326.498 C 344.888 321.509, 345.039 319.639, 344.159 318.759 C 343.522 318.122, 343 316.776, 343 315.769 C 343 314.761, 342.325 313.678, 341.500 313.362 C 340.574 313.006, 340 311.487, 340 309.393 C 340 307.527, 339.501 306, 338.891 306 C 338.190 306, 337.958 304.618, 338.261 302.250 C 338.797 298.054, 336.737 293.693, 331.647 288.250 C 328.101 284.458, 327 284.191, 327 287.122 C 327 288.785, 326.709 289.003, 325.658 288.131 C 324.920 287.519, 324.113 287.221, 323.864 287.469 C 323.616 287.718, 322.591 286.395, 321.587 284.531 C 319.714 281.054, 313.425 279.337, 314.696 282.650 C 314.981 283.392, 314.591 284, 313.830 284 C 311.985 284, 306 278.470, 306 276.765 C 306 275.528, 296.201 270, 294.009 270 C 293.489 270, 293.334 270.707, 293.665 271.570 C 294.343 273.336, 292.437 273.124, 279.500 269.995 C 271.579 268.079, 265.974 269.045, 269.604 271.700 C 270.962 272.693, 271.042 273.017, 269.941 273.070 C 269.057 273.113, 269.272 273.473, 270.500 274 C 272.428 274.829, 272.421 274.862, 270.309 274.930 C 269.104 274.968, 267.870 275.402, 267.566 275.893 C 267.262 276.385, 262.910 276.587, 257.895 276.343 C 247.821 275.853, 244 274.246, 244 270.500 C 244 269.251, 243.371 266.734, 242.602 264.905 L 241.204 261.580 240.501 268.144" stroke="none" fill="black" fill-rule="evenodd"/>
</svg>