<svg xmlns="http://www.w3.org/2000/svg" width="1024" height="1024" viewBox="0 0 1024 1024" version="1.1">
	<path d="M 775.568 925.537 C 773.859 928.146, 773.865 928.310, 775.763 930.207 C 778.106 932.551, 776.715 937.344, 773.943 936.475 C 773.016 936.185, 771.554 937.112, 770.333 938.763 C 767.661 942.378, 766.501 946, 768.016 946 C 768.649 946, 768.960 946.563, 768.708 947.250 C 768.456 947.938, 767.720 948.379, 767.071 948.232 C 765.761 947.934, 762.888 950.441, 763.101 951.696 C 763.520 954.170, 762.797 955.355, 762 953.500 C 761.180 951.592, 761.137 951.603, 761.070 953.750 C 761.011 955.641, 760.442 956, 757.500 956 C 753.097 956, 752.939 957.530, 757.250 958.422 C 760.241 959.041, 760.356 959.202, 758.697 960.446 C 757.706 961.189, 756.412 963.531, 755.822 965.649 C 754.798 969.323, 754.708 969.390, 753.853 967.105 C 753.360 965.788, 753.222 963.875, 753.546 962.855 C 753.948 961.587, 753.639 961, 752.567 961 C 751.705 961, 751 960.460, 751 959.800 C 751 958.867, 750.733 958.867, 749.800 959.800 C 748.099 961.501, 747.003 961.287, 746.985 959.250 C 746.972 957.758, 746.829 957.721, 746.021 959 C 744.873 960.817, 723.046 961.768, 719 960.178 L 716.500 959.196 719 958.161 C 721.282 957.217, 721.124 957.121, 717.179 957.063 C 712.434 956.994, 707.783 954.071, 712.179 953.921 C 714.451 953.844, 714.445 953.822, 711.927 952.897 C 709.627 952.052, 709.363 951.433, 709.427 947.060 C 709.467 944.369, 709.725 942.219, 710 942.282 C 712.335 942.815, 715.015 940.618, 714.407 938.669 C 713.547 935.914, 708.491 931, 706.515 931 C 703.179 931, 695.193 945.025, 694.584 951.955 C 694.413 953.905, 694.211 956.063, 694.136 956.750 C 694.061 957.438, 693.298 958, 692.441 958 C 691.584 958, 691.178 958.478, 691.539 959.063 C 691.900 959.648, 691.406 960.999, 690.440 962.067 C 688.477 964.235, 683 964.397, 683 962.287 C 683 961.579, 682.341 961, 681.535 961 C 680.730 961, 679.589 960.100, 679 959 C 678.382 957.846, 676.906 957, 675.510 957 C 672.741 957, 671.226 961.846, 672.457 966.764 C 672.834 968.269, 673.426 971.075, 673.773 973 L 674.404 976.500 675.070 973 C 675.643 969.990, 675.755 970.305, 675.868 975.250 C 676.037 982.599, 678 982.829, 678 975.500 C 678 970.397, 679.011 968.591, 680.510 971.016 C 680.856 971.575, 681.557 971.774, 682.069 971.457 C 682.581 971.141, 683 971.835, 683 973 C 683 975.743, 684.947 974.567, 685.168 971.691 C 685.261 970.486, 685.635 972.200, 686 975.500 C 686.631 981.203, 686.673 981.277, 686.847 977 C 687.081 971.264, 688.962 973.538, 688.985 979.583 C 688.994 982.126, 689.472 983.701, 690.250 983.758 C 690.938 983.808, 693.835 984.168, 696.690 984.557 L 701.880 985.264 702.260 980.382 L 702.640 975.500 702.820 980.583 C 702.983 985.186, 703.212 985.651, 705.250 985.508 C 707.093 985.379, 707.666 984.505, 708.418 980.675 C 709.618 974.557, 711 974.699, 711 980.941 C 711 985.800, 712.192 988.117, 713.556 985.910 C 714.038 985.130, 714.451 985.111, 714.906 985.847 C 715.266 986.431, 719.147 987.168, 723.531 987.485 C 727.914 987.803, 733.222 988.284, 735.327 988.555 C 737.432 988.827, 741.327 988.760, 743.981 988.408 L 748.808 987.768 749.573 983.134 L 750.338 978.500 751.274 983.230 C 752.030 987.057, 752.619 987.979, 754.355 988.059 C 768.008 988.688, 788.389 988.723, 790.643 988.123 C 793.347 987.402, 793.535 986.989, 794.156 980.431 C 794.850 973.101, 796.722 966.646, 797.036 970.500 C 797.175 972.195, 797.321 972.119, 798 970 C 800.441 962.377, 797.932 960.169, 786.429 959.820 C 780.751 959.647, 780.701 959.624, 785.250 959.265 C 787.862 959.059, 790 958.465, 790 957.945 C 790 957.425, 791.350 957, 793 957 C 794.650 957, 796 956.550, 796 956 C 796 955.450, 797.575 955, 799.500 955 C 802.253 955, 803 954.601, 803 953.129 C 803 950.794, 797.021 936.997, 795.183 935.090 C 794.435 934.315, 792.799 932.058, 791.548 930.076 C 788.373 925.047, 786.840 923.996, 781.768 923.375 C 777.772 922.886, 777.167 923.097, 775.568 925.537" stroke="none" fill="black" fill-rule="evenodd"/>
</svg>