<svg xmlns="http://www.w3.org/2000/svg" width="1024" height="1024" viewBox="0 0 1024 1024" version="1.1">
	<path d="M 982 836.785 C 979.525 837.624, 977.217 838.741, 976.871 839.268 C 976.512 839.814, 976.009 839.640, 975.700 838.863 C 975.311 837.885, 975.136 837.976, 975.079 839.185 C 974.959 841.748, 976.912 846.270, 978.967 848.184 C 980.770 849.864, 982.258 853.778, 985.454 865.250 C 986.335 868.413, 987.534 871, 988.118 871 C 991.622 871, 993.809 879.103, 990.834 881.067 C 989.988 881.625, 995.417 904.036, 1001.090 923.413 C 1003.992 933.321, 1005 935.730, 1005 932.750 C 1005 931.879, 1005.367 931.017, 1005.816 930.833 C 1006.265 930.650, 1005.837 923.525, 1004.865 915 C 1003.893 906.475, 1002.619 895, 1002.033 889.500 C 1001.447 884, 1000.693 877.710, 1000.357 875.523 C 999.785 871.788, 999.856 871.635, 1001.540 873.023 C 1003.220 874.407, 1003.295 874.266, 1002.732 870.768 C 1002.402 868.716, 1002.524 866.794, 1003.003 866.498 C 1005.179 865.153, 1003.143 856.565, 1000.044 854.017 C 998.300 852.583, 996.986 850.548, 996.991 849.289 C 996.996 848.073, 996.056 846.198, 994.902 845.123 C 993.213 843.550, 992.946 842.522, 993.532 839.854 C 994.188 836.867, 994.099 836.673, 992.630 837.892 C 991.237 839.048, 991 839.009, 991 837.622 C 991 836.730, 990.587 836, 990.082 836 C 989.577 836, 988.564 835.833, 987.832 835.630 C 987.099 835.426, 984.475 835.946, 982 836.785" stroke="none" fill="black" fill-rule="evenodd"/>
</svg>