<svg xmlns="http://www.w3.org/2000/svg" width="1024" height="1024" viewBox="0 0 1024 1024" version="1.1">
	<path d="M 761.032 249.168 C 760.979 251.941, 762.126 254, 763.724 254 C 764.832 254, 765.069 254.665, 764.617 256.500 C 762.576 264.773, 762.588 264.574, 764.206 263.238 C 766.545 261.306, 768.327 264.092, 767.721 268.731 C 765.961 282.195, 763.688 290.168, 761.356 291.055 C 756.293 292.980, 757.957 293.171, 779.250 293.110 C 782.980 293.100, 785.060 293.516, 785.170 294.297 C 786.051 300.535, 785.310 328.047, 784.250 328.456 C 783.563 328.720, 783 330.301, 783 331.969 C 783 334.729, 782.710 334.997, 779.750 334.965 C 777.962 334.945, 775.375 334.286, 774 333.500 C 770.361 331.420, 768.526 331.597, 770.711 333.818 C 773.097 336.243, 778.895 339.506, 782.365 340.377 C 786.988 341.537, 789 340.341, 789 336.433 C 789 334.545, 789.450 333, 790 333 C 791.482 333, 791.213 326.356, 789.669 324.812 C 787.400 322.543, 786.900 318.229, 787.916 309.703 C 789.887 293.175, 789.969 290, 788.428 290 C 787.642 290, 787 289.073, 787 287.941 C 787 286.809, 787.432 286.149, 787.961 286.476 C 788.499 286.809, 789.216 284.856, 789.590 282.035 C 789.957 279.266, 790.636 277, 791.097 277 C 791.559 277, 791.696 276.371, 791.400 275.601 C 791.105 274.832, 791.344 273.905, 791.932 273.542 C 792.521 273.178, 793 273.607, 793 274.500 C 793 275.390, 793.387 275.879, 793.860 275.587 C 796.111 274.195, 799.794 277.572, 801.048 282.178 C 802.026 285.769, 802.968 287.149, 804.920 287.853 C 809.447 289.485, 815.825 296.856, 814.527 298.956 C 814.172 299.530, 814.359 300, 814.941 300 C 815.523 300, 816 300.618, 816 301.373 C 816 302.128, 816.982 304.940, 818.181 307.623 L 820.362 312.500 821.457 308.090 C 822.196 305.115, 823.290 303.350, 824.817 302.668 C 826.084 302.103, 826.858 301.072, 826.573 300.329 C 826.292 299.598, 826.671 299, 827.415 299 C 828.158 299, 828.993 298.136, 829.269 297.080 C 829.697 295.443, 830.416 295.240, 834.136 295.702 C 839.182 296.329, 840.816 297.989, 843.316 305.028 C 845.519 311.229, 846.989 311.534, 845.589 305.500 C 845.015 303.025, 844.198 301, 843.773 301 C 843.348 301, 843 300.212, 843 299.250 C 843.001 297.683, 840.215 291.398, 834.851 280.864 C 833.833 278.864, 833 276.539, 833 275.697 C 833 274.855, 832.648 274.017, 832.218 273.833 C 831.788 273.650, 829.927 270.013, 828.083 265.751 C 824.106 256.558, 819.719 251.101, 819.195 254.695 C 818.986 256.128, 818.376 256.698, 817.438 256.338 C 815.237 255.493, 815.709 258.108, 818.500 262.215 C 821.504 266.635, 821.699 269, 819.059 269 C 817.991 269, 816.810 269.498, 816.434 270.107 C 815.955 270.883, 816.743 270.996, 819.068 270.485 C 822.186 269.800, 822.284 269.858, 820.693 271.450 C 818.562 273.581, 818.527 275, 820.607 275 C 821.662 275, 822.005 275.544, 821.607 276.582 C 821.273 277.452, 821 278.338, 821 278.550 C 821 278.763, 820.325 278.678, 819.500 278.362 C 818.675 278.045, 818 278.284, 818 278.893 C 818 280.113, 818.622 280.234, 824.541 280.162 C 828.910 280.110, 830.385 282.606, 827.433 285.056 C 826.645 285.710, 826 286.912, 826 287.727 C 826 288.854, 825.040 289.119, 822.009 288.829 C 819.813 288.620, 817.881 288.858, 817.714 289.358 C 817.547 289.859, 816.679 289.537, 815.786 288.643 C 814.587 287.444, 814.041 287.344, 813.704 288.259 C 813.452 288.942, 812.917 288.262, 812.515 286.750 C 812.112 285.238, 811.167 284, 810.415 284 C 809.363 284, 809.165 282.753, 809.558 278.606 C 809.924 274.751, 809.669 272.812, 808.667 271.810 C 807.397 270.539, 806.931 269.406, 805.353 263.750 C 804.995 262.465, 805.481 261.969, 807.183 261.884 C 809.223 261.782, 809.261 261.711, 807.500 261.287 C 806.400 261.022, 805.072 260.400, 804.550 259.903 C 802.664 258.110, 801.789 259.067, 802.188 262.484 C 802.412 264.401, 802.134 266.122, 801.571 266.310 C 801.008 266.497, 800.657 268.079, 800.790 269.825 C 800.985 272.381, 800.654 273, 799.098 273 C 796.102 273, 794 271.925, 794 270.393 C 794 269.627, 793.564 269, 793.031 269 C 792.499 269, 792.298 268.388, 792.585 267.639 C 792.909 266.794, 791.802 265.660, 789.662 264.644 C 787.768 263.745, 785.958 262.332, 785.640 261.505 C 784.893 259.557, 783 259.554, 783 261.500 C 783 263.279, 782.900 263.293, 779.463 261.986 C 777.607 261.280, 776.983 260.487, 777.410 259.375 C 777.858 258.207, 777.592 257.943, 776.421 258.392 C 774.200 259.244, 769 255.320, 769 252.792 C 769 250.884, 766.521 248.107, 764.750 248.032 C 764.337 248.014, 764 248.761, 764 249.691 C 764 251.166, 763.812 251.134, 762.532 249.441 C 761.265 247.767, 761.059 247.729, 761.032 249.168" stroke="none" fill="black" fill-rule="evenodd"/>
</svg>