<svg xmlns="http://www.w3.org/2000/svg" width="1024" height="1024" viewBox="0 0 1024 1024" version="1.1">
	<path d="M 481 629.012 C 479.216 631.006, 477.856 631.660, 476.250 631.295 C 473.347 630.635, 473.178 633.685, 475.924 637.176 C 476.982 638.522, 479.039 643.300, 480.494 647.795 C 481.949 652.290, 483.558 656.227, 484.070 656.543 C 484.581 656.859, 485 658.018, 485 659.118 C 485 660.218, 485.386 660.879, 485.858 660.588 C 486.330 660.296, 487.230 663.169, 487.858 666.971 C 489.344 675.966, 489.340 676, 487 676 C 485.900 676, 485 676.450, 485 677 C 485 677.550, 483.934 678, 482.631 678 C 480.670 678, 480.155 678.646, 479.642 681.750 C 478.526 688.503, 478.820 691.283, 480.579 690.608 C 482.522 689.863, 487 690.896, 487 692.089 C 487 692.569, 484.987 692.686, 482.526 692.348 C 478.422 691.786, 477.973 691.940, 477.109 694.212 C 476.591 695.575, 475.459 697.398, 474.593 698.264 C 472.249 700.608, 473.581 705.732, 476.992 707.496 C 479.537 708.812, 479.883 708.727, 482.234 706.202 C 483.618 704.716, 485.221 702.150, 485.796 700.500 C 486.371 698.850, 486.878 698.063, 486.921 698.750 C 487.129 702.049, 488.861 699.366, 490.006 693.970 C 490.710 690.653, 492.009 687.477, 492.893 686.912 C 494.013 686.195, 494.139 685.731, 493.306 685.377 C 491.930 684.793, 489.518 678.149, 490.372 677.294 C 490.687 676.980, 491.438 678.021, 492.041 679.607 C 493.800 684.234, 498.079 689.321, 499.237 688.163 C 501.264 686.136, 499.901 655.448, 497.499 649 C 496.576 646.525, 495.772 641.474, 495.711 637.776 C 495.610 631.613, 495.464 631.175, 493.963 632.534 C 492.507 633.851, 492.070 633.795, 490.033 632.029 C 488.773 630.936, 487.350 630.284, 486.871 630.580 C 486.392 630.876, 486 630.727, 486 630.250 C 486 629.773, 485.438 628.670, 484.750 627.800 C 483.638 626.393, 483.223 626.527, 481 629.012" stroke="none" fill="black" fill-rule="evenodd"/>
</svg>