<svg xmlns="http://www.w3.org/2000/svg" width="1024" height="1024" viewBox="0 0 1024 1024" version="1.1">
	<path d="M 418 148.915 C 418 149.577, 417.581 149.859, 417.068 149.542 C 416.556 149.226, 415.467 149.923, 414.648 151.092 C 413.830 152.261, 412.727 152.950, 412.199 152.623 C 411.671 152.296, 409.548 153.373, 407.482 155.015 C 405.329 156.725, 402.528 158, 400.922 158 C 399.380 158, 397.876 158.392, 397.580 158.871 C 397.284 159.350, 395.795 160.009, 394.271 160.336 C 392.747 160.662, 389.475 162.858, 387 165.215 L 382.500 169.500 374.724 169.390 C 365.742 169.263, 365.998 169.406, 365.295 164.161 C 364.881 161.079, 364.240 160.026, 362.512 159.592 C 359.981 158.957, 350.423 161.506, 349.454 163.075 C 349.034 163.754, 348.348 163.704, 347.411 162.926 C 346.306 162.009, 346 162.072, 346 163.218 C 346 164.821, 338.410 173, 336.923 173 C 336.415 173, 336 173.490, 336 174.090 C 336 175.681, 330.736 181, 329.162 181 C 328.423 181, 325.978 182.575, 323.729 184.500 C 321.480 186.425, 319.271 188, 318.820 188 C 318.369 188, 318 188.477, 318 189.059 C 318 189.641, 318.450 189.840, 319 189.500 C 319.621 189.116, 320 190.990, 320 194.441 C 320 199.229, 319.737 200, 318.107 200 C 317.066 200, 315.958 200.667, 315.645 201.483 C 315.332 202.299, 314.418 202.714, 313.615 202.406 C 312.770 202.082, 311.712 202.670, 311.108 203.798 C 310.153 205.583, 310.490 205.807, 315.027 206.409 C 317.757 206.771, 320.252 207.023, 320.571 206.968 C 320.890 206.913, 321.914 207.748, 322.847 208.823 C 323.779 209.898, 328.582 212.136, 333.521 213.795 C 344.423 217.459, 361.224 225.171, 365.637 228.536 C 367.413 229.891, 369.487 231, 370.245 231 C 371.003 231, 372.655 231.962, 373.917 233.138 C 375.538 234.647, 376.425 234.931, 376.936 234.104 C 377.334 233.459, 378.376 233.207, 379.250 233.543 C 380.380 233.976, 380.943 233.479, 381.194 231.826 C 381.388 230.547, 382.099 229.612, 382.774 229.750 C 383.448 229.887, 384 229.025, 384 227.833 C 384 226.642, 384.285 225.952, 384.633 226.300 C 384.981 226.648, 386.604 225.086, 388.239 222.829 C 390.519 219.681, 391.417 219.048, 392.091 220.112 C 392.717 221.102, 392.974 220.695, 392.985 218.691 C 392.993 217.146, 393.381 216.117, 393.846 216.405 C 394.311 216.692, 395.769 214.581, 397.085 211.714 C 398.402 208.846, 399.738 206.275, 400.054 206 C 400.371 205.725, 402.791 201.509, 405.432 196.631 C 409.020 190.005, 410.477 188.108, 411.193 189.131 C 411.745 189.918, 412.333 190.075, 412.578 189.500 C 412.812 188.950, 413.848 186.925, 414.881 185 C 415.913 183.075, 417.790 179.510, 419.052 177.077 C 420.314 174.644, 422.056 171.900, 422.923 170.978 C 429.516 163.971, 432.003 161.063, 432.022 160.339 C 432.034 159.878, 432.924 158.375, 434 157 C 438.263 151.550, 436.033 149.389, 425.095 148.372 C 419.869 147.887, 418 148.030, 418 148.915" stroke="none" fill="black" fill-rule="evenodd"/>
</svg>