<svg xmlns="http://www.w3.org/2000/svg" width="1024" height="1024" viewBox="0 0 1024 1024" version="1.1">
	<path d="M 426 614.651 C 424.625 614.921, 422.952 615.851, 422.281 616.719 C 421.288 618.005, 420.782 618.064, 419.544 617.037 C 416.839 614.791, 403.826 619.458, 398.047 624.745 C 396.096 626.530, 393.911 627.993, 393.192 627.995 C 392.473 627.998, 389.851 630.138, 387.365 632.750 C 384.880 635.362, 381.531 638.873, 379.923 640.551 C 378.316 642.229, 377 644.104, 377 644.718 C 377 645.331, 376.471 646.010, 375.825 646.225 C 375.178 646.441, 374.555 648.391, 374.440 650.558 C 374.221 654.673, 373.112 658.030, 369.959 664.125 C 367.518 668.844, 366.631 696.638, 368.836 699.300 C 369.571 700.187, 369.882 701.382, 369.527 701.956 C 369.172 702.530, 369.390 703, 370.011 703 C 371.408 703, 370.899 707.212, 369.444 707.690 C 367.304 708.394, 363.544 687.265, 364.249 678.493 C 364.733 672.451, 364.659 672.180, 362.628 672.569 C 361.458 672.793, 360.050 673.584, 359.500 674.326 C 358.950 675.068, 357.938 675.486, 357.250 675.254 C 355.634 674.710, 355.615 678.215, 357.225 679.825 C 358.192 680.792, 358.174 681.492, 357.142 683.145 C 355.922 685.097, 355.628 690.116, 356.387 696 C 356.565 697.375, 356.276 699.625, 355.745 701 C 354.318 704.698, 354.855 717.108, 356.555 719.715 C 357.350 720.933, 358 723.242, 358 724.846 C 358 727.004, 358.910 728.457, 361.500 730.432 C 364.744 732.906, 366.302 737, 364 737 C 362.022 737, 363.091 738.738, 368.596 744.467 C 373.584 749.658, 374.125 750.628, 373.573 753.395 C 373.233 755.103, 372.596 756.623, 372.158 756.773 C 371.720 756.923, 371.892 760.429, 372.541 764.565 C 373.670 771.762, 373.630 772.146, 371.610 773.569 C 369.801 774.843, 369.457 774.851, 369.196 773.627 C 368.825 771.886, 364 776.324, 364 778.407 C 364 779.261, 363.147 779.560, 361.567 779.258 C 360.229 779.002, 358.104 779.514, 356.845 780.396 C 355.585 781.278, 353.719 782, 352.697 782 C 351.675 782, 348.466 783.575, 345.566 785.500 C 342.666 787.425, 339.700 789, 338.975 789 C 338.250 789, 336.833 789.746, 335.825 790.659 C 332.387 793.770, 328.598 790.918, 329.411 785.832 C 329.772 783.572, 329.570 780.226, 328.960 778.378 C 327.870 775.075, 327.810 775.047, 325.010 776.495 C 321.041 778.547, 319.604 783.552, 320.293 792.917 C 320.599 797.088, 320.621 799.938, 320.342 799.250 C 320.062 798.563, 319.373 798, 318.810 798 C 318.247 798, 318.059 798.675, 318.393 799.500 C 318.727 800.325, 319.286 801.709, 319.636 802.575 C 320.093 803.708, 319.770 804.059, 318.486 803.825 C 315.993 803.371, 312.024 815.956, 311.334 826.500 C 310.929 832.692, 310.131 835.856, 307.806 840.500 C 306.154 843.800, 304.421 849.159, 303.955 852.408 C 303.489 855.657, 302.695 858.582, 302.192 858.908 C 301.048 859.648, 300.222 863.993, 299.040 875.500 C 298.531 880.450, 297.390 887.600, 296.504 891.388 C 294.564 899.678, 294.830 900.583, 299.585 901.896 C 304.653 903.295, 306.646 901.754, 306.563 896.500 C 306.502 892.652, 306.614 892.510, 309.500 892.763 C 320.464 893.725, 320.950 893.682, 322.901 891.585 C 323.967 890.438, 324.988 888.150, 325.170 886.500 C 325.361 884.760, 326.025 883.605, 326.750 883.750 C 327.438 883.888, 328 883.325, 328 882.500 C 328 881.675, 328.498 881, 329.106 881 C 329.714 881, 331.852 879.725, 333.856 878.166 C 338.207 874.782, 340.727 873.749, 341.516 875.025 C 341.834 875.541, 344.542 874.583, 347.531 872.895 C 350.521 871.208, 354.164 869.696, 355.626 869.536 C 357.088 869.375, 358.676 868.544, 359.154 867.689 C 361.316 863.825, 381.138 859, 394.847 859 C 402.739 859, 403.762 858.796, 403.639 857.250 C 403.428 854.599, 407.810 854.546, 417.251 857.086 C 421.788 858.307, 426.962 859.511, 428.750 859.762 C 430.538 860.013, 432 860.781, 432 861.467 C 432 863.139, 441.644 868.074, 443.512 867.357 C 444.443 867, 445.294 867.620, 445.819 869.038 C 446.305 870.352, 448.072 871.746, 450.075 872.393 C 451.959 873.002, 453.944 874.512, 454.487 875.750 C 455.030 876.987, 456.054 878, 456.762 878 C 457.470 878, 458.477 879.125, 459 880.500 C 459.523 881.875, 460.611 883, 461.419 883 C 462.226 883, 463.551 883.949, 464.363 885.108 C 465.176 886.268, 466.326 886.916, 466.920 886.549 C 467.557 886.156, 468 886.711, 468 887.905 C 468 889.123, 469.493 890.943, 471.750 892.478 C 475.196 894.822, 475.599 894.893, 476.728 893.353 C 477.922 891.725, 477.448 887.035, 475.986 886 C 474.641 885.049, 472 879.091, 472 877.010 C 472 870.402, 478.320 864.720, 481.800 868.200 C 482.733 869.133, 483 869.018, 483 867.680 C 483 866.403, 483.628 866.075, 485.441 866.404 C 489.722 867.180, 490.507 864.592, 488.523 856.250 C 488.098 854.462, 487.385 853, 486.938 853 C 483.901 853, 489.019 841.443, 493.723 837.677 C 495.577 836.193, 496.022 834.801, 496.118 830.177 C 496.232 824.726, 497.638 816.738, 497.882 820.156 C 498.100 823.206, 501.900 821.107, 502.437 817.640 C 503.943 807.919, 503.221 798, 501.006 798 C 500.590 798, 500.250 796.883, 500.250 795.518 C 500.250 794.153, 500.629 793.271, 501.091 793.557 C 501.554 793.843, 501.836 786.109, 501.716 776.371 C 501.556 763.254, 501.176 758.558, 500.250 758.250 C 499.510 758.003, 499 756.091, 499 753.566 C 499 751.219, 498.439 747.769, 497.754 745.899 L 496.507 742.500 495.904 747 L 495.300 751.500 495.150 747.250 C 495.068 744.913, 494.550 743, 494 743 C 493.415 743, 492.994 739.573, 492.985 734.750 C 492.962 722.439, 491.178 721.230, 485.688 729.806 C 482.478 734.820, 474.930 743, 473.513 743 C 473.231 743, 473 741.452, 473 739.559 C 473 735.813, 474.703 733.923, 476.096 736.122 C 476.717 737.102, 476.974 736.706, 476.985 734.750 C 476.993 733.237, 477.337 731.986, 477.750 731.969 C 479.676 731.888, 482.060 726.981, 481.072 725.134 C 478.984 721.234, 476.089 721.810, 470.135 727.311 C 467.047 730.165, 463.927 733.288, 463.203 734.250 C 462.479 735.212, 461.274 736, 460.525 736 C 459.777 736, 456.980 737.097, 454.310 738.438 C 446.273 742.475, 444.240 743.069, 443.657 741.549 C 443.318 740.664, 444.867 739.558, 448.245 738.275 C 452.173 736.782, 453.385 735.817, 453.513 734.078 C 453.660 732.081, 453.291 731.864, 450.340 732.209 C 448.503 732.423, 447 732.310, 447 731.957 C 447 731.118, 454.723 728.761, 458.292 728.512 C 459.827 728.404, 461.594 727.806, 462.218 727.182 C 463.044 726.356, 463.712 726.346, 464.676 727.146 C 465.733 728.023, 466 727.515, 466 724.622 C 466 722.281, 466.469 721, 467.326 721 C 468.055 721, 469.690 719.895, 470.958 718.544 C 472.227 717.194, 473.768 716.181, 474.383 716.294 C 474.997 716.407, 475.641 715.041, 475.813 713.257 C 476.042 710.886, 475.768 710.152, 474.796 710.525 C 473.781 710.914, 473.467 709.612, 473.467 705.017 C 473.467 701.708, 473.760 699, 474.119 699 C 474.478 699, 475.545 697.370, 476.491 695.378 C 478.165 691.850, 478.323 691.772, 482.605 692.359 C 485.022 692.691, 487 692.569, 487 692.089 C 487 690.896, 482.522 689.863, 480.579 690.608 C 478.820 691.283, 478.526 688.503, 479.642 681.750 C 480.155 678.646, 480.670 678, 482.631 678 C 483.934 678, 485 677.550, 485 677 C 485 676.450, 485.900 676, 487 676 C 489.340 676, 489.344 675.966, 487.858 666.971 C 487.230 663.169, 486.330 660.296, 485.858 660.588 C 485.386 660.879, 485 660.218, 485 659.118 C 485 658.018, 484.581 656.859, 484.070 656.543 C 483.558 656.227, 481.946 652.280, 480.487 647.773 C 477.949 639.933, 473.049 632, 470.744 632 C 470.146 632, 467.246 629.491, 464.299 626.424 C 456.617 618.429, 448.247 614.747, 437 614.413 C 432.325 614.275, 427.375 614.382, 426 614.651" stroke="none" fill="black" fill-rule="evenodd"/>
</svg>