<svg xmlns="http://www.w3.org/2000/svg" width="1024" height="1024" viewBox="0 0 1024 1024" version="1.1">
	<path d="M 436 969.132 C 436 970.709, 436.450 972, 437 972 C 437.550 972, 438 972.675, 438 973.500 C 438 974.325, 437.606 975, 437.125 975 C 436.644 975, 436.250 976.176, 436.250 977.614 C 436.250 979.961, 434.686 981.943, 432.802 981.985 C 432.419 981.993, 431.969 979.638, 431.802 976.750 C 431.523 971.897, 431.311 971.500, 429 971.500 C 427.625 971.500, 426.127 971.050, 425.672 970.500 C 425.217 969.950, 425.168 971.975, 425.564 975 C 425.959 978.025, 426.270 981.175, 426.254 982 C 426.174 986.083, 425.544 989.625, 424.696 990.750 C 423.954 991.735, 426.730 992, 437.807 992 L 451.858 992 452.179 982.750 C 452.597 970.697, 452.288 969.110, 449.381 968.381 C 448.072 968.052, 447 967.384, 447 966.896 C 447 966.409, 444.525 966.067, 441.500 966.136 C 436.141 966.260, 436 966.337, 436 969.132" stroke="none" fill="black" fill-rule="evenodd"/>
</svg>