<svg xmlns="http://www.w3.org/2000/svg" width="1024" height="1024" viewBox="0 0 1024 1024" version="1.1">
	<path d="M 339.684 485.250 C 337.066 492.260, 336.713 494.892, 337.979 497.948 C 339.115 500.692, 338.357 502.501, 324.680 529.710 C 316.703 545.579, 309.009 560.758, 307.582 563.442 C 306.155 566.125, 305.103 568.414, 305.244 568.528 C 306.678 569.686, 312.926 569.775, 314.451 568.659 C 316.407 567.229, 315.833 565, 313.508 565 C 310.184 565, 311.503 557.603, 315.312 554.888 C 315.784 554.552, 316.135 553.877, 316.090 553.388 C 315.906 551.349, 318.233 546.026, 319.081 546.550 C 319.586 546.862, 320 546.401, 320 545.524 C 320 541.532, 322.953 539.143, 327.565 539.403 C 333.050 539.713, 333.308 538.472, 328.082 536.907 C 324.420 535.809, 324.236 535.576, 325.260 533.328 C 325.877 531.974, 326.934 531.144, 327.678 531.430 C 328.572 531.773, 329 531.066, 329 529.246 C 329 527.766, 332.169 520.131, 336.042 512.278 C 343.385 497.389, 344.278 496.473, 348.993 498.996 C 350.017 499.544, 351.607 499.704, 352.527 499.351 C 354.720 498.510, 347.730 495.083, 343.719 495.034 C 340.026 494.989, 339.444 492.995, 341.389 487.051 C 343.253 481.352, 343.296 481, 342.136 481 C 341.661 481, 340.557 482.913, 339.684 485.250" stroke="none" fill="black" fill-rule="evenodd"/>
</svg>