<svg xmlns="http://www.w3.org/2000/svg" width="1024" height="1024" viewBox="0 0 1024 1024" version="1.1">
	<path d="M 563 102.826 C 554.086 106.310, 549.399 109.331, 543.500 115.397 C 536.745 122.342, 530.087 126.759, 529.007 125.011 C 528.179 123.671, 526.582 125.401, 525.555 128.750 C 524.933 130.779, 524.232 131, 518.433 131 C 514.292 131, 512 131.405, 512 132.138 C 512 133.951, 500.938 132.276, 497.805 129.989 C 494.371 127.482, 492 128.347, 492 132.107 C 492 133.698, 491.609 135, 491.132 135 C 490.654 135, 489.493 137.745, 488.552 141.100 C 486.845 147.183, 486.847 147.205, 489.063 148.850 C 495.297 153.478, 503.657 158, 505.978 158 C 509.971 158, 539.611 151.215, 553 147.237 C 563.232 144.196, 566.992 143.815, 567.732 145.744 C 568.077 146.644, 567.829 147.557, 567.180 147.773 C 566.531 147.990, 566 149.204, 566 150.473 C 566 154.681, 562.937 156.738, 552 159.875 C 546.225 161.531, 542.486 162.912, 543.691 162.943 C 547 163.029, 547.352 164.685, 544.243 165.547 C 537.607 167.388, 522.879 168.144, 521.177 166.732 C 520.187 165.910, 519.616 165.995, 518.939 167.064 C 518.439 167.854, 518.024 168.174, 518.015 167.775 C 518.007 167.376, 516.933 167.455, 515.629 167.951 C 514.037 168.556, 511.981 168.398, 509.379 167.470 C 507.245 166.710, 505.950 166.004, 506.500 165.902 C 507.050 165.800, 504.449 165.405, 500.721 165.026 C 494.951 164.438, 493.454 163.863, 490.673 161.168 C 486.828 157.441, 485.984 157.223, 486.751 160.156 C 487.174 161.774, 486.983 162.108, 485.988 161.492 C 484.985 160.873, 484.845 161.140, 485.416 162.586 C 487.663 168.274, 489.441 184.394, 488.087 186.799 C 487.241 188.302, 487.022 188.211, 486.206 186.016 L 485.283 183.533 484.509 185.972 C 484.013 187.535, 484.142 188.547, 484.867 188.789 C 486.916 189.472, 486.054 191.980, 482.750 194.947 C 478.811 198.485, 479.977 201.421, 484.384 199.062 C 487.705 197.285, 489 198.406, 489 203.059 C 489 207.691, 488.873 207.718, 481.818 204.598 C 471.440 200.009, 466.852 193.498, 469.897 187.684 C 470.961 185.653, 471.003 185.696, 470.489 188.302 C 469.997 190.793, 470.143 190.994, 471.800 190.107 C 472.825 189.558, 474.245 188.410, 474.955 187.555 C 475.664 186.700, 476.865 186, 477.622 186 C 478.380 186, 479 185.635, 479 185.189 C 479 184.742, 479.930 183.379, 481.067 182.158 C 483.584 179.457, 483.237 176.378, 480.464 176.797 C 479.384 176.960, 475.575 178.535, 472 180.297 C 462.138 185.157, 457.078 195.556, 462.500 199.821 C 463.998 200.999, 465 202.809, 465 204.335 C 465 207.296, 465.496 207.706, 470.043 208.508 C 471.899 208.835, 474.037 209.615, 474.793 210.243 C 475.548 210.870, 477.071 211.450, 478.175 211.531 C 479.280 211.613, 480.480 212.089, 480.842 212.590 C 481.204 213.090, 482.175 213.511, 483 213.524 C 483.825 213.537, 488.212 214.433, 492.750 215.515 L 501 217.482 501.136 222.491 C 501.211 225.246, 501.450 226.375, 501.666 225 C 502.624 218.919, 503.074 218, 505.090 218 C 506.219 218, 507.822 218.679, 508.652 219.509 C 509.482 220.339, 510.575 220.763, 511.081 220.450 C 511.586 220.138, 512 221.694, 512 223.910 C 512 227.079, 512.320 227.815, 513.500 227.362 C 514.516 226.972, 515 227.412, 515 228.726 C 515 231.610, 514.483 231.773, 508.371 230.814 C 503.531 230.056, 502.579 230.179, 501.384 231.718 C 500.064 233.417, 499.925 233.407, 498.385 231.500 C 497.371 230.244, 496.608 229.930, 496.334 230.655 C 496.093 231.290, 494.683 231.634, 493.198 231.420 C 491.714 231.206, 488.717 230.850, 486.538 230.630 C 484.359 230.409, 482.408 229.725, 482.203 229.108 C 481.997 228.492, 481.410 228.246, 480.898 228.563 C 480.386 228.879, 478.470 227.596, 476.639 225.711 C 472.125 221.063, 463 219.721, 463 223.706 C 463 225.033, 462.663 225.923, 462.250 225.684 C 460.492 224.667, 457.541 226.907, 456.478 230.065 C 454.833 234.950, 456.799 236.116, 475.098 241.104 C 483.569 243.413, 490.860 245.910, 491.300 246.651 C 491.740 247.393, 493.666 248, 495.581 248 C 497.753 248, 499.279 248.564, 499.638 249.500 C 499.955 250.325, 500.642 251, 501.166 251 C 501.690 251, 501.811 250.504, 501.437 249.898 C 500.597 248.539, 516.931 249.597, 525.088 251.429 C 530.151 252.566, 530.532 252.861, 531 256.004 C 531.391 258.630, 532.100 259.523, 534.250 260.095 C 535.763 260.498, 537.007 260.528, 537.015 260.164 C 537.024 259.799, 537.461 260.175, 537.987 261 C 538.774 262.234, 539.493 261.836, 542.045 258.750 C 548.612 250.809, 561.162 255.291, 565.143 267 C 565.709 268.665, 565.808 267.663, 565.440 264 L 564.888 258.500 568.030 262.750 C 569.765 265.096, 572.005 267, 573.030 267 C 575.465 267, 578 263.286, 578 259.718 C 578 258.082, 578.423 257.143, 579 257.500 C 579.550 257.840, 580 257.641, 580 257.059 C 580 255.227, 582.998 255.911, 583.032 257.750 C 583.060 259.314, 583.193 259.334, 584.282 257.938 C 585.927 255.828, 588.047 255.128, 596.352 253.950 C 600.236 253.399, 603.771 252.398, 604.207 251.724 C 604.811 250.791, 605.240 250.857, 606.007 252 C 606.869 253.284, 607.266 253.177, 608.757 251.263 C 610.088 249.555, 613.814 248.188, 624.500 245.490 C 632.200 243.545, 639.281 241.515, 640.236 240.977 C 641.191 240.440, 643.104 240, 644.486 240 C 645.906 240, 646.891 239.481, 646.750 238.807 C 646.430 237.281, 659.888 233.488, 661.149 234.749 C 663.003 236.603, 663.342 245.471, 661.614 246.906 C 660.632 247.720, 660 249.777, 660 252.154 C 660 254.573, 659.469 256.267, 658.607 256.597 C 657.776 256.916, 656.929 259.413, 656.508 262.784 C 656.119 265.893, 654.946 269.524, 653.901 270.853 C 652.855 272.182, 652 273.717, 652 274.264 C 652 275.564, 638.664 290.900, 637.471 290.972 C 637.212 290.987, 636.608 291, 636.129 291 C 635.650 291, 634.205 292.537, 632.917 294.416 C 630.579 297.828, 625.457 300.986, 622.216 301.015 C 620.778 301.028, 620.737 301.180, 621.960 301.954 C 623.206 302.742, 623.132 303.213, 621.460 305.158 C 617.924 309.271, 617.540 309.497, 613.500 309.838 C 611.300 310.023, 609.072 310.586, 608.550 311.088 C 608.027 311.589, 606.586 312, 605.347 312 C 602.629 312, 598.380 313.759, 595.047 316.264 C 593.190 317.659, 591.662 317.950, 588.762 317.460 C 586.331 317.049, 584.397 317.255, 583.471 318.024 C 582.668 318.690, 580.866 319.016, 579.465 318.749 C 577.548 318.382, 576.957 318.662, 577.074 319.881 C 577.663 325.991, 574.615 329.020, 568.083 328.817 C 565.562 328.738, 561.519 329.444, 559.098 330.384 C 556.029 331.577, 554.378 331.778, 553.648 331.048 C 553.071 330.471, 550.467 330, 547.859 330 C 545.251 330, 542.840 329.550, 542.500 329 C 542.160 328.450, 539.973 328, 537.640 328 C 532.390 328, 528.018 326.071, 528.008 323.750 C 528.004 322.788, 528.481 322, 529.070 322 C 529.658 322, 529.995 320.988, 529.820 319.750 C 529.611 318.284, 528.803 317.491, 527.500 317.475 C 524.169 317.434, 521 315.951, 521 314.433 C 521 312.660, 520.196 312.673, 517 314.500 C 512.654 316.985, 510.274 316.399, 508.863 312.497 C 507.577 308.940, 507.270 308.858, 502.272 310.736 C 501.596 310.990, 499.762 309.915, 498.195 308.349 C 494.949 305.103, 494.361 304.912, 491.250 306.095 C 489.870 306.620, 489 306.573, 489 305.975 C 489 305.439, 488.334 305, 487.519 305 C 486.705 305, 485.775 303.953, 485.454 302.674 C 485.040 301.024, 483.507 299.858, 480.174 298.660 C 477.570 297.723, 473.753 295.194, 471.609 292.985 C 469.482 290.793, 467.103 289, 466.323 289 C 462.177 289, 457.496 277.001, 461.164 275.779 C 461.804 275.565, 460.630 274.389, 458.555 273.165 C 455.757 271.514, 454.912 270.444, 455.284 269.020 C 455.799 267.051, 449.365 259, 447.276 259 C 446.709 259, 445.685 258.325, 445 257.500 C 443.079 255.186, 441.203 255.707, 439.483 259.033 C 438.621 260.701, 437.550 261.840, 437.104 261.564 C 436.657 261.288, 435.746 262.263, 435.078 263.729 C 434.103 265.867, 433.681 266.109, 432.947 264.948 C 432.231 263.817, 432.027 263.986, 432.015 265.719 C 432.005 267.283, 432.442 267.767, 433.500 267.362 C 435.468 266.606, 435.427 268.736, 433.379 273.628 C 430.547 280.392, 426.023 296.381, 426.011 299.667 C 426.005 301.408, 425.438 303.062, 424.750 303.341 C 423.883 303.692, 423.828 304.101, 424.571 304.674 C 425.159 305.128, 426.890 308.650, 428.416 312.500 C 429.943 316.350, 431.510 319.725, 431.899 320 C 433.499 321.132, 437 327.884, 437 329.840 C 437 332.437, 441.364 342.489, 442.905 343.441 C 443.525 343.824, 443.803 344.510, 443.522 344.964 C 443.241 345.419, 443.684 346.048, 444.506 346.364 C 445.328 346.679, 446 347.851, 446 348.969 C 446 350.469, 446.654 351, 448.500 351 C 450.056 351, 451 351.567, 451 352.500 C 451 353.325, 451.450 354, 452 354 C 452.550 354, 453 354.675, 453 355.500 C 453 356.325, 453.627 357, 454.393 357 C 455.159 357, 456.045 357.675, 456.362 358.500 C 457.236 360.779, 460.944 360.327, 461.868 357.829 C 462.400 356.391, 462.915 356.053, 463.394 356.829 C 464.480 358.585, 467.328 358.297, 466.638 356.500 C 466.322 355.675, 466.499 355, 467.031 355 C 467.564 355, 468 353.623, 468 351.941 C 468 349.860, 468.374 349.113, 469.170 349.605 C 469.971 350.100, 470.125 349.769, 469.659 348.553 C 469.075 347.031, 469.371 346.876, 471.733 347.469 C 473.249 347.850, 475.099 348.667, 475.845 349.287 C 476.591 349.906, 477.719 350.511, 478.351 350.631 C 478.983 350.751, 480.962 351.164, 482.750 351.549 C 485.393 352.119, 486 351.940, 486 350.590 C 486 349.677, 486.748 347.788, 487.662 346.394 C 489.378 343.775, 493.347 343.619, 508.329 345.581 C 510.073 345.809, 514.875 345.216, 519 344.262 C 528.575 342.049, 572.679 341.660, 575.219 343.767 C 576.059 344.464, 577.432 344.771, 578.270 344.450 C 579.843 343.846, 593.369 345.437, 596.331 346.573 C 597.463 347.008, 598 346.697, 598 345.607 C 598 343.166, 610.199 343.440, 615.500 346 C 617.700 347.063, 620.175 347.983, 621 348.045 C 622.021 348.122, 622.104 348.318, 621.259 348.659 C 619.345 349.433, 622.480 352.137, 624.426 351.390 C 625.292 351.058, 626 351.270, 626 351.862 C 626 352.453, 626.618 352.700, 627.372 352.411 C 628.379 352.024, 628.616 352.556, 628.263 354.404 C 627.687 357.419, 629.635 359.592, 632.750 359.407 C 634.203 359.320, 635.005 359.844, 635.015 360.887 C 635.026 362.036, 635.254 362.149, 635.807 361.278 C 636.254 360.574, 637.745 360.268, 639.329 360.555 C 641.770 360.997, 642.289 360.579, 644.015 356.776 C 645.083 354.424, 645.966 351.712, 645.978 350.750 C 646.015 347.811, 650.311 350.159, 652.697 354.422 C 653.719 356.250, 653.802 356.239, 654.929 354.132 C 655.573 352.929, 656.439 352.153, 656.853 352.409 C 657.267 352.665, 658.701 351.103, 660.039 348.937 C 661.377 346.772, 662.816 345, 663.236 345 C 663.656 345, 664 344.210, 664 343.244 C 664 342.247, 665.324 340.902, 667.064 340.132 C 669.298 339.143, 669.944 338.332, 669.451 337.138 C 667.925 333.449, 667.919 332.224, 669.422 330.721 C 670.290 329.853, 671 328.436, 671 327.571 C 671 326.707, 671.450 326, 672 326 C 672.550 326, 673 325.373, 673 324.607 C 673 323.841, 673.675 322.955, 674.500 322.638 C 675.325 322.322, 676 321.171, 676 320.081 C 676 318.991, 676.598 317.740, 677.329 317.300 C 679.005 316.292, 681.508 308.560, 683.063 299.593 C 684.512 291.230, 683.767 282.321, 681.023 275.217 C 679.901 272.311, 678.942 268.036, 678.891 265.717 C 678.604 252.468, 664.710 213.073, 659.750 211.441 C 658.788 211.124, 658 210.221, 658 209.433 C 658 208.645, 657.100 208, 656 208 C 654.821 208, 654 208.667, 654 209.624 C 654 212.232, 641.508 224, 638.739 224 C 635.996 224, 627.101 226.812, 625.250 228.264 C 624.563 228.804, 624 230.401, 624 231.814 C 624 234.304, 623.952 234.323, 622.437 232.441 C 621.323 231.058, 620.724 230.861, 620.352 231.756 C 619.985 232.638, 619.333 232.398, 618.156 230.944 C 615.073 227.136, 613.137 229.296, 613.563 236.071 C 613.955 242.304, 612.786 243.819, 610.854 239.579 C 610.104 237.933, 609.232 237.358, 608.128 237.781 C 606.631 238.355, 606.631 238.212, 608.127 235.929 L 609.748 233.455 605.874 233.455 C 603.743 233.455, 602 233.797, 602 234.216 C 602 234.635, 600.875 234.884, 599.500 234.771 C 598.125 234.657, 597 233.960, 597 233.223 C 597 232.485, 597.450 232.160, 598 232.500 C 598.550 232.840, 599 232.606, 599 231.980 C 599 231.266, 597.973 231.054, 596.250 231.410 C 585.957 233.540, 558 234.702, 558 233 C 558 232.131, 564.887 231.531, 571.699 231.806 C 573.109 231.863, 574.140 231.134, 574.572 229.774 C 574.942 228.608, 576.041 226.799, 577.015 225.754 C 578.743 223.899, 578.809 223.921, 579.813 226.677 L 580.842 229.500 580.936 226.500 C 581.008 224.210, 581.254 223.854, 581.976 224.995 C 582.787 226.278, 583.135 226.207, 584.429 224.495 C 585.258 223.398, 585.951 222.275, 585.969 222 C 586.032 221.029, 591.517 221.191, 592.737 222.200 C 593.418 222.763, 594.655 222.963, 595.487 222.643 C 596.661 222.193, 597.022 222.895, 597.100 225.781 C 597.189 229.111, 597.283 229.239, 598 227 C 598.682 224.871, 598.827 224.796, 598.979 226.500 C 599.106 227.922, 599.301 228.066, 599.652 227 C 599.924 226.175, 600.655 224.458, 601.277 223.185 C 602.150 221.398, 602.114 220.688, 601.119 220.074 C 599.126 218.842, 603.942 217.899, 606.162 219.087 C 607.575 219.843, 608 219.715, 608 218.535 C 608 217.062, 609.100 216.584, 611.722 216.919 C 612.393 217.005, 613.220 215.972, 613.558 214.624 C 613.928 213.150, 615.135 211.932, 616.587 211.568 C 617.914 211.234, 619 210.520, 619 209.981 C 619 208.758, 618.759 208.761, 615.443 210.021 C 613.742 210.669, 612.338 210.695, 611.613 210.094 C 610.876 209.482, 607.455 209.857, 601.985 211.150 C 597.318 212.252, 592.733 213.315, 591.796 213.511 C 581.080 215.753, 540.873 216.277, 520.500 214.441 C 515.257 213.968, 497.210 210.222, 493.939 208.928 C 491.020 207.772, 490.899 203.849, 493.266 187 C 493.922 182.325, 494.347 177.628, 494.208 176.562 C 494.070 175.496, 494.251 174.918, 494.611 175.278 C 494.971 175.638, 496.138 174.822, 497.205 173.466 C 499.318 170.781, 502.577 170.369, 509.325 171.935 C 514.357 173.103, 515.129 174.306, 520.174 188.829 L 524.456 201.159 532.978 200.723 C 543.005 200.210, 547 198.685, 547 195.371 C 547 193.730, 547.434 193.229, 548.500 193.638 C 549.732 194.111, 550 193.130, 550 188.154 C 550 179.095, 550.921 177.863, 561.609 172.627 C 567.908 169.540, 571 167.472, 571 166.346 C 571 165.422, 571.306 164.973, 571.681 165.347 C 572.055 165.722, 573.540 164.898, 574.981 163.518 L 577.601 161.008 578.890 164.573 C 580.045 167.765, 580.310 167.958, 581.435 166.420 C 582.555 164.888, 582.761 165.053, 583.341 167.954 C 583.698 169.742, 583.722 171.641, 583.393 172.174 C 583.064 172.706, 583.097 175.160, 583.467 177.627 C 584.135 182.081, 584.165 182.110, 587.820 181.806 C 591.347 181.513, 591.488 181.358, 591.223 178.076 C 590.977 175.044, 592.111 173.065, 594.122 173.015 C 594.464 173.007, 595.049 174.904, 595.421 177.230 C 595.926 180.391, 596.334 181.086, 597.033 179.980 C 598.041 178.386, 598.043 178.389, 598.416 181.750 C 598.713 184.428, 598.819 184.542, 601.901 185.491 C 603.947 186.121, 604.199 185.961, 603.604 184.411 C 599.126 172.740, 604.861 161, 615.041 161 C 619.311 161, 619.758 160.791, 619.293 159.011 C 619.007 157.917, 618.397 157.255, 617.937 157.539 C 617.477 157.823, 616.802 156.464, 616.437 154.518 C 615.973 152.041, 615.133 150.827, 613.637 150.466 C 610.321 149.667, 603.795 149.564, 600.680 150.262 C 599.129 150.609, 596.784 150.403, 595.471 149.805 C 593.572 148.940, 592.536 149.074, 590.421 150.460 C 586.247 153.195, 584.092 150.386, 583.509 141.454 L 583.056 134.500 584.363 141.251 C 585.081 144.965, 586.028 148.340, 586.467 148.751 C 586.906 149.163, 586.988 147.925, 586.649 146 C 585.752 140.902, 586.608 140.312, 596 139.548 C 608.313 138.547, 610.553 137.363, 606.500 134 C 605.675 133.315, 605 131.460, 605 129.878 C 605 128.295, 604.663 127.053, 604.250 127.118 C 602.047 127.466, 601.099 126.732, 600.549 124.250 C 599.799 120.864, 593.315 113.523, 590.224 112.559 C 588.851 112.130, 588.057 111.185, 588.224 110.178 C 588.399 109.120, 587.218 107.869, 585 106.762 C 583.075 105.802, 580.939 104.254, 580.254 103.322 C 578.440 100.857, 568.750 100.578, 563 102.826" stroke="none" fill="black" fill-rule="evenodd"/>
</svg>