<svg xmlns="http://www.w3.org/2000/svg" width="1024" height="1024" viewBox="0 0 1024 1024" version="1.1">
	<path d="M 382.500 147.141 C 379.750 147.645, 376.825 148.337, 376 148.678 C 375.175 149.019, 373.510 149.201, 372.299 149.084 C 371.006 148.958, 369.580 149.700, 368.840 150.884 C 367.924 152.352, 367.241 152.615, 366.326 151.855 C 364.373 150.235, 358.189 151.729, 350 155.801 C 342.873 159.344, 340.053 162, 343.417 162 C 344.288 162, 345.032 162.787, 345.070 163.750 C 345.132 165.276, 345.238 165.252, 345.898 163.566 C 346.441 162.178, 346.870 161.980, 347.417 162.865 C 347.988 163.789, 348.519 163.814, 349.543 162.965 C 351.744 161.137, 360.049 158.974, 362.500 159.589 C 364.241 160.026, 364.880 161.072, 365.295 164.161 C 365.998 169.406, 365.742 169.263, 374.724 169.390 L 382.500 169.500 387 165.215 C 389.475 162.858, 392.747 160.662, 394.271 160.336 C 395.795 160.009, 397.284 159.350, 397.580 158.871 C 397.876 158.392, 399.380 158, 400.922 158 C 402.519 158, 405.318 156.734, 407.429 155.057 C 409.466 153.438, 411.720 152.339, 412.438 152.615 C 413.243 152.924, 413.931 152.141, 414.230 150.577 C 414.654 148.357, 414.301 147.960, 411.423 147.420 C 409.612 147.080, 407.682 147.079, 407.134 147.417 C 406.586 147.756, 405.856 147.575, 405.510 147.016 C 404.745 145.779, 389.473 145.862, 382.500 147.141" stroke="none" fill="black" fill-rule="evenodd"/>
</svg>