<svg xmlns="http://www.w3.org/2000/svg" width="1024" height="1024" viewBox="0 0 1024 1024" version="1.1">
	<path d="M 594.544 965.137 C 594.280 965.886, 593.937 968.525, 593.782 971 C 593.505 975.422, 593.435 975.505, 589.742 975.811 C 585.702 976.145, 585.570 975.991, 584.533 969.750 C 583.957 966.286, 583.654 966, 580.554 966 C 577.355 966, 577.144 966.232, 576 971 L 574.801 976 569.400 976 C 566.430 976, 564 976.450, 564 977 C 564 977.550, 562.447 978, 560.550 978 C 558.652 978, 556.740 978.625, 556.300 979.389 C 555.860 980.152, 554.600 981.033, 553.500 981.346 C 552.400 981.659, 560.391 981.776, 571.257 981.606 C 587.915 981.346, 591.299 981.039, 592.836 979.649 C 593.838 978.742, 595.747 977.993, 597.079 977.985 C 598.906 977.973, 599.150 977.748, 598.076 977.068 C 597.011 976.394, 597.390 976.082, 599.576 975.833 C 602.349 975.517, 602.516 975.228, 602.802 970.250 C 603.061 965.751, 602.847 964.998, 601.302 964.986 C 600.311 964.979, 598.493 964.703, 597.262 964.373 C 595.834 963.990, 594.851 964.266, 594.544 965.137" stroke="none" fill="black" fill-rule="evenodd"/>
</svg>