<svg xmlns="http://www.w3.org/2000/svg" width="1024" height="1024" viewBox="0 0 1024 1024" version="1.1">
	<path d="M 408 604.157 C 406.075 604.714, 403.150 606.192, 401.500 607.441 C 399.850 608.690, 397.488 610.032, 396.250 610.424 C 394.728 610.905, 394 611.922, 394 613.567 C 394 614.905, 393.463 616, 392.807 616 C 390.967 616, 376 632.022, 376 633.991 C 376 634.546, 375.599 635, 375.108 635 C 374.618 635, 373.922 636.237, 373.561 637.750 C 373.200 639.263, 372.636 641.396, 372.308 642.492 C 371.810 644.157, 371.954 644.283, 373.184 643.262 C 373.994 642.590, 375.522 641.873, 376.578 641.670 C 380.915 640.836, 382.001 639.854, 381.371 637.341 C 380.850 635.267, 381.925 633.720, 388.341 627.304 C 392.514 623.131, 396.079 619.264, 396.263 618.710 C 396.596 617.713, 405.878 614.813, 409.250 614.654 C 410.212 614.609, 411 614.290, 411 613.946 C 411 613.602, 412.133 612.805, 413.518 612.174 C 415.652 611.201, 415.993 610.453, 415.751 607.263 C 415.429 603.012, 413.973 602.429, 408 604.157" stroke="none" fill="black" fill-rule="evenodd"/>
</svg>