<svg xmlns="http://www.w3.org/2000/svg" width="1024" height="1024" viewBox="0 0 1024 1024" version="1.1">
	<path d="M 417.500 600.081 C 415.850 600.581, 413.938 600.782, 413.250 600.527 C 412.563 600.271, 412 600.529, 412 601.099 C 412 601.680, 411.121 601.856, 410 601.500 C 408.592 601.053, 408 601.320, 408 602.403 C 408 603.549, 408.943 603.884, 411.705 603.720 C 415.313 603.506, 415.419 603.599, 415.723 607.263 C 415.990 610.466, 415.661 611.197, 413.518 612.174 C 412.133 612.805, 411 613.602, 411 613.946 C 411 614.290, 410.212 614.609, 409.250 614.654 C 405.685 614.823, 396.587 617.740, 396.223 618.832 C 396.016 619.452, 392.741 622.959, 388.945 626.623 C 382.485 632.860, 380.066 636.400, 381.373 637.706 C 381.678 638.012, 384.154 635.953, 386.874 633.131 C 389.594 630.309, 392.422 627.998, 393.160 627.995 C 393.897 627.993, 396.096 626.530, 398.047 624.745 C 403.826 619.458, 416.839 614.791, 419.544 617.037 C 420.784 618.065, 421.286 618, 422.281 616.681 C 423.020 615.702, 426.059 614.708, 430 614.156 C 435.490 613.388, 435.852 613.228, 432.333 613.123 C 430.042 613.056, 428.013 612.540, 427.826 611.979 C 427.639 611.417, 425.801 610.894, 423.743 610.817 C 419.566 610.660, 418.723 608.272, 421.532 604.559 C 424.886 600.124, 423.272 598.332, 417.500 600.081" stroke="none" fill="black" fill-rule="evenodd"/>
</svg>