<svg xmlns="http://www.w3.org/2000/svg" width="1024" height="1024" viewBox="0 0 1024 1024" version="1.1">
	<path d="M 444.512 66.508 C 442.319 67.289, 440.365 68.404, 440.172 68.985 C 439.978 69.566, 438.600 70.673, 437.109 71.444 C 435.618 72.215, 433.571 74.381, 432.561 76.258 C 431.550 78.134, 429.433 80.532, 427.856 81.585 C 426.279 82.638, 424.734 84.294, 424.422 85.265 C 424.111 86.235, 423.438 86.771, 422.928 86.456 C 422.418 86.140, 422 86.632, 422 87.548 C 422 88.726, 421.488 89.015, 420.250 88.536 C 396.236 79.226, 369.729 90.508, 358.070 115 C 354.567 122.360, 354.494 122.768, 354.175 136.828 L 353.850 151.156 350.849 152.202 C 348.879 152.889, 348.187 153.587, 348.833 154.233 C 349.480 154.880, 351.912 154.494, 355.913 153.109 C 362.709 150.757, 365.560 150.480, 366.545 152.073 C 366.960 152.745, 367.753 152.370, 368.661 151.073 C 369.460 149.933, 370.818 149, 371.679 149 C 372.942 149, 373.009 148.716, 372.027 147.532 C 371.356 146.725, 370.300 146.162, 369.678 146.282 C 369.056 146.402, 368.393 145.488, 368.204 144.250 C 367.834 141.823, 366 141.102, 366 143.383 C 366 145.035, 362.258 146.226, 361.405 144.846 C 361.075 144.313, 360.216 144.690, 359.485 145.689 C 358.248 147.381, 358.129 147.337, 357.639 144.999 C 356.220 138.229, 355.965 134.742, 356.812 133.674 C 357.324 133.028, 358.481 128.458, 359.382 123.518 C 360.590 116.900, 361.611 113.987, 363.261 112.453 C 364.492 111.308, 366.400 108.604, 367.500 106.445 C 369.873 101.787, 375.784 96.056, 378.250 96.023 C 379.212 96.010, 380.876 95.124, 381.947 94.053 C 384.369 91.631, 390.858 89.767, 397.759 89.510 C 400.652 89.403, 403.314 89.019, 403.676 88.657 C 404.769 87.564, 408.890 87.912, 414.638 89.583 C 419.379 90.961, 420.160 91.551, 420.679 94.146 C 421.100 96.249, 421.587 96.813, 422.337 96.063 C 424.026 94.374, 424.559 94.792, 424.803 98 C 424.945 99.861, 424.551 101.012, 423.766 101.032 C 422.974 101.052, 423.155 101.561, 424.250 102.392 C 425.212 103.123, 426 104.683, 426 105.860 C 426 107.037, 426.487 108, 427.082 108 C 427.752 108, 427.973 109.408, 427.663 111.708 C 427.368 113.904, 427.742 116.534, 428.582 118.158 C 431.265 123.347, 429.390 131.617, 423.907 138.783 C 422.333 140.840, 422.113 140.889, 421.696 139.283 C 421.253 137.581, 421.227 137.581, 421.116 139.294 C 421.052 140.280, 420.438 141.015, 419.750 140.925 C 416.918 140.558, 416 141.113, 416 143.191 C 416 145.332, 415.967 145.338, 414.532 143.441 C 413.394 141.937, 413.041 141.838, 412.962 143 C 412.892 144.021, 412.585 143.862, 412 142.500 C 411.259 140.777, 411.129 140.915, 411.055 143.500 C 411.006 145.226, 410.653 146.002, 410.223 145.327 C 409.792 144.649, 407.858 144.305, 405.638 144.512 C 401.470 144.899, 399.352 146, 402.774 146 C 403.934 146, 405.165 146.457, 405.510 147.016 C 405.856 147.575, 406.586 147.756, 407.134 147.417 C 409.273 146.095, 414.944 147.979, 414.267 149.787 C 413.731 151.220, 413.876 151.297, 415.155 150.259 C 415.996 149.576, 416.980 149.313, 417.342 149.675 C 417.704 150.037, 418 149.744, 418 149.023 C 418 148.004, 419.576 147.859, 425.095 148.372 C 433.305 149.135, 435.735 150.171, 436.180 153.098 L 436.500 155.200 439.222 153.050 C 441.408 151.322, 442.342 151.113, 443.972 151.985 C 445.615 152.864, 446 152.768, 446 151.476 C 446 150.599, 446.337 150.085, 446.750 150.333 C 447.163 150.581, 449.300 150.435, 451.500 150.007 C 453.700 149.580, 454.557 149.178, 453.403 149.115 C 451.397 149.005, 451.272 148.281, 450.500 132.250 C 450.056 123.037, 449.649 112.949, 449.596 109.831 C 449.516 105.081, 449.216 104.183, 447.750 104.294 C 446.788 104.366, 446 105.031, 446 105.772 C 446 106.512, 445.550 106.840, 445 106.500 C 443.853 105.791, 443.824 108.240, 444.891 115.727 C 445.382 119.176, 445.272 121.077, 444.568 121.315 C 443.870 121.550, 443.968 122.242, 444.849 123.309 C 445.988 124.689, 445.965 125.178, 444.698 126.444 C 443.229 127.914, 443.619 132.956, 445.427 135.882 C 445.807 136.497, 445.666 137, 445.114 137 C 444.561 137, 443.972 139.137, 443.805 141.750 C 443.550 145.715, 443.149 146.550, 441.373 146.803 C 439.333 147.094, 439.217 146.596, 438.523 134.556 C 438.125 127.654, 437.452 122.221, 437.027 122.483 C 436.197 122.996, 435.029 117.302, 435.011 112.656 C 435.004 110.718, 434.400 109.656, 433.117 109.320 C 430.532 108.644, 428.451 95, 430.933 95 C 431.446 95, 432.153 94.093, 432.505 92.985 C 432.856 91.877, 433.509 91.197, 433.956 91.473 C 434.402 91.749, 434.539 89.125, 434.259 85.642 C 433.671 78.308, 435.611 74, 439.504 74 C 441.337 74, 441.913 74.722, 442.477 77.732 C 443.429 82.806, 444.934 85.466, 446.159 84.241 C 446.791 83.609, 446.700 81.169, 445.899 77.291 C 444.276 69.431, 444.810 68.351, 450.727 67.538 C 453.405 67.169, 456.249 66.455, 457.048 65.949 C 459.433 64.440, 449.015 64.904, 444.512 66.508" stroke="none" fill="black" fill-rule="evenodd"/>
</svg>