<svg xmlns="http://www.w3.org/2000/svg" width="1024" height="1024" viewBox="0 0 1024 1024" version="1.1">
	<path d="M 549.446 99.475 C 546.726 100.836, 541.800 104.138, 538.500 106.812 C 535.200 109.486, 531.995 111.504, 531.377 111.296 C 530.760 111.088, 530.014 111.837, 529.721 112.959 C 529.427 114.082, 528.422 115, 527.487 115 C 526.544 115, 525.994 115.557, 526.252 116.250 C 526.508 116.938, 527.328 119.300, 528.075 121.500 C 528.821 123.700, 529.503 125.631, 529.590 125.791 C 530.139 126.801, 538.447 120.592, 543.500 115.397 C 546.800 112.004, 551.398 108.275, 553.717 107.110 C 556.525 105.701, 557.751 104.514, 557.385 103.560 C 556.763 101.941, 565.147 99, 570.382 99 C 572.733 99, 573.134 98.734, 572.197 97.797 C 571.268 96.868, 569.459 96.858, 564.250 97.750 C 559.977 98.482, 557.156 98.556, 556.553 97.953 C 555.237 96.637, 555.029 96.681, 549.446 99.475" stroke="none" fill="black" fill-rule="evenodd"/>
</svg>