<svg xmlns="http://www.w3.org/2000/svg" width="1024" height="1024" viewBox="0 0 1024 1024" version="1.1">
	<path d="M 694.882 173.250 C 694.290 179.527, 694.837 182.199, 698.058 188.772 C 700.019 192.772, 701.932 195.734, 702.311 195.356 C 702.690 194.977, 703 195.602, 703 196.745 C 703 197.888, 704.575 202.503, 706.500 207 C 708.425 211.497, 710 215.839, 710 216.648 C 710 217.456, 710.450 217.840, 711 217.500 C 711.550 217.160, 712 217.812, 712 218.948 C 712 220.084, 714.250 228.296, 717 237.197 C 720.020 246.971, 722.030 255.384, 722.077 258.440 C 722.167 264.405, 724.206 271.590, 725.721 271.286 C 727.620 270.903, 731.546 283.704, 730.521 286.934 C 729.538 290.031, 731.947 294.196, 733.704 292.439 C 735.497 290.646, 739.399 290.571, 740.835 292.302 C 741.429 293.017, 742.417 296.955, 743.030 301.052 C 743.643 305.148, 744.556 309.273, 745.060 310.217 C 745.564 311.162, 745.700 314.573, 745.363 317.797 L 744.751 323.660 757.625 329.209 C 768.975 334.101, 774.363 335.739, 769.971 332.961 C 767.429 331.353, 771.105 331.845, 774 333.500 C 775.375 334.286, 777.962 334.945, 779.750 334.965 C 782.710 334.997, 783 334.729, 783 331.969 C 783 330.301, 783.563 328.720, 784.250 328.456 C 785.310 328.047, 786.051 300.535, 785.170 294.297 C 785.060 293.516, 782.980 293.100, 779.250 293.110 C 757.957 293.171, 756.293 292.980, 761.356 291.055 C 763.688 290.168, 765.961 282.195, 767.721 268.731 C 768.327 264.092, 766.545 261.306, 764.206 263.238 C 762.588 264.574, 762.576 264.773, 764.617 256.500 C 765.062 254.696, 764.828 254, 763.777 254 C 761.087 254, 759.438 247.932, 759.034 236.550 C 759.015 236.027, 758.481 236.119, 757.847 236.753 C 757.053 237.547, 756.117 237.598, 754.847 236.918 C 753.831 236.374, 752.998 236.283, 752.996 236.715 C 752.993 237.147, 751.642 235.475, 749.993 233 C 746.629 227.951, 744.443 222.426, 743.477 216.529 C 742.926 213.165, 742.671 212.837, 741.806 214.381 C 740.852 216.087, 740.699 216.053, 739.436 213.852 C 736.359 208.492, 735.733 206.172, 735.609 199.674 C 735.506 194.318, 735.103 192.637, 733.739 191.874 C 731.121 190.409, 728.748 185.142, 729.448 182.351 C 729.784 181.013, 730.495 180.188, 731.029 180.518 C 731.563 180.848, 732 180.432, 732 179.594 C 732 177.487, 728.853 176.005, 724.316 175.974 C 722.217 175.960, 716.675 175.072, 712 174 C 702.080 171.726, 695.055 171.418, 694.882 173.250" stroke="none" fill="black" fill-rule="evenodd"/>
</svg>