<svg xmlns="http://www.w3.org/2000/svg" width="1024" height="1024" viewBox="0 0 1024 1024" version="1.1">
	<path d="M 652.500 235.872 C 649.060 236.866, 646.607 238.117, 646.750 238.803 C 646.888 239.461, 646.550 240, 646 240 C 645.450 240, 645 240.900, 645 242 C 645 245.054, 648.638 244.530, 650.202 241.250 C 651.169 239.223, 652.368 238.417, 654.764 238.186 C 658.751 237.801, 659.645 239.529, 657.549 243.566 C 656.652 245.293, 656.431 246.637, 657.012 246.833 C 658.161 247.221, 658.306 250.991, 657.235 252.610 C 656.831 253.221, 654.925 254.531, 653 255.522 L 649.500 257.322 652.250 258.245 C 653.763 258.752, 655 259.772, 655 260.511 C 655 262.051, 650.782 265.617, 647.865 266.543 C 646.295 267.041, 646.133 267.456, 647.070 268.584 C 648.042 269.755, 647.662 270.020, 644.872 270.116 C 643.018 270.180, 642.288 270.438, 643.250 270.689 C 645.664 271.320, 645.440 273.433, 642.750 275.406 L 640.500 277.055 642.888 276.417 C 645.417 275.740, 645.467 276.288, 643.464 282.750 C 643.028 284.156, 643.185 285, 643.883 285 C 644.498 285, 645 284.551, 645 284.003 C 645 283.454, 646.575 281.262, 648.500 279.132 C 650.425 277.001, 652 274.810, 652 274.264 C 652 273.717, 652.855 272.182, 653.901 270.853 C 654.946 269.524, 656.119 265.893, 656.508 262.784 C 656.929 259.413, 657.776 256.916, 658.607 256.597 C 659.469 256.267, 660 254.573, 660 252.154 C 660 249.899, 660.635 247.718, 661.500 247 C 664.028 244.902, 662.784 234.686, 659.956 234.324 C 659.155 234.221, 655.800 234.918, 652.500 235.872" stroke="none" fill="black" fill-rule="evenodd"/>
</svg>