<svg xmlns="http://www.w3.org/2000/svg" width="1024" height="1024" viewBox="0 0 1024 1024" version="1.1">
	<path d="M 345.620 703.806 C 344.679 705.328, 339.872 719.500, 338.855 723.750 C 338.296 726.087, 337.424 728, 336.919 728 C 336.414 728, 336 729.068, 336 730.374 C 336 731.680, 335.325 734.662, 334.500 737 C 332.749 741.962, 332.552 746, 334.059 746 C 334.641 746, 334.861 746.416, 334.547 746.924 C 334.233 747.433, 334.763 748, 335.725 748.186 C 337.017 748.434, 336.470 749.115, 333.637 750.787 C 331.526 752.032, 329.567 753.939, 329.283 755.025 C 328.999 756.111, 328.369 757, 327.883 757 C 326.885 757, 326.863 762.466, 327.850 765.500 C 328.309 766.912, 329.464 767.544, 331.778 767.650 C 333.580 767.733, 335.718 768.351, 336.528 769.023 C 338.251 770.453, 338.506 774, 336.887 774 C 336.180 774, 335.997 775.095, 336.387 777 C 336.724 778.650, 337.276 781.350, 337.613 783 C 337.951 784.650, 338.556 786, 338.959 786 C 340.163 786, 342.999 782.449, 343.015 780.921 C 343.028 779.708, 343.165 779.712, 343.944 780.943 C 344.688 782.120, 345.340 782.166, 347.475 781.193 C 350.653 779.745, 353.153 779.608, 351 781 C 349.814 781.767, 350.028 781.973, 352.027 781.985 C 353.418 781.993, 355.585 781.278, 356.845 780.396 C 358.104 779.514, 360.229 779.002, 361.567 779.258 C 363.147 779.560, 364 779.261, 364 778.407 C 364 776.324, 368.825 771.886, 369.196 773.627 C 369.457 774.851, 369.801 774.843, 371.610 773.569 C 373.630 772.146, 373.670 771.762, 372.541 764.565 C 371.892 760.429, 371.720 756.923, 372.158 756.773 C 372.596 756.623, 373.226 755.137, 373.558 753.472 C 374.080 750.851, 373.502 749.723, 369.257 745.081 C 364.380 739.749, 364.339 739.729, 362.176 741.581 C 360.870 742.700, 360 744.604, 360 746.345 C 360 748.687, 359.736 749.026, 358.630 748.108 C 356.926 746.694, 355.600 753.350, 356.563 758.485 C 356.962 760.611, 356.632 762.791, 355.630 764.638 C 354.324 767.049, 354.062 767.185, 353.964 765.500 C 353.899 764.400, 353.612 762.600, 353.325 761.500 C 351.809 755.696, 351.805 751.689, 353.312 750.845 C 355.083 749.854, 357.587 739.972, 356.671 737.586 C 356.337 736.714, 354.975 736, 353.645 736 C 350.404 736, 349.786 732.960, 349.626 716.250 C 349.515 704.523, 349.306 702.999, 347.809 703 C 346.879 703, 345.894 703.363, 345.620 703.806" stroke="none" fill="black" fill-rule="evenodd"/>
</svg>