<svg xmlns="http://www.w3.org/2000/svg" width="1024" height="1024" viewBox="0 0 1024 1024" version="1.1">
	<path d="M 710.500 465.029 C 706.100 466.633, 701.712 467.958, 700.750 467.973 C 699.676 467.990, 699 468.772, 699 470 C 699 471.111, 698.333 472, 697.500 472 C 696.675 472, 696 472.190, 696 472.423 C 696 473.377, 701.952 478.715, 702.455 478.212 C 702.755 477.912, 703 478.668, 703 479.892 C 703 481.121, 703.448 481.841, 704 481.500 C 704.567 481.149, 705 481.992, 705 483.449 C 705 485.659, 705.248 485.862, 706.776 484.908 C 708.103 484.079, 708.548 482.517, 708.533 478.730 C 708.510 472.647, 709.727 471.932, 712.750 476.255 C 713.987 478.024, 715 478.968, 715 478.353 C 715 476.902, 718.406 476.015, 720.057 477.035 C 721.624 478.004, 726 475.316, 726 473.385 C 726 472.623, 725.495 472, 724.878 472 C 724.126 472, 724.188 471.479, 725.063 470.424 C 726.640 468.524, 724.645 466.699, 721.750 467.393 C 720.788 467.624, 720 467.405, 720 466.906 C 720 466.408, 721.350 466, 723 466 C 726.670 466, 726.874 464.719, 723.453 463.161 C 720.059 461.614, 719.740 461.660, 710.500 465.029" stroke="none" fill="black" fill-rule="evenodd"/>
</svg>