<svg xmlns="http://www.w3.org/2000/svg" width="1024" height="1024" viewBox="0 0 1024 1024" version="1.1">
	<path d="M 719.554 993.694 C 704.339 993.976, 700.275 994.346, 698.922 995.570 C 697.412 996.937, 697.077 996.935, 695.690 995.547 C 693.094 992.951, 679.400 993.362, 678.695 996.057 C 678.353 997.367, 678.583 997.971, 679.329 997.719 C 679.973 997.502, 681.007 998.012, 681.626 998.853 C 682.615 1000.196, 688.976 1000.354, 733.792 1000.150 C 766.887 1000, 785.048 1000.269, 785.448 1000.916 C 785.787 1001.464, 786.612 1001.705, 787.282 1001.451 C 787.952 1001.198, 789.400 1002.372, 790.500 1004.061 C 792.691 1007.425, 797.424 1007.694, 800.874 1004.652 C 802.334 1003.364, 809.089 1001.628, 813 1001.536 C 813.825 1001.516, 815.091 1001.118, 815.814 1000.651 C 816.537 1000.184, 820.812 999.905, 825.314 1000.031 C 836.570 1000.345, 836.863 1000.293, 834.219 998.441 C 832.886 997.507, 830.789 997.071, 828.996 997.353 C 827.348 997.613, 826 997.383, 826 996.841 C 826 996.300, 825.296 995.153, 824.436 994.293 C 822.634 992.491, 811.147 993.144, 809.927 995.118 C 809.443 995.901, 809.121 995.864, 808.830 994.991 C 808.394 993.681, 758.940 992.963, 719.554 993.694" stroke="none" fill="black" fill-rule="evenodd"/>
</svg>