<svg xmlns="http://www.w3.org/2000/svg" width="1024" height="1024" viewBox="0 0 1024 1024" version="1.1">
	<path d="M 342.060 484.856 C 341.371 486.518, 340.739 489.345, 340.654 491.139 C 340.510 494.194, 340.752 494.445, 344.500 495.116 C 350.069 496.113, 354.624 498.547, 352.468 499.374 C 351.581 499.714, 350.017 499.544, 348.993 498.996 C 344.278 496.473, 343.385 497.389, 336.042 512.278 C 332.169 520.131, 329 527.766, 329 529.246 C 329 531.066, 328.572 531.773, 327.678 531.430 C 326.934 531.144, 325.877 531.974, 325.260 533.328 C 324.236 535.576, 324.420 535.809, 328.082 536.907 C 333.308 538.472, 333.050 539.713, 327.565 539.403 C 322.953 539.143, 320 541.532, 320 545.524 C 320 546.401, 319.586 546.862, 319.081 546.550 C 318.233 546.026, 315.906 551.349, 316.090 553.388 C 316.135 553.877, 315.784 554.552, 315.312 554.888 C 311.503 557.603, 310.184 565, 313.508 565 C 315.833 565, 316.407 567.229, 314.451 568.659 C 313.240 569.545, 311.367 569.793, 309.049 569.375 C 304.504 568.555, 304.501 568.551, 306.398 565.842 C 308.909 562.258, 308.466 560.002, 305.250 559.986 C 303.738 559.979, 301.516 559.709, 300.314 559.386 C 298.435 558.883, 298.033 559.306, 297.452 562.405 C 296.852 565.600, 297.186 566.463, 300.388 570.008 C 302.375 572.207, 304 574.679, 304 575.503 C 304 576.326, 304.450 577, 305 577 C 305.550 577, 306.068 578.013, 306.150 579.250 C 306.233 580.487, 306.570 579.618, 306.900 577.317 L 307.500 573.135 317 576.922 C 322.225 579.004, 328.188 581.719, 330.250 582.953 C 332.313 584.188, 334 584.733, 334 584.166 C 334 583.599, 333.123 582.856, 332.051 582.516 C 330.946 582.165, 330.327 581.312, 330.622 580.544 C 330.961 579.659, 330.098 578.961, 328.128 578.528 C 326.177 578.100, 325.295 577.394, 325.628 576.528 C 325.963 575.655, 325.049 574.950, 323 574.500 C 320.775 574.011, 320.025 573.376, 320.429 572.323 C 320.743 571.506, 321 569.981, 321 568.935 C 321 567.112, 321.268 567.130, 327.469 569.381 C 336.221 572.558, 339.316 574.683, 338.688 577.084 C 338.102 579.325, 338.589 579.723, 342.834 580.471 C 346.139 581.053, 346.619 580.179, 346.034 574.641 C 345.916 573.531, 346.273 573.051, 346.919 573.450 C 347.514 573.817, 348 573.431, 348 572.590 C 348 571.734, 348.581 571.286, 349.324 571.571 C 350.203 571.908, 351.839 569.465, 354.199 564.289 C 359.669 552.292, 360.016 550.976, 359.616 543.750 C 359.363 539.163, 359.607 537, 360.378 537 C 362.874 537, 365.234 524.031, 362.750 523.969 C 360.120 523.902, 357.898 519.319, 359.156 516.556 C 361.020 512.467, 369.482 513.489, 371.260 518.018 C 371.605 518.896, 371.874 518.404, 371.921 516.809 C 371.964 515.329, 372.450 513.840, 373 513.500 C 375.108 512.197, 374.089 508.061, 371.500 507.411 C 370.125 507.066, 369 506.135, 369 505.343 C 369 504.551, 367.626 503.326, 365.946 502.619 C 363.271 501.495, 363.085 501.175, 364.446 500.045 C 366.590 498.266, 366.403 497.505, 363.500 496.182 C 361.796 495.405, 361 494.241, 361 492.521 C 361 489.978, 359.642 489.152, 358.500 491 C 356.764 493.810, 346.403 489.188, 344.548 484.776 L 343.311 481.835 342.060 484.856" stroke="none" fill="black" fill-rule="evenodd"/>
</svg>