<svg xmlns="http://www.w3.org/2000/svg" width="1024" height="1024" viewBox="0 0 1024 1024" version="1.1">
	<path d="M 301.385 970.765 C 300.462 971.373, 298.787 975.037, 298.534 977 C 298.311 978.729, 296.726 979.670, 294.693 979.282 C 293.373 979.029, 289.986 979.967, 286.982 981.416 C 280.745 984.425, 280.613 984.452, 281.333 982.575 C 282.501 979.531, 277.316 977.735, 269.480 978.470 C 264.668 978.921, 261.987 978.787, 261.547 978.075 C 260.119 975.765, 250.350 978.944, 249.780 981.905 C 249.552 983.089, 248.438 983.384, 245.103 983.143 C 242.264 982.938, 240.438 983.291, 239.910 984.146 C 239.285 985.157, 238.413 984.812, 236.178 982.670 C 231.832 978.507, 226.643 979.904, 226.187 985.360 L 225.873 989.104 221.187 988.802 C 216.555 988.504, 216.496 988.456, 216.190 984.750 L 215.879 981 206.940 981 L 198 981 198 985.393 C 198 990.522, 197.268 991, 189.418 991 C 186.438 991, 184 991.450, 184 992 C 184 992.550, 183.325 993, 182.500 993 C 181.667 993, 181 993.889, 181 995 C 181 996.625, 180.298 997.020, 177.250 997.107 C 168.903 997.346, 167.649 997.552, 167.250 998.750 C 167.021 999.438, 165.466 1000, 163.794 1000 C 161.175 1000, 160.931 1000.212, 162.029 1001.535 C 162.944 1002.637, 165.165 1003.063, 169.902 1003.044 C 173.531 1003.030, 179.425 1003.084, 183 1003.163 C 186.575 1003.243, 192.513 1002.639, 196.195 1001.821 C 201.975 1000.537, 203.341 1000.526, 206.195 1001.737 C 208.244 1002.607, 211.020 1002.913, 213.500 1002.544 C 218.962 1001.730, 220.748 1001.730, 226.202 1002.546 C 232.149 1003.436, 240 1001.341, 240 998.865 C 240 997.931, 240.531 996.990, 241.180 996.773 C 244.307 995.731, 240.914 992.852, 236.752 993.017 C 223.725 993.533, 217.511 993.031, 219.527 991.625 C 221.002 990.597, 227.361 990.112, 244.716 989.705 C 257.484 989.405, 268.284 988.946, 268.716 988.685 C 269.147 988.423, 275.350 988.125, 282.500 988.023 C 302.655 987.736, 304.265 987.489, 307.852 984.138 C 311.747 980.500, 312.455 972.849, 309.066 971.035 C 306.826 969.837, 302.999 969.702, 301.385 970.765" stroke="none" fill="black" fill-rule="evenodd"/>
</svg>