<svg xmlns="http://www.w3.org/2000/svg" width="1024" height="1024" viewBox="0 0 1024 1024" version="1.1">
	<path d="M 593 94.107 C 593 94.716, 592.315 94.951, 591.477 94.630 C 589.931 94.036, 586 97.172, 586 99 C 586 99.550, 585.212 100.015, 584.250 100.033 C 581.399 100.087, 586.718 104, 589.642 104 C 591.028 104, 592.346 104.748, 592.725 105.750 C 593.589 108.031, 595.564 110, 596.988 110 C 597.609 110, 597.856 110.423, 597.537 110.940 C 596.858 112.040, 600.949 116.150, 602.047 115.471 C 602.456 115.218, 603.037 115.654, 603.339 116.440 C 603.786 117.606, 604.449 117.657, 606.943 116.715 C 609.891 115.603, 610 115.344, 610 109.481 C 610 106.136, 609.588 102.973, 609.085 102.450 C 608.581 101.927, 608.019 100.375, 607.835 99 C 607.651 97.625, 607.050 96.461, 606.500 96.414 C 605.950 96.366, 604.706 95.978, 603.735 95.551 C 602.764 95.124, 601.049 95.015, 599.924 95.310 C 598.678 95.636, 597.664 95.289, 597.332 94.422 C 596.692 92.754, 593 92.485, 593 94.107" stroke="none" fill="black" fill-rule="evenodd"/>
</svg>