<svg xmlns="http://www.w3.org/2000/svg" width="1024" height="1024" viewBox="0 0 1024 1024" version="1.1">
	<path d="M 674.750 322.392 C 673.788 323.123, 673 324.233, 673 324.860 C 673 325.487, 672.550 326, 672 326 C 671.450 326, 671 326.707, 671 327.571 C 671 328.436, 670.290 329.853, 669.422 330.721 C 667.919 332.224, 667.925 333.449, 669.451 337.138 C 669.944 338.332, 669.298 339.143, 667.064 340.132 C 665.324 340.902, 664 342.247, 664 343.244 C 664 344.210, 663.656 345, 663.236 345 C 662.816 345, 661.377 346.772, 660.039 348.937 C 658.701 351.103, 657.267 352.665, 656.853 352.409 C 656.439 352.153, 655.573 352.929, 654.929 354.132 C 653.802 356.239, 653.719 356.250, 652.697 354.422 C 650.311 350.159, 646.015 347.811, 645.978 350.750 C 645.966 351.712, 645.083 354.424, 644.015 356.776 C 642.289 360.579, 641.770 360.997, 639.329 360.555 C 637.745 360.268, 636.254 360.574, 635.807 361.278 C 635.254 362.149, 635.026 362.036, 635.015 360.887 C 635.005 359.844, 634.203 359.320, 632.750 359.407 C 629.635 359.592, 627.687 357.419, 628.263 354.404 C 628.616 352.556, 628.379 352.024, 627.372 352.411 C 626.618 352.700, 626 352.453, 626 351.862 C 626 351.270, 625.292 351.058, 624.426 351.390 C 622.480 352.137, 619.345 349.433, 621.259 348.659 C 622.104 348.318, 622.021 348.122, 621 348.045 C 620.175 347.983, 617.700 347.063, 615.500 346 C 610.199 343.440, 598 343.166, 598 345.607 C 598 346.697, 597.463 347.008, 596.331 346.573 C 593.369 345.437, 579.843 343.846, 578.270 344.450 C 577.432 344.771, 576.059 344.464, 575.219 343.767 C 572.679 341.660, 528.575 342.049, 519 344.262 C 514.875 345.216, 510.073 345.809, 508.329 345.581 C 493.347 343.619, 489.378 343.775, 487.662 346.394 C 486.748 347.788, 486 349.677, 486 350.590 C 486 351.940, 485.393 352.119, 482.750 351.549 C 480.962 351.164, 478.983 350.751, 478.351 350.631 C 477.719 350.511, 476.591 349.906, 475.845 349.287 C 475.099 348.667, 473.249 347.850, 471.733 347.469 C 469.371 346.876, 469.075 347.031, 469.659 348.553 C 470.125 349.769, 469.971 350.100, 469.170 349.605 C 468.374 349.113, 468 349.860, 468 351.941 C 468 353.623, 467.564 355, 467.031 355 C 466.499 355, 466.322 355.675, 466.638 356.500 C 467.328 358.297, 464.480 358.585, 463.394 356.829 C 462.915 356.053, 462.400 356.391, 461.868 357.829 C 460.944 360.327, 457.236 360.779, 456.362 358.500 C 456.045 357.675, 455.159 357, 454.393 357 C 453.627 357, 453 356.325, 453 355.500 C 453 354.675, 452.550 354, 452 354 C 451.450 354, 451 353.325, 451 352.500 C 451 351.567, 450.056 351, 448.500 351 C 446.964 351, 446 350.432, 446 349.526 C 446 348.716, 444.001 346.053, 441.557 343.610 L 437.114 339.167 433.014 344.598 C 430.759 347.585, 427.133 351.207, 424.957 352.647 C 422.780 354.087, 421 355.656, 421 356.133 C 421 356.610, 419.971 357, 418.712 357 C 417.454 357, 414.962 358.238, 413.173 359.750 C 409.156 363.148, 408.822 367.165, 411.916 374.880 C 413.102 377.839, 413.842 380.491, 413.560 380.773 C 413.278 381.055, 412.763 380.547, 412.417 379.643 C 412.070 378.739, 411.447 378, 411.032 378 C 410.036 378, 410.987 382.874, 412.119 383.574 C 412.604 383.873, 413.002 384.879, 413.004 385.809 C 413.006 386.739, 414.116 389.684, 415.471 392.354 L 417.933 397.207 419.496 393.302 C 421.817 387.500, 426.060 385.265, 430.175 387.676 C 434.990 390.497, 435.710 392.289, 433.711 396.480 C 432.770 398.453, 432 401.229, 432 402.649 C 432 405.098, 431.884 405.154, 429.745 403.752 C 428.147 402.705, 426.782 402.537, 425.060 403.173 C 423.724 403.668, 422.096 403.867, 421.442 403.616 C 420.788 403.365, 419.689 404.213, 419 405.500 C 418.234 406.932, 417.175 407.621, 416.273 407.274 C 415.462 406.963, 414.424 407.313, 413.968 408.052 C 413.364 409.029, 412.952 408.658, 412.458 406.689 C 411.727 403.776, 409.963 403.083, 403.780 403.281 C 397.885 403.470, 398.388 405.579, 404.318 405.537 C 408.754 405.505, 409.570 405.819, 410.663 407.983 C 411.352 409.349, 412.650 411.002, 413.546 411.657 C 414.442 412.312, 416.260 414.320, 417.587 416.118 C 419.209 418.317, 420 418.840, 420 417.713 C 420 415.612, 423.893 414.570, 428.507 415.435 C 430.688 415.844, 432 415.698, 432 415.045 C 432 414.470, 432.702 414, 433.559 414 C 434.416 414, 434.840 414.450, 434.500 415 C 432.562 418.135, 436.557 414.927, 444 407.370 C 453.369 397.857, 464.814 388.165, 469.573 385.714 C 471.263 384.844, 473.230 383.427, 473.945 382.566 C 474.660 381.705, 476.067 381, 477.073 381 C 478.078 381, 481.285 379.625, 484.200 377.945 C 487.115 376.265, 490.288 374.637, 491.250 374.328 C 492.212 374.019, 493 373.156, 493 372.409 C 493 370.970, 497.176 368.434, 500.508 367.849 C 501.604 367.657, 502.725 367.244, 503 366.931 C 506.163 363.335, 529.801 358.130, 546.754 357.298 C 558.362 356.727, 562.780 355.446, 560.612 353.279 C 558.417 351.083, 523.518 353.911, 515.685 356.919 C 514.137 357.514, 512.028 358, 511 358 C 509.972 358, 507.863 358.515, 506.315 359.145 C 502.419 360.729, 492.085 360.808, 490.803 359.263 C 490.239 358.583, 490.038 356.987, 490.356 355.716 C 490.952 353.345, 501.129 350.499, 512.746 349.456 C 515.082 349.246, 517.942 348.566, 519.102 347.946 C 523.807 345.427, 571.425 345.020, 579.432 347.429 C 581.759 348.130, 585.202 348.513, 587.082 348.281 C 589.685 347.959, 590.142 348.110, 589 348.914 C 587.984 349.629, 587.903 349.974, 588.750 349.985 C 589.438 349.993, 590 350.620, 590 351.379 C 590 353.753, 584.504 355.293, 578.642 354.561 C 573.719 353.946, 573.215 354.069, 572.709 356.006 C 572.076 358.424, 572.443 358.598, 580 359.481 C 587.553 360.364, 601.367 365.234, 614.463 371.633 C 623.800 376.195, 625.555 376.760, 626.294 375.439 C 627.351 373.550, 629.989 375.274, 630.018 377.872 C 630.037 379.595, 634.389 383.501, 642.274 388.875 L 647.048 392.129 648.524 388.597 C 650.998 382.676, 650.539 381.022, 647.029 383.214 C 642.253 386.197, 637.481 375.590, 641.829 371.655 C 643.917 369.765, 646 369.483, 646 371.090 C 646 372.981, 650.388 375.932, 653.250 375.967 C 655.646 375.996, 656.020 376.419, 656.158 379.250 C 656.411 384.435, 656.051 386.431, 654.671 387.500 C 648.812 392.038, 648.033 392.922, 648.598 394.394 C 648.934 395.271, 649.550 395.778, 649.965 395.521 C 650.381 395.265, 652.021 396.419, 653.611 398.086 C 660.304 405.110, 664.303 408.482, 665.609 408.206 C 666.472 408.024, 667.012 408.783, 667.032 410.206 C 667.124 416.840, 675.255 418.284, 681.306 412.742 L 684.863 409.483 682.477 408.357 C 681.164 407.737, 679.957 407.614, 679.795 408.083 C 679.633 408.552, 678.825 408.500, 678 407.968 C 676.722 407.143, 676.709 406.866, 677.908 406.093 C 679.038 405.366, 678.594 404.343, 675.658 400.913 C 673.646 398.563, 672.005 395.934, 672.011 395.070 C 672.042 390.609, 673.391 386, 674.666 386 C 675.438 386, 677.126 385.309, 678.416 384.463 C 680.632 383.011, 680.895 383.087, 683.215 385.844 C 684.565 387.448, 686.644 389.069, 687.835 389.447 C 689.026 389.825, 690 390.554, 690 391.067 C 690 391.580, 690.450 392, 691 392 C 691.550 392, 691.997 391.438, 691.993 390.750 C 691.990 390.063, 693.164 385.339, 694.603 380.254 C 697.281 370.788, 697.240 366, 694.481 366 C 692.949 366, 692.897 365.905, 692.515 362.386 C 692.189 359.376, 691.151 358.008, 688.403 356.963 C 687.019 356.437, 686 355.236, 686 354.133 C 686 352.980, 685.103 351.991, 683.750 351.650 C 682.513 351.338, 679.362 349.147, 676.750 346.780 C 672.386 342.827, 672 342.100, 672 337.845 C 672 331.005, 677.658 328.751, 681.013 334.254 C 682.331 336.416, 682.994 336.916, 682.996 335.750 C 682.998 334.788, 683.675 334, 684.500 334 C 685.333 334, 686 333.111, 686 332 C 686 330.900, 685.523 330, 684.941 330 C 684.359 330, 684.172 329.530, 684.527 328.956 C 685.422 327.508, 682.975 324.796, 681.340 325.423 C 680.516 325.739, 680 325.221, 680 324.076 C 680 323.052, 679.288 321.941, 678.418 321.607 C 676.498 320.870, 676.856 320.794, 674.750 322.392" stroke="none" fill="black" fill-rule="evenodd"/>
</svg>