<svg xmlns="http://www.w3.org/2000/svg" width="1024" height="1024" viewBox="0 0 1024 1024" version="1.1">
	<path d="M 420.778 487.863 C 418.205 489.148, 417.068 490.721, 415.492 495.175 C 414.387 498.296, 413.149 501.184, 412.742 501.592 C 411.254 503.079, 412.051 504.043, 413.934 503.035 C 417.349 501.208, 422 501.730, 422 503.941 C 422 505.009, 421.592 506.134, 421.094 506.442 C 420.596 506.750, 420.396 507.799, 420.651 508.773 C 420.925 509.823, 420.073 511.523, 418.557 512.946 C 415.707 515.624, 415.308 517, 417.381 517 C 419.751 517, 423.875 510.473, 424.726 505.374 L 425.540 500.500 432.770 500.206 C 438.748 499.963, 440 500.180, 440 501.456 C 440 502.591, 441.061 503, 444 503 C 446.200 503, 448 503.351, 448 503.781 C 448 504.210, 449.349 505.071, 450.998 505.693 C 454.798 507.127, 456.040 509.981, 453.498 511.436 C 446.626 515.370, 442.904 522, 447.568 522 C 448.313 522, 449.735 522.873, 450.729 523.940 C 451.998 525.301, 454.170 525.972, 458.018 526.190 C 462.776 526.459, 463.541 526.788, 463.811 528.682 C 464.299 532.111, 460.648 533.454, 450.906 533.431 L 442.312 533.411 442.155 537.422 C 441.899 543.942, 439.087 549.790, 436.866 548.417 C 436.390 548.123, 436 548.857, 436 550.048 C 436 551.629, 436.435 552.047, 437.611 551.596 C 438.764 551.153, 439.058 551.407, 438.643 552.489 C 437.719 554.897, 439.642 554.253, 443.504 550.862 C 446.943 547.843, 447.132 547.795, 448.511 549.612 C 449.299 550.650, 449.745 552.063, 449.503 552.750 C 448.998 554.184, 450.597 554.461, 451.446 553.087 C 451.757 552.585, 453.921 551.859, 456.255 551.474 C 458.590 551.089, 461.073 550.311, 461.774 549.744 C 462.475 549.178, 463.342 549.009, 463.701 549.368 C 464.632 550.298, 460.751 553.032, 459.250 552.503 C 458.563 552.261, 458 552.499, 458 553.031 C 458 553.564, 457.663 553.911, 457.250 553.802 C 452.964 552.670, 448.896 558.665, 451.378 562.455 C 454.710 567.540, 460.992 565.102, 461.015 558.715 C 461.033 553.967, 462.051 551.750, 464.010 552.197 C 466.222 552.702, 467.911 548.049, 467.323 543.071 C 466.603 536.975, 469.395 533.956, 474.107 535.734 C 476.633 536.688, 477.212 536.612, 477.731 535.258 C 478.519 533.205, 479.821 536.085, 479.930 540.120 C 479.990 542.352, 480.666 542.927, 484.500 544 C 488.213 545.040, 489 545.674, 489 547.630 C 489 548.933, 489.401 550, 489.892 550 C 492.744 550, 490.433 564.087, 487.059 567.264 C 485.708 568.537, 485.777 566.709, 487.447 557 C 488.002 553.773, 487.960 553.695, 486.905 556 C 481.756 567.246, 481.819 572.408, 487.108 572.811 C 489.799 573.016, 490.070 572.797, 489.469 570.902 C 489.095 569.725, 489.255 567.803, 489.823 566.631 C 490.391 565.459, 491.134 562.811, 491.474 560.746 C 492.496 554.537, 498.079 550.799, 498.820 555.828 C 498.995 557.023, 499.607 558, 500.179 558 C 500.790 558, 501.040 559.531, 500.785 561.713 C 500.331 565.604, 503.966 570.142, 507.876 570.566 C 508.769 570.663, 510.223 571.048, 511.107 571.423 C 513.841 572.582, 515.311 567.184, 514.548 558.789 C 514.076 553.609, 514.186 551.934, 514.927 553 C 515.803 554.261, 515.971 554.181, 515.978 552.500 C 515.983 551.400, 515.076 549.150, 513.962 547.500 C 512.849 545.850, 511.273 543.150, 510.460 541.500 C 508.370 537.254, 502.394 529.939, 501.636 530.698 C 501.286 531.047, 501 530.656, 501 529.827 C 501 527.381, 475.458 502.314, 471.729 501.100 C 471.053 500.880, 470.275 500.406, 470 500.047 C 468.316 497.848, 461.708 493.994, 457 492.466 C 453.975 491.484, 451.038 490.052, 450.473 489.285 C 447.941 485.844, 426.843 484.833, 420.778 487.863" stroke="none" fill="black" fill-rule="evenodd"/>
</svg>