<svg xmlns="http://www.w3.org/2000/svg" width="1024" height="1024" viewBox="0 0 1024 1024" version="1.1">
	<path d="M 534.481 95.450 C 521.572 98.302, 513.425 103.383, 515.320 107.399 C 515.951 108.736, 516.803 109.622, 517.213 109.368 C 518.412 108.627, 522 110.942, 522 112.456 C 522 113.966, 527.322 115.537, 528.976 114.515 C 529.539 114.167, 530 113.196, 530 112.358 C 530 111.519, 530.563 111.023, 531.250 111.254 C 531.938 111.485, 535.200 109.475, 538.500 106.786 C 541.800 104.097, 547.082 100.683, 550.239 99.199 C 553.395 97.714, 555.834 96.050, 555.658 95.500 C 555.174 93.981, 541.281 93.948, 534.481 95.450" stroke="none" fill="black" fill-rule="evenodd"/>
</svg>