<svg xmlns="http://www.w3.org/2000/svg" width="1024" height="1024" viewBox="0 0 1024 1024" version="1.1">
	<path d="M 626.809 180.487 C 627.120 183.155, 627.620 183.976, 628.682 183.569 C 629.756 183.157, 629.967 183.529, 629.498 185.006 C 629.054 186.404, 629.322 187, 630.394 187 C 631.331 187, 632.339 188.546, 632.999 190.996 C 634.237 195.594, 633.198 198.485, 629.936 199.520 C 627.949 200.151, 625.817 203.787, 626.625 205.167 C 626.840 205.534, 628.640 205.386, 630.624 204.838 C 632.609 204.290, 635.223 204.090, 636.433 204.394 C 639.385 205.135, 643.496 202.302, 642.030 200.537 C 640.823 199.082, 641.733 195.717, 643.105 196.565 C 643.597 196.869, 644 195.465, 644 193.445 C 644 186.174, 637.572 178.948, 629.809 177.492 L 626.384 176.849 626.809 180.487" stroke="none" fill="black" fill-rule="evenodd"/>
</svg>