<svg xmlns="http://www.w3.org/2000/svg" width="1024" height="1024" viewBox="0 0 1024 1024" version="1.1">
	<path d="M 802.935 217.717 L 799.369 218.099 800.632 225.799 C 801.326 230.035, 801.918 233.613, 801.947 233.750 C 801.976 233.887, 802.900 234, 804 234 C 805.100 234, 806 234.450, 806 235 C 806 235.550, 805.325 236, 804.500 236 C 803.675 236, 803 236.459, 803 237.019 C 803 237.594, 804.041 237.777, 805.391 237.438 C 806.706 237.108, 808.082 237.324, 808.450 237.919 C 808.862 238.586, 808.138 239, 806.559 239 C 804.576 239, 803.997 239.507, 803.985 241.250 C 803.970 243.362, 802.048 247.578, 802.015 245.570 C 802.007 245.058, 800.650 246.152, 799 248 C 796.213 251.122, 794.745 255.894, 797 254.500 C 797.550 254.160, 798 254.809, 798 255.941 C 798 257.073, 797.550 258, 797 258 C 795.183 258, 795.961 263.330, 798.113 265.620 C 800.831 268.513, 802.714 266.992, 802.171 262.343 C 801.787 259.051, 802.685 258.130, 804.550 259.903 C 805.072 260.400, 806.400 261.022, 807.500 261.287 C 809.261 261.711, 809.223 261.782, 807.183 261.884 C 805.363 261.975, 804.987 262.430, 805.433 264 C 805.745 265.100, 806.284 266.992, 806.632 268.203 C 806.979 269.415, 807.895 271.038, 808.667 271.810 C 809.669 272.812, 809.924 274.751, 809.558 278.606 C 809.165 282.753, 809.363 284, 810.415 284 C 811.167 284, 812.112 285.238, 812.515 286.750 C 812.917 288.262, 813.452 288.942, 813.704 288.259 C 814.041 287.344, 814.587 287.444, 815.786 288.643 C 816.679 289.537, 817.547 289.859, 817.714 289.358 C 817.881 288.858, 819.813 288.620, 822.009 288.829 C 825.040 289.119, 826 288.854, 826 287.727 C 826 286.912, 826.645 285.710, 827.433 285.056 C 830.385 282.606, 828.910 280.110, 824.541 280.162 C 818.622 280.234, 818 280.113, 818 278.893 C 818 278.284, 818.638 278.031, 819.417 278.330 C 820.197 278.629, 821.097 278.190, 821.417 277.355 C 822.248 275.189, 822.175 275, 820.500 275 C 818.520 275, 818.599 273.544, 820.693 271.450 C 822.284 269.858, 822.186 269.800, 819.068 270.485 C 816.743 270.996, 815.955 270.883, 816.434 270.107 C 816.810 269.498, 817.991 269, 819.059 269 C 821.699 269, 821.504 266.635, 818.500 262.215 C 815.671 258.052, 815.234 255.492, 817.500 256.362 C 818.515 256.751, 819 256.311, 819 255 C 819 253.586, 819.460 253.239, 820.703 253.716 C 822.031 254.226, 821.783 253.305, 819.580 249.546 C 818.025 246.893, 816.438 243.547, 816.054 242.111 C 815.670 240.675, 815.020 239.637, 814.610 239.804 C 813.752 240.154, 807.024 231.975, 807.010 230.564 C 807.004 230.050, 807.879 228.693, 808.953 227.550 C 810.666 225.726, 810.775 224.949, 809.832 221.235 C 809.240 218.906, 808.249 217.076, 807.628 217.168 C 807.008 217.261, 804.896 217.508, 802.935 217.717" stroke="none" fill="black" fill-rule="evenodd"/>
</svg>