<svg xmlns="http://www.w3.org/2000/svg" width="1024" height="1024" viewBox="0 0 1024 1024" version="1.1">
	<path d="M 545.523 868.114 C 543.233 870.124, 541.289 871.047, 540.035 870.719 C 536.419 869.774, 534.779 872.215, 534.083 879.583 C 533.420 886.599, 531.746 890.311, 528.046 892.971 C 526.921 893.780, 525.993 895.580, 525.985 896.971 C 525.961 900.925, 524.509 902.668, 522.576 901.063 C 521.677 900.317, 521 900.197, 521 900.784 C 521 901.350, 520.171 901.596, 519.157 901.331 C 517.501 900.898, 517.191 901.950, 516.101 911.674 C 515.434 917.628, 514.670 923.625, 514.405 925 C 513.765 928.310, 511.431 938.414, 510.050 943.850 C 508.831 948.648, 500.303 960.314, 495.500 963.754 C 487.486 969.493, 482.195 972.768, 479.481 973.667 C 476.896 974.524, 476.459 975.205, 476.194 978.790 L 475.889 982.924 486.440 982.712 C 492.243 982.595, 496.993 982.163, 496.996 981.750 C 496.998 981.337, 498.591 981, 500.535 981 C 503.720 981, 503.968 980.809, 503.035 979.066 C 502.466 978.002, 502 975.752, 502 974.066 C 502 971.058, 502.094 971, 506.941 971 C 509.659 971, 512.160 971.450, 512.500 972 C 512.840 972.550, 514.891 973, 517.059 973 C 520.375 973, 521 973.328, 521 975.066 C 521 979.361, 522.805 981, 527.535 981 C 531.962 981, 532 980.970, 532 977.539 C 532 974.317, 532.292 973.998, 536.213 972.943 C 540.017 971.918, 540.587 972.007, 542.084 973.855 C 544.483 976.818, 543.462 980.766, 540.144 981.363 C 538.690 981.625, 541.488 981.728, 546.363 981.593 C 553.438 981.396, 555.415 981.009, 556.163 979.673 C 556.756 978.613, 558.364 978, 560.550 978 C 562.447 978, 564 977.550, 564 977 C 564 976.450, 566.430 976, 569.400 976 L 574.801 976 576 971 C 577.144 966.232, 577.355 966, 580.554 966 C 583.654 966, 583.957 966.286, 584.533 969.750 C 585.570 975.991, 585.702 976.145, 589.742 975.811 L 593.500 975.500 594 970 C 594.402 965.575, 594.842 964.516, 596.250 964.583 C 603.706 964.938, 603.216 964.499, 602.843 970.501 L 602.500 976.003 620.111 976.001 L 637.721 976 638.352 970.750 C 639.416 961.893, 639.687 962.325, 632.260 961.032 C 623.345 959.479, 619.098 956.932, 613.186 949.592 C 604.030 938.223, 600.269 930.080, 597.522 915.677 C 596.059 908.006, 593.133 903.930, 590.965 906.542 C 590.299 907.344, 589.166 908, 588.445 908 C 587.724 908, 586.829 909.013, 586.456 910.250 C 585.086 914.793, 582.756 918.968, 581.890 918.432 C 581.401 918.130, 581 918.394, 581 919.020 C 581 919.761, 579.969 919.932, 578.051 919.511 C 575.763 919.009, 574.829 919.301, 573.884 920.815 C 572.724 922.672, 572.575 922.682, 570.797 921.026 C 568.257 918.659, 569.230 904.203, 572.141 901.079 C 573.163 899.982, 574.014 897.827, 574.032 896.292 C 574.049 894.756, 574.726 892.624, 575.536 891.552 C 577.897 888.432, 573.660 881, 569.521 881 C 568.764 881, 567.260 879.875, 566.179 878.500 C 565.097 877.125, 563.689 876, 563.050 876 C 562.411 876, 560.994 873.981, 559.903 871.513 C 556.650 864.161, 551.431 862.927, 545.523 868.114" stroke="none" fill="black" fill-rule="evenodd"/>
</svg>