<svg xmlns="http://www.w3.org/2000/svg" width="1024" height="1024" viewBox="0 0 1024 1024" version="1.1">
	<path d="M 403.676 88.657 C 403.314 89.019, 400.652 89.403, 397.759 89.510 C 390.858 89.767, 384.369 91.631, 381.947 94.053 C 380.876 95.124, 379.212 96.010, 378.250 96.023 C 375.784 96.056, 369.873 101.787, 367.500 106.445 C 366.400 108.604, 364.405 111.389, 363.066 112.634 C 359.889 115.588, 359.324 124.495, 362.313 124.508 C 364.565 124.518, 367.948 128.772, 367.978 131.631 C 368.011 134.798, 374.407 139.450, 376.226 137.631 C 378.442 135.415, 385.103 135.098, 388.327 137.056 C 391.558 139.017, 393.633 138.683, 400 135.180 C 405.871 131.949, 411.198 127.289, 412.698 124.071 C 414.981 119.173, 416.719 117.713, 419.449 118.398 C 421.345 118.874, 422 118.648, 422 117.519 C 422 116.684, 421.550 116, 421 116 C 419.467 116, 419.813 112.045, 421.492 110.365 C 422.313 109.544, 423.515 109.200, 424.162 109.600 C 424.958 110.092, 425.133 109.788, 424.701 108.664 C 424.350 107.749, 424.499 107, 425.031 107 C 426.654 107, 426.112 103.805, 424.250 102.392 C 423.155 101.561, 422.974 101.052, 423.766 101.032 C 424.551 101.012, 424.945 99.861, 424.803 98 C 424.559 94.792, 424.026 94.374, 422.337 96.063 C 421.587 96.813, 421.100 96.249, 420.679 94.146 C 420.160 91.551, 419.379 90.961, 414.638 89.583 C 408.890 87.912, 404.769 87.564, 403.676 88.657" stroke="none" fill="black" fill-rule="evenodd"/>
</svg>