<svg xmlns="http://www.w3.org/2000/svg" width="1024" height="1024" viewBox="0 0 1024 1024" version="1.1">
	<path d="M 247.845 280.108 C 246.503 282.128, 246.042 282.280, 244.678 281.148 C 242 278.925, 228 282.342, 228 285.218 C 228 286.333, 227.252 287, 226 287 C 223.662 287, 223.320 288.802, 225.500 289.638 C 226.325 289.955, 227 290.815, 227 291.550 C 227 292.285, 227.816 293.475, 228.812 294.193 C 229.809 294.912, 231.694 296.962, 233 298.750 C 235.651 302.376, 238 303.002, 238 300.082 C 238 296.186, 239.098 294.689, 240.478 296.705 C 244.238 302.198, 246.762 308.131, 247.406 312.995 C 247.806 316.018, 248.891 319.340, 249.817 320.378 C 251.412 322.167, 251.393 322.233, 249.464 321.634 C 247.885 321.143, 247.429 321.449, 247.429 323.001 C 247.429 324.100, 248.007 325, 248.714 325 C 249.421 325, 250 325.502, 250 326.115 C 250 327.206, 259.316 326.583, 262.758 325.263 C 263.764 324.876, 264.092 325.282, 263.839 326.600 C 263.455 328.590, 256.756 330.712, 250.250 330.904 C 247.716 330.979, 247 331.434, 247 332.969 C 247 334.308, 246.520 334.753, 245.500 334.362 C 243.452 333.576, 243.605 334.991, 245.737 336.549 C 247.386 337.755, 247.386 337.916, 245.737 339.738 C 244.782 340.794, 244 342.147, 244 342.745 C 244 343.344, 243.557 343.983, 243.015 344.167 C 241.758 344.592, 239.954 354, 241.129 354 C 241.608 354, 242 355.575, 242 357.500 C 242 363.047, 245.123 361.524, 246.446 355.332 C 247.839 348.814, 252.104 346.305, 255.349 350.095 C 257.467 352.569, 258.011 352.216, 258.886 347.801 C 259.388 345.271, 260.427 344.065, 263.335 342.637 L 267.130 340.773 269.645 343.137 C 272.113 345.454, 272.189 345.463, 273.581 343.559 C 274.361 342.491, 275 342.114, 275 342.720 C 275 345.786, 284.992 340.291, 285.681 336.846 C 286.234 334.081, 289.172 332.017, 289.814 333.943 C 290.652 336.457, 294.580 335.050, 294.539 332.250 C 294.507 329.976, 294.933 329.498, 297 329.486 C 298.929 329.475, 299.568 328.891, 299.798 326.928 C 300.094 324.397, 300.067 324.387, 294.298 325.042 C 291.109 325.404, 287.938 325.495, 287.250 325.243 C 286.563 324.992, 286 325.509, 286 326.393 C 286 327.426, 285.136 328, 283.582 328 C 275.825 328, 275.608 321.315, 283.338 320.487 C 284.527 320.359, 285.852 320.198, 286.282 320.128 C 286.712 320.057, 287.428 319.018, 287.872 317.817 C 288.506 316.102, 289.518 315.620, 292.590 315.567 C 296.132 315.506, 296.481 315.265, 296.300 313 C 295.518 303.254, 295.108 300.708, 294.171 299.771 C 293.587 299.187, 293.329 297.536, 293.598 296.104 C 294.269 292.542, 287.295 284.289, 284.515 285.356 C 282.842 285.998, 282.965 286.369, 285.835 289.330 C 290.575 294.220, 289.647 294.740, 284.408 290.128 C 280.770 286.926, 279.261 286.198, 277.139 286.622 C 275.159 287.018, 273.728 286.477, 271.640 284.542 C 266.571 279.845, 264.235 278.864, 256.773 278.299 C 249.844 277.775, 249.323 277.881, 247.845 280.108" stroke="none" fill="black" fill-rule="evenodd"/>
</svg>