<svg xmlns="http://www.w3.org/2000/svg" width="1024" height="1024" viewBox="0 0 1024 1024" version="1.1">
	<path d="M 314 964.255 C 314 965.828, 313.341 967.316, 312.500 967.638 C 310.402 968.443, 310.599 976.150, 312.886 982.770 C 315.105 989.195, 315.340 989.444, 319.320 989.592 C 321.069 989.658, 325.875 990.212, 330 990.825 C 334.125 991.437, 343.749 991.952, 351.388 991.969 L 365.275 992 361.888 989.250 C 359.222 987.086, 358.570 985.891, 358.827 983.644 C 359.038 981.795, 358.774 981.022, 358.077 981.453 C 357.485 981.819, 357 983.201, 357 984.524 C 357 987.475, 354.031 989.248, 348.238 989.758 C 344.116 990.120, 343.954 990.024, 343.277 986.816 C 342.892 984.992, 342.682 983.134, 342.810 982.687 C 342.938 982.239, 342.601 980.214, 342.062 978.187 C 341.522 976.159, 340.817 972.813, 340.495 970.750 C 340.129 968.404, 339.365 967, 338.455 967 C 337.655 967, 336.966 966.212, 336.924 965.250 C 336.882 964.288, 336.241 965.075, 335.500 967 L 334.152 970.500 334.076 966.750 C 334.012 963.573, 333.656 962.989, 331.750 962.929 C 330.512 962.890, 326.012 962.540, 321.750 962.152 L 314 961.447 314 964.255" stroke="none" fill="black" fill-rule="evenodd"/>
</svg>