<svg xmlns="http://www.w3.org/2000/svg" width="1024" height="1024" viewBox="0 0 1024 1024" version="1.1">
	<path d="M 452.354 261.520 C 451.893 262.722, 452.361 263.874, 453.775 265.019 C 455.136 266.121, 455.698 267.440, 455.359 268.736 C 454.952 270.291, 455.916 271.477, 459.616 273.973 L 464.398 277.201 477.449 276.475 C 489.135 275.826, 498.836 274.254, 492.332 274.063 C 489.207 273.972, 486.923 272.933, 487.565 271.895 C 487.869 271.403, 487.304 270.964, 486.309 270.921 C 485.079 270.867, 484.937 270.669, 485.863 270.300 C 487.014 269.842, 487.014 269.623, 485.863 268.894 C 485.037 268.371, 487.946 268.025, 493.250 268.015 C 501.328 268.001, 502 267.846, 502 266 C 502 264.900, 501.663 264.071, 501.250 264.159 C 500.837 264.246, 499.825 264.068, 499 263.764 C 498.175 263.459, 490.525 262.689, 482 262.053 C 473.475 261.417, 463.472 260.634, 459.771 260.313 C 453.905 259.804, 452.953 259.959, 452.354 261.520" stroke="none" fill="black" fill-rule="evenodd"/>
</svg>