<svg xmlns="http://www.w3.org/2000/svg" width="1024" height="1024" viewBox="0 0 1024 1024" version="1.1">
	<path d="M 738.392 908.636 C 737.232 908.892, 735.702 910.189, 734.991 911.517 C 734.280 912.845, 733.305 913.689, 732.825 913.392 C 730.186 911.761, 725.089 914.564, 715 923.194 C 713.625 924.371, 711.038 926.203, 709.250 927.265 C 706.086 929.147, 704.974 931, 707.009 931 C 708.583 931, 713.654 936.258, 714.407 938.669 C 715.015 940.618, 712.335 942.815, 710 942.282 C 709.725 942.219, 709.467 944.369, 709.427 947.060 C 709.363 951.433, 709.627 952.052, 711.927 952.897 C 714.445 953.822, 714.451 953.844, 712.179 953.921 C 707.783 954.071, 712.434 956.994, 717.179 957.063 C 721.124 957.121, 721.282 957.217, 719 958.161 L 716.500 959.196 719 960.178 C 723.046 961.768, 744.873 960.817, 746.021 959 C 746.829 957.721, 746.972 957.758, 746.985 959.250 C 747.003 961.287, 748.099 961.501, 749.800 959.800 C 750.733 958.867, 751 958.867, 751 959.800 C 751 960.460, 751.705 961, 752.567 961 C 753.639 961, 753.948 961.587, 753.546 962.855 C 753.222 963.875, 753.360 965.788, 753.853 967.105 C 754.708 969.390, 754.798 969.323, 755.822 965.649 C 756.412 963.531, 757.706 961.189, 758.697 960.446 C 760.356 959.202, 760.241 959.041, 757.250 958.422 C 752.939 957.530, 753.097 956, 757.500 956 C 760.442 956, 761.011 955.641, 761.070 953.750 C 761.137 951.603, 761.180 951.592, 762 953.500 C 762.797 955.355, 763.520 954.170, 763.101 951.696 C 762.888 950.441, 765.761 947.934, 767.071 948.232 C 767.720 948.379, 768.456 947.938, 768.708 947.250 C 768.960 946.563, 768.649 946, 768.016 946 C 766.501 946, 767.661 942.378, 770.333 938.763 C 771.554 937.112, 773.016 936.185, 773.943 936.475 C 776.715 937.344, 778.106 932.551, 775.763 930.207 C 773.883 928.327, 773.872 928.125, 775.517 925.614 C 777.418 922.713, 776.243 917.691, 773.408 916.603 C 772.634 916.306, 772 915.429, 772 914.655 C 772 911.569, 762.134 908.626, 751 908.391 C 745.225 908.269, 739.551 908.379, 738.392 908.636" stroke="none" fill="black" fill-rule="evenodd"/>
</svg>