<svg xmlns="http://www.w3.org/2000/svg" width="1024" height="1024" viewBox="0 0 1024 1024" version="1.1">
	<path d="M 109.942 190.820 C 108.884 191.282, 108.431 192.708, 108.531 195.261 C 108.706 199.715, 106.717 202.067, 105.111 199.305 C 104.533 198.312, 104.047 198.044, 104.030 198.710 C 104.010 199.531, 101.355 200.012, 95.750 200.210 L 87.500 200.500 87.652 216 C 87.832 234.482, 89.705 241.157, 92.988 235.023 C 93.570 233.936, 94.978 232.547, 96.117 231.937 C 99.952 229.885, 105.980 238.065, 106.015 245.372 C 106.027 247.759, 106.260 248.145, 107 247 C 107.695 245.925, 107.974 246.971, 107.985 250.691 C 108.004 257.390, 109.943 258.832, 110.160 252.309 C 110.295 248.245, 110.385 248.041, 110.742 250.996 C 111.332 255.886, 112.602 257, 117.587 257 C 122.683 257, 124 255.359, 124 249.009 C 124 242.959, 125.830 236.706, 128.515 233.581 L 130.874 230.835 144.687 232.894 C 152.284 234.026, 162.314 235.448, 166.975 236.055 C 174.604 237.047, 175.778 237.494, 178.725 240.529 C 180.526 242.384, 182 244.522, 182 245.281 C 182 248.499, 186.502 249.343, 190.353 246.847 C 192.345 245.556, 193.981 243.950, 193.988 243.279 C 193.994 242.607, 195.125 239.513, 196.500 236.404 C 198.504 231.872, 199 229.124, 199 222.543 L 199 214.335 194.250 213.418 C 189.198 212.442, 189.210 212.465, 190.112 205.513 C 190.554 202.108, 190.508 202.091, 174.812 199.728 C 166.368 198.457, 166.105 198.477, 165.470 200.460 C 164.209 204.401, 164.223 206.525, 165.529 209.250 C 166.254 210.762, 166.481 212, 166.035 212 C 165.588 212, 164.925 213.588, 164.561 215.528 C 164.197 217.468, 163.510 218.815, 163.035 218.522 C 162.560 218.228, 161.907 218.553, 161.585 219.244 C 161.118 220.247, 160.882 220.248, 160.417 219.250 C 160.096 218.563, 159.169 218, 158.358 218 C 157.546 218, 157.160 217.550, 157.500 217 C 158.528 215.337, 157.050 215.875, 154.778 217.992 C 152.799 219.836, 152.507 219.864, 150.849 218.363 C 149.363 217.018, 148.350 216.922, 144.906 217.796 C 141.127 218.755, 132.386 218.095, 126.877 216.435 C 124.266 215.648, 123.682 207.090, 126.102 205.077 C 128.352 203.205, 127.759 195.495, 125.434 196.387 C 124.726 196.659, 123.581 196.200, 122.890 195.367 C 119.926 191.796, 113.156 189.418, 109.942 190.820" stroke="none" fill="black" fill-rule="evenodd"/>
</svg>