<svg xmlns="http://www.w3.org/2000/svg" width="1024" height="1024" viewBox="0 0 1024 1024" version="1.1">
	<path d="M 743.232 670 C 743.919 671.100, 744.823 672, 745.241 672 C 745.658 672, 746 672.900, 746 674 C 746 675.100, 745.550 676, 745 676 C 743.295 676, 743.889 677.617, 746.586 680.313 C 749.148 682.875, 749.155 682.928, 747.382 685.931 C 745.750 688.693, 745.698 689.816, 746.800 698.538 C 748.287 710.314, 747.554 712.514, 742.422 711.681 C 740.560 711.379, 738.803 711.510, 738.517 711.972 C 737.886 712.993, 733.753 712.059, 732.851 710.692 C 732.483 710.134, 731.016 710.893, 729.465 712.444 C 727.960 713.949, 726.453 714.802, 726.115 714.340 C 724.914 712.699, 723.112 713.070, 722.471 715.090 C 721.821 717.139, 717.087 717.408, 714.105 715.565 C 713.427 715.146, 713 715.728, 713 717.074 C 713 719.079, 709.680 723, 707.982 723 C 707.590 723, 706.070 722.056, 704.604 720.903 C 702.495 719.244, 701.640 719.054, 700.510 719.992 C 699.578 720.765, 697.939 720.905, 695.791 720.395 C 691.104 719.281, 690.699 719.271, 688.750 720.219 C 687.702 720.729, 686.172 720.627, 684.936 719.966 C 683.478 719.185, 682.497 719.173, 681.594 719.922 C 680.891 720.505, 680.074 720.741, 679.778 720.445 C 679.482 720.149, 678.922 721.600, 678.534 723.669 C 678.146 725.738, 677.207 728.633, 676.447 730.102 C 675.687 731.572, 674.765 736.537, 674.398 741.137 C 674.031 745.737, 673.381 749.950, 672.955 750.500 C 672.528 751.050, 671.864 753.188, 671.478 755.250 C 671.093 757.313, 670.377 759, 669.889 759 C 669.400 759, 669 759.862, 669 760.917 C 669 761.971, 668.438 763.060, 667.750 763.338 C 667.063 763.615, 667.555 763.878, 668.844 763.921 C 670.386 763.973, 671.366 763.317, 671.710 762 C 671.998 760.900, 672.631 760, 673.117 760 C 673.602 760, 674.052 758.313, 674.116 756.250 C 674.182 754.132, 674.441 753.370, 674.713 754.500 C 674.978 755.600, 675.600 756.928, 676.097 757.450 C 676.594 757.973, 677 760.785, 677 763.700 C 677 767.910, 677.332 769, 678.614 769 C 679.956 769, 680.115 768.254, 679.560 764.551 L 678.893 760.103 682.892 761.801 C 685.091 762.736, 687.110 764.335, 687.379 765.355 C 687.648 766.376, 688.451 767.016, 689.164 766.779 C 689.877 766.541, 691.159 767.210, 692.014 768.266 C 692.869 769.321, 694.790 770.256, 696.283 770.342 C 697.777 770.429, 698.999 770.782, 698.999 771.127 C 699.001 772.587, 713.287 771.328, 714.428 769.768 C 715.100 768.848, 717.944 767.901, 721.288 767.483 C 724.742 767.052, 727 766.285, 727 765.544 C 727 764.870, 729.475 763.764, 732.500 763.087 C 735.859 762.336, 738 761.328, 738 760.500 C 738 758.979, 748.616 754.645, 750.098 755.561 C 751.649 756.519, 757 754.950, 757 753.537 C 757 752.820, 757.900 751.998, 759 751.710 C 761.029 751.180, 761.834 749, 760 749 C 758.208 749, 758.948 747.151, 761 746.500 C 762.100 746.151, 763 745.221, 763 744.433 C 763 743.645, 763.675 743, 764.500 743 C 765.325 743, 766 742.373, 766 741.607 C 766 740.841, 766.706 739.943, 767.568 739.612 C 768.767 739.152, 769.061 737.836, 768.818 734.033 C 768.643 731.295, 768.829 729.155, 769.231 729.278 C 769.633 729.400, 770.671 728.487, 771.537 727.250 C 772.404 726.013, 773.601 725, 774.196 725 C 775.341 725, 777.914 722.060, 777.968 720.691 C 777.986 720.246, 777.582 720.140, 777.072 720.456 C 775.622 721.351, 774.769 717.300, 775.945 715.104 C 777.157 712.838, 777.365 708.003, 776.250 707.995 C 775.837 707.992, 775.486 704.954, 775.469 701.245 C 775.414 689.126, 766.893 675.190, 756.625 670.423 C 751.887 668.223, 749.310 668.224, 747.731 670.427 C 747.219 671.142, 746.514 670.916, 745.621 669.750 C 743.676 667.212, 741.625 667.427, 743.232 670" stroke="none" fill="black" fill-rule="evenodd"/>
</svg>