<svg xmlns="http://www.w3.org/2000/svg" width="1024" height="1024" viewBox="0 0 1024 1024" version="1.1">
	<path d="M 632.942 67.892 C 633.575 69.074, 633.820 70.482, 633.487 71.021 C 633.154 71.559, 633.359 72, 633.941 72 C 634.523 72, 635 72.652, 635 73.448 C 635 74.625, 634.434 74.699, 631.979 73.843 C 626.674 71.994, 626 73.541, 626 87.563 C 626 94.339, 626.372 100.112, 626.827 100.393 C 627.282 100.674, 627.315 103.288, 626.900 106.202 C 626.485 109.116, 626.113 119.445, 626.073 129.156 L 626 146.812 631.250 147.577 C 634.138 147.998, 637.737 148.231, 639.250 148.095 C 640.763 147.960, 642 148.294, 642 148.837 C 642 149.380, 643.229 149.689, 644.730 149.524 C 646.232 149.359, 648.432 149.594, 649.619 150.045 C 652.412 151.107, 652.673 149.809, 654.013 128.175 C 654.581 119.004, 655.468 109.925, 655.985 108 C 656.501 106.075, 657.637 97.343, 658.509 88.595 C 659.382 79.848, 660.540 71.860, 661.083 70.845 C 661.626 69.830, 661.942 68.966, 661.785 68.923 C 660.258 68.514, 657.288 68.165, 650.500 67.599 C 646.100 67.232, 640.091 66.664, 637.146 66.338 C 631.907 65.756, 631.817 65.790, 632.942 67.892" stroke="none" fill="black" fill-rule="evenodd"/>
</svg>