<svg xmlns="http://www.w3.org/2000/svg" width="1024" height="1024" viewBox="0 0 1024 1024" version="1.1">
	<path d="M 734.500 669.036 C 726.032 670.698, 721.416 672.419, 719.246 674.721 C 718.006 676.036, 716.543 676.836, 715.996 676.497 C 715.448 676.159, 715 676.359, 715 676.941 C 715 677.523, 714.663 677.947, 714.250 677.882 C 712.533 677.610, 711.066 678.075, 709.821 679.284 C 709.095 679.990, 706.357 681.812, 703.737 683.333 C 697.637 686.876, 687.035 699.290, 682.801 707.849 C 680.991 711.507, 679.084 714.805, 678.562 715.178 C 677.979 715.596, 678.082 716.885, 678.832 718.530 C 679.811 720.678, 680.327 720.973, 681.461 720.032 C 682.505 719.166, 683.410 719.149, 684.936 719.966 C 686.172 720.627, 687.702 720.729, 688.750 720.219 C 690.699 719.271, 691.104 719.281, 695.791 720.395 C 697.939 720.905, 699.578 720.765, 700.510 719.992 C 701.640 719.054, 702.495 719.244, 704.604 720.903 C 706.070 722.056, 707.590 723, 707.982 723 C 709.680 723, 713 719.079, 713 717.074 C 713 715.728, 713.427 715.146, 714.105 715.565 C 717.087 717.408, 721.821 717.139, 722.471 715.090 C 723.112 713.070, 724.914 712.699, 726.115 714.340 C 726.453 714.802, 727.960 713.949, 729.465 712.444 C 731.016 710.893, 732.483 710.134, 732.851 710.692 C 733.753 712.059, 737.886 712.993, 738.517 711.972 C 738.803 711.510, 740.560 711.379, 742.422 711.681 C 747.554 712.514, 748.287 710.314, 746.800 698.538 C 745.698 689.816, 745.750 688.693, 747.382 685.931 C 749.155 682.928, 749.148 682.875, 746.586 680.313 C 743.889 677.617, 743.295 676, 745 676 C 746.715 676, 746.098 673.128, 743.820 670.508 C 741.526 667.870, 740.922 667.775, 734.500 669.036" stroke="none" fill="black" fill-rule="evenodd"/>
</svg>