<svg xmlns="http://www.w3.org/2000/svg" width="1024" height="1024" viewBox="0 0 1024 1024" version="1.1">
	<path d="M 452 437.059 C 452 437.641, 451.530 437.828, 450.956 437.473 C 448.502 435.956, 444.744 440.037, 445.321 443.591 C 445.644 445.581, 445.381 447.505, 444.686 448.243 C 444.010 448.959, 443.473 452.620, 443.436 456.750 C 443.379 463.256, 443.569 464, 445.293 464 C 446.651 464, 447.032 464.474, 446.594 465.615 C 446.089 466.931, 446.529 467.149, 448.963 466.792 C 450.606 466.551, 452.075 466.719, 452.226 467.166 C 452.896 469.149, 465.473 470.197, 475.269 469.087 C 475.692 469.039, 475.756 467.875, 475.411 466.500 C 475.042 465.031, 475.213 464, 475.825 464 C 476.398 464, 477.010 465.238, 477.184 466.750 C 477.685 471.107, 483 471.396, 483 467.066 C 483 465.380, 483.397 464, 483.883 464 C 484.368 464, 485.081 460.632, 485.466 456.516 C 486.062 450.154, 486.604 448.565, 489.080 445.914 C 492.483 442.272, 492.273 441.662, 486.694 438.966 C 482.522 436.951, 477 437.049, 477 439.138 C 477 439.677, 476.526 439.825, 475.947 439.467 C 475.367 439.109, 472.217 439.127, 468.947 439.506 C 463.786 440.105, 462.987 440.481, 462.900 442.348 C 462.811 444.281, 462.730 444.246, 462.106 442.005 C 460.538 436.367, 457.048 439.276, 457.014 446.250 C 457.006 447.762, 456.487 449, 455.860 449 C 455.079 449, 454.895 447.304, 455.276 443.616 C 455.622 440.260, 455.411 437.811, 454.716 437.116 C 453.307 435.707, 452 435.680, 452 437.059" stroke="none" fill="black" fill-rule="evenodd"/>
</svg>