<svg xmlns="http://www.w3.org/2000/svg" width="1024" height="1024" viewBox="0 0 1024 1024" version="1.1">
	<path d="M 594.095 599.607 C 592.046 602.212, 592.603 606, 595.035 606 C 595.566 606, 595.964 608.138, 595.921 610.750 C 595.848 615.126, 595.763 615.283, 594.838 612.750 C 593.679 609.579, 592 609.095, 592 611.933 C 592 612.996, 591.100 614.151, 590 614.500 C 587.520 615.287, 587.520 615.756, 590 619.500 C 591.093 621.150, 591.990 621.938, 591.993 621.250 C 592.005 619.067, 593.759 619.904, 594.383 622.390 C 594.731 623.777, 595.663 624.722, 596.603 624.640 C 597.494 624.563, 598.608 625.513, 599.079 626.750 C 599.566 628.029, 599.555 629, 599.054 629 C 598.569 629, 599.037 631.362, 600.094 634.250 C 601.151 637.138, 601.810 640.039, 601.559 640.699 C 601.308 641.358, 602.378 643.263, 603.937 644.932 C 605.496 646.601, 607.083 649.628, 607.464 651.658 C 608.422 656.765, 611.019 663, 612.188 663 C 612.747 663, 612.879 661.726, 612.500 660 C 611.725 656.473, 612.639 656.032, 614.054 659.250 C 615.021 661.451, 615.034 661.446, 614.650 659 C 614.434 657.625, 613.908 655.600, 613.481 654.500 C 612.881 652.952, 612.982 652.755, 613.931 653.628 C 615.435 655.012, 616.944 661.233, 616.976 666.179 C 616.989 668.202, 617.599 670.456, 618.330 671.188 C 619.062 671.919, 619.470 673.091, 619.236 673.791 C 619.003 674.491, 619.524 676.151, 620.395 677.480 C 621.265 678.808, 621.716 680.577, 621.396 681.409 C 621.077 682.242, 621.538 684.373, 622.422 686.144 C 623.360 688.025, 623.636 689.607, 623.085 689.947 C 621.662 690.827, 628.295 705.433, 630.292 705.818 C 632.122 706.170, 638.891 701.661, 645.320 695.806 C 647.551 693.775, 650.867 691.310, 652.688 690.329 C 658.422 687.241, 656.728 685.109, 650.811 687.967 C 647.816 689.413, 645 687.739, 645 684.512 C 645 683.616, 644.617 683.119, 644.149 683.408 C 643.681 683.697, 642.726 682.036, 642.026 679.717 C 638.803 669.029, 637.904 666.398, 637.001 665 C 636.172 663.718, 636.028 663.754, 636.015 665.250 C 636.007 666.213, 635.438 666.888, 634.750 666.750 C 633.023 666.405, 630.015 661.897, 630.007 659.643 C 630.002 658.340, 629.515 657.972, 628.373 658.410 C 627.479 658.754, 626.131 658.524, 625.379 657.899 C 624.626 657.275, 623.137 656.992, 622.070 657.271 C 620.745 657.618, 619.441 656.881, 617.958 654.945 C 616.763 653.386, 614.884 651.974, 613.782 651.806 C 612.354 651.588, 611.133 649.776, 609.532 645.500 C 606.027 636.134, 605.640 634.660, 606.893 635.434 C 607.589 635.864, 608 635.197, 608 633.641 C 608 632.278, 608.249 630.515, 608.553 629.722 C 608.858 628.929, 608.025 626.980, 606.702 625.390 C 605.380 623.801, 604.493 621.938, 604.732 621.250 C 604.971 620.563, 604.679 620, 604.083 620 C 603.401 620, 603 617.201, 603 612.441 C 603 607.621, 603.365 605.107, 604.007 605.504 C 604.561 605.847, 605.309 605.358, 605.670 604.419 C 606.426 602.448, 603.545 599.854, 601.479 600.646 C 600.750 600.926, 599.653 600.220, 599.042 599.078 C 597.581 596.349, 596.572 596.457, 594.095 599.607" stroke="none" fill="black" fill-rule="evenodd"/>
</svg>