<svg xmlns="http://www.w3.org/2000/svg" width="1024" height="1024" viewBox="0 0 1024 1024" version="1.1">
	<path d="M 630.468 290.661 C 630.976 293.386, 630.625 294.131, 627.925 296.053 C 626.083 297.365, 624.527 297.881, 624.147 297.306 C 623.272 295.985, 615.117 294.018, 613.340 294.700 C 610.960 295.613, 612.456 297.470, 616 298 C 619.743 298.560, 620.786 300.103, 618.630 301.892 C 616.348 303.786, 611.168 305.003, 610.748 303.743 C 610.549 303.146, 609.366 302.582, 608.119 302.490 C 606.299 302.356, 605.956 302.725, 606.384 304.360 C 606.677 305.480, 606.430 306.982, 605.836 307.698 C 604.578 309.213, 601.583 309.484, 602.500 308 C 602.840 307.450, 602.529 306.931, 601.809 306.848 C 601.089 306.764, 600.050 306.640, 599.500 306.571 C 598.950 306.503, 597.969 306.114, 597.319 305.707 C 596.670 305.300, 595.851 305.432, 595.500 306 C 595.149 306.568, 594.491 306.803, 594.038 306.523 C 593.584 306.243, 592.932 307.136, 592.588 308.507 C 592.243 309.878, 591.372 311, 590.650 311 C 589.928 311, 588.787 312.029, 588.115 313.286 C 587.442 314.543, 586.128 315.650, 585.196 315.745 C 584.263 315.840, 582.033 316.213, 580.241 316.574 C 576.608 317.305, 573.789 315.713, 574.666 313.427 C 575.001 312.556, 574.588 312, 573.607 312 C 572.723 312, 572 311.352, 572 310.559 C 572 308.663, 570.318 307.683, 568.750 308.665 C 568.063 309.095, 566.825 309.459, 566 309.474 C 564.886 309.493, 564.575 310.461, 564.791 313.234 C 565.027 316.255, 564.788 316.856, 563.541 316.377 C 561.784 315.703, 561.293 319.445, 563 320.500 C 564.816 321.622, 564.189 326.149, 562.250 325.909 C 561.288 325.790, 559.712 326.035, 558.750 326.453 C 557.788 326.872, 556.339 326.960, 555.532 326.651 C 554.725 326.341, 553.827 326.471, 553.537 326.940 C 552.713 328.273, 546.621 326.519, 543.140 323.945 C 540.948 322.325, 539.668 321.932, 538.942 322.658 C 537.738 323.862, 533 323.219, 533 321.851 C 533 321.348, 533.675 319.320, 534.500 317.346 C 536.158 313.377, 536.459 310, 535.155 310 C 533.426 310, 531.252 313.624, 530.659 317.492 C 530.322 319.688, 529.587 321.638, 529.024 321.825 C 527.023 322.492, 528.057 325.519, 530.707 326.750 C 532.188 327.438, 535.307 328, 537.640 328 C 539.973 328, 542.160 328.450, 542.500 329 C 542.840 329.550, 545.251 330, 547.859 330 C 550.467 330, 553.071 330.471, 553.648 331.048 C 554.378 331.778, 556.029 331.577, 559.098 330.384 C 561.519 329.444, 565.562 328.738, 568.083 328.817 C 574.615 329.020, 577.663 325.991, 577.074 319.881 C 576.957 318.662, 577.548 318.382, 579.465 318.749 C 580.866 319.016, 582.668 318.690, 583.471 318.024 C 584.397 317.255, 586.331 317.049, 588.762 317.460 C 591.662 317.950, 593.190 317.659, 595.047 316.264 C 598.380 313.759, 602.629 312, 605.347 312 C 606.586 312, 608.028 311.589, 608.550 311.088 C 609.072 310.586, 611.300 310.023, 613.500 309.838 C 617.540 309.497, 617.924 309.271, 621.460 305.158 C 623.132 303.213, 623.206 302.742, 621.960 301.954 C 620.737 301.180, 620.778 301.028, 622.216 301.015 C 625.457 300.986, 630.579 297.828, 632.917 294.416 C 635.054 291.298, 635.719 290.829, 637.638 291.085 C 638.275 291.171, 639.956 288.955, 639.985 287.993 C 639.993 287.713, 637.722 287.488, 634.939 287.493 L 629.878 287.500 630.468 290.661" stroke="none" fill="black" fill-rule="evenodd"/>
</svg>