<svg xmlns="http://www.w3.org/2000/svg" width="1024" height="1024" viewBox="0 0 1024 1024" version="1.1">
	<path d="M 400.386 422.713 C 398.272 422.980, 396.913 423.897, 396.151 425.567 C 395.150 427.766, 394.606 427.961, 391.064 427.394 C 388.107 426.921, 386.685 427.172, 385.477 428.380 C 383.984 429.873, 384.013 430, 385.847 430 C 388.770 430, 391 431.046, 391 432.418 C 391 433.106, 394.433 434.402, 399 435.439 C 404.233 436.626, 407 437.729, 407 438.627 C 407 439.382, 407.508 440, 408.128 440 C 408.894 440, 409.039 441.363, 408.580 444.250 C 407.952 448.197, 408.011 448.358, 409.420 446.500 C 410.254 445.400, 410.951 443.675, 410.968 442.667 C 410.986 441.658, 411.337 440.998, 411.750 441.199 C 412.163 441.400, 413.850 442.161, 415.500 442.890 C 417.150 443.619, 419.238 444.590, 420.141 445.048 C 424.147 447.081, 428.678 435.233, 425.583 430.815 C 424.286 428.963, 424 428.868, 424 430.286 C 424 431.371, 422.509 432.613, 420 433.617 C 417.800 434.497, 416 435.585, 416 436.035 C 416 437.546, 412.534 437.626, 408.250 436.213 C 403.264 434.569, 403.454 435.177, 406.171 429.585 C 408.376 425.047, 407.685 421.726, 404.628 422.160 C 404.007 422.248, 402.099 422.497, 400.386 422.713" stroke="none" fill="black" fill-rule="evenodd"/>
</svg>