<svg xmlns="http://www.w3.org/2000/svg" width="1024" height="1024" viewBox="0 0 1024 1024" version="1.1">
	<path d="M 763.473 546.795 C 762.988 547.966, 762.621 548.108, 762.300 547.250 C 762.043 546.563, 761.373 546, 760.810 546 C 760.247 546, 760.040 546.661, 760.349 547.468 C 760.659 548.275, 760.456 549.218, 759.898 549.563 C 758.124 550.660, 762.713 563.392, 768.722 574.044 C 769.041 574.608, 763.100 577, 761.380 577 C 760.842 577, 759.832 575.425, 759.136 573.500 C 757.705 569.543, 756.008 568.869, 755.985 572.250 C 755.972 574.069, 755.784 574.213, 755 573 C 754.467 572.175, 754.024 570.461, 754.015 569.191 C 754.007 567.921, 753.630 567.111, 753.178 567.390 C 751.726 568.288, 747.645 555.764, 747.756 550.750 C 747.814 548.138, 747.753 546, 747.620 546 C 747.488 546, 744.534 547.115, 741.058 548.477 C 737.581 549.840, 734.345 550.713, 733.868 550.418 C 731.925 549.218, 735.079 556.222, 737.630 558.773 C 738.383 559.526, 739 560.812, 739 561.630 C 739 562.449, 739.451 562.839, 740.002 562.499 C 741.225 561.743, 743.276 566.744, 742.355 568.235 C 741.936 568.913, 741.202 568.630, 740.347 567.460 C 739.606 566.447, 738.993 566.041, 738.985 566.559 C 738.976 567.076, 738.545 566.829, 738.026 566.008 C 737.364 564.961, 736.769 564.831, 736.028 565.572 C 735.287 566.313, 735.901 568.855, 738.089 574.095 C 740.819 580.635, 741.522 581.559, 743.748 581.531 C 746.039 581.503, 746.558 582.289, 749.010 589.500 C 751.936 598.108, 756.148 606.057, 756.779 604.164 C 757.642 601.575, 762.885 605.543, 762.967 608.846 C 762.985 609.586, 763.739 611.611, 764.643 613.346 C 767.722 619.258, 768 619.974, 768 621.986 C 768 625.004, 773.406 624.678, 777.270 621.426 C 779.046 619.932, 781.098 619.054, 782.163 619.332 C 783.172 619.596, 784.204 619.479, 784.456 619.071 C 784.959 618.258, 782.935 610.802, 781.994 610 C 780.468 608.699, 776.187 597.003, 777.043 596.474 C 777.569 596.148, 778 593.460, 778 590.500 C 778 587.540, 778.450 584.840, 779 584.500 C 779.550 584.160, 780 582.334, 780 580.441 C 780 578.548, 779.550 577, 779 577 C 778.450 577, 778 576.100, 778 575 C 778 573.900, 777.640 573, 777.201 573 C 776.256 573, 774 567.106, 774 564.639 C 774 563.693, 773.039 561.620, 771.865 560.032 C 770.691 558.444, 770.002 556.437, 770.334 555.572 C 770.666 554.707, 770.550 554, 770.077 554 C 769.604 554, 768.907 552.763, 768.527 551.250 C 767.514 547.210, 764.428 544.490, 763.473 546.795" stroke="none" fill="black" fill-rule="evenodd"/>
</svg>