<svg xmlns="http://www.w3.org/2000/svg" width="1024" height="1024" viewBox="0 0 1024 1024" version="1.1">
	<path d="M 701.923 202.191 C 701.881 202.361, 701.690 203.329, 701.499 204.342 C 700.973 207.120, 700.257 207.386, 699.524 205.075 C 698.856 202.972, 697 202.173, 697 203.989 C 697 204.534, 698.169 207.899, 699.598 211.468 C 701.504 216.231, 702.103 219.294, 701.848 222.980 C 701.492 228.110, 702.180 229.287, 703.822 226.354 C 704.831 224.551, 707.663 231.588, 708.459 237.877 C 709.055 242.583, 712.019 251, 713.080 251 C 714.711 251, 714.149 261.708, 712.429 263.429 C 710.668 265.189, 708.339 265.498, 707.833 264.039 C 707.623 263.433, 705.974 263.466, 703.368 264.130 C 698.674 265.326, 695.031 263.331, 694.965 259.528 C 694.932 257.662, 694.823 257.691, 693.607 259.885 L 692.285 262.271 691.574 259.438 C 691.121 257.633, 690.593 257.040, 690.121 257.804 C 689.029 259.571, 685.866 247.972, 686.655 245.094 C 687.096 243.486, 686.955 242.910, 686.232 243.356 C 685.575 243.763, 684.378 241.958, 683.186 238.763 C 679.560 229.042, 676.811 232.894, 679.403 244.064 C 680.224 247.604, 681.536 253.232, 682.317 256.571 C 683.099 259.910, 684.247 263.593, 684.869 264.755 C 685.491 265.918, 686.005 268.136, 686.012 269.684 C 686.018 271.233, 686.725 274.975, 687.581 278 C 688.438 281.025, 689.518 284.995, 689.981 286.823 C 690.444 288.651, 691.481 290.901, 692.285 291.823 C 693.217 292.892, 693.931 296.617, 694.253 302.090 C 694.531 306.815, 695.355 311.765, 696.084 313.090 C 696.813 314.416, 697.305 316.197, 697.176 317.048 C 697.048 317.900, 697.631 321.867, 698.471 325.864 C 699.312 329.861, 700.032 334.789, 700.070 336.815 C 700.125 339.665, 700.318 340.047, 700.922 338.500 C 701.458 337.129, 701.899 338.858, 702.326 344 C 703.944 363.475, 704.315 366.577, 705.156 367.637 C 706.554 369.401, 709.216 382.790, 709.585 389.915 C 709.768 393.444, 710.306 396.594, 710.781 396.915 C 711.257 397.237, 711.936 398.288, 712.292 399.250 C 712.745 400.480, 714.024 401, 716.591 401 C 719.677 401, 720.057 400.774, 719.036 399.544 C 717.550 397.753, 718.528 395.882, 720.545 396.656 C 721.359 396.968, 722.630 396.722, 723.370 396.108 C 724.137 395.471, 726.061 395.262, 727.857 395.621 C 729.949 396.040, 731 395.859, 731 395.080 C 731 394.288, 732.111 394.118, 734.435 394.554 C 736.324 394.908, 738.414 394.862, 739.079 394.451 C 739.744 394.040, 742.811 393.600, 745.894 393.473 C 750.888 393.268, 769.481 389.316, 774.366 387.421 C 776.034 386.774, 776.105 386.935, 775.035 388.934 C 773.411 391.970, 773.687 392.023, 780 389.903 C 783.025 388.887, 786.095 388.044, 786.821 388.028 C 788.506 387.992, 791.103 385.437, 790.286 384.619 C 789.945 384.279, 788.617 384, 787.333 384 C 786.050 384, 785 383.577, 785 383.059 C 785 381.600, 786.783 380.848, 787.209 382.128 C 787.466 382.899, 788.078 382.779, 789.101 381.756 C 790.517 380.340, 796.584 378.386, 798.250 378.810 C 798.663 378.914, 799 378.646, 799 378.214 C 799 377.782, 799.788 377.350, 800.750 377.255 C 805.189 376.815, 809 375.687, 809 374.813 C 809 374.285, 809.788 374.015, 810.750 374.213 C 811.712 374.411, 812.950 374.078, 813.500 373.474 C 814.642 372.219, 834.273 363.109, 837 362.568 C 837.275 362.514, 838.175 362.033, 839 361.500 C 839.825 360.967, 842.638 359.532, 845.250 358.311 C 847.862 357.091, 850 355.621, 850 355.046 C 850 354.471, 850.563 353.986, 851.250 353.968 C 852.747 353.931, 856.682 350.544, 859.650 346.740 C 861.682 344.135, 861.722 343.726, 860.372 339.242 C 859.587 336.634, 859.070 334.489, 859.223 334.476 C 859.375 334.462, 858.559 333.254, 857.408 331.791 C 855.863 329.827, 854.535 329.191, 852.329 329.360 C 849.554 329.572, 832.911 339.321, 832.167 341.172 C 831.983 341.627, 831.221 342, 830.472 342 C 829.723 342, 825.760 343.527, 821.664 345.394 C 814.723 348.557, 814.097 348.676, 812.466 347.144 C 810.839 345.615, 810.759 345.622, 811.324 347.242 C 812.123 349.535, 809.702 350.722, 793.528 355.966 C 777.061 361.305, 751.395 367.316, 748.339 366.549 C 747.033 366.221, 746 366.412, 746 366.981 C 746 367.541, 745.161 368, 744.136 368 C 741.937 368, 740.127 359.158, 742.079 357.951 C 742.864 357.466, 742.868 356.184, 742.095 353.388 C 741.121 349.866, 741.231 349.339, 743.260 347.792 C 746.396 345.401, 744.515 342.394, 740.110 342.754 C 737.302 342.983, 735.744 341.659, 737.851 340.833 C 738.319 340.650, 738.339 337.170, 737.896 333.100 C 737.378 328.349, 737.461 325.008, 738.126 323.765 C 738.696 322.700, 738.904 321.571, 738.590 321.256 C 737.907 320.573, 739.883 318, 741.091 318 C 741.556 318, 742.557 319.184, 743.315 320.632 C 744.666 323.210, 744.707 323.150, 745.356 317.632 C 745.720 314.535, 745.596 311.213, 745.081 310.250 C 744.566 309.288, 743.643 305.148, 743.030 301.052 C 742.417 296.955, 741.429 293.017, 740.835 292.302 C 739.399 290.571, 735.497 290.646, 733.704 292.439 C 731.947 294.196, 729.538 290.031, 730.521 286.934 C 731.546 283.704, 727.620 270.903, 725.721 271.286 C 724.206 271.590, 722.167 264.405, 722.077 258.440 C 722.030 255.384, 720.020 246.971, 717 237.197 C 714.250 228.296, 712 220.036, 712 218.840 C 712 217.645, 711.694 216.973, 711.319 217.347 C 710.945 217.722, 709.996 216.109, 709.212 213.764 C 708.427 211.419, 706.933 208.695, 705.892 207.711 C 704.852 206.727, 704 205.291, 704 204.520 C 704 203.337, 702.153 201.265, 701.923 202.191" stroke="none" fill="black" fill-rule="evenodd"/>
</svg>