<svg xmlns="http://www.w3.org/2000/svg" width="1024" height="1024" viewBox="0 0 1024 1024" version="1.1">
	<path d="M 743 184.931 C 743 186.807, 738.465 192.911, 737.353 192.532 C 734.178 191.452, 735.292 209.338, 738.569 212.057 C 739.356 212.710, 740.014 213.977, 740.032 214.872 C 740.059 216.274, 740.259 216.242, 741.467 214.647 C 742.765 212.935, 742.918 213.086, 743.499 216.647 C 744.442 222.423, 746.648 227.979, 749.993 233 C 751.642 235.475, 752.993 237.147, 752.996 236.715 C 752.998 236.283, 753.831 236.374, 754.847 236.918 C 756.117 237.598, 757.053 237.547, 757.847 236.753 C 758.983 235.617, 759.551 236.887, 759.052 239.449 C 758.593 241.809, 760.288 250.152, 760.995 249.009 C 761.568 248.081, 762.046 248.241, 762.853 249.630 C 763.844 251.336, 763.942 251.346, 763.970 249.750 C 763.986 248.787, 764.337 248.014, 764.750 248.032 C 766.521 248.107, 769 250.884, 769 252.792 C 769 255.320, 774.200 259.244, 776.421 258.392 C 777.592 257.943, 777.858 258.207, 777.410 259.375 C 776.983 260.487, 777.607 261.280, 779.463 261.986 C 782.900 263.293, 783 263.279, 783 261.500 C 783 259.554, 784.893 259.557, 785.640 261.505 C 785.958 262.332, 787.768 263.745, 789.662 264.644 C 791.802 265.660, 792.909 266.794, 792.585 267.639 C 792.298 268.388, 792.499 269, 793.031 269 C 793.564 269, 794 269.627, 794 270.393 C 794 271.922, 796.101 273, 799.082 273 C 801.801 273, 801.526 269.778, 798.500 266.182 C 796.028 263.244, 795.066 258, 797 258 C 797.550 258, 798 257.073, 798 255.941 C 798 254.809, 797.550 254.160, 797 254.500 C 794.745 255.894, 796.213 251.122, 799 248 C 800.650 246.152, 802.007 245.058, 802.015 245.570 C 802.048 247.578, 803.970 243.362, 803.985 241.250 C 803.997 239.507, 804.576 239, 806.559 239 C 808.138 239, 808.862 238.586, 808.450 237.919 C 808.082 237.324, 806.706 237.108, 805.391 237.438 C 804.041 237.777, 803 237.594, 803 237.019 C 803 236.459, 803.675 236, 804.500 236 C 806.925 236, 806.216 234.010, 803.750 233.894 C 802.513 233.835, 800.600 233.723, 799.500 233.644 C 798.400 233.565, 797.169 233.950, 796.765 234.500 C 796.343 235.075, 796.024 234.808, 796.015 233.872 C 795.995 231.733, 793.143 229.424, 790.974 229.791 C 789.902 229.973, 788.997 229.220, 788.569 227.791 C 787.906 225.575, 787.855 225.565, 787.012 227.500 C 786.198 229.368, 786.136 229.342, 786.070 227.110 C 785.988 224.309, 783.430 222.077, 780.250 222.032 C 777.765 221.997, 777.456 220.561, 779.037 216.402 C 779.807 214.377, 780.365 213.965, 781.202 214.802 C 782.529 216.129, 784.916 213.586, 784.968 210.793 C 784.997 209.221, 779.428 203.883, 777.788 203.911 C 777.397 203.918, 775.822 202.674, 774.288 201.147 C 770.496 197.370, 757.340 189.672, 756.045 190.472 C 755.470 190.827, 755 190.649, 755 190.076 C 755 189.021, 745.937 184, 744.033 184 C 743.465 184, 743 184.419, 743 184.931" stroke="none" fill="black" fill-rule="evenodd"/>
</svg>