<svg xmlns="http://www.w3.org/2000/svg" width="1024" height="1024" viewBox="0 0 1024 1024" version="1.1">
	<path d="M 651.005 162.997 C 650.272 163.450, 648.133 163.571, 646.252 163.266 L 642.832 162.711 643.420 167.996 C 643.841 171.777, 644.719 173.992, 646.504 175.777 C 647.877 177.150, 649 178.886, 649 179.636 C 649 180.386, 649.414 181, 649.921 181 C 650.427 181, 651.114 182.242, 651.447 183.760 C 651.781 185.278, 653.390 187.415, 655.024 188.510 C 656.708 189.638, 657.995 191.391, 657.997 192.559 C 657.999 193.691, 658.661 195.491, 659.468 196.559 C 660.276 197.626, 660.951 199.669, 660.968 201.097 C 660.986 202.525, 661.900 204.732, 663 206 C 664.100 207.268, 665 208.878, 665 209.576 C 665 210.275, 666.024 212.119, 667.275 213.673 C 668.526 215.228, 670.177 217.738, 670.944 219.250 C 671.711 220.762, 672.669 222, 673.074 222 C 673.479 222, 673.574 223.756, 673.286 225.903 L 672.763 229.806 676.631 229.597 C 678.759 229.482, 680.831 229.863, 681.235 230.444 C 681.675 231.076, 681.976 230.818, 681.985 229.800 C 681.993 228.865, 682.788 227.641, 683.750 227.080 C 685.355 226.145, 685.360 226.058, 683.809 226.030 C 681.625 225.991, 681.336 225.447, 680.484 219.750 C 679.889 215.775, 680.033 215, 681.365 215 C 682.724 215, 682.781 214.613, 681.750 212.350 L 680.543 209.701 679.983 212.072 L 679.423 214.443 677.872 212.228 C 677.019 211.009, 676.023 210.310, 675.660 210.673 C 675.297 211.036, 675 210.583, 675 209.667 C 675 208.750, 674.325 208, 673.500 208 C 672.337 208, 672 206.680, 672 202.122 C 672 198.118, 671.522 195.848, 670.500 195 C 669.258 193.969, 668.994 194.077, 668.967 195.628 C 668.937 197.300, 668.724 197.249, 666.972 195.146 C 665.893 193.851, 665.262 192.385, 665.570 191.887 C 666.440 190.480, 665.015 187, 663.569 187 C 661.816 187, 657 179.902, 657 177.319 C 657 176.178, 656.325 174.685, 655.500 174 C 652.850 171.801, 653.917 169.833, 659.250 167.081 C 662.406 165.453, 662.957 163.516, 660.048 164.277 C 658.974 164.558, 657.940 164.321, 657.750 163.750 C 657.308 162.425, 652.753 161.916, 651.005 162.997" stroke="none" fill="black" fill-rule="evenodd"/>
</svg>