<svg xmlns="http://www.w3.org/2000/svg" width="1024" height="1024" viewBox="0 0 1024 1024" version="1.1">
	<path d="M 696 672 C 696 672.550, 695.448 672.888, 694.774 672.750 C 694.099 672.612, 693.390 673.532, 693.198 674.794 C 692.952 676.414, 692.358 676.931, 691.175 676.556 C 690.074 676.206, 688.823 677.032, 687.524 678.964 C 686.438 680.581, 684.532 682.447, 683.291 683.112 C 682.049 683.777, 680.778 685.125, 680.465 686.109 C 680.153 687.093, 679.093 688.153, 678.109 688.465 C 677.125 688.778, 675.694 690.263, 674.929 691.767 C 672.770 696.007, 668.582 702.463, 667.750 702.833 C 667.337 703.017, 667 703.772, 667 704.512 C 667 705.252, 666.420 706.452, 665.712 707.179 C 664.246 708.682, 662 717.697, 662 722.076 C 662 723.684, 661.534 725, 660.965 725 C 660.283 725, 660.254 725.606, 660.880 726.776 C 661.493 727.921, 661.464 729.206, 660.799 730.395 C 660.231 731.409, 659.986 734.179, 660.253 736.550 C 660.520 738.921, 660.339 741.261, 659.851 741.749 C 659.335 742.265, 659.341 744.907, 659.865 748.068 C 660.361 751.056, 660.819 752.761, 660.883 751.857 C 660.947 750.953, 661.725 749.936, 662.611 749.596 C 663.771 749.151, 664.051 749.401, 663.611 750.489 C 663.275 751.320, 662.699 752.749, 662.330 753.664 C 661.909 754.709, 662.053 755.085, 662.717 754.675 C 663.298 754.316, 664.329 754.692, 665.009 755.511 C 667.145 758.085, 670.873 757.374, 671.619 754.250 C 671.980 752.737, 672.603 751.050, 673.003 750.500 C 673.403 749.950, 674.031 745.737, 674.398 741.137 C 674.765 736.537, 675.807 731.362, 676.714 729.637 C 677.626 727.901, 678.393 724.043, 678.431 721 C 678.469 717.975, 678.750 715.275, 679.056 715 C 679.361 714.725, 680.653 712.253, 681.925 709.506 C 685.422 701.960, 689.588 696.381, 698.306 687.569 C 702.657 683.171, 705.718 679.406, 705.108 679.203 C 704.499 679, 703.964 677.633, 703.921 676.167 C 703.878 674.700, 703.615 674.063, 703.338 674.750 C 702.527 676.759, 701.025 676.197, 700 673.500 C 699.086 671.097, 696 669.940, 696 672" stroke="none" fill="black" fill-rule="evenodd"/>
</svg>