<svg xmlns="http://www.w3.org/2000/svg" width="1024" height="1024" viewBox="0 0 1024 1024" version="1.1">
	<path d="M 270.335 216.050 C 265.754 219.010, 260.466 223.799, 261.090 224.423 C 261.407 224.740, 268.379 225.181, 276.583 225.401 C 295.297 225.905, 294.030 225.757, 293.412 227.369 C 293.100 228.181, 293.723 228.956, 294.943 229.275 C 296.299 229.629, 297 229.333, 297 228.406 C 297 226.507, 298.907 226.637, 304.123 228.894 C 306.530 229.936, 310.975 231.039, 314 231.346 C 321.397 232.097, 324.208 233.016, 323.639 234.499 C 323.358 235.230, 325.175 236.677, 328.082 238.039 C 330.787 239.305, 333 240.790, 333 241.338 C 333 241.885, 333.293 242.040, 333.651 241.682 C 334.009 241.324, 334.797 241.704, 335.401 242.527 C 336.006 243.350, 337.468 244.209, 338.652 244.435 C 342.335 245.140, 346.827 247.892, 347.308 249.736 C 347.672 251.131, 347.792 251.169, 347.884 249.919 C 348.058 247.551, 352.406 245.631, 355.978 246.346 C 358.371 246.824, 359.222 246.571, 359.715 245.233 C 360.067 244.280, 360.612 243.275, 360.927 243 C 363.428 240.818, 364.055 237.733, 362.486 235.338 C 361.587 233.966, 360.259 233.070, 359.535 233.348 C 358.812 233.626, 357.289 232.986, 356.152 231.927 C 355.014 230.867, 353.763 230, 353.371 230 C 352.978 230, 351.896 229.311, 350.966 228.469 C 350.035 227.627, 348.363 226.763, 347.250 226.548 C 346.137 226.334, 344.388 225.681, 343.363 225.097 C 341.560 224.070, 334.284 221.971, 325 219.801 C 322.525 219.222, 320.260 218.375, 319.968 217.917 C 317.563 214.162, 275.695 212.587, 270.335 216.050" stroke="none" fill="black" fill-rule="evenodd"/>
</svg>