<svg xmlns="http://www.w3.org/2000/svg" width="1024" height="1024" viewBox="0 0 1024 1024" version="1.1">
	<path d="M 964.731 0.656 C 965.642 1.025, 965.447 2.163, 963.981 5.037 C 960.921 11.034, 961.370 22, 964.674 22 C 965.691 22, 965.937 22.622, 965.485 24.048 C 964.161 28.219, 970.719 31.111, 972.854 27.297 C 973.591 25.980, 974.119 25.854, 975.187 26.740 C 976.006 27.420, 977.126 27.540, 977.943 27.035 C 978.700 26.568, 979.922 26.417, 980.659 26.700 C 981.397 26.982, 982 26.716, 982 26.107 C 982 25.498, 981.550 25, 981 25 C 979.601 25, 979.765 22.975, 981.419 19.804 C 982.442 17.842, 982.510 17.003, 981.667 16.722 C 981.030 16.510, 980.463 15.698, 980.407 14.918 C 980.350 14.138, 980.236 12.464, 980.152 11.198 C 980.047 9.607, 979.073 8.573, 977 7.850 C 975.350 7.275, 974 6.398, 974 5.902 C 974 5.406, 973.325 5, 972.500 5 C 971.567 5, 971 4.056, 971 2.500 C 971 0.264, 970.604 0.008, 967.250 0.079 C 965.188 0.122, 964.054 0.382, 964.731 0.656" stroke="none" fill="black" fill-rule="evenodd"/>
</svg>