<svg xmlns="http://www.w3.org/2000/svg" width="1024" height="1024" viewBox="0 0 1024 1024" version="1.1">
	<path d="M 458.445 55.089 C 458.179 55.520, 458.372 57.701, 458.874 59.936 L 459.787 64 456.644 64.100 C 453.690 64.193, 453.651 64.241, 456 64.896 C 459.065 65.750, 457.523 66.499, 450.548 67.545 C 444.821 68.404, 444.293 69.512, 445.899 77.291 C 446.700 81.169, 446.791 83.609, 446.159 84.241 C 444.934 85.466, 443.429 82.806, 442.477 77.732 C 441.913 74.722, 441.337 74, 439.504 74 C 435.611 74, 433.671 78.308, 434.259 85.642 C 434.539 89.125, 434.402 91.749, 433.956 91.473 C 433.509 91.197, 432.856 91.877, 432.505 92.985 C 432.153 94.093, 431.446 95, 430.933 95 C 428.451 95, 430.532 108.644, 433.117 109.320 C 434.400 109.656, 435.004 110.718, 435.011 112.656 C 435.029 117.302, 436.197 122.996, 437.027 122.483 C 437.452 122.221, 438.125 127.654, 438.523 134.556 C 439.217 146.596, 439.333 147.094, 441.373 146.803 C 443.149 146.550, 443.550 145.715, 443.805 141.750 C 443.972 139.137, 444.561 137, 445.114 137 C 445.666 137, 445.807 136.497, 445.427 135.882 C 443.619 132.956, 443.229 127.914, 444.698 126.444 C 445.965 125.178, 445.988 124.689, 444.849 123.309 C 443.968 122.242, 443.870 121.550, 444.568 121.315 C 445.272 121.077, 445.382 119.176, 444.891 115.727 C 443.824 108.240, 443.853 105.791, 445 106.500 C 445.550 106.840, 446 106.512, 446 105.772 C 446 105.031, 446.788 104.366, 447.750 104.294 C 449.216 104.183, 449.516 105.081, 449.596 109.831 C 449.649 112.949, 450.058 123.088, 450.504 132.362 L 451.315 149.224 456.157 148.612 C 471.567 146.664, 471 146.677, 471 148.279 C 471 149.320, 471.642 149.645, 473 149.290 C 474.100 149.002, 475 148.422, 475 148 C 475 147.578, 475.896 146.999, 476.990 146.713 C 478.925 146.207, 478.963 145.593, 478.338 124.816 C 477.584 99.774, 478.015 95.702, 481.287 96.906 C 483.864 97.856, 484.771 102.537, 484.912 115.625 C 485.061 129.402, 486.694 133.413, 489.443 126.750 C 490.568 124.023, 490.547 119.073, 489.315 96.007 C 488.508 80.886, 487.721 68.388, 487.567 68.233 C 487.413 68.079, 486.547 68.237, 485.643 68.583 C 484.286 69.104, 484 70.792, 484 78.262 C 484 86.793, 483.900 87.223, 482.250 85.785 C 481.288 84.947, 479.918 84.471, 479.207 84.728 C 477.850 85.219, 478.004 67.663, 479.369 66.298 C 480.601 65.065, 479.976 63.795, 478.429 64.389 C 477.101 64.898, 476.907 64.180, 477.179 59.746 L 477.500 54.500 468.214 54.403 C 463.107 54.350, 458.711 54.658, 458.445 55.089" stroke="none" fill="black" fill-rule="evenodd"/>
</svg>