<svg xmlns="http://www.w3.org/2000/svg" width="1024" height="1024" viewBox="0 0 1024 1024" version="1.1">
	<path d="M 199.521 297.934 C 199.123 299.187, 198.219 299.735, 196.950 299.490 C 194.718 299.060, 191 305.537, 191 309.854 C 191 311.218, 190.662 311.993, 190.250 311.576 C 189.838 311.160, 189.500 308.723, 189.500 306.160 C 189.500 301.805, 189.318 301.479, 186.713 301.180 C 184.242 300.896, 183.993 301.123, 184.508 303.180 C 184.999 305.141, 184.685 305.523, 182.480 305.648 C 179.074 305.842, 179.269 305.428, 178.719 313.625 C 178.245 320.679, 178.265 320.750, 180.731 320.750 C 183.036 320.750, 189 315.823, 189 313.919 C 189 311.449, 196.146 312.569, 205.250 316.465 C 206.407 316.960, 207.052 316.754, 207.152 315.857 C 207.482 312.923, 207.639 312.416, 208.965 310 C 209.720 308.625, 210.280 307.395, 210.210 307.267 C 210.140 307.139, 210.700 305.564, 211.456 303.767 C 213.121 299.808, 212.246 298.441, 207.142 297.023 C 201.867 295.558, 200.212 295.755, 199.521 297.934" stroke="none" fill="black" fill-rule="evenodd"/>
</svg>