<svg xmlns="http://www.w3.org/2000/svg" width="1024" height="1024" viewBox="0 0 1024 1024" version="1.1">
	<path d="M 339.885 260.643 C 339.472 263.714, 340.821 266.029, 345.338 269.995 C 348.159 272.473, 353.449 277.446, 357.093 281.047 C 360.737 284.648, 364.124 287.459, 364.621 287.293 C 365.117 287.128, 365.984 288.007, 366.548 289.246 C 367.112 290.486, 368.132 291.383, 368.814 291.241 C 369.497 291.098, 370.309 291.773, 370.619 292.741 C 371.960 296.935, 373.462 299, 375.169 299 C 376.176 299, 377 298.602, 377 298.117 C 377 297.631, 377.947 296.986, 379.103 296.683 C 381.093 296.163, 381.119 296.008, 379.585 293.817 C 378.692 292.542, 376.283 290.547, 374.231 289.382 C 371.840 288.024, 370.562 286.603, 370.674 285.423 C 370.769 284.410, 369.869 282.898, 368.674 282.063 C 367.478 281.227, 364.475 278.657, 362 276.350 C 359.525 274.044, 354.801 269.647, 351.501 266.579 C 348.202 263.510, 344.976 261, 344.333 261 C 343.690 261, 342.452 260.727, 341.582 260.393 C 340.712 260.059, 339.948 260.172, 339.885 260.643" stroke="none" fill="black" fill-rule="evenodd"/>
</svg>