<svg xmlns="http://www.w3.org/2000/svg" width="1024" height="1024" viewBox="0 0 1024 1024" version="1.1">
	<path d="M 533.750 59.730 C 530.450 59.994, 529 60.551, 529 61.555 C 529 62.350, 529.398 63, 529.883 63 C 531.213 63, 532.076 67.324, 530.967 68.433 C 530.344 69.056, 530 68.774, 530 67.641 C 530 66.674, 529.570 66.148, 529.044 66.473 C 528.518 66.798, 527.291 65.812, 526.317 64.282 C 523.717 60.198, 523.252 60.032, 514.332 60.015 C 505.312 59.998, 503 60.527, 503 62.607 C 503 63.373, 502.325 64, 501.500 64 C 500.675 64, 500 63.373, 500 62.607 C 500 60.815, 497.282 59.776, 494.722 60.588 C 492.881 61.173, 492.775 61.809, 493.363 68.762 C 493.713 72.909, 494 81.177, 494 87.136 L 494 97.971 497.131 96.067 C 498.852 95.020, 500.819 94.377, 501.502 94.639 C 502.184 94.901, 502.997 94.450, 503.309 93.637 C 503.621 92.824, 504.692 92.290, 505.688 92.450 C 506.685 92.609, 508.283 92.335, 509.241 91.840 C 510.413 91.233, 512.015 91.474, 514.146 92.575 C 516.083 93.577, 518.561 94.008, 520.537 93.688 C 522.312 93.400, 524.155 93.548, 524.632 94.017 C 525.112 94.488, 528.184 94.235, 531.500 93.450 C 538.702 91.747, 556.865 91.563, 564.126 93.120 C 566.999 93.737, 572.309 95.610, 575.925 97.283 C 582.498 100.324, 585.170 100.727, 585.875 98.783 C 586.682 96.559, 590.032 94.075, 591.477 94.630 C 592.315 94.951, 593 94.716, 593 94.107 C 593 92.641, 596.725 92.676, 597.215 94.146 C 597.632 95.397, 605.002 95.969, 605.001 94.750 C 605 94.043, 603.414 93.619, 601.750 93.882 C 601.337 93.947, 601 93.491, 601 92.869 C 601 92.135, 602.228 91.938, 604.499 92.306 L 607.998 92.874 607.851 85.172 C 607.748 79.739, 608.190 76.533, 609.353 74.285 C 612.772 67.672, 610.807 57.512, 606.737 60.766 C 605.915 61.423, 603.021 61.326, 598.103 60.475 C 591.161 59.275, 545.994 58.751, 533.750 59.730" stroke="none" fill="black" fill-rule="evenodd"/>
</svg>