<svg xmlns="http://www.w3.org/2000/svg" width="1024" height="1024" viewBox="0 0 1024 1024" version="1.1">
	<path d="M 827.435 366.636 C 823.071 368.574, 818.038 370.806, 816.250 371.594 C 814.462 372.382, 813 373.429, 813 373.920 C 813 374.411, 812.100 374.577, 811 374.290 C 809.900 374.002, 809 374.218, 809 374.770 C 809 375.680, 805.256 376.808, 800.750 377.255 C 799.788 377.350, 799 377.782, 799 378.214 C 799 378.646, 798.663 378.914, 798.250 378.810 C 796.584 378.386, 790.517 380.340, 789.101 381.756 C 788.078 382.779, 787.466 382.899, 787.209 382.128 C 786.783 380.848, 785 381.600, 785 383.059 C 785 383.577, 786.050 384, 787.333 384 C 788.617 384, 789.945 384.279, 790.286 384.619 C 791.103 385.437, 788.506 387.992, 786.821 388.028 C 786.095 388.044, 783.025 388.887, 780 389.903 C 773.687 392.023, 773.411 391.970, 775.035 388.934 C 776.105 386.935, 776.034 386.774, 774.366 387.421 C 769.481 389.316, 750.888 393.268, 745.894 393.473 C 742.811 393.600, 739.744 394.040, 739.079 394.451 C 738.414 394.862, 736.324 394.908, 734.435 394.554 C 732.111 394.118, 731 394.288, 731 395.080 C 731 395.859, 729.949 396.040, 727.857 395.621 C 726.061 395.262, 724.137 395.471, 723.370 396.108 C 722.630 396.722, 721.359 396.968, 720.545 396.656 C 718.563 395.895, 717.539 397.740, 718.980 399.476 C 719.917 400.605, 719.513 400.931, 716.816 401.227 L 713.500 401.591 716.304 402.417 C 718.135 402.957, 721.432 402.680, 725.804 401.619 C 733.822 399.674, 737.656 399.561, 738.338 401.250 C 738.741 402.250, 738.858 402.250, 738.921 401.250 C 738.964 400.563, 740.013 399.992, 741.250 399.981 C 742.487 399.971, 747.775 398.804, 753 397.387 C 758.225 395.971, 765.425 394.462, 769 394.034 C 775.060 393.308, 780.095 391.931, 784.236 389.866 C 785.191 389.390, 786.454 389, 787.041 389 C 787.629 389, 789.998 388.141, 792.305 387.091 C 794.612 386.041, 798.188 384.865, 800.250 384.479 C 802.313 384.093, 804 383.210, 804 382.517 C 804 381.806, 805.855 380.960, 808.250 380.579 C 812.547 379.896, 831.200 371.325, 831.855 369.733 C 832.050 369.259, 833.288 368.461, 834.605 367.960 C 836.937 367.074, 837.825 364.628, 836.185 363.614 C 835.736 363.337, 831.799 364.697, 827.435 366.636" stroke="none" fill="black" fill-rule="evenodd"/>
</svg>