<svg xmlns="http://www.w3.org/2000/svg" width="1024" height="1024" viewBox="0 0 1024 1024" version="1.1">
	<path d="M 679 114 C 679 114.550, 678.325 115, 677.500 115 C 676.262 115, 676 116.828, 676 125.449 L 676 135.898 679.500 138.568 C 681.773 140.301, 683 142.072, 683 143.619 C 683 144.928, 683.450 146, 684 146 C 684.550 146, 685.007 147.238, 685.015 148.750 C 685.027 150.893, 685.245 151.169, 686 150 C 686.831 148.714, 686.972 148.746, 686.985 150.227 C 686.993 151.177, 688.142 152.702, 689.538 153.617 C 691.932 155.185, 692.156 155.173, 693.506 153.390 C 694.293 152.350, 694.951 152.014, 694.968 152.642 C 694.988 153.355, 696.407 153.647, 698.750 153.421 C 704.436 152.872, 707.385 154.795, 708.108 159.524 L 708.716 163.500 708.958 159.500 C 709.172 155.948, 709.289 155.780, 710 158 C 710.790 160.468, 710.803 160.461, 710.979 157.500 C 711.078 155.850, 711.376 155.037, 711.644 155.694 C 711.911 156.350, 712.821 156.622, 713.666 156.298 C 714.511 155.974, 715.600 156.337, 716.086 157.104 C 716.717 158.102, 716.974 158.143, 716.985 157.250 C 716.993 156.563, 717.675 156, 718.500 156 C 719.597 156, 720 157.136, 720 160.223 C 720 164.147, 720.100 164.302, 721.414 162.426 C 722.192 161.316, 722.979 159.079, 723.164 157.454 C 723.357 155.752, 724.030 154.606, 724.750 154.750 C 726.673 155.135, 729.993 151.287, 730.673 147.884 C 731.356 144.472, 734.485 142.704, 737.265 144.161 C 739.261 145.207, 740.633 143.091, 739.638 140.500 C 739.322 139.675, 739.499 139, 740.031 139 C 740.564 139, 741 137.820, 741 136.378 C 741 134.397, 741.306 134.007, 742.250 134.785 C 743.566 135.870, 748.916 135.788, 750.750 134.654 C 751.344 134.288, 752.057 134.553, 752.336 135.244 C 753.452 138.014, 752.916 132.527, 751.433 126.005 C 750.252 120.815, 749.512 119.250, 748.433 119.664 C 747.645 119.967, 747 120.841, 747 121.607 C 747 122.373, 746.403 123, 745.673 123 C 744.781 123, 744.484 122.060, 744.767 120.132 C 745.134 117.634, 744.885 117.287, 742.844 117.444 C 741.555 117.543, 740.050 117.383, 739.500 117.090 C 737.470 116.006, 736 116.216, 736 117.588 C 736 118.365, 736.398 119, 736.883 119 C 738.119 119, 738.816 122.174, 738.056 124.340 C 737.707 125.334, 736.989 126.120, 736.461 126.086 C 734.020 125.928, 732.087 127.313, 731.202 129.851 C 729.210 135.564, 728.452 135.787, 712.477 135.362 C 702.057 135.084, 697.011 134.540, 694.941 133.470 C 690.252 131.045, 686 126.320, 686 123.534 C 686 122.140, 685.663 120.995, 685.250 120.989 C 684.837 120.982, 683.640 119.182, 682.589 116.989 C 680.796 113.245, 679 111.750, 679 114" stroke="none" fill="black" fill-rule="evenodd"/>
</svg>