<svg xmlns="http://www.w3.org/2000/svg" width="1024" height="1024" viewBox="0 0 1024 1024" version="1.1">
	<path d="M 661 166.260 C 653.967 169.635, 652.585 171.581, 655.500 174 C 656.325 174.685, 657 176.178, 657 177.319 C 657 179.902, 661.816 187, 663.569 187 C 665.015 187, 666.440 190.480, 665.570 191.887 C 665.262 192.385, 665.893 193.851, 666.972 195.146 C 668.724 197.249, 668.937 197.300, 668.967 195.628 C 668.994 194.077, 669.258 193.969, 670.500 195 C 671.522 195.848, 672 198.118, 672 202.122 C 672 206.680, 672.337 208, 673.500 208 C 674.325 208, 675 208.750, 675 209.667 C 675 210.583, 675.297 211.036, 675.660 210.673 C 676.023 210.310, 677.019 211.009, 677.872 212.228 L 679.423 214.443 679.983 212.072 L 680.543 209.701 681.750 212.350 C 682.781 214.613, 682.724 215, 681.365 215 C 680.033 215, 679.889 215.775, 680.484 219.750 C 681.334 225.430, 681.632 226, 683.750 226 C 685.149 226, 685.116 226.195, 683.524 227.359 C 680.444 229.611, 683.129 245.274, 686.264 243.337 C 686.949 242.914, 687.085 243.525, 686.655 245.094 C 685.866 247.972, 689.029 259.571, 690.121 257.804 C 690.593 257.040, 691.121 257.633, 691.574 259.438 L 692.285 262.271 693.607 259.885 C 694.823 257.691, 694.932 257.662, 694.965 259.528 C 695.031 263.331, 698.674 265.326, 703.368 264.130 C 705.974 263.466, 707.623 263.433, 707.833 264.039 C 708.339 265.498, 710.668 265.189, 712.429 263.429 C 714.149 261.708, 714.711 251, 713.080 251 C 712.019 251, 709.055 242.583, 708.459 237.877 C 707.663 231.588, 704.831 224.551, 703.822 226.354 C 702.180 229.287, 701.492 228.110, 701.848 222.980 C 702.103 219.294, 701.504 216.231, 699.598 211.468 C 698.169 207.899, 697 204.534, 697 203.989 C 697 202.149, 698.861 202.985, 699.542 205.132 C 700.054 206.747, 700.419 206.941, 701.043 205.930 C 701.497 205.196, 701.665 204.268, 701.418 203.867 C 701.170 203.466, 701.436 202.848, 702.010 202.494 C 702.588 202.136, 703.528 203.217, 704.124 204.925 C 704.713 206.616, 705.586 208, 706.062 208 C 706.539 208, 706.045 205.938, 704.964 203.417 C 703.884 200.896, 703 197.945, 703 196.858 C 703 195.771, 702.622 195.116, 702.160 195.401 C 701.698 195.686, 700.278 193.576, 699.003 190.710 C 694.382 180.321, 684.052 167, 680.616 167 C 679.462 167, 678.997 167.928, 678.989 170.250 L 678.978 173.500 676.322 170.129 C 673.999 167.181, 668.585 163.903, 666.282 164.050 C 665.852 164.077, 663.475 165.072, 661 166.260" stroke="none" fill="black" fill-rule="evenodd"/>
</svg>