<svg xmlns="http://www.w3.org/2000/svg" width="1024" height="1024" viewBox="0 0 1024 1024" version="1.1">
	<path d="M 630.149 439.719 C 628.111 440.106, 627.874 440.588, 628.370 443.333 C 628.684 445.075, 629.493 450.261, 630.167 454.857 C 631.323 462.737, 633.084 465.928, 634.851 463.341 C 635.220 462.800, 636.255 463.169, 637.250 464.195 C 638.919 465.917, 638.908 466, 637 466 C 635.519 466, 635 466.667, 635 468.567 C 635 470.680, 634.645 471.022, 633 470.500 C 631.760 470.106, 631 470.320, 631 471.063 C 631 472.235, 632.188 472.161, 640.500 470.474 C 642.150 470.139, 644.850 469.722, 646.500 469.548 C 651.434 469.027, 653.128 467.977, 652.454 465.856 C 652.122 464.808, 652.221 464.014, 652.675 464.093 C 655.804 464.638, 656.178 463.932, 655.474 458.808 C 655.081 455.953, 654.180 453.037, 653.471 452.328 C 652.762 451.619, 651.866 449.118, 651.479 446.770 C 650.525 440.984, 649.374 438.879, 648.460 441.250 C 647.658 443.333, 646 443.580, 646 441.617 C 646 439.304, 637.616 438.301, 630.149 439.719" stroke="none" fill="black" fill-rule="evenodd"/>
</svg>