<svg xmlns="http://www.w3.org/2000/svg" width="1024" height="1024" viewBox="0 0 1024 1024" version="1.1">
	<path d="M 458.500 148.567 C 455.750 149.331, 451.813 150.078, 449.751 150.228 C 447.507 150.391, 446.002 151.016, 446.001 151.785 C 446 152.749, 445.513 152.810, 444.054 152.029 C 441.988 150.923, 436.228 154.014, 433.392 157.750 C 431.813 159.831, 431.593 161.369, 433 160.500 C 433.553 160.158, 434 160.882, 434 162.118 C 434 164.758, 427.096 175.177, 425.855 174.410 C 425.385 174.120, 425 174.606, 425 175.491 C 425 177.419, 422.286 182.857, 420.364 184.779 C 419.606 185.536, 418.516 187.035, 417.941 188.110 C 417.366 189.184, 416.148 189.937, 415.234 189.782 C 414.242 189.614, 413.409 190.300, 413.168 191.486 C 412.945 192.578, 412.002 194.153, 411.072 194.986 C 409.348 196.530, 408.827 199.685, 409.618 203.792 C 410.167 206.644, 411.729 205.306, 414.334 199.752 C 416.069 196.054, 420.129 191, 421.365 191 C 421.714 191, 422.036 191.787, 422.079 192.750 C 422.141 194.129, 422.281 194.186, 422.740 193.018 C 423.060 192.203, 423.924 190.933, 424.661 190.196 C 426.241 188.616, 426.412 187, 425 187 C 423.272 187, 423.910 183.384, 426.139 180.551 C 427.782 178.462, 428.474 178.141, 429.124 179.166 C 429.709 180.089, 429.974 179.686, 429.985 177.857 C 430.002 174.942, 432.843 173.137, 434.142 175.216 C 434.738 176.170, 435.401 175.858, 436.722 174 C 439.090 170.670, 438.966 169.700, 436.083 169.020 L 433.667 168.449 436.937 164.725 C 438.736 162.676, 441.065 161, 442.113 161 C 443.162 161, 444.803 160.063, 445.760 158.919 C 448.751 155.341, 454.857 152.751, 458.630 153.458 C 462.184 154.125, 462.713 154.887, 460.887 156.713 C 459.217 158.383, 460.749 160, 464 160 C 467.674 160, 468.669 161.565, 466.039 163.208 C 464.917 163.908, 464 165.319, 464 166.344 C 464 167.913, 464.581 167.697, 467.685 164.972 C 469.711 163.193, 473.177 160.927, 475.387 159.938 L 479.404 158.140 476.702 157.461 C 474.053 156.796, 472.839 154, 475.200 154 C 476.087 154, 476.107 153.707, 475.278 152.878 C 474.661 152.261, 474.422 151.064, 474.747 150.217 C 475.200 149.037, 474.832 148.811, 473.169 149.246 C 471.703 149.629, 471 149.357, 471 148.406 C 471 146.600, 465.322 146.673, 458.500 148.567" stroke="none" fill="black" fill-rule="evenodd"/>
</svg>