<svg xmlns="http://www.w3.org/2000/svg" width="1024" height="1024" viewBox="0 0 1024 1024" version="1.1">
	<path d="M 509.085 91.926 C 508.307 92.419, 506.822 92.658, 505.785 92.459 C 504.749 92.259, 503.640 92.775, 503.321 93.605 C 503.003 94.436, 502.184 94.901, 501.502 94.639 C 500.819 94.377, 498.809 95.046, 497.033 96.126 C 493.951 98.001, 493.833 98.300, 494.411 102.794 C 494.743 105.382, 494.985 109.707, 494.948 112.404 L 494.880 117.308 497.405 115.654 C 500.462 113.652, 501 113.604, 501 115.336 C 501 116.180, 502.382 116.742, 504.750 116.862 C 506.813 116.966, 509.400 117.152, 510.500 117.276 C 512.029 117.447, 512.429 116.989, 512.201 115.331 C 511.976 113.701, 512.349 113.250, 513.701 113.517 C 521.306 115.021, 522 114.979, 522 113.010 C 522 111.070, 518.620 108.499, 517.213 109.368 C 516.803 109.622, 515.955 108.743, 515.328 107.415 C 514.701 106.088, 514.556 104.774, 515.006 104.496 C 515.455 104.219, 515.703 102.896, 515.556 101.557 C 515.330 99.503, 516.054 98.793, 520.177 97.019 C 525.574 94.698, 525.830 92.829, 520.636 93.672 C 518.570 94.007, 516.133 93.603, 514.204 92.606 C 510.592 90.738, 510.898 90.778, 509.085 91.926" stroke="none" fill="black" fill-rule="evenodd"/>
</svg>