<svg xmlns="http://www.w3.org/2000/svg" width="1024" height="1024" viewBox="0 0 1024 1024" version="1.1">
	<path d="M 535.060 429.685 C 526.456 431.464, 521.814 433.873, 519.999 437.500 C 518.450 440.597, 517.742 440.874, 514.737 439.552 C 512.402 438.525, 499.295 439.297, 498.097 440.532 C 496.961 441.703, 493.953 462.799, 494.116 468.460 C 494.180 470.682, 494.418 471.813, 494.646 470.973 C 494.874 470.133, 496.960 468.570, 499.280 467.500 C 501.601 466.429, 503.761 465.417, 504.081 465.250 C 504.400 465.083, 504.447 466.410, 504.184 468.199 L 503.707 471.453 506.371 468.476 L 509.036 465.500 508.437 468.500 C 508.107 470.150, 507.375 472.724, 506.809 474.221 C 505.881 476.679, 506.275 477.562, 510.891 483.363 C 516.706 490.670, 518.001 495.869, 513.496 493.816 C 510.126 492.281, 509.754 492.940, 510.957 498.309 C 511.521 500.824, 511.713 503.585, 511.383 504.444 C 511.054 505.302, 511.095 507.240, 511.474 508.751 C 512.126 511.351, 512.236 511.398, 513.533 509.623 C 515.579 506.826, 517.336 508.139, 520.578 514.889 C 522.185 518.236, 523.971 520.980, 524.546 520.987 C 525.163 520.995, 525.590 523.569, 525.586 527.250 C 525.579 533.404, 528.109 550.749, 529.293 552.665 C 530.265 554.238, 532.998 568.206, 532.999 571.604 C 533 573.528, 533.950 575.733, 535.500 577.405 C 536.875 578.889, 538.001 579.742, 538.002 579.302 C 538.006 577.904, 553.113 577.791, 563.750 579.110 C 572.981 580.255, 574.007 580.586, 574.068 582.440 C 574.140 584.632, 573.996 584.868, 577.076 577.500 C 577.536 576.400, 578.842 571.074, 579.978 565.665 C 581.115 560.255, 582.710 554.238, 583.522 552.292 C 584.335 550.347, 585 547.011, 585 544.878 C 585 542.745, 585.400 541, 585.889 541 C 586.377 541, 587.073 539.425, 587.434 537.500 C 588.019 534.382, 590 532.452, 590 535 C 590 535.550, 590.450 536, 591 536 C 591.550 536, 592 534.889, 592 533.531 C 592 531.748, 591.584 531.223, 590.500 531.638 C 589.500 532.022, 588.996 531.595, 588.989 530.357 C 588.983 529.336, 588.688 526.743, 588.333 524.595 C 587.866 521.765, 588.006 520.886, 588.844 521.404 C 589.480 521.797, 590.032 523.104, 590.070 524.309 C 590.184 527.845, 591.841 523.335, 591.930 519.250 C 591.968 517.462, 592.450 516, 593 516 C 594.274 516, 594.274 511.971, 593 510 C 592.467 509.175, 592.024 508.816, 592.015 509.202 C 592.007 509.588, 590.858 508.846, 589.462 507.552 L 586.924 505.200 589.712 499.350 C 591.245 496.132, 592.837 493.350, 593.250 493.167 C 593.663 492.983, 594 492.226, 594 491.484 C 594 490.742, 594.900 489.849, 596 489.500 C 597.100 489.151, 598 488.485, 598 488.020 C 598 485.420, 606.872 475.683, 609.496 475.403 C 612.797 475.051, 613.672 473.900, 614.539 468.766 C 614.891 466.687, 615.617 465.263, 616.155 465.596 C 616.693 465.928, 617.764 465.368, 618.535 464.350 C 620.097 462.288, 620.575 449.473, 619.123 448.576 C 618.641 448.278, 617.734 446.001, 617.109 443.517 C 615.904 438.734, 615.068 438.341, 607 438.765 C 598.885 439.192, 596 440.118, 595.953 442.311 C 595.919 443.949, 595.313 443.367, 593.547 440 C 590.807 434.777, 587.524 432.805, 577.500 430.361 C 568.554 428.179, 544.217 427.792, 535.060 429.685" stroke="none" fill="black" fill-rule="evenodd"/>
</svg>