<svg xmlns="http://www.w3.org/2000/svg" width="1024" height="1024" viewBox="0 0 1024 1024" version="1.1">
	<path d="M 125.029 337.167 C 123.035 339.277, 122.887 340.159, 123.486 346.385 C 124.064 352.402, 123.949 353.194, 122.574 352.667 C 121.485 352.249, 121 352.644, 121 353.948 C 121 354.985, 121.530 356.010, 122.177 356.226 C 123.937 356.812, 122.174 359, 119.941 359 C 118.873 359, 118 359.482, 118 360.071 C 118 360.661, 117.276 361.867, 116.391 362.752 C 114.946 364.196, 114.693 364.203, 113.916 362.814 C 113.356 361.815, 112.158 361.438, 110.525 361.750 C 107.964 362.240, 106.956 364.901, 109.250 365.118 C 109.938 365.183, 109.150 365.527, 107.500 365.881 L 104.500 366.525 104.500 385.012 C 104.500 398.671, 104.132 404.373, 103.090 406.842 C 102.172 409.020, 102.033 410.414, 102.691 410.842 C 104.993 412.342, 106.100 415.944, 104.930 418.131 C 103.833 420.180, 103.938 420.234, 107.645 419.543 C 112.156 418.702, 111.850 418.730, 114.821 418.882 C 118.295 419.059, 115.322 421.661, 110.644 422.539 C 106.970 423.228, 105.943 424.393, 108.250 425.251 C 108.938 425.507, 114 425.249, 119.500 424.678 L 129.500 423.640 129.676 417.761 C 129.773 414.528, 130.402 411.221, 131.073 410.412 C 132.007 409.287, 132.024 408.348, 131.147 406.423 C 129.360 402.501, 129.692 396.273, 131.750 395.112 C 133.152 394.321, 133.251 393.873, 132.250 392.862 C 131.563 392.168, 131 389.890, 131 387.800 C 131 385.278, 130.546 384, 129.651 384 C 128.724 384, 128.361 382.824, 128.492 380.250 C 128.729 375.577, 128.189 374, 126.351 374 C 125.562 374, 123.950 373.100, 122.770 372 C 121.086 370.432, 120.961 370, 122.189 370 C 123.050 370, 124.327 370.689, 125.025 371.530 C 126.150 372.885, 126.524 372.815, 128.293 370.916 C 130.170 368.901, 130.257 367.803, 129.736 352.776 C 129.138 335.544, 128.514 333.477, 125.029 337.167" stroke="none" fill="black" fill-rule="evenodd"/>
</svg>