<?xml version="1.0"?>
<svg xmlns="http://www.w3.org/2000/svg" viewBox="0 0 1024 1024">
  <path d="M 843.839 791.495 C 841.771 793.563, 810.784 799.542, 791.847 801.527 C 786.907 802.045, 786.052 802.461, 785.075 804.818 C 784.461 806.302, 781.980 808.768, 779.563 810.297 C 772.711 814.632, 770.720 823.061, 775.635 826.927 C 779.184 829.719, 780.178 829.536, 779.319 826.250 C 777.736 820.193, 778.585 815.760, 781.893 812.805 C 787.198 808.064, 789.461 809.275, 786.390 815.212 C 784.102 819.638, 785.098 825.827, 788.580 828.823 C 790.927 830.841, 791.959 831.064, 796.392 830.510 C 806.842 829.204, 813.726 824.636, 827.936 809.574 C 831.476 805.822, 836.463 801.466, 839.018 799.894 C 843.497 797.138, 846.801 792.613, 845.102 791.563 C 844.649 791.283, 844.081 791.253, 843.839 791.495" fill="transparent" fill-rule="evenodd" data-region="22" data-color-id="1"/>
  <path d="M 535.213 776.254 C 532.320 789.450, 532.337 789.654, 536.649 793.842 L 540.298 797.386 539.750 783.943 C 538.977 765.004, 538.030 763.400, 535.213 776.254" fill="transparent" fill-rule="evenodd" data-region="21" data-color-id="2"/>
  <path d="M 450 753.510 C 436.622 761.066, 427.887 763.438, 413.708 763.363 L 402.916 763.307 403.208 769.903 L 403.500 776.500 413 776.181 C 430.505 775.593, 442.107 771.521, 450.467 763.033 C 454.561 758.877, 455.099 757.839, 454.819 754.630 L 454.500 750.968 450 753.510" fill="transparent" fill-rule="evenodd" data-region="20" data-color-id="3"/>
  <path d="M 233.353 743 C 233.699 746.025, 233.987 753.788, 233.991 760.250 L 234 772 237.770 772 C 242.463 772, 254.863 775.379, 260.245 778.125 C 264.031 780.057, 264.239 780.070, 263.541 778.343 C 259.930 769.404, 257.543 762.415, 256.084 756.507 L 254.357 749.515 249.244 748.380 C 243.325 747.065, 237.950 743.997, 234.878 740.179 L 232.723 737.500 233.353 743" fill="transparent" fill-rule="evenodd" data-region="19" data-color-id="4"/>
  <path d="M 512.965 721.670 C 503.060 735.571, 489.885 747.611, 476.481 755.010 C 471.655 757.674, 468.438 760.187, 467.480 762.039 C 463.540 769.659, 448.106 782.055, 438.939 784.963 C 436.498 785.738, 434.383 786.443, 434.240 786.529 C 433.570 786.936, 437.484 803.053, 439.678 808.917 C 446.744 827.811, 454.613 833.782, 474.757 835.539 L 482.841 836.244 483.517 831.734 C 483.909 829.121, 483.665 824.861, 482.936 821.606 C 481.550 815.410, 481.847 814.499, 484.936 815.480 C 488.066 816.473, 490.229 821.637, 490.581 828.958 L 490.895 835.500 499.198 835.795 C 513.036 836.287, 515 834.586, 515 822.109 C 515 814.296, 515.923 812.923, 519.065 816.065 C 520.961 817.961, 521.162 819.094, 520.844 826.101 C 520.545 832.684, 520.740 834, 522.017 834 C 523.278 834, 523.544 832.444, 523.524 825.171 C 523.502 816.911, 523.712 816, 526.784 811.049 L 530.069 805.756 526.147 802.128 C 518.910 795.435, 518.695 791.989, 523.985 767.570 C 530.020 739.712, 530.091 737.372, 525.226 727 C 523.033 722.325, 520.930 717.487, 520.552 716.250 C 519.525 712.886, 518.911 713.324, 512.965 721.670" fill="transparent" fill-rule="evenodd" data-region="17" data-color-id="5"/>
  <path d="M 93 566.341 C 81.876 569.653, 75.370 573.570, 66.854 582.083 C 52.815 596.115, 47.967 611.282, 51.326 630.658 C 53.365 642.419, 53.355 642, 51.586 642 C 48.305 642, 40.847 625.991, 39.498 616.056 L 38.759 610.612 37.207 613.556 C 34.239 619.188, 31.788 630.565, 31.296 641 C 30.298 662.162, 36.009 674.820, 51.214 685.145 C 57.644 689.512, 58.500 691.971, 54.502 694.591 C 51.254 696.719, 44.893 695.832, 35.836 691.990 C 32.170 690.434, 28.958 689.375, 28.697 689.636 C 27.534 690.799, 31.589 704.208, 35.246 711.294 C 40.768 721.993, 56.059 737.274, 58.651 734.682 C 58.907 734.427, 59.736 729.556, 60.495 723.859 C 67.186 673.591, 93.480 635.353, 146 599.513 C 152.325 595.196, 157.673 591.530, 157.885 591.364 C 160.503 589.320, 146.254 574.671, 137.204 570.104 C 123.878 563.378, 107.602 561.992, 93 566.341" fill="transparent" fill-rule="evenodd" data-region="15" data-color-id="6"/>
  <path d="M 229.967 523.715 C 206.561 561.326, 186.239 585.287, 163.500 602.084 C 159.100 605.334, 148.975 612.831, 141 618.743 C 115.879 637.366, 98.872 656.451, 87.750 678.500 C 55.281 742.866, 72.474 820.532, 122.093 833.643 C 127.399 835.045, 134.173 835.372, 161.500 835.547 C 179.650 835.664, 203.362 836.077, 214.192 836.465 C 225.023 836.854, 234.811 836.878, 235.942 836.518 C 238.799 835.612, 238.626 830.888, 235.490 824.151 C 232.425 817.566, 232.412 817, 235.326 817 C 239.950 817, 245.391 826.086, 244.834 832.875 L 244.537 836.500 254.975 836.327 C 267.649 836.117, 268.366 835.562, 267.650 826.500 C 267.390 823.200, 266.861 819.038, 266.475 817.250 C 265.994 815.024, 266.145 814, 266.952 814 C 271.798 814, 275.633 822.010, 274.672 830.125 L 274.066 835.237 277.217 834.607 C 294.528 831.144, 281.724 802.499, 257.352 790.163 C 246.294 784.566, 228.917 782.439, 216.907 785.211 C 211.267 786.513, 199.941 791.935, 188.205 798.950 C 180.027 803.839, 178.455 803.542, 180.526 797.500 C 183.652 788.383, 199.769 776.856, 214.637 773.105 L 221.500 771.374 222.311 765.437 C 223.888 753.889, 221.075 727.347, 216.475 710.365 C 213.606 699.777, 213.461 698, 215.464 698 C 216.303 698, 218.587 701.408, 220.813 705.982 L 224.697 713.963 225.321 703.232 C 226.174 688.575, 227.771 681, 230.008 681 C 231.985 681, 233.056 685.460, 235.408 703.500 C 237.468 719.295, 240.246 727.051, 245.619 732.003 C 251.524 737.446, 255 737.516, 255 732.191 C 255 727.612, 256.924 724.646, 259.566 725.155 C 261.170 725.463, 262.205 728.337, 265.637 742.013 C 270.873 762.878, 273.470 769.929, 282.757 788.494 C 300.080 823.125, 312.622 834.264, 340.828 840.067 C 345.994 841.130, 351.971 842, 354.110 842 L 358 842 357.994 836.750 C 357.991 833.862, 357.505 829.759, 356.914 827.630 C 354.906 820.397, 359.345 820.031, 363.479 827.090 C 364.894 829.506, 365.420 832.109, 365.325 836.234 L 365.192 842 374.573 842 C 386.597 842, 387.602 840.917, 387.306 828.278 C 387.096 819.350, 387.654 818.563, 391.479 822.388 C 394.480 825.389, 395.416 830.208, 394.119 835.973 C 392.878 841.486, 392.571 841.258, 398.991 839.592 C 412.966 835.967, 411.790 820.355, 396.724 809.500 C 393.304 807.035, 392.310 800.042, 391.822 775.005 L 391.500 758.509 386.587 756.772 C 371.452 751.419, 352.056 734.362, 343.797 719.139 C 342.550 716.841, 341.384 716, 339.449 716 C 334.864 716, 321.020 707.984, 313.732 701.109 C 302.703 690.704, 291.495 671.840, 287.944 657.704 C 286.906 653.569, 286.171 652.621, 282.620 650.829 C 264.428 641.653, 248.542 612.387, 246.104 583.562 C 245.637 578.029, 245.384 573.052, 245.542 572.501 C 245.701 571.950, 246.087 568.692, 246.399 565.259 L 246.967 559.018 243.058 558.393 C 227.022 555.829, 224.928 537.816, 237.978 514.693 C 244.554 503.041, 238.802 509.520, 229.967 523.715 M 138.075 645.029 C 132.062 646.288, 124.266 648.889, 119.821 651.121 C 110.713 655.694, 98 668.983, 98 673.930 C 98 676.873, 99.309 676.544, 106.186 671.874 C 124.439 659.478, 145.634 653.957, 161.828 657.377 C 178.084 660.811, 189.047 668.507, 204.098 687.054 L 207.697 691.487 209.348 688.293 C 211.587 683.964, 211.449 682.423, 208.250 676.049 C 202.537 664.663, 187.521 652.459, 172.835 647.264 C 164.713 644.391, 146.668 643.231, 138.075 645.029" fill="transparent" fill-rule="evenodd" data-region="14" data-color-id="7"/>
  <path d="M 600.655 506.829 C 596.868 511.013, 599.864 520, 605.045 520 C 610.892 520, 614.468 509.842, 609.777 506.557 C 606.794 504.467, 602.681 504.590, 600.655 506.829" fill="transparent" fill-rule="evenodd" data-region="13" data-color-id="8"/>
  <path d="M 716.455 506.455 C 711.279 511.631, 715.346 521.671, 721.712 519.432 C 728.482 517.051, 729.636 507.999, 723.497 505.434 C 719.112 503.602, 719.340 503.569, 716.455 506.455" fill="transparent" fill-rule="evenodd" data-region="12" data-color-id="9"/>
  <path d="M 917.196 460.069 C 895.394 466.772, 886.492 494.179, 898.429 517.850 C 902.045 525.020, 907.177 532.344, 918.503 546.500 C 935.779 568.092, 939.598 576.772, 938.772 592.570 C 938.341 600.818, 937.822 602.994, 934.865 608.950 L 931.455 615.819 937.665 624.143 C 941.080 628.721, 945.365 635.057, 947.187 638.223 C 950.941 644.744, 950.938 644.743, 958.448 641.934 C 975.729 635.468, 991.406 617.076, 996.429 597.373 C 1008.451 550.220, 982.623 481.399, 946.131 463.353 C 938.091 459.377, 924.474 457.832, 917.196 460.069" fill="transparent" fill-rule="evenodd" data-region="11" data-color-id="10"/>
  <path d="M 361.886 459.469 C 354.794 477.400, 366.467 496.107, 383.183 493.600 C 392.077 492.266, 398.472 485.687, 402.011 474.230 C 403.645 468.940, 404.848 458.096, 403.424 461.500 C 403.181 462.080, 399.956 462.365, 395.752 462.180 C 383.899 461.656, 380.909 464.087, 379.342 475.520 C 378.596 480.967, 377.374 481.329, 376.784 476.278 C 376.379 472.806, 376.831 469.036, 378.377 463 C 378.968 460.693, 378.448 460.230, 371.632 457 L 364.246 453.500 361.886 459.469" fill="transparent" fill-rule="evenodd" data-region="10" data-color-id="11"/>
  <path d="M 779 398.603 C 756.627 404.510, 724.263 421.928, 704.187 438.866 C 692.841 448.439, 692.855 448.432, 688.869 446.113 C 678.910 440.317, 641.123 440.571, 620.176 446.573 L 614.852 448.099 607.176 441.372 C 587.730 424.329, 557.508 408.458, 536.783 404.405 C 529.288 402.939, 527.829 402.897, 526.378 404.100 C 516.748 412.087, 521.145 468.290, 533.565 495.965 L 536.091 501.593 526.642 523.617 C 505.748 572.319, 501.482 595.849, 510.216 614.239 C 513.979 622.162, 522.503 632.186, 529.674 637.120 C 532.053 638.757, 534 640.524, 534 641.048 C 534 642.570, 529.367 642.147, 528 640.500 C 527.315 639.675, 526.308 639, 525.763 639 C 524.194 639, 527.893 644.145, 532.392 648.222 C 537.351 652.714, 536.170 653.100, 530 649.004 L 525.500 646.016 524.661 649.758 C 523.685 654.109, 524.492 673.759, 526.078 684.256 C 530.126 711.051, 544.415 738.555, 561.273 752 C 567.514 756.977, 568.642 758.932, 567.020 761.962 C 565.016 765.707, 560.050 763.979, 549.701 755.937 L 546.902 753.762 547.597 756.631 C 547.980 758.209, 548.703 760.612, 549.205 761.970 C 551.447 768.038, 552.992 780.388, 552.900 791.500 C 552.763 808.010, 552.696 808.179, 545.665 809.587 C 534.711 811.781, 528.533 822.322, 534.073 829.365 C 537.029 833.124, 537.543 832.688, 537.171 826.737 C 536.909 822.535, 537.277 820.917, 538.994 818.735 C 542.360 814.455, 544.082 815.122, 543.355 820.424 C 541.987 830.410, 544.467 834.215, 553.138 835.436 L 557.777 836.089 557.339 829.795 C 556.840 822.629, 558.091 819.368, 562.229 817.045 C 566.257 814.784, 568.005 816.906, 565.129 820.564 C 562.418 824.010, 562.312 830.547, 564.912 833.930 C 569.718 840.182, 590.591 834.583, 604.453 823.323 C 610.466 818.439, 623.921 803.374, 623.972 801.468 C 623.987 800.901, 621.862 799.820, 619.250 799.067 C 599.450 793.358, 580.056 775.973, 569.533 754.500 C 559.312 733.643, 561.758 727.878, 573.666 744.759 C 594.668 774.530, 616.183 788.448, 644.600 790.646 L 652.701 791.272 657.696 785.269 C 663.765 777.977, 670.659 767.048, 678 753.081 C 685.532 738.750, 688.534 738.578, 685.574 752.648 C 680.044 778.935, 662.119 803.636, 646.077 807.077 C 632.732 809.939, 625.262 823.772, 633.106 831.099 C 636.689 834.446, 638.555 834.905, 637.035 832.066 C 634.080 826.543, 637.428 815.928, 642.765 813.899 C 646.385 812.523, 646.771 813.606, 644.234 818.015 C 641.664 822.480, 641.380 827.581, 643.429 832.483 C 644.884 835.966, 648.528 837.609, 658.713 839.377 C 661.806 839.914, 661.890 839.841, 660.963 837.402 C 657.742 828.930, 663.874 817, 671.450 817 C 673.610 817, 673.430 817.582, 669.919 821.951 C 665.900 826.952, 665.175 832.352, 667.933 836.750 C 669.889 839.870, 670.228 840, 676.420 840 C 707.021 840, 736.147 816.597, 764.414 769.298 C 769.695 760.462, 774.681 752.680, 775.495 752.004 C 777.934 749.980, 780.150 751.523, 779.406 754.728 C 778.245 759.734, 770.889 777.371, 767.240 783.898 L 763.663 790.296 774.581 789.613 C 796.031 788.271, 821.952 784.349, 835.841 780.345 C 840.596 778.974, 841.107 778.569, 840.494 776.653 C 837.373 766.902, 836.650 760.668, 837.836 753.753 C 839.470 744.220, 842.277 738, 844.944 738 C 846.075 738, 847.018 738.337, 847.040 738.750 C 847.061 739.163, 847.174 744.900, 847.290 751.500 C 847.495 763.198, 847.599 763.709, 851.436 771.809 C 853.751 776.698, 856.792 781.367, 858.824 783.151 L 862.278 786.183 857.852 797.322 C 853.505 808.265, 853.353 808.488, 849.187 809.981 C 843.507 812.016, 839.281 816.243, 837.937 821.233 C 836.491 826.602, 837.756 829.325, 842.920 831.959 C 848.666 834.891, 850.092 834.703, 848.766 831.191 C 845.748 823.196, 852.239 814, 860.900 814 C 867.167 814, 867.396 815.289, 861.586 817.859 C 856.480 820.117, 855 822.339, 855 827.743 C 855 834.180, 856.645 835.426, 865.661 835.819 C 885.300 836.675, 900.667 829.682, 917.880 812.057 C 937.073 792.404, 948.685 766.241, 952.111 734.924 C 959.008 671.897, 930.574 616.078, 878.546 590.505 C 863.749 583.231, 831.534 573.133, 829.528 575.139 C 829.288 575.379, 829.517 578.483, 830.036 582.037 C 832.529 599.094, 827.006 614.948, 815.097 624.919 C 811.190 628.190, 809.598 628.998, 808.742 628.142 C 807.886 627.286, 808.089 626.992, 809.550 626.970 C 811.327 626.942, 811.348 626.850, 809.787 625.941 C 808.577 625.235, 806.992 625.395, 804.384 626.484 C 798.299 629.026, 798.541 628.187, 806.936 617.601 C 814.897 607.563, 816.490 602.940, 816.447 590 C 816.403 576.539, 814.826 569.448, 806.393 544.797 C 800.795 528.429, 791.549 505.323, 789.889 503.550 C 788.456 502.019, 788.871 496.972, 791.003 490 C 801.696 455.032, 804.006 404.869, 795.240 397.974 C 792.067 395.479, 790.623 395.535, 779 398.603 M 702.718 483.070 C 684.031 487.577, 677.528 510.416, 691.099 523.872 C 706.263 538.907, 732.056 528.535, 731.978 507.434 C 731.919 491.428, 717.577 479.486, 702.718 483.070 M 588.863 483.721 C 574.635 485.824, 565.690 505.196, 572.745 518.624 C 584.535 541.062, 618.679 530.266, 615.692 505.045 C 614.059 491.258, 602.112 481.763, 588.863 483.721 M 638.898 512.283 C 633.656 515.804, 633.505 521.854, 638.540 526.603 C 642.815 530.634, 642.727 532.940, 638.109 537.883 C 634.101 542.174, 630.417 542.058, 626 537.500 C 622.292 533.675, 620.541 533.149, 619.607 535.582 C 618.410 538.700, 619.048 540.985, 622.076 544.434 C 627.599 550.724, 636.337 550.496, 643.521 543.874 C 647.683 540.037, 647.906 539.956, 648.949 541.905 C 650.678 545.136, 658.161 549, 662.690 549 C 670.261 549, 678.743 540.125, 676.025 535.047 C 674.436 532.078, 672.455 532.527, 670.061 536.401 C 666.665 541.897, 661.884 542.618, 657.809 538.250 C 653.325 533.442, 651.476 528, 654.326 528 C 656.134 528, 659.597 524.023, 660.296 521.143 C 662.447 512.287, 647.874 506.253, 638.898 512.283" fill="transparent" fill-rule="evenodd" data-region="9" data-color-id="12"/>
  <path d="M 343.795 387.529 C 339.035 389.052, 335.297 392.697, 336.876 394.276 C 337.353 394.753, 340.309 394.385, 343.532 393.448 C 350.638 391.382, 362.954 391.833, 367.985 394.343 C 370.930 395.812, 371.580 395.848, 372.812 394.616 C 378.273 389.155, 355.836 383.675, 343.795 387.529" fill="transparent" fill-rule="evenodd" data-region="8" data-color-id="13"/>
  <path d="M 461.557 377.223 C 457.316 383.277, 464.753 389.247, 470 384 C 473.551 380.449, 471.129 375, 466 375 C 464.151 375, 462.554 375.799, 461.557 377.223" fill="transparent" fill-rule="evenodd" data-region="6" data-color-id="14"/>
  <path d="M 286.299 339.250 C 280.072 346.087, 280.821 357, 287.518 357 C 292.160 357, 295 351.715, 295 343.075 C 295 336.904, 290.313 334.843, 286.299 339.250" fill="transparent" fill-rule="evenodd" data-region="5" data-color-id="15"/>
  <path d="M 442.488 340.198 C 438.444 346.308, 438.013 352.078, 441.400 354.743 C 446.377 358.657, 451.208 354.396, 452.508 344.945 C 453.836 335.287, 447.671 332.366, 442.488 340.198" fill="transparent" fill-rule="evenodd" data-region="4" data-color-id="16"/>
  <path d="M 575.759 152.184 C 551.766 155.284, 505.828 187.156, 478 220.011 C 472.775 226.180, 467.550 232.386, 466.390 233.802 L 464.279 236.377 455.890 234.194 C 434.008 228.502, 415.424 226.444, 394 227.342 C 310.490 230.843, 255.963 272.957, 240.574 345.839 C 237.699 359.458, 235.515 365.521, 230.105 374.905 C 204.533 419.263, 196.205 443.359, 203.816 450.970 C 206.372 453.526, 207.516 453.852, 216.206 454.504 C 229.488 455.499, 229.698 455.954, 224.146 471.713 C 215.935 495.020, 218.823 498.561, 244.033 496.105 C 258.542 494.692, 263 495.707, 263 500.423 C 263 500.566, 260.046 504.463, 256.435 509.083 C 252.824 513.704, 248.247 520.767, 246.264 524.780 C 238.141 541.216, 242.637 552.367, 254.215 544.500 C 260.858 539.986, 263.140 541.661, 260.407 549.045 C 257.875 555.886, 257.334 578.173, 259.430 589.312 C 262.738 606.898, 270.547 623.912, 279.597 633.250 C 286.075 639.935, 287 640.224, 287 635.565 C 287 630.988, 288.602 627, 290.440 627 C 292.455 627, 293.490 629.304, 294.929 637 C 300.290 665.652, 316.127 691.871, 333.790 701.334 L 339.080 704.169 338.526 701.834 C 336.208 692.074, 336.200 685, 338.507 685 C 340.264 685, 340.550 685.475, 346.188 697.763 C 360.531 729.017, 384.208 747.609, 413.489 750.609 C 429.496 752.249, 446.992 743.616, 473.018 721.235 C 483.347 712.352, 483.501 716.226, 473.482 732.956 C 464.763 747.515, 464.673 747.814, 469.877 744.867 C 482.201 737.889, 499.976 720.505, 510.426 705.212 L 515.071 698.413 513.438 688.956 C 511.724 679.033, 511.050 651.726, 512.340 644.500 C 513.019 640.699, 512.804 640.226, 508.029 635 C 502.010 628.413, 495.616 616.279, 493.955 608.294 C 489.835 588.484, 498.764 551.497, 516.077 516.662 C 521.555 505.638, 521.867 504.640, 520.616 502.162 C 514.122 489.294, 508.020 454.833, 508.017 431 C 508.012 399.383, 515.665 387.841, 534.939 390.398 C 553.445 392.852, 582.013 404.860, 598.828 417.252 C 601.758 419.411, 604.331 421.002, 604.546 420.787 C 605.666 419.667, 598.461 400.395, 590.220 382.471 C 582.913 366.574, 578.368 353.232, 579.781 351.819 C 581.153 350.447, 584.680 352.416, 585.504 355.013 C 586.558 358.333, 587.633 356.580, 593.022 342.751 C 613.268 290.798, 618.259 211.568, 603.818 171.370 C 598.073 155.378, 590.599 150.267, 575.759 152.184 M 492.861 236.937 C 489.454 239.733, 490.824 241.308, 503.784 249.500 C 530.904 266.642, 545.745 282.296, 558.531 307.246 C 562.560 315.108, 563.759 316.098, 566.246 313.611 C 567.608 312.249, 568.911 316.016, 573.819 335.500 C 574.235 337.150, 575.233 338.500, 576.037 338.500 C 580.720 338.500, 575.252 314.060, 566.376 295.320 C 556.073 273.566, 527.593 246.196, 506.226 237.514 C 498.793 234.494, 495.986 234.372, 492.861 236.937 M 437.189 282.039 C 431.932 286.936, 434.910 292.642, 444.202 295.479 C 446.566 296.201, 450.879 297.739, 453.787 298.896 C 456.695 300.053, 459.753 301, 460.582 301 C 462.787 301, 467 296.425, 467 294.031 C 467 285.678, 443.450 276.205, 437.189 282.039 M 306.933 282.699 C 301.541 283.537, 291.558 289.501, 289.819 292.925 C 287.138 298.203, 289.645 303.036, 295 302.911 C 298.183 302.836, 316.072 294.023, 317.340 291.905 C 319.428 288.416, 314.357 281.390, 310.300 282.150 C 309.860 282.232, 308.345 282.479, 306.933 282.699 M 449 325.882 C 421.687 331.870, 413.434 371.492, 435.469 390.839 C 442.472 396.987, 446.587 398.485, 456.500 398.493 C 470.985 398.504, 481.336 392.055, 487.784 379 C 492.152 370.154, 491.827 355.009, 487.066 345.630 C 479.519 330.761, 463.841 322.627, 449 325.882 M 285.069 328.567 C 278.682 331.338, 273.253 336.740, 269.800 343.760 C 266.661 350.141, 266.502 351.006, 266.539 361.484 C 266.594 376.791, 270.689 384.874, 282.511 393.008 C 286.452 395.719, 297.767 398.688, 300.361 397.691 C 301.177 397.378, 301.500 400.987, 301.500 410.426 L 301.500 423.597 305.316 431.321 C 310.205 441.218, 317.750 449.054, 326.185 452.995 C 332.615 455.999, 344.212 458.280, 348.007 457.288 C 349.897 456.794, 350.024 457.023, 349.302 459.620 C 348.861 461.204, 348.500 466.775, 348.500 472 C 348.500 486.360, 354.557 496.481, 367.151 503.167 C 373.182 506.369, 386.386 506.472, 393 503.369 C 405.569 497.472, 413.571 483.499, 415.565 463.964 L 416.232 457.428 420.576 455.632 C 435.089 449.629, 453.033 427.620, 450.249 419.237 C 447.676 411.493, 439.416 412.881, 437.295 421.415 C 430.849 447.353, 387.750 457.652, 365.155 438.653 C 359.909 434.242, 358.431 434.093, 357.670 437.900 C 356.339 444.555, 344.644 448.045, 335.445 444.532 C 313.665 436.214, 305.083 404.337, 320.038 387.304 C 322.038 385.026, 322.882 383.202, 322.496 381.987 C 322.173 380.971, 322.654 377.295, 323.563 373.819 C 330.457 347.480, 306.470 319.281, 285.069 328.567 M 342.173 382.905 C 328.985 387.460, 322.601 400.348, 328.005 411.510 C 335.505 427.003, 351.324 433.512, 365.074 426.762 C 372.422 423.154, 383.423 411.855, 384.890 406.409 C 389.510 389.249, 364.171 375.308, 342.173 382.905" fill="transparent" fill-rule="evenodd" data-region="3" data-color-id="17"/>
  <path d="M 258.771 152.510 C 245.480 161.541, 232.670 206.264, 229.849 253.489 C 228.630 273.905, 229.143 283.746, 232.683 307.778 C 234.492 320.061, 234.743 320.254, 237.858 311.761 C 251.893 273.505, 288.505 239.553, 330.821 225.552 C 333.748 224.584, 336.362 223.219, 336.631 222.519 C 337.363 220.612, 324.346 200.972, 313.015 186.888 C 286.840 154.351, 270.914 144.258, 258.771 152.510" fill="transparent" fill-rule="evenodd" data-region="2" data-color-id="18"/>
  <path d="M 0 512.001 L 0 1024.002 512.250 1023.751 L 1024.500 1023.500 1024.751 511.750 L 1025.002 0 512.501 0 L 0 0 0 512.001 M 0.496 512.500 C 0.496 794.100, 0.610 909.151, 0.750 768.168 C 0.890 627.186, 0.890 396.786, 0.750 256.168 C 0.610 115.551, 0.496 230.900, 0.496 512.500 M 260.757 137.083 C 242.503 141.387, 228.260 169.917, 220.111 218.500 C 213.438 258.281, 214.918 297.448, 224.543 335.825 L 227.884 349.150 225.583 355.825 C 224.317 359.496, 220.278 367.450, 216.606 373.500 C 182.544 429.635, 179.454 463.306, 208.054 466.693 C 210.774 467.015, 213 467.363, 213 467.467 C 213 467.570, 211.882 470.407, 210.516 473.769 C 204.140 489.460, 207.186 502, 218.505 506.654 C 220.973 507.670, 222.994 508.930, 222.996 509.456 C 223.002 510.929, 212.989 527.292, 204.829 539.146 C 196.162 551.736, 183.546 567.131, 175.039 575.499 L 168.940 581.497 166.220 577.999 C 148.509 555.212, 121.697 546.145, 93.500 553.405 C 77.889 557.425, 70.002 561.775, 60 571.884 C 55.135 576.800, 49.575 581.375, 47 582.580 C 36.953 587.282, 25.170 605.397, 20.385 623.500 C 18.995 628.761, 18.533 634.103, 18.526 645 C 18.517 659.745, 19.015 662.286, 24.431 675.122 C 24.975 676.410, 24.631 676.652, 22.764 676.295 C 17.806 675.347, 15.537 678.881, 15.666 687.351 C 16.024 710.864, 31.167 735.483, 52.007 746.435 L 58.719 749.962 59.243 761.231 C 61.447 808.631, 89.531 843.626, 128.815 847.925 C 140.590 849.214, 255.070 850.159, 267.199 849.067 C 283.354 847.614, 292.520 842.747, 294.583 834.525 C 295.402 831.264, 295.304 831.236, 301.277 836.461 C 316.418 849.706, 334.082 854.424, 368.500 854.415 C 392.101 854.409, 401.022 853.245, 408.469 849.199 C 423.672 840.941, 424.526 817.555, 410.088 804.847 C 406.148 801.378, 405.572 800.317, 404.885 795.251 C 404.460 792.118, 404.199 789.490, 404.306 789.412 C 404.413 789.333, 408.207 789.026, 412.737 788.730 L 420.974 788.191 421.860 791.845 C 422.347 793.855, 423.667 799.407, 424.792 804.182 C 430.527 828.518, 443.856 843.608, 462.500 846.872 C 479.556 849.859, 517.196 848.925, 528.196 845.243 C 533.459 843.482, 533.554 843.487, 540.500 845.903 C 550.082 849.237, 573.911 850.111, 585.419 847.550 C 595.012 845.416, 605.394 840.250, 611.969 834.338 C 614.779 831.812, 617.208 829.915, 617.366 830.122 C 617.525 830.330, 618.242 831.974, 618.960 833.776 C 623.802 845.936, 644.429 853.437, 673 853.427 C 700.899 853.419, 721.828 843.307, 743.746 819.248 C 760.976 800.334, 758.793 802.054, 764.751 802.692 L 770.003 803.255 766.524 807.105 C 758.389 816.109, 757.886 827.888, 765.298 835.834 C 775.555 846.830, 804.741 846.701, 819.874 835.593 L 824.698 832.051 827.099 835.744 C 832.632 844.252, 842.525 848.039, 861.073 848.748 C 889.215 849.824, 906.613 842.848, 926.336 822.580 C 963.452 784.438, 976.363 724.203, 959.410 668.273 C 957.489 661.935, 956.048 656.659, 956.209 656.549 C 956.369 656.438, 959.368 655.325, 962.873 654.075 C 986.745 645.563, 1003.634 624.989, 1010.733 595.773 C 1013.439 584.635, 1013.126 555.081, 1010.155 541.227 C 999.886 493.334, 972.374 455.371, 942.284 447.574 C 908.831 438.905, 880 461.490, 880 496.366 C 880 515.683, 884.816 525.913, 906.899 553.500 C 923.820 574.637, 927.583 583.808, 924.986 597.572 C 923.421 605.868, 922.860 606.086, 917.208 600.604 C 899.263 583.201, 867.357 568.279, 836.574 562.893 C 830.564 561.841, 825.589 560.873, 825.517 560.740 C 825.445 560.608, 824.141 556.225, 822.619 551 C 819.752 541.159, 811.649 519.205, 805.937 505.805 L 802.658 498.110 805.255 489.305 C 815.194 455.614, 817.051 409.781, 809.109 394.213 C 804.733 385.637, 800.005 383.489, 787.152 384.239 C 765.528 385.500, 720.807 407.132, 698.716 427.015 L 692.932 432.220 688.525 431.111 C 674.355 427.542, 646.930 427.728, 628.932 431.514 C 619.874 433.420, 620 433.433, 620 430.565 C 620 420.854, 613.447 400.402, 604.447 382.024 L 597.159 367.143 601.962 356.321 C 616.915 322.632, 623.679 287.861, 624.690 239.492 C 626.490 153.327, 605.110 124.336, 555.004 144.998 C 527.552 156.319, 485.605 189.090, 465.143 215.204 C 460.545 221.072, 459.611 221.803, 457.658 221.060 C 453.463 219.465, 434.511 216.053, 424.144 215.026 C 404.041 213.034, 378.785 214.348, 359.531 218.386 C 355.698 219.190, 352.283 219.675, 351.943 219.465 C 351.602 219.254, 348.774 214.901, 345.659 209.791 C 342.543 204.681, 336.508 195.718, 332.247 189.873 C 301.814 148.128, 280.540 132.419, 260.757 137.083" fill="transparent" fill-rule="evenodd" data-region="1" data-color-id="19"/>
  <path d="M 256.500 139.356 C 240.461 146.851, 228.646 173.303, 220.257 220.500 C 217.764 234.521, 217.588 237.490, 217.545 266 C 217.495 300.120, 218.465 309.430, 224.625 333.913 C 226.481 341.290, 228 348.373, 228 349.652 C 228 353.614, 224.579 361.251, 217.661 372.733 C 183.542 429.361, 180.019 462.770, 207.834 465.924 C 210.950 466.278, 213.404 467.002, 213.287 467.533 C 213.170 468.065, 211.942 471.650, 210.558 475.500 C 205.086 490.724, 209.182 504.124, 220.035 506.508 C 221.653 506.863, 223.242 507.583, 223.567 508.108 C 224.209 509.148, 220.226 516.634, 213.348 527.313 C 210.934 531.060, 209.263 534.617, 209.634 535.217 C 210.019 535.840, 209.850 536.025, 209.240 535.648 C 208.648 535.283, 207.149 536.640, 205.883 538.689 C 202.582 544.030, 189.461 560.791, 184.773 565.657 C 182.244 568.281, 181.051 570.274, 181.538 571.061 C 181.992 571.797, 181.900 572.056, 181.313 571.693 C 180.174 570.990, 173.694 577.273, 174.482 578.316 C 174.767 578.692, 174.715 578.790, 174.366 578.533 C 174.017 578.276, 172.645 578.921, 171.315 579.967 L 168.898 581.868 162.626 574.684 C 151.159 561.552, 137.757 554.302, 120.574 551.936 C 97.401 548.745, 68.875 559.563, 56.203 576.348 C 53.374 580.094, 51.240 581.902, 49.155 582.319 C 40.314 584.087, 25.995 604.454, 21.493 621.663 C 16.460 640.900, 17.683 657.652, 25.479 676.246 C 26.112 677.757, 25.788 677.908, 23.078 677.366 C 11.717 675.093, 14.317 701.770, 27.491 722.627 C 31.926 729.650, 39.943 738.154, 41.323 737.301 C 41.865 736.965, 42.019 737.160, 41.664 737.734 C 40.565 739.513, 53.534 748, 57.351 748 C 58.465 748, 58.938 750.488, 59.487 759.250 C 62.220 802.797, 83.257 834.831, 115.536 844.597 L 124.500 847.309 192.699 848.273 C 261.658 849.248, 282.141 848.655, 280.336 845.734 C 279.957 845.122, 280.175 844.990, 280.864 845.416 C 282.407 846.370, 289.206 842.142, 288.352 840.760 C 287.988 840.172, 288.150 839.975, 288.712 840.322 C 290.617 841.499, 293.738 836.411, 294.890 830.250 C 294.967 829.837, 295.361 829.983, 295.765 830.573 C 296.169 831.162, 299.113 833.756, 302.306 836.336 C 317.865 848.909, 336.745 853.939, 368.526 853.980 C 392.576 854.012, 404.075 851.966, 411.759 846.291 C 423.255 837.801, 422.026 816.235, 409.415 805.135 C 405.172 801.400, 404.912 800.860, 404.327 794.599 L 403.711 788 411.355 787.850 C 415.560 787.768, 419.546 787.655, 420.213 787.600 C 420.963 787.538, 422.503 792.087, 424.242 799.500 C 430.655 826.836, 441.286 840.533, 460.130 845.740 C 470.908 848.718, 517.672 847.961, 527.500 844.650 C 532.526 842.956, 534.341 842.919, 538.125 844.433 C 540.394 845.341, 542.490 845.844, 542.783 845.551 C 543.076 845.257, 543.829 845.443, 544.456 845.964 C 546.535 847.689, 564.190 849.245, 573.779 848.549 C 589.001 847.443, 602.069 842.239, 611.968 833.339 C 617.839 828.060, 617.644 828.069, 619.623 833.016 C 624.714 845.740, 642.631 852.295, 672.500 852.362 C 691.611 852.405, 699.349 850.657, 713 843.213 C 725.199 836.561, 747.723 816.373, 755.204 805.387 C 757.429 802.118, 757.708 802.013, 764.250 802.007 C 771.886 801.999, 772.244 802.444, 767.908 806.563 C 761.324 812.819, 759.234 821.838, 762.538 829.746 C 769.531 846.482, 802.786 848.501, 821.327 833.315 C 824.562 830.666, 826 830.387, 826 832.408 C 826 833.183, 827.947 835.820, 830.328 838.269 C 841.642 849.911, 875.827 852.127, 897.339 842.613 C 923.198 831.178, 946.703 803.065, 957.501 770.660 C 964.074 750.936, 965.401 742.062, 965.453 717.500 C 965.507 692.122, 963.064 677.573, 955.393 657.581 C 955.069 656.738, 955.915 655.997, 957.690 655.569 C 959.236 655.196, 964.570 652.926, 969.544 650.523 C 1008.816 631.558, 1023.080 579.149, 1004.449 522.275 C 985.164 463.403, 943.581 433.349, 906.469 451.461 C 889.704 459.644, 880.631 475.471, 880.653 496.500 C 880.673 516.326, 885.260 525.689, 910.540 557.500 C 923.899 574.310, 925.513 577.882, 925.451 590.500 C 925.424 596, 924.867 601.752, 924.213 603.283 L 923.024 606.066 914.262 598.646 C 898.729 585.493, 883.760 577.279, 862.133 570.044 C 849.808 565.921, 833.210 562, 828.079 562 C 825.505 562, 825.220 561.473, 822.002 550.750 C 818.363 538.623, 812.223 522.020, 806.934 510 C 802.865 500.752, 802.765 496.701, 806.282 483.500 C 815.956 447.190, 816.232 405.303, 806.888 391.498 C 799.336 380.341, 782.567 381.602, 750.266 395.758 C 744.294 398.375, 740.298 400.673, 740.670 401.276 C 741.032 401.861, 740.824 402.009, 740.190 401.617 C 738.308 400.455, 711.011 416.846, 705.272 422.585 C 704.494 423.363, 703.552 424.006, 703.179 424.012 C 702.805 424.019, 700.504 425.879, 698.063 428.145 L 693.627 432.264 685.063 430.882 C 668.370 428.188, 631.737 429.710, 621.836 433.509 C 620.682 433.952, 620.024 432.088, 618.704 424.643 C 616.356 411.389, 611.980 398.796, 603.935 382.143 C 600.121 374.246, 597 367.315, 597 366.740 C 597 366.164, 598.406 362.725, 600.124 359.097 C 630.922 294.057, 633.674 178.273, 605.149 147.657 C 595.024 136.789, 575.528 136.419, 552.698 146.659 C 541.947 151.482, 521.487 163.790, 513.500 170.239 C 512.950 170.683, 509.575 173.336, 506 176.135 C 491.741 187.299, 472.047 206.874, 462.935 218.940 L 460.370 222.336 453.435 220.583 C 426.271 213.716, 395.143 212.599, 367.851 217.513 C 363.258 218.340, 357.686 219.285, 355.469 219.614 L 351.439 220.212 346.049 211.356 C 338.612 199.137, 327.892 184, 326.675 184 C 326.120 184, 325.949 183.717, 326.295 183.372 C 327.096 182.570, 320.021 173.869, 319.055 174.466 C 318.658 174.711, 318.333 174.275, 318.333 173.496 C 318.333 171.484, 310.742 163.121, 309.301 163.545 C 308.641 163.739, 308.329 163.306, 308.607 162.581 C 309.202 161.031, 296.927 149.509, 289.179 144.345 C 277.885 136.818, 265.860 134.982, 256.500 139.356 M 261.370 150.440 C 259.649 151.190, 257.935 152.297, 257.561 152.901 C 257.188 153.506, 256.432 154, 255.882 154 C 255.332 154, 255.203 153.480, 255.595 152.845 C 256.041 152.124, 255.869 151.963, 255.138 152.415 C 254.494 152.813, 254.199 153.513, 254.482 153.971 C 254.765 154.429, 253.483 157.053, 251.633 159.802 C 241.902 174.262, 233.174 207.052, 229.885 241.500 C 228.372 257.360, 229.295 294.227, 231.539 307.500 C 232.469 313, 233.274 318.288, 233.329 319.250 C 233.486 322.002, 235.710 321.294, 236.470 318.250 C 238.522 310.024, 250.455 287.440, 258.167 277.184 C 266.276 266.400, 283.315 250.933, 295.500 243.295 C 300.829 239.955, 321.827 229.772, 326 228.504 C 332.986 226.382, 339 223.740, 339 222.793 C 339 221.039, 324.150 199.293, 315.608 188.539 C 311.223 183.018, 302.426 173.325, 296.059 167 C 279.785 150.832, 270.574 146.435, 261.370 150.440 M 572.500 152.020 C 559.434 154.636, 531.295 170.275, 514.071 184.494 C 495.755 199.615, 479.571 215.903, 468.112 230.750 C 464.209 235.807, 464.424 235.792, 449.371 232.046 C 411.680 222.666, 365.038 225.695, 327.671 239.949 C 303.455 249.187, 279.418 266.851, 266.589 284.837 C 264.988 287.082, 263.231 288.642, 262.684 288.305 C 262.129 287.962, 262.003 288.196, 262.399 288.837 C 262.789 289.467, 261.821 291.899, 260.248 294.242 C 252.262 306.135, 243.294 328.551, 240.541 343.500 C 237.555 359.723, 236.134 363.186, 222.779 386.805 C 203.432 421.021, 196.621 443.798, 203.385 451.662 C 205.586 454.220, 206.527 454.490, 215.534 455.149 C 228.842 456.122, 229.329 457.189, 223.356 472.288 C 219.236 482.702, 218.302 491.724, 221.057 494.483 C 223.438 496.868, 233.098 498.063, 241.337 496.993 C 252.909 495.489, 258.448 495.733, 260.345 497.829 C 262.624 500.347, 262.516 500.754, 258.188 505.936 C 245.160 521.536, 238.306 538.239, 242.380 544.458 C 245.019 548.485, 248.153 548.631, 254.460 545.023 C 261.084 541.233, 261.948 542.067, 259.598 549.981 C 251.856 576.051, 261.775 615.990, 280.946 635.944 C 285.600 640.788, 287.387 640.783, 287.770 635.923 C 288.221 630.204, 288.969 628, 290.460 628 C 292.475 628, 292.822 628.842, 294.533 637.863 C 299.576 664.447, 312.473 687.152, 329.240 698.964 C 338.541 705.517, 339.070 705.470, 338.753 698.107 C 338.614 694.865, 338.127 692.438, 337.672 692.714 C 337.217 692.989, 337.004 691.581, 337.198 689.585 C 337.392 687.589, 337.990 686.079, 338.526 686.228 C 339.062 686.378, 339.388 686.837, 339.250 687.250 C 339.113 687.662, 339.442 687.887, 339.983 687.750 C 341.042 687.480, 350.188 706.404, 350.338 709.177 C 350.388 710.099, 350.733 710.665, 351.105 710.435 C 352.192 709.763, 355.152 714.945, 354.387 716.183 C 353.982 716.838, 354.138 717.033, 354.760 716.648 C 355.348 716.285, 356.736 717.453, 357.844 719.244 C 365.928 732.308, 385.768 745.423, 403.759 749.597 C 410.627 751.190, 432.308 751.310, 431.345 749.750 C 431.090 749.337, 431.471 748.998, 432.191 748.996 C 437.347 748.979, 458.056 735.556, 471.280 723.659 C 483.665 712.518, 483.107 715.859, 468.644 739.441 C 462.481 749.489, 463.568 750.184, 474.259 743.033 C 491.226 731.685, 518.377 700.655, 515.464 695.941 C 512.973 691.911, 511.136 654.830, 512.953 645.250 C 513.902 640.243, 513.892 640.212, 509.800 635.910 C 489.931 615.024, 488.384 590.049, 504.261 546.469 C 507.272 538.202, 511.596 527.488, 513.868 522.660 C 516.141 517.832, 518.010 513.571, 518.022 513.191 C 518.034 512.811, 518.924 511.375, 520 510 C 522.390 506.944, 522.509 503.885, 520.396 499.800 C 513.803 487.050, 509.775 462.073, 509.623 433 C 509.481 405.828, 510.623 400.800, 518.349 394.593 C 523.938 390.102, 536.920 390.165, 551.258 394.752 C 567.901 400.076, 589.807 411.223, 601.144 420.135 C 603.148 421.711, 605.065 423, 605.403 423 C 607.563 423, 602.806 407.862, 595.916 392.808 C 588.119 375.773, 581.943 360.426, 581.307 356.503 C 580.595 352.117, 582.349 351.841, 584.500 356 C 586.349 359.576, 587.611 359.809, 588.572 356.750 C 588.961 355.512, 590.309 352.250, 591.568 349.500 C 606.494 316.894, 615.617 255.999, 612.118 212.330 C 608.166 163.016, 597.638 146.988, 572.500 152.020 M 493.623 237.259 C 490.802 239.362, 492.860 242.239, 500.263 246.540 C 510.247 252.341, 513.182 254.231, 519.522 258.940 C 532.237 268.384, 545.037 282.369, 552.525 295 C 554.644 298.575, 556.630 301.725, 556.939 302 C 557.248 302.275, 558.749 305.121, 560.276 308.325 C 563.182 314.423, 564.654 315.026, 566.699 310.957 C 567.563 309.239, 568.017 308.981, 568.321 310.036 C 569.304 313.436, 573.061 327.865, 574.106 332.250 C 575.235 336.991, 576.610 338.563, 576.730 335.250 C 577.405 316.533, 563.848 287.208, 545.045 266.716 C 528.285 248.451, 500.196 232.360, 493.623 237.259 M 437.455 283.455 C 432.446 288.463, 434.633 290.994, 448.322 296.026 C 460.794 300.610, 461.323 300.677, 464 298 C 466.009 295.991, 466.861 291.350, 465.011 292.493 C 464.468 292.829, 464.256 292.496, 464.541 291.754 C 465.379 289.571, 460.663 285.993, 453.542 283.407 C 444.902 280.271, 440.625 280.284, 437.455 283.455 M 304.500 284.399 C 292.478 288.201, 286.642 295.249, 291.085 300.602 C 292.993 302.901, 296.356 302.234, 306.441 297.553 C 316.293 292.980, 317.638 291.676, 316.632 287.669 C 315.588 283.512, 311.116 282.306, 304.500 284.399 M 447.139 327.147 C 431.464 331.658, 421.144 349.624, 423.991 367.446 C 425.031 373.951, 428.642 383, 430.199 383 C 430.640 383, 431.001 383.563, 431.002 384.250 C 431.004 386.122, 438.255 392.579, 443.175 395.091 C 447.773 397.439, 459.485 398.868, 462.690 397.471 C 463.685 397.037, 464.878 396.767, 465.340 396.871 C 467.312 397.314, 476.791 391.842, 480.147 388.324 C 487.300 380.823, 489.485 374.902, 489.493 363 C 489.499 353.512, 489.220 351.894, 486.595 346.209 C 479.606 331.073, 462.394 322.758, 447.139 327.147 M 283.906 329.988 C 264.429 340.283, 260.626 370.722, 276.798 386.893 C 283.178 393.273, 288.208 395.761, 296.434 396.603 C 301.658 397.139, 302.984 397.599, 302.551 398.727 C 302.247 399.520, 301.715 403.218, 301.368 406.947 C 298.935 433.124, 320.696 458.016, 345 456.858 C 350.507 456.596, 350.440 456.462, 349.016 464.903 C 345.421 486.217, 359.988 505, 380.113 505 C 383.279 505, 386.912 504.604, 388.185 504.120 C 389.458 503.636, 390.725 503.262, 391 503.289 C 392.005 503.388, 396.595 500.599, 400.257 497.665 C 407.975 491.480, 413.794 478.266, 414.740 464.773 C 415.189 458.378, 415.606 456.943, 417.156 456.451 C 418.186 456.124, 418.774 455.444, 418.463 454.939 C 418.151 454.435, 418.624 454.302, 419.513 454.643 C 424.090 456.400, 441.579 440.402, 446.999 429.502 C 450.518 422.426, 450.733 419.733, 448 417 C 443.752 412.752, 438.753 415.343, 437.682 422.347 C 436.433 430.516, 424.933 441.494, 412.600 446.289 C 409.225 447.601, 404.118 448.431, 397.500 448.742 C 382.394 449.453, 373.160 446.496, 363.053 437.711 L 359.606 434.715 358.701 437.108 C 357.006 441.588, 356.290 442.500, 352.894 444.495 C 350.490 445.908, 347.750 446.478, 343.500 446.450 C 318.177 446.281, 302.504 409.329, 318.749 388.095 C 320.610 385.664, 321.536 383.205, 321.610 380.500 C 321.670 378.300, 322.275 374.475, 322.954 372 C 327.061 357.028, 318.007 336.454, 304.522 330.115 C 298.653 327.357, 288.997 327.297, 283.906 329.988 M 443.048 338.750 C 438.978 343.677, 437.470 349.144, 439.206 352.679 C 443.716 361.866, 452.691 355.685, 453.137 343.084 C 453.445 334.385, 448.433 332.231, 443.048 338.750 M 286.253 338.441 C 281.405 342.520, 279.708 350.762, 282.870 354.874 C 284.607 357.132, 293.774 359.061, 292.429 356.885 C 292.147 356.429, 292.652 354.935, 293.550 353.564 C 294.448 352.193, 295.424 348.421, 295.717 345.181 C 296.203 339.822, 296.039 339.141, 293.903 337.645 C 290.767 335.448, 289.675 335.561, 286.253 338.441 M 461.733 375.750 C 458.845 378.955, 458.599 382.549, 461.109 384.887 C 465.764 389.224, 472 386.713, 472 380.500 C 472 374.622, 465.471 371.602, 461.733 375.750 M 302.626 376.330 C 299.524 378.692, 298.922 382.582, 301.317 384.781 C 304.883 388.055, 310 384.744, 310 379.164 C 310 376.595, 304.868 374.623, 302.626 376.330 M 345.316 382.374 C 328.154 386.710, 321.639 401.894, 331.063 415.592 C 342.675 432.470, 360.879 433.251, 376.584 417.546 C 385.125 409.006, 386.761 403.270, 382.921 395.337 C 377.747 384.649, 360.222 378.608, 345.316 382.374 M 349.325 386.072 C 342.853 386.937, 336.608 389.917, 336.156 392.356 C 335.546 395.650, 337.430 396.273, 342.630 394.498 C 349.779 392.057, 361.373 392.169, 367.150 394.735 C 370.532 396.236, 372.101 396.499, 372.900 395.700 C 378.453 390.147, 363.753 384.144, 349.325 386.072 M 777 398.481 C 754.725 404.715, 721.384 423.198, 700.235 441.036 L 692.969 447.163 688.735 445.130 C 677.613 439.791, 646.499 439.771, 623.845 445.090 L 615.016 447.163 607.258 440.517 C 602.991 436.861, 599.500 433.487, 599.500 433.019 C 599.500 432.550, 599.090 431.792, 598.590 431.333 C 598.061 430.849, 597.981 431.024, 598.399 431.750 C 599.602 433.840, 598.453 433.252, 588.124 426.484 C 568.600 413.691, 544.223 403.730, 532.074 403.580 C 522.460 403.460, 521.607 405.291, 521.160 427 C 520.628 452.849, 524.361 476.472, 531.722 493.841 L 535.258 502.182 531.030 511.841 C 497.535 588.364, 496.918 611.458, 527.694 636.529 C 533.801 641.503, 533.590 642.690, 527.428 638.028 C 525.268 636.393, 523.132 635.043, 522.683 635.028 C 521.495 634.987, 522.861 639.065, 525.094 642.222 C 526.341 643.986, 526.541 644.761, 525.661 644.424 C 523.716 643.677, 522.831 657.198, 523.975 670.205 C 527.178 706.628, 536.736 729.142, 557.644 749.514 C 565.438 757.108, 567.071 759.202, 566.529 760.909 C 565.260 764.907, 559.700 762.998, 550.250 755.320 C 547.913 753.420, 546 752.091, 546 752.365 C 546 752.640, 547.411 758.183, 549.136 764.682 C 551.912 775.145, 552.278 778.106, 552.333 790.500 C 552.407 807.494, 551.992 808.554, 545.002 809.226 C 534.095 810.274, 527.150 824.404, 534.278 831.044 C 537.818 834.342, 538.709 833.541, 538.209 827.512 C 537.877 823.499, 538.197 821.349, 539.400 819.512 C 541.959 815.606, 542.905 816.519, 542.307 822.316 C 541.348 831.608, 544.649 835.480, 554.082 836.125 C 558.236 836.409, 558.488 836.280, 558.301 833.963 C 557.421 823.103, 558.176 820.042, 562.273 817.859 C 564.360 816.747, 564.406 816.789, 563 818.524 C 561.640 820.201, 561.664 820.313, 563.253 819.717 C 564.898 819.101, 564.906 819.214, 563.371 821.557 C 561.383 824.590, 562.120 832.370, 564.660 835.177 C 567.676 838.510, 582.201 837.148, 591.898 832.624 C 601.483 828.151, 613.536 817.456, 622.386 805.569 L 626.057 800.637 617.779 797.499 C 596.238 789.334, 584.134 778.824, 572.288 758 C 569.635 753.335, 563 737.959, 563 736.474 C 563 734.191, 567.162 736.980, 570 741.164 C 571.925 744.003, 573.950 746.815, 574.500 747.415 C 578.344 751.606, 582.846 758.440, 582.322 759.288 C 581.973 759.852, 582.180 760.007, 582.784 759.634 C 583.401 759.252, 585.425 760.986, 587.438 763.623 C 589.397 766.189, 591 767.963, 591 767.567 C 591 767.170, 592.462 768.311, 594.250 770.102 C 608.629 784.508, 647.965 797.217, 655.060 789.750 C 662.411 782.012, 672.460 766.437, 679.174 752.374 C 684.987 740.198, 687.134 739.615, 685.131 750.755 C 682.625 764.691, 672.815 787.500, 669.326 787.500 C 668.689 787.500, 667.792 787.910, 667.333 788.410 C 666.849 788.939, 667.024 789.019, 667.750 788.601 C 672.765 785.715, 662.164 796.984, 655 802.155 C 653.075 803.544, 648.277 805.654, 644.337 806.843 C 630.709 810.956, 624.506 824.025, 632.571 831.632 C 635.972 834.839, 641.566 836.620, 639.226 833.750 C 638.665 833.063, 637.662 830.664, 636.996 828.420 C 635.609 823.744, 638.132 817.070, 642.089 814.952 C 645.072 813.356, 645.244 814.112, 642.913 818.568 C 641.311 821.630, 640.969 823.685, 641.366 827.853 C 642.147 836.039, 645.480 838.449, 658.075 839.934 L 663.853 840.616 662.315 837.642 C 659.013 831.257, 662.290 821.237, 668.399 819.042 C 672.190 817.680, 672.475 817.723, 671.049 819.441 C 670.392 820.233, 669.099 820.640, 668.177 820.346 C 666.880 819.933, 666.807 820.031, 667.855 820.780 C 668.979 821.583, 668.921 822.191, 667.516 824.336 C 665.244 827.803, 665.215 835.153, 667.460 838.579 L 669.235 841.288 679.367 840.694 C 698.983 839.544, 711.815 833.208, 729.975 815.705 C 746.098 800.163, 755.593 787.219, 770.979 759.799 C 775.271 752.150, 777.619 749.843, 778.574 752.333 C 779.376 754.422, 773.249 770.717, 767.913 780.690 C 765.208 785.744, 763.369 790.110, 763.825 790.392 C 767.345 792.567, 812.876 786.963, 833.839 781.774 C 843.170 779.464, 842.618 780.615, 839.486 770 C 836.625 760.306, 839.347 741.490, 843.969 739.017 C 846.661 737.576, 846.903 738.489, 846.302 747.846 C 845.426 761.485, 849.814 775.043, 857.757 783.236 L 861.379 786.973 859.028 792.736 C 852.627 808.428, 852.667 808.368, 847.401 810.277 C 840.912 812.631, 837.773 816.693, 837.211 823.463 C 836.716 829.439, 838.829 831.970, 846.142 834.161 C 850.690 835.523, 851.602 834.994, 849.967 831.939 C 848.358 828.933, 849.311 821.427, 851.632 818.821 C 853.896 816.280, 859.020 814, 862.468 814 C 866.026 814, 865.620 815.533, 861.768 816.638 C 855.442 818.452, 851.786 828.394, 855.497 833.692 C 859.053 838.769, 881.218 837.291, 894.500 831.091 C 916.337 820.897, 938.657 792.486, 946.918 764.369 C 958.785 723.981, 955.444 681.381, 937.791 648 C 932.688 638.351, 922.946 624.060, 919.109 620.595 C 916.887 618.588, 916.183 616.377, 918.155 617.595 C 918.876 618.041, 919.037 617.869, 918.585 617.138 C 918.187 616.494, 917.503 616.189, 917.065 616.460 C 915.922 617.166, 912.847 613.502, 913.748 612.509 C 914.162 612.052, 914.043 611.938, 913.483 612.254 C 912.924 612.571, 910.899 611.503, 908.983 609.881 C 895.629 598.579, 882.038 590.570, 864.403 583.611 C 854.021 579.514, 830.084 573.502, 828.926 574.701 C 828.502 575.140, 828.618 577.975, 829.185 581 C 830.532 588.182, 829.641 599.044, 827.112 606.272 C 824.732 613.075, 819.146 621.270, 817.358 620.584 C 816.626 620.303, 816.312 620.650, 816.606 621.415 C 816.968 622.358, 816.028 622.727, 813.269 622.727 C 811.156 622.727, 807.940 623.497, 806.121 624.437 C 801.366 626.896, 801.514 626.272, 807.533 618.504 C 821.165 600.907, 821.157 586.197, 807.493 545.500 C 804.539 536.700, 800.022 524.550, 797.457 518.500 C 788.922 498.368, 789.300 499.963, 791.365 492.798 C 801.458 457.782, 804.465 408.944, 797.139 399 C 794.612 395.569, 788.011 395.399, 777 398.481 M 361.773 456.661 C 351.880 478.491, 368.992 501.512, 388.784 492.998 C 397.682 489.170, 404.894 475.806, 404.973 463 L 404.994 459.500 392.221 459.498 C 379.623 459.495, 379.352 459.447, 372.474 455.998 C 368.638 454.074, 365.155 452.347, 364.733 452.161 C 364.311 451.975, 362.979 454, 361.773 456.661 M 918.407 459.343 C 913.076 460.704, 908.058 463.409, 904.237 466.985 C 902.992 468.149, 901.460 468.785, 900.833 468.397 C 900.115 467.953, 899.966 468.136, 900.432 468.889 C 901.356 470.386, 899.145 473.208, 897.732 472.334 C 897.160 471.981, 896.977 472.154, 897.327 472.719 C 897.676 473.285, 896.795 476.617, 895.369 480.124 C 890.829 491.283, 892.006 507.194, 898.287 519.573 C 901.487 525.882, 916.270 545.972, 922.754 552.825 C 925.304 555.521, 929.850 562.698, 933.316 569.501 C 939.962 582.548, 940.201 595.563, 934.035 608.738 C 930.248 616.832, 930.163 616, 935.437 622.475 C 937.877 625.471, 942.245 631.803, 945.143 636.545 C 950.199 644.819, 950.533 645.143, 953.416 644.567 C 960.024 643.245, 971.323 636.590, 977.899 630.146 C 981.530 626.589, 984.950 623.788, 985.500 623.922 C 986.050 624.057, 986.180 623.847, 985.789 623.456 C 985.399 623.065, 986.457 620.743, 988.141 618.295 C 995.704 607.302, 999.948 590.700, 999.974 572 C 1000.029 533.365, 985.469 496.922, 960.422 473 C 956.103 468.875, 952.634 465.259, 952.713 464.964 C 952.792 464.670, 952.102 464.381, 951.179 464.322 C 950.255 464.264, 946.662 463.014, 943.192 461.545 C 935.655 458.353, 925.740 457.473, 918.407 459.343 M 702 483.652 C 695.595 485.762, 690.912 489.480, 691.667 491.856 C 692.069 493.125, 691.969 493.193, 691.228 492.158 C 689.800 490.162, 686.282 495.588, 684.936 501.861 C 682.350 513.919, 690.938 527.334, 702.866 529.869 C 720.932 533.707, 736.784 515.709, 730.053 499 C 725.492 487.676, 712.071 480.334, 702 483.652 M 583.500 486.368 C 577.620 489.130, 575.821 490.968, 573.077 497.018 C 564.181 516.630, 583.854 537.658, 602.339 528.294 C 610.731 524.044, 615.011 517.101, 614.978 507.790 C 614.917 490.178, 598.775 479.193, 583.500 486.368 M 601.080 505.750 C 597.850 508.390, 597.326 513.874, 599.982 517.250 C 602.987 521.071, 607.028 520.944, 610.411 516.923 C 614.328 512.268, 613.771 507.967, 608.928 505.463 C 605.250 503.561, 603.689 503.618, 601.080 505.750 M 715.495 506.414 C 710.297 511.612, 714.029 520.720, 720.895 519.594 C 722.878 519.269, 724.987 518.927, 725.583 518.835 C 727.044 518.608, 727.869 510.511, 726.917 505.750 C 726.408 503.208, 718.225 503.684, 715.495 506.414 M 236.404 512.250 C 224.633 531.338, 219.162 539.798, 212.644 549 C 193.213 576.428, 177.692 591.567, 145.071 614.909 C 137.839 620.083, 131.683 624.703, 131.392 625.175 C 131.100 625.647, 130.432 625.767, 129.906 625.442 C 129.381 625.117, 129.074 625.258, 129.225 625.756 C 129.376 626.253, 126.181 629.549, 122.124 633.080 C 113.732 640.385, 101.653 654.383, 95.394 664.058 C 59.030 720.268, 63.467 798.769, 104.609 827.075 C 116.042 834.941, 124.876 836.391, 162.500 836.575 C 180.100 836.661, 203.050 836.809, 213.500 836.905 C 223.950 837.001, 233.788 837.062, 235.363 837.040 L 238.226 837 237.834 830.061 C 237.499 824.144, 237.651 823.296, 238.865 824.303 C 240.047 825.284, 240.168 825.105, 239.577 823.242 C 238.528 819.938, 240.670 820.461, 242.474 823.950 C 243.313 825.573, 244 829.173, 244 831.950 L 244 837 255.051 837 L 266.102 837 267.686 833.250 C 268.988 830.169, 269.094 828.252, 268.284 822.500 C 267.171 814.599, 267.152 814.737, 269.280 815.554 C 272.350 816.732, 274.285 822.855, 273.739 829.662 C 273.175 836.686, 273.616 837.076, 279.722 834.947 C 286.915 832.440, 287.861 822.462, 281.873 812.252 C 267.291 787.387, 234.975 776.448, 208.130 787.292 C 202.925 789.394, 196.793 792.715, 185.500 799.547 C 180.480 802.584, 180.167 802.577, 180.767 799.441 C 181.439 795.924, 190.207 786.569, 196.760 782.377 C 203.042 778.358, 208.105 776.213, 216.462 774.028 C 222.433 772.466, 222.454 772.448, 223.292 767.981 C 225.037 758.675, 222.067 727.113, 218.002 711.766 C 216.943 707.770, 215.777 703.375, 215.410 702 C 214.014 696.764, 218.559 703.231, 222.087 711.500 L 225.500 719.500 226.103 706 C 226.434 698.575, 226.997 691.263, 227.353 689.750 C 227.709 688.237, 228.251 685.805, 228.558 684.344 C 229.697 678.925, 231.795 684.320, 233.481 697 C 237.304 725.763, 241.699 734.941, 252.490 736.692 C 255.973 737.257, 256 737.233, 256 733.565 C 256 727.073, 260.270 722.921, 261.467 728.250 C 267.223 753.878, 268.779 759.384, 273.916 772.298 C 288.062 807.864, 307.246 830.873, 328.500 837.767 C 335.866 840.157, 356.746 843.587, 357.761 842.574 C 358.755 841.582, 358.636 830.306, 357.589 826.250 C 356.909 823.616, 357.045 823, 358.307 823 C 361.597 823, 364.498 829.061, 364.528 836 L 364.556 842.500 374.178 842.785 C 386.947 843.163, 388.298 841.825, 387.817 829.277 C 387.467 820.142, 388.305 819.044, 392.034 823.750 C 394.113 826.373, 394.472 833.408, 392.861 839.968 C 392.414 841.788, 397.835 841.500, 402.786 839.439 C 412.231 835.509, 410.783 819.503, 400.255 811.472 C 393.970 806.677, 394.052 807.020, 392.766 780.431 L 391.650 757.354 385.954 755.145 C 374.510 750.708, 353.752 734.829, 355.563 731.898 C 355.885 731.377, 355.600 731.074, 354.929 731.225 C 354.259 731.376, 351.413 728.081, 348.605 723.902 C 343.703 716.605, 343.265 716.235, 337.570 714.597 C 317.479 708.818, 296.399 684.374, 288.904 658.165 C 287.892 654.626, 286.937 651.679, 286.782 651.615 C 261.227 641.158, 241.845 597.678, 247.216 562.855 L 247.933 558.210 244.216 557.564 C 237.652 556.424, 234.982 554.825, 232.462 550.525 C 228.062 543.017, 229.780 531.749, 237.552 517.137 C 242.615 507.617, 242.491 508, 240.513 508 C 239.694 508, 237.846 509.913, 236.404 512.250 M 641.378 511.382 C 637.708 513.044, 635 516.552, 635 519.646 C 635 522.263, 639.560 528, 641.640 528 C 643.688 528, 642.892 535.875, 640.680 537.492 C 639.773 538.155, 639.362 539.028, 639.766 539.432 C 640.169 539.836, 640.050 540.056, 639.500 539.922 C 638.950 539.787, 637.233 540.200, 635.685 540.839 C 631.426 542.596, 630.356 542.317, 625.895 538.287 C 622.042 534.805, 621.703 534.686, 620.461 536.384 C 618.514 539.046, 621.265 544.497, 625.759 546.881 C 630.224 549.251, 643.168 546.700, 641.378 543.803 C 640.997 543.186, 641.141 542.969, 641.700 543.315 C 642.255 543.658, 643.715 542.868, 644.945 541.559 L 647.180 539.180 651.017 543.017 C 654.967 546.967, 660.994 549.057, 665.851 548.162 C 669.933 547.409, 676.200 540.611, 675.825 537.342 C 675.352 533.233, 672.648 533.237, 670.220 537.351 C 666.600 543.487, 660.562 543.233, 655.619 536.737 C 651.443 531.249, 651.406 528.853, 655.458 526.254 C 666.466 519.193, 653.763 505.776, 641.378 511.382 M 97.168 564.533 C 77.653 568.769, 59.940 583.703, 52.851 601.895 C 49.899 609.473, 49.146 625.995, 51.367 634.484 C 53.430 642.371, 52.237 643.164, 47.987 636.729 C 43.748 630.313, 40.060 619.927, 40.026 614.309 C 39.989 608.262, 38.531 608.244, 36.153 614.260 C 24.447 643.878, 29.857 671.321, 50.114 685.077 C 56.735 689.574, 57.178 690.093, 56.010 691.983 C 55.380 693.004, 54.801 693.084, 53.826 692.286 C 52.849 691.486, 52.133 691.598, 51.104 692.714 C 49.885 694.036, 49.979 694.141, 51.854 693.546 C 53.226 693.111, 54 693.293, 54 694.053 C 54 696.251, 42.980 694.573, 35.500 691.236 C 27.205 687.534, 26.855 687.939, 29.460 698.220 C 32.769 711.280, 41.157 724.175, 51.109 731.501 C 58.479 736.927, 59.999 737.140, 60.004 732.750 C 60.016 722.749, 65.354 700.297, 71.231 685.530 C 84.469 652.261, 103.696 630.397, 145.905 600.613 C 152.832 595.725, 158.686 591.564, 158.912 591.367 C 159.867 590.537, 156.820 585.920, 151.585 580.265 C 138.705 566.353, 117.297 560.164, 97.168 564.533 M 145.500 645.129 C 128.576 646.786, 116.748 651.971, 106.915 662.043 C 100.729 668.379, 96.982 674.316, 98.323 675.656 C 98.649 675.982, 101.297 674.534, 104.208 672.439 C 135.174 650.148, 169.105 650.591, 193 673.599 C 195.475 675.983, 197.945 677.951, 198.489 677.975 C 199.034 677.998, 199.484 678.801, 199.489 679.759 C 199.496 680.785, 200.116 681.363, 201 681.167 C 201.825 680.983, 202.166 681.167, 201.759 681.575 C 200.802 682.531, 202.947 685.151, 204.102 684.437 C 204.583 684.140, 204.737 684.522, 204.443 685.288 C 203.460 687.849, 206.986 689.740, 208.608 687.521 C 211.895 683.026, 208.157 674.401, 198.811 664.920 C 183.317 649.201, 166.745 643.049, 145.500 645.129 M 516.019 715.757 C 511.514 722.552, 505.745 728.961, 504.710 728.321 C 504.101 727.944, 504 728.191, 504.459 728.934 C 506.120 731.621, 486.974 747.965, 473.242 755.583 C 470.350 757.187, 467.721 759.321, 467.401 760.324 C 467.081 761.327, 463.372 765.635, 459.159 769.897 C 452.088 777.052, 443.250 782.659, 434.767 785.370 C 433.417 785.802, 433.162 786.649, 433.610 789.212 C 437.085 809.068, 446.015 826.709, 455 831.467 C 460.262 834.253, 479.317 837.583, 482.659 836.301 C 484.274 835.681, 484.544 822.561, 483.025 818.565 C 482.251 816.530, 482.354 816, 483.525 816 C 487.728 816, 490.531 822.853, 489.847 831.458 C 489.411 836.936, 488.562 836.611, 501.727 836 L 512.500 835.500 514.248 832 C 515.406 829.683, 516.003 826.134, 516.014 821.500 C 516.026 816.611, 516.323 814.952, 517 816 C 517.533 816.825, 517.992 817.050, 518.020 816.500 C 518.143 814.072, 520.933 820.822, 520.965 823.625 C 521.017 828.233, 519.883 833.046, 518.890 832.432 C 518.413 832.137, 518.291 832.594, 518.618 833.448 C 519.267 835.139, 521.726 835.460, 523.827 834.128 C 524.895 833.451, 524.927 832.442, 523.990 828.964 C 522.343 822.847, 523.542 816.881, 527.645 810.784 L 531.171 805.544 528.836 803.453 C 520.148 795.676, 519.690 792.740, 523.991 772.420 C 530.684 740.807, 531.078 736.088, 527.599 729.232 C 526.279 726.629, 523.967 721.688, 522.463 718.250 C 519.252 710.915, 519.233 710.907, 516.019 715.757 M 231.669 739 C 232.087 742.575, 232.444 746.920, 232.464 748.655 C 232.484 750.389, 232.906 751.558, 233.401 751.252 C 233.928 750.927, 234.079 755.082, 233.765 761.234 L 233.227 771.772 238.364 772.430 C 245.957 773.402, 254.923 776.046, 259.836 778.763 C 265.256 781.759, 265.627 781.374, 263.134 775.347 C 261.092 770.413, 257.798 759.818, 255.994 752.386 C 255.044 748.470, 254.779 748.242, 250.511 747.657 C 245.391 746.955, 238.994 743.271, 236.321 739.485 C 230.961 731.894, 230.837 731.881, 231.669 739 M 449 752.548 C 435.854 760.462, 419.854 763.979, 406 762 L 402.500 761.500 402.500 769.500 L 402.500 777.500 412 777.228 C 431.165 776.679, 441.123 773.558, 450.035 765.307 C 455.324 760.411, 456 759.350, 456 755.951 C 456 753.843, 456.450 751.840, 457 751.500 C 458.160 750.783, 458.360 747.992, 457.250 748.017 C 456.837 748.026, 453.125 750.065, 449 752.548 M 534.612 776.010 C 533.073 783.123, 531.969 789.352, 532.157 789.851 C 532.612 791.055, 539.855 799, 540.497 799 C 542.156 799, 539.658 765.325, 537.867 763.533 C 537.615 763.282, 536.151 768.896, 534.612 776.010 M 838.500 792.146 C 829.795 794.953, 810.237 798.731, 797.160 800.131 C 787.003 801.219, 785.733 801.573, 784.991 803.525 C 784.535 804.723, 782.213 807.226, 779.831 809.086 C 774.234 813.458, 773.200 814.808, 772.417 818.767 C 771.508 823.364, 773.539 827.644, 777.244 828.935 C 781.765 830.511, 781.895 830.375, 780.301 825.750 C 778.476 820.458, 779.860 814.793, 783.573 812.360 C 786.982 810.127, 787.638 811.259, 785.580 815.823 C 781.665 824.504, 786.257 831.428, 795.729 831.126 C 805.909 830.802, 812.329 826.919, 826.516 812.503 C 833.284 805.626, 839.458 800, 840.236 800 C 843.567 800, 848.419 791.210, 845.500 790.466 C 844.950 790.325, 841.800 791.081, 838.500 792.146" stroke="none" fill="black" fill-rule="evenodd"/>
</svg>