<svg xmlns="http://www.w3.org/2000/svg" width="1024" height="1024" viewBox="0 0 1024 1024" version="1.1">
	<path d="M 256.500 139.356 C 240.461 146.851, 228.646 173.303, 220.257 220.500 C 217.764 234.521, 217.588 237.490, 217.545 266 C 217.495 300.120, 218.465 309.430, 224.625 333.913 C 226.481 341.290, 228 348.373, 228 349.652 C 228 353.614, 224.579 361.251, 217.661 372.733 C 183.542 429.361, 180.019 462.770, 207.834 465.924 C 210.950 466.278, 213.404 467.002, 213.287 467.533 C 213.170 468.065, 211.942 471.650, 210.558 475.500 C 205.086 490.724, 209.182 504.124, 220.035 506.508 C 221.653 506.863, 223.242 507.583, 223.567 508.108 C 224.209 509.148, 220.226 516.634, 213.348 527.313 C 210.934 531.060, 209.263 534.617, 209.634 535.217 C 210.019 535.840, 209.850 536.025, 209.240 535.648 C 208.648 535.283, 207.149 536.640, 205.883 538.689 C 202.582 544.030, 189.461 560.791, 184.773 565.657 C 182.244 568.281, 181.051 570.274, 181.538 571.061 C 181.992 571.797, 181.900 572.056, 181.313 571.693 C 180.174 570.990, 173.694 577.273, 174.482 578.316 C 174.767 578.692, 174.715 578.790, 174.366 578.533 C 174.017 578.276, 172.645 578.921, 171.315 579.967 L 168.898 581.868 162.626 574.684 C 151.159 561.552, 137.757 554.302, 120.574 551.936 C 97.401 548.745, 68.875 559.563, 56.203 576.348 C 53.374 580.094, 51.240 581.902, 49.155 582.319 C 40.314 584.087, 25.995 604.454, 21.493 621.663 C 16.460 640.900, 17.683 657.652, 25.479 676.246 C 26.112 677.757, 25.788 677.908, 23.078 677.366 C 11.717 675.093, 14.317 701.770, 27.491 722.627 C 31.926 729.650, 39.943 738.154, 41.323 737.301 C 41.865 736.965, 42.019 737.160, 41.664 737.734 C 40.565 739.513, 53.534 748, 57.351 748 C 58.465 748, 58.938 750.488, 59.487 759.250 C 62.220 802.797, 83.257 834.831, 115.536 844.597 L 124.500 847.309 192.699 848.273 C 261.658 849.248, 282.141 848.655, 280.336 845.734 C 279.957 845.122, 280.175 844.990, 280.864 845.416 C 282.407 846.370, 289.206 842.142, 288.352 840.760 C 287.988 840.172, 288.150 839.975, 288.712 840.322 C 290.617 841.499, 293.738 836.411, 294.890 830.250 C 294.967 829.837, 295.361 829.983, 295.765 830.573 C 296.169 831.162, 299.113 833.756, 302.306 836.336 C 317.865 848.909, 336.745 853.939, 368.526 853.980 C 392.576 854.012, 404.075 851.966, 411.759 846.291 C 423.255 837.801, 422.026 816.235, 409.415 805.135 C 405.172 801.400, 404.912 800.860, 404.327 794.599 L 403.711 788 411.355 787.850 C 415.560 787.768, 419.546 787.655, 420.213 787.600 C 420.963 787.538, 422.503 792.087, 424.242 799.500 C 430.655 826.836, 441.286 840.533, 460.130 845.740 C 470.908 848.718, 517.672 847.961, 527.500 844.650 C 532.526 842.956, 534.341 842.919, 538.125 844.433 C 540.394 845.341, 542.490 845.844, 542.783 845.551 C 543.076 845.257, 543.829 845.443, 544.456 845.964 C 546.535 847.689, 564.190 849.245, 573.779 848.549 C 589.001 847.443, 602.069 842.239, 611.968 833.339 C 617.839 828.060, 617.644 828.069, 619.623 833.016 C 624.714 845.740, 642.631 852.295, 672.500 852.362 C 691.611 852.405, 699.349 850.657, 713 843.213 C 725.199 836.561, 747.723 816.373, 755.204 805.387 C 757.429 802.118, 757.708 802.013, 764.250 802.007 C 771.886 801.999, 772.244 802.444, 767.908 806.563 C 761.324 812.819, 759.234 821.838, 762.538 829.746 C 769.531 846.482, 802.786 848.501, 821.327 833.315 C 824.562 830.666, 826 830.387, 826 832.408 C 826 833.183, 827.947 835.820, 830.328 838.269 C 841.642 849.911, 875.827 852.127, 897.339 842.613 C 923.198 831.178, 946.703 803.065, 957.501 770.660 C 964.074 750.936, 965.401 742.062, 965.453 717.500 C 965.507 692.122, 963.064 677.573, 955.393 657.581 C 955.069 656.738, 955.915 655.997, 957.690 655.569 C 959.236 655.196, 964.570 652.926, 969.544 650.523 C 1008.816 631.558, 1023.080 579.149, 1004.449 522.275 C 985.164 463.403, 943.581 433.349, 906.469 451.461 C 889.704 459.644, 880.631 475.471, 880.653 496.500 C 880.673 516.326, 885.260 525.689, 910.540 557.500 C 923.899 574.310, 925.513 577.882, 925.451 590.500 C 925.424 596, 924.867 601.752, 924.213 603.283 L 923.024 606.066 914.262 598.646 C 898.729 585.493, 883.760 577.279, 862.133 570.044 C 849.808 565.921, 833.210 562, 828.079 562 C 825.505 562, 825.220 561.473, 822.002 550.750 C 818.363 538.623, 812.223 522.020, 806.934 510 C 802.865 500.752, 802.765 496.701, 806.282 483.500 C 815.956 447.190, 816.232 405.303, 806.888 391.498 C 799.336 380.341, 782.567 381.602, 750.266 395.758 C 744.294 398.375, 740.298 400.673, 740.670 401.276 C 741.032 401.861, 740.824 402.009, 740.190 401.617 C 738.308 400.455, 711.011 416.846, 705.272 422.585 C 704.494 423.363, 703.552 424.006, 703.179 424.012 C 702.805 424.019, 700.504 425.879, 698.063 428.145 L 693.627 432.264 685.063 430.882 C 668.370 428.188, 631.737 429.710, 621.836 433.509 C 620.682 433.952, 620.024 432.088, 618.704 424.643 C 616.356 411.389, 611.980 398.796, 603.935 382.143 C 600.121 374.246, 597 367.315, 597 366.740 C 597 366.164, 598.406 362.725, 600.124 359.097 C 630.922 294.057, 633.674 178.273, 605.149 147.657 C 595.024 136.789, 575.528 136.419, 552.698 146.659 C 541.947 151.482, 521.487 163.790, 513.500 170.239 C 512.950 170.683, 509.575 173.336, 506 176.135 C 491.741 187.299, 472.047 206.874, 462.935 218.940 L 460.370 222.336 453.435 220.583 C 426.271 213.716, 395.143 212.599, 367.851 217.513 C 363.258 218.340, 357.686 219.285, 355.469 219.614 L 351.439 220.212 346.049 211.356 C 338.612 199.137, 327.892 184, 326.675 184 C 326.120 184, 325.949 183.717, 326.295 183.372 C 327.096 182.570, 320.021 173.869, 319.055 174.466 C 318.658 174.711, 318.333 174.275, 318.333 173.496 C 318.333 171.484, 310.742 163.121, 309.301 163.545 C 308.641 163.739, 308.329 163.306, 308.607 162.581 C 309.202 161.031, 296.927 149.509, 289.179 144.345 C 277.885 136.818, 265.860 134.982, 256.500 139.356 M 261.370 150.440 C 259.649 151.190, 257.935 152.297, 257.561 152.901 C 257.188 153.506, 256.432 154, 255.882 154 C 255.332 154, 255.203 153.480, 255.595 152.845 C 256.041 152.124, 255.869 151.963, 255.138 152.415 C 254.494 152.813, 254.199 153.513, 254.482 153.971 C 254.765 154.429, 253.483 157.053, 251.633 159.802 C 241.902 174.262, 233.174 207.052, 229.885 241.500 C 228.372 257.360, 229.295 294.227, 231.539 307.500 C 232.469 313, 233.274 318.288, 233.329 319.250 C 233.486 322.002, 235.710 321.294, 236.470 318.250 C 238.522 310.024, 250.455 287.440, 258.167 277.184 C 266.276 266.400, 283.315 250.933, 295.500 243.295 C 300.829 239.955, 321.827 229.772, 326 228.504 C 332.986 226.382, 339 223.740, 339 222.793 C 339 221.039, 324.150 199.293, 315.608 188.539 C 311.223 183.018, 302.426 173.325, 296.059 167 C 279.785 150.832, 270.574 146.435, 261.370 150.440 M 572.500 152.020 C 559.434 154.636, 531.295 170.275, 514.071 184.494 C 495.755 199.615, 479.571 215.903, 468.112 230.750 C 464.209 235.807, 464.424 235.792, 449.371 232.046 C 411.680 222.666, 365.038 225.695, 327.671 239.949 C 303.455 249.187, 279.418 266.851, 266.589 284.837 C 264.988 287.082, 263.231 288.642, 262.684 288.305 C 262.129 287.962, 262.003 288.196, 262.399 288.837 C 262.789 289.467, 261.821 291.899, 260.248 294.242 C 252.262 306.135, 243.294 328.551, 240.541 343.500 C 237.555 359.723, 236.134 363.186, 222.779 386.805 C 203.432 421.021, 196.621 443.798, 203.385 451.662 C 205.586 454.220, 206.527 454.490, 215.534 455.149 C 228.842 456.122, 229.329 457.189, 223.356 472.288 C 219.236 482.702, 218.302 491.724, 221.057 494.483 C 223.438 496.868, 233.098 498.063, 241.337 496.993 C 252.909 495.489, 258.448 495.733, 260.345 497.829 C 262.624 500.347, 262.516 500.754, 258.188 505.936 C 245.160 521.536, 238.306 538.239, 242.380 544.458 C 245.019 548.485, 248.153 548.631, 254.460 545.023 C 261.084 541.233, 261.948 542.067, 259.598 549.981 C 251.856 576.051, 261.775 615.990, 280.946 635.944 C 285.600 640.788, 287.387 640.783, 287.770 635.923 C 288.221 630.204, 288.969 628, 290.460 628 C 292.475 628, 292.822 628.842, 294.533 637.863 C 299.576 664.447, 312.473 687.152, 329.240 698.964 C 338.541 705.517, 339.070 705.470, 338.753 698.107 C 338.614 694.865, 338.127 692.438, 337.672 692.714 C 337.217 692.989, 337.004 691.581, 337.198 689.585 C 337.392 687.589, 337.990 686.079, 338.526 686.228 C 339.062 686.378, 339.388 686.837, 339.250 687.250 C 339.113 687.662, 339.442 687.887, 339.983 687.750 C 341.042 687.480, 350.188 706.404, 350.338 709.177 C 350.388 710.099, 350.733 710.665, 351.105 710.435 C 352.192 709.763, 355.152 714.945, 354.387 716.183 C 353.982 716.838, 354.138 717.033, 354.760 716.648 C 355.348 716.285, 356.736 717.453, 357.844 719.244 C 365.928 732.308, 385.768 745.423, 403.759 749.597 C 410.627 751.190, 432.308 751.310, 431.345 749.750 C 431.090 749.337, 431.471 748.998, 432.191 748.996 C 437.347 748.979, 458.056 735.556, 471.280 723.659 C 483.665 712.518, 483.107 715.859, 468.644 739.441 C 462.481 749.489, 463.568 750.184, 474.259 743.033 C 491.226 731.685, 518.377 700.655, 515.464 695.941 C 512.973 691.911, 511.136 654.830, 512.953 645.250 C 513.902 640.243, 513.892 640.212, 509.800 635.910 C 489.931 615.024, 488.384 590.049, 504.261 546.469 C 507.272 538.202, 511.596 527.488, 513.868 522.660 C 516.141 517.832, 518.010 513.571, 518.022 513.191 C 518.034 512.811, 518.924 511.375, 520 510 C 522.390 506.944, 522.509 503.885, 520.396 499.800 C 513.803 487.050, 509.775 462.073, 509.623 433 C 509.481 405.828, 510.623 400.800, 518.349 394.593 C 523.938 390.102, 536.920 390.165, 551.258 394.752 C 567.901 400.076, 589.807 411.223, 601.144 420.135 C 603.148 421.711, 605.065 423, 605.403 423 C 607.563 423, 602.806 407.862, 595.916 392.808 C 588.119 375.773, 581.943 360.426, 581.307 356.503 C 580.595 352.117, 582.349 351.841, 584.500 356 C 586.349 359.576, 587.611 359.809, 588.572 356.750 C 588.961 355.512, 590.309 352.250, 591.568 349.500 C 606.494 316.894, 615.617 255.999, 612.118 212.330 C 608.166 163.016, 597.638 146.988, 572.500 152.020 M 493.623 237.259 C 490.802 239.362, 492.860 242.239, 500.263 246.540 C 510.247 252.341, 513.182 254.231, 519.522 258.940 C 532.237 268.384, 545.037 282.369, 552.525 295 C 554.644 298.575, 556.630 301.725, 556.939 302 C 557.248 302.275, 558.749 305.121, 560.276 308.325 C 563.182 314.423, 564.654 315.026, 566.699 310.957 C 567.563 309.239, 568.017 308.981, 568.321 310.036 C 569.304 313.436, 573.061 327.865, 574.106 332.250 C 575.235 336.991, 576.610 338.563, 576.730 335.250 C 577.405 316.533, 563.848 287.208, 545.045 266.716 C 528.285 248.451, 500.196 232.360, 493.623 237.259 M 437.455 283.455 C 432.446 288.463, 434.633 290.994, 448.322 296.026 C 460.794 300.610, 461.323 300.677, 464 298 C 466.009 295.991, 466.861 291.350, 465.011 292.493 C 464.468 292.829, 464.256 292.496, 464.541 291.754 C 465.379 289.571, 460.663 285.993, 453.542 283.407 C 444.902 280.271, 440.625 280.284, 437.455 283.455 M 304.500 284.399 C 292.478 288.201, 286.642 295.249, 291.085 300.602 C 292.993 302.901, 296.356 302.234, 306.441 297.553 C 316.293 292.980, 317.638 291.676, 316.632 287.669 C 315.588 283.512, 311.116 282.306, 304.500 284.399 M 447.139 327.147 C 431.464 331.658, 421.144 349.624, 423.991 367.446 C 425.031 373.951, 428.642 383, 430.199 383 C 430.640 383, 431.001 383.563, 431.002 384.250 C 431.004 386.122, 438.255 392.579, 443.175 395.091 C 447.773 397.439, 459.485 398.868, 462.690 397.471 C 463.685 397.037, 464.878 396.767, 465.340 396.871 C 467.312 397.314, 476.791 391.842, 480.147 388.324 C 487.300 380.823, 489.485 374.902, 489.493 363 C 489.499 353.512, 489.220 351.894, 486.595 346.209 C 479.606 331.073, 462.394 322.758, 447.139 327.147 M 283.906 329.988 C 264.429 340.283, 260.626 370.722, 276.798 386.893 C 283.178 393.273, 288.208 395.761, 296.434 396.603 C 301.658 397.139, 302.984 397.599, 302.551 398.727 C 302.247 399.520, 301.715 403.218, 301.368 406.947 C 298.935 433.124, 320.696 458.016, 345 456.858 C 350.507 456.596, 350.440 456.462, 349.016 464.903 C 345.421 486.217, 359.988 505, 380.113 505 C 383.279 505, 386.912 504.604, 388.185 504.120 C 389.458 503.636, 390.725 503.262, 391 503.289 C 392.005 503.388, 396.595 500.599, 400.257 497.665 C 407.975 491.480, 413.794 478.266, 414.740 464.773 C 415.189 458.378, 415.606 456.943, 417.156 456.451 C 418.186 456.124, 418.774 455.444, 418.463 454.939 C 418.151 454.435, 418.624 454.302, 419.513 454.643 C 424.090 456.400, 441.579 440.402, 446.999 429.502 C 450.518 422.426, 450.733 419.733, 448 417 C 443.752 412.752, 438.753 415.343, 437.682 422.347 C 436.433 430.516, 424.933 441.494, 412.600 446.289 C 409.225 447.601, 404.118 448.431, 397.500 448.742 C 382.394 449.453, 373.160 446.496, 363.053 437.711 L 359.606 434.715 358.701 437.108 C 357.006 441.588, 356.290 442.500, 352.894 444.495 C 350.490 445.908, 347.750 446.478, 343.500 446.450 C 318.177 446.281, 302.504 409.329, 318.749 388.095 C 320.610 385.664, 321.536 383.205, 321.610 380.500 C 321.670 378.300, 322.275 374.475, 322.954 372 C 327.061 357.028, 318.007 336.454, 304.522 330.115 C 298.653 327.357, 288.997 327.297, 283.906 329.988 M 443.048 338.750 C 438.978 343.677, 437.470 349.144, 439.206 352.679 C 443.716 361.866, 452.691 355.685, 453.137 343.084 C 453.445 334.385, 448.433 332.231, 443.048 338.750 M 286.253 338.441 C 281.405 342.520, 279.708 350.762, 282.870 354.874 C 284.607 357.132, 293.774 359.061, 292.429 356.885 C 292.147 356.429, 292.652 354.935, 293.550 353.564 C 294.448 352.193, 295.424 348.421, 295.717 345.181 C 296.203 339.822, 296.039 339.141, 293.903 337.645 C 290.767 335.448, 289.675 335.561, 286.253 338.441 M 461.733 375.750 C 458.845 378.955, 458.599 382.549, 461.109 384.887 C 465.764 389.224, 472 386.713, 472 380.500 C 472 374.622, 465.471 371.602, 461.733 375.750 M 302.626 376.330 C 299.524 378.692, 298.922 382.582, 301.317 384.781 C 304.883 388.055, 310 384.744, 310 379.164 C 310 376.595, 304.868 374.623, 302.626 376.330 M 345.316 382.374 C 328.154 386.710, 321.639 401.894, 331.063 415.592 C 342.675 432.470, 360.879 433.251, 376.584 417.546 C 385.125 409.006, 386.761 403.270, 382.921 395.337 C 377.747 384.649, 360.222 378.608, 345.316 382.374 M 349.325 386.072 C 342.853 386.937, 336.608 389.917, 336.156 392.356 C 335.546 395.650, 337.430 396.273, 342.630 394.498 C 349.779 392.057, 361.373 392.169, 367.150 394.735 C 370.532 396.236, 372.101 396.499, 372.900 395.700 C 378.453 390.147, 363.753 384.144, 349.325 386.072 M 777 398.481 C 754.725 404.715, 721.384 423.198, 700.235 441.036 L 692.969 447.163 688.735 445.130 C 677.613 439.791, 646.499 439.771, 623.845 445.090 L 615.016 447.163 607.258 440.517 C 602.991 436.861, 599.500 433.487, 599.500 433.019 C 599.500 432.550, 599.090 431.792, 598.590 431.333 C 598.061 430.849, 597.981 431.024, 598.399 431.750 C 599.602 433.840, 598.453 433.252, 588.124 426.484 C 568.600 413.691, 544.223 403.730, 532.074 403.580 C 522.460 403.460, 521.607 405.291, 521.160 427 C 520.628 452.849, 524.361 476.472, 531.722 493.841 L 535.258 502.182 531.030 511.841 C 497.535 588.364, 496.918 611.458, 527.694 636.529 C 533.801 641.503, 533.590 642.690, 527.428 638.028 C 525.268 636.393, 523.132 635.043, 522.683 635.028 C 521.495 634.987, 522.861 639.065, 525.094 642.222 C 526.341 643.986, 526.541 644.761, 525.661 644.424 C 523.716 643.677, 522.831 657.198, 523.975 670.205 C 527.178 706.628, 536.736 729.142, 557.644 749.514 C 565.438 757.108, 567.071 759.202, 566.529 760.909 C 565.260 764.907, 559.700 762.998, 550.250 755.320 C 547.913 753.420, 546 752.091, 546 752.365 C 546 752.640, 547.411 758.183, 549.136 764.682 C 551.912 775.145, 552.278 778.106, 552.333 790.500 C 552.407 807.494, 551.992 808.554, 545.002 809.226 C 534.095 810.274, 527.150 824.404, 534.278 831.044 C 537.818 834.342, 538.709 833.541, 538.209 827.512 C 537.877 823.499, 538.197 821.349, 539.400 819.512 C 541.959 815.606, 542.905 816.519, 542.307 822.316 C 541.348 831.608, 544.649 835.480, 554.082 836.125 C 558.236 836.409, 558.488 836.280, 558.301 833.963 C 557.421 823.103, 558.176 820.042, 562.273 817.859 C 564.360 816.747, 564.406 816.789, 563 818.524 C 561.640 820.201, 561.664 820.313, 563.253 819.717 C 564.898 819.101, 564.906 819.214, 563.371 821.557 C 561.383 824.590, 562.120 832.370, 564.660 835.177 C 567.676 838.510, 582.201 837.148, 591.898 832.624 C 601.483 828.151, 613.536 817.456, 622.386 805.569 L 626.057 800.637 617.779 797.499 C 596.238 789.334, 584.134 778.824, 572.288 758 C 569.635 753.335, 563 737.959, 563 736.474 C 563 734.191, 567.162 736.980, 570 741.164 C 571.925 744.003, 573.950 746.815, 574.500 747.415 C 578.344 751.606, 582.846 758.440, 582.322 759.288 C 581.973 759.852, 582.180 760.007, 582.784 759.634 C 583.401 759.252, 585.425 760.986, 587.438 763.623 C 589.397 766.189, 591 767.963, 591 767.567 C 591 767.170, 592.462 768.311, 594.250 770.102 C 608.629 784.508, 647.965 797.217, 655.060 789.750 C 662.411 782.012, 672.460 766.437, 679.174 752.374 C 684.987 740.198, 687.134 739.615, 685.131 750.755 C 682.625 764.691, 672.815 787.500, 669.326 787.500 C 668.689 787.500, 667.792 787.910, 667.333 788.410 C 666.849 788.939, 667.024 789.019, 667.750 788.601 C 672.765 785.715, 662.164 796.984, 655 802.155 C 653.075 803.544, 648.277 805.654, 644.337 806.843 C 630.709 810.956, 624.506 824.025, 632.571 831.632 C 635.972 834.839, 641.566 836.620, 639.226 833.750 C 638.665 833.063, 637.662 830.664, 636.996 828.420 C 635.609 823.744, 638.132 817.070, 642.089 814.952 C 645.072 813.356, 645.244 814.112, 642.913 818.568 C 641.311 821.630, 640.969 823.685, 641.366 827.853 C 642.147 836.039, 645.480 838.449, 658.075 839.934 L 663.853 840.616 662.315 837.642 C 659.013 831.257, 662.290 821.237, 668.399 819.042 C 672.190 817.680, 672.475 817.723, 671.049 819.441 C 670.392 820.233, 669.099 820.640, 668.177 820.346 C 666.880 819.933, 666.807 820.031, 667.855 820.780 C 668.979 821.583, 668.921 822.191, 667.516 824.336 C 665.244 827.803, 665.215 835.153, 667.460 838.579 L 669.235 841.288 679.367 840.694 C 698.983 839.544, 711.815 833.208, 729.975 815.705 C 746.098 800.163, 755.593 787.219, 770.979 759.799 C 775.271 752.150, 777.619 749.843, 778.574 752.333 C 779.376 754.422, 773.249 770.717, 767.913 780.690 C 765.208 785.744, 763.369 790.110, 763.825 790.392 C 767.345 792.567, 812.876 786.963, 833.839 781.774 C 843.170 779.464, 842.618 780.615, 839.486 770 C 836.625 760.306, 839.347 741.490, 843.969 739.017 C 846.661 737.576, 846.903 738.489, 846.302 747.846 C 845.426 761.485, 849.814 775.043, 857.757 783.236 L 861.379 786.973 859.028 792.736 C 852.627 808.428, 852.667 808.368, 847.401 810.277 C 840.912 812.631, 837.773 816.693, 837.211 823.463 C 836.716 829.439, 838.829 831.970, 846.142 834.161 C 850.690 835.523, 851.602 834.994, 849.967 831.939 C 848.358 828.933, 849.311 821.427, 851.632 818.821 C 853.896 816.280, 859.020 814, 862.468 814 C 866.026 814, 865.620 815.533, 861.768 816.638 C 855.442 818.452, 851.786 828.394, 855.497 833.692 C 859.053 838.769, 881.218 837.291, 894.500 831.091 C 916.337 820.897, 938.657 792.486, 946.918 764.369 C 958.785 723.981, 955.444 681.381, 937.791 648 C 932.688 638.351, 922.946 624.060, 919.109 620.595 C 916.887 618.588, 916.183 616.377, 918.155 617.595 C 918.876 618.041, 919.037 617.869, 918.585 617.138 C 918.187 616.494, 917.503 616.189, 917.065 616.460 C 915.922 617.166, 912.847 613.502, 913.748 612.509 C 914.162 612.052, 914.043 611.938, 913.483 612.254 C 912.924 612.571, 910.899 611.503, 908.983 609.881 C 895.629 598.579, 882.038 590.570, 864.403 583.611 C 854.021 579.514, 830.084 573.502, 828.926 574.701 C 828.502 575.140, 828.618 577.975, 829.185 581 C 830.532 588.182, 829.641 599.044, 827.112 606.272 C 824.732 613.075, 819.146 621.270, 817.358 620.584 C 816.626 620.303, 816.312 620.650, 816.606 621.415 C 816.968 622.358, 816.028 622.727, 813.269 622.727 C 811.156 622.727, 807.940 623.497, 806.121 624.437 C 801.366 626.896, 801.514 626.272, 807.533 618.504 C 821.165 600.907, 821.157 586.197, 807.493 545.500 C 804.539 536.700, 800.022 524.550, 797.457 518.500 C 788.922 498.368, 789.300 499.963, 791.365 492.798 C 801.458 457.782, 804.465 408.944, 797.139 399 C 794.612 395.569, 788.011 395.399, 777 398.481 M 361.773 456.661 C 351.880 478.491, 368.992 501.512, 388.784 492.998 C 397.682 489.170, 404.894 475.806, 404.973 463 L 404.994 459.500 392.221 459.498 C 379.623 459.495, 379.352 459.447, 372.474 455.998 C 368.638 454.074, 365.155 452.347, 364.733 452.161 C 364.311 451.975, 362.979 454, 361.773 456.661 M 918.407 459.343 C 913.076 460.704, 908.058 463.409, 904.237 466.985 C 902.992 468.149, 901.460 468.785, 900.833 468.397 C 900.115 467.953, 899.966 468.136, 900.432 468.889 C 901.356 470.386, 899.145 473.208, 897.732 472.334 C 897.160 471.981, 896.977 472.154, 897.327 472.719 C 897.676 473.285, 896.795 476.617, 895.369 480.124 C 890.829 491.283, 892.006 507.194, 898.287 519.573 C 901.487 525.882, 916.270 545.972, 922.754 552.825 C 925.304 555.521, 929.850 562.698, 933.316 569.501 C 939.962 582.548, 940.201 595.563, 934.035 608.738 C 930.248 616.832, 930.163 616, 935.437 622.475 C 937.877 625.471, 942.245 631.803, 945.143 636.545 C 950.199 644.819, 950.533 645.143, 953.416 644.567 C 960.024 643.245, 971.323 636.590, 977.899 630.146 C 981.530 626.589, 984.950 623.788, 985.500 623.922 C 986.050 624.057, 986.180 623.847, 985.789 623.456 C 985.399 623.065, 986.457 620.743, 988.141 618.295 C 995.704 607.302, 999.948 590.700, 999.974 572 C 1000.029 533.365, 985.469 496.922, 960.422 473 C 956.103 468.875, 952.634 465.259, 952.713 464.964 C 952.792 464.670, 952.102 464.381, 951.179 464.322 C 950.255 464.264, 946.662 463.014, 943.192 461.545 C 935.655 458.353, 925.740 457.473, 918.407 459.343 M 702 483.652 C 695.595 485.762, 690.912 489.480, 691.667 491.856 C 692.069 493.125, 691.969 493.193, 691.228 492.158 C 689.800 490.162, 686.282 495.588, 684.936 501.861 C 682.350 513.919, 690.938 527.334, 702.866 529.869 C 720.932 533.707, 736.784 515.709, 730.053 499 C 725.492 487.676, 712.071 480.334, 702 483.652 M 583.500 486.368 C 577.620 489.130, 575.821 490.968, 573.077 497.018 C 564.181 516.630, 583.854 537.658, 602.339 528.294 C 610.731 524.044, 615.011 517.101, 614.978 507.790 C 614.917 490.178, 598.775 479.193, 583.500 486.368 M 601.080 505.750 C 597.850 508.390, 597.326 513.874, 599.982 517.250 C 602.987 521.071, 607.028 520.944, 610.411 516.923 C 614.328 512.268, 613.771 507.967, 608.928 505.463 C 605.250 503.561, 603.689 503.618, 601.080 505.750 M 715.495 506.414 C 710.297 511.612, 714.029 520.720, 720.895 519.594 C 722.878 519.269, 724.987 518.927, 725.583 518.835 C 727.044 518.608, 727.869 510.511, 726.917 505.750 C 726.408 503.208, 718.225 503.684, 715.495 506.414 M 236.404 512.250 C 224.633 531.338, 219.162 539.798, 212.644 549 C 193.213 576.428, 177.692 591.567, 145.071 614.909 C 137.839 620.083, 131.683 624.703, 131.392 625.175 C 131.100 625.647, 130.432 625.767, 129.906 625.442 C 129.381 625.117, 129.074 625.258, 129.225 625.756 C 129.376 626.253, 126.181 629.549, 122.124 633.080 C 113.732 640.385, 101.653 654.383, 95.394 664.058 C 59.030 720.268, 63.467 798.769, 104.609 827.075 C 116.042 834.941, 124.876 836.391, 162.500 836.575 C 180.100 836.661, 203.050 836.809, 213.500 836.905 C 223.950 837.001, 233.788 837.062, 235.363 837.040 L 238.226 837 237.834 830.061 C 237.499 824.144, 237.651 823.296, 238.865 824.303 C 240.047 825.284, 240.168 825.105, 239.577 823.242 C 238.528 819.938, 240.670 820.461, 242.474 823.950 C 243.313 825.573, 244 829.173, 244 831.950 L 244 837 255.051 837 L 266.102 837 267.686 833.250 C 268.988 830.169, 269.094 828.252, 268.284 822.500 C 267.171 814.599, 267.152 814.737, 269.280 815.554 C 272.350 816.732, 274.285 822.855, 273.739 829.662 C 273.175 836.686, 273.616 837.076, 279.722 834.947 C 286.915 832.440, 287.861 822.462, 281.873 812.252 C 267.291 787.387, 234.975 776.448, 208.130 787.292 C 202.925 789.394, 196.793 792.715, 185.500 799.547 C 180.480 802.584, 180.167 802.577, 180.767 799.441 C 181.439 795.924, 190.207 786.569, 196.760 782.377 C 203.042 778.358, 208.105 776.213, 216.462 774.028 C 222.433 772.466, 222.454 772.448, 223.292 767.981 C 225.037 758.675, 222.067 727.113, 218.002 711.766 C 216.943 707.770, 215.777 703.375, 215.410 702 C 214.014 696.764, 218.559 703.231, 222.087 711.500 L 225.500 719.500 226.103 706 C 226.434 698.575, 226.997 691.263, 227.353 689.750 C 227.709 688.237, 228.251 685.805, 228.558 684.344 C 229.697 678.925, 231.795 684.320, 233.481 697 C 237.304 725.763, 241.699 734.941, 252.490 736.692 C 255.973 737.257, 256 737.233, 256 733.565 C 256 727.073, 260.270 722.921, 261.467 728.250 C 267.223 753.878, 268.779 759.384, 273.916 772.298 C 288.062 807.864, 307.246 830.873, 328.500 837.767 C 335.866 840.157, 356.746 843.587, 357.761 842.574 C 358.755 841.582, 358.636 830.306, 357.589 826.250 C 356.909 823.616, 357.045 823, 358.307 823 C 361.597 823, 364.498 829.061, 364.528 836 L 364.556 842.500 374.178 842.785 C 386.947 843.163, 388.298 841.825, 387.817 829.277 C 387.467 820.142, 388.305 819.044, 392.034 823.750 C 394.113 826.373, 394.472 833.408, 392.861 839.968 C 392.414 841.788, 397.835 841.500, 402.786 839.439 C 412.231 835.509, 410.783 819.503, 400.255 811.472 C 393.970 806.677, 394.052 807.020, 392.766 780.431 L 391.650 757.354 385.954 755.145 C 374.510 750.708, 353.752 734.829, 355.563 731.898 C 355.885 731.377, 355.600 731.074, 354.929 731.225 C 354.259 731.376, 351.413 728.081, 348.605 723.902 C 343.703 716.605, 343.265 716.235, 337.570 714.597 C 317.479 708.818, 296.399 684.374, 288.904 658.165 C 287.892 654.626, 286.937 651.679, 286.782 651.615 C 261.227 641.158, 241.845 597.678, 247.216 562.855 L 247.933 558.210 244.216 557.564 C 237.652 556.424, 234.982 554.825, 232.462 550.525 C 228.062 543.017, 229.780 531.749, 237.552 517.137 C 242.615 507.617, 242.491 508, 240.513 508 C 239.694 508, 237.846 509.913, 236.404 512.250 M 641.378 511.382 C 637.708 513.044, 635 516.552, 635 519.646 C 635 522.263, 639.560 528, 641.640 528 C 643.688 528, 642.892 535.875, 640.680 537.492 C 639.773 538.155, 639.362 539.028, 639.766 539.432 C 640.169 539.836, 640.050 540.056, 639.500 539.922 C 638.950 539.787, 637.233 540.200, 635.685 540.839 C 631.426 542.596, 630.356 542.317, 625.895 538.287 C 622.042 534.805, 621.703 534.686, 620.461 536.384 C 618.514 539.046, 621.265 544.497, 625.759 546.881 C 630.224 549.251, 643.168 546.700, 641.378 543.803 C 640.997 543.186, 641.141 542.969, 641.700 543.315 C 642.255 543.658, 643.715 542.868, 644.945 541.559 L 647.180 539.180 651.017 543.017 C 654.967 546.967, 660.994 549.057, 665.851 548.162 C 669.933 547.409, 676.200 540.611, 675.825 537.342 C 675.352 533.233, 672.648 533.237, 670.220 537.351 C 666.600 543.487, 660.562 543.233, 655.619 536.737 C 651.443 531.249, 651.406 528.853, 655.458 526.254 C 666.466 519.193, 653.763 505.776, 641.378 511.382 M 97.168 564.533 C 77.653 568.769, 59.940 583.703, 52.851 601.895 C 49.899 609.473, 49.146 625.995, 51.367 634.484 C 53.430 642.371, 52.237 643.164, 47.987 636.729 C 43.748 630.313, 40.060 619.927, 40.026 614.309 C 39.989 608.262, 38.531 608.244, 36.153 614.260 C 24.447 643.878, 29.857 671.321, 50.114 685.077 C 56.735 689.574, 57.178 690.093, 56.010 691.983 C 55.380 693.004, 54.801 693.084, 53.826 692.286 C 52.849 691.486, 52.133 691.598, 51.104 692.714 C 49.885 694.036, 49.979 694.141, 51.854 693.546 C 53.226 693.111, 54 693.293, 54 694.053 C 54 696.251, 42.980 694.573, 35.500 691.236 C 27.205 687.534, 26.855 687.939, 29.460 698.220 C 32.769 711.280, 41.157 724.175, 51.109 731.501 C 58.479 736.927, 59.999 737.140, 60.004 732.750 C 60.016 722.749, 65.354 700.297, 71.231 685.530 C 84.469 652.261, 103.696 630.397, 145.905 600.613 C 152.832 595.725, 158.686 591.564, 158.912 591.367 C 159.867 590.537, 156.820 585.920, 151.585 580.265 C 138.705 566.353, 117.297 560.164, 97.168 564.533 M 145.500 645.129 C 128.576 646.786, 116.748 651.971, 106.915 662.043 C 100.729 668.379, 96.982 674.316, 98.323 675.656 C 98.649 675.982, 101.297 674.534, 104.208 672.439 C 135.174 650.148, 169.105 650.591, 193 673.599 C 195.475 675.983, 197.945 677.951, 198.489 677.975 C 199.034 677.998, 199.484 678.801, 199.489 679.759 C 199.496 680.785, 200.116 681.363, 201 681.167 C 201.825 680.983, 202.166 681.167, 201.759 681.575 C 200.802 682.531, 202.947 685.151, 204.102 684.437 C 204.583 684.140, 204.737 684.522, 204.443 685.288 C 203.460 687.849, 206.986 689.740, 208.608 687.521 C 211.895 683.026, 208.157 674.401, 198.811 664.920 C 183.317 649.201, 166.745 643.049, 145.500 645.129 M 516.019 715.757 C 511.514 722.552, 505.745 728.961, 504.710 728.321 C 504.101 727.944, 504 728.191, 504.459 728.934 C 506.120 731.621, 486.974 747.965, 473.242 755.583 C 470.350 757.187, 467.721 759.321, 467.401 760.324 C 467.081 761.327, 463.372 765.635, 459.159 769.897 C 452.088 777.052, 443.250 782.659, 434.767 785.370 C 433.417 785.802, 433.162 786.649, 433.610 789.212 C 437.085 809.068, 446.015 826.709, 455 831.467 C 460.262 834.253, 479.317 837.583, 482.659 836.301 C 484.274 835.681, 484.544 822.561, 483.025 818.565 C 482.251 816.530, 482.354 816, 483.525 816 C 487.728 816, 490.531 822.853, 489.847 831.458 C 489.411 836.936, 488.562 836.611, 501.727 836 L 512.500 835.500 514.248 832 C 515.406 829.683, 516.003 826.134, 516.014 821.500 C 516.026 816.611, 516.323 814.952, 517 816 C 517.533 816.825, 517.992 817.050, 518.020 816.500 C 518.143 814.072, 520.933 820.822, 520.965 823.625 C 521.017 828.233, 519.883 833.046, 518.890 832.432 C 518.413 832.137, 518.291 832.594, 518.618 833.448 C 519.267 835.139, 521.726 835.460, 523.827 834.128 C 524.895 833.451, 524.927 832.442, 523.990 828.964 C 522.343 822.847, 523.542 816.881, 527.645 810.784 L 531.171 805.544 528.836 803.453 C 520.148 795.676, 519.690 792.740, 523.991 772.420 C 530.684 740.807, 531.078 736.088, 527.599 729.232 C 526.279 726.629, 523.967 721.688, 522.463 718.250 C 519.252 710.915, 519.233 710.907, 516.019 715.757 M 231.669 739 C 232.087 742.575, 232.444 746.920, 232.464 748.655 C 232.484 750.389, 232.906 751.558, 233.401 751.252 C 233.928 750.927, 234.079 755.082, 233.765 761.234 L 233.227 771.772 238.364 772.430 C 245.957 773.402, 254.923 776.046, 259.836 778.763 C 265.256 781.759, 265.627 781.374, 263.134 775.347 C 261.092 770.413, 257.798 759.818, 255.994 752.386 C 255.044 748.470, 254.779 748.242, 250.511 747.657 C 245.391 746.955, 238.994 743.271, 236.321 739.485 C 230.961 731.894, 230.837 731.881, 231.669 739 M 449 752.548 C 435.854 760.462, 419.854 763.979, 406 762 L 402.500 761.500 402.500 769.500 L 402.500 777.500 412 777.228 C 431.165 776.679, 441.123 773.558, 450.035 765.307 C 455.324 760.411, 456 759.350, 456 755.951 C 456 753.843, 456.450 751.840, 457 751.500 C 458.160 750.783, 458.360 747.992, 457.250 748.017 C 456.837 748.026, 453.125 750.065, 449 752.548 M 534.612 776.010 C 533.073 783.123, 531.969 789.352, 532.157 789.851 C 532.612 791.055, 539.855 799, 540.497 799 C 542.156 799, 539.658 765.325, 537.867 763.533 C 537.615 763.282, 536.151 768.896, 534.612 776.010 M 838.500 792.146 C 829.795 794.953, 810.237 798.731, 797.160 800.131 C 787.003 801.219, 785.733 801.573, 784.991 803.525 C 784.535 804.723, 782.213 807.226, 779.831 809.086 C 774.234 813.458, 773.200 814.808, 772.417 818.767 C 771.508 823.364, 773.539 827.644, 777.244 828.935 C 781.765 830.511, 781.895 830.375, 780.301 825.750 C 778.476 820.458, 779.860 814.793, 783.573 812.360 C 786.982 810.127, 787.638 811.259, 785.580 815.823 C 781.665 824.504, 786.257 831.428, 795.729 831.126 C 805.909 830.802, 812.329 826.919, 826.516 812.503 C 833.284 805.626, 839.458 800, 840.236 800 C 843.567 800, 848.419 791.210, 845.500 790.466 C 844.950 790.325, 841.800 791.081, 838.500 792.146" stroke="none" fill="black" fill-rule="evenodd"/>
</svg>