<svg xmlns="http://www.w3.org/2000/svg" width="1024" height="1024" viewBox="0 0 1024 1024" version="1.1">
	<path d="M 72.193 69.736 C 72.087 71.515, 71.562 74.890, 71.026 77.236 C 66.638 96.453, 62.839 116.249, 62.472 121.811 L 62.030 128.500 63.395 120.500 C 64.145 116.100, 65.914 108, 67.325 102.500 C 72.588 81.989, 73.099 79.198, 72.744 72.879 C 72.547 69.371, 72.299 67.956, 72.193 69.736 M 214.089 75.029 C 212.392 81.649, 195.595 99.139, 188.002 102.192 C 183.666 103.935, 183.629 103.984, 187 103.531 C 188.925 103.272, 193.195 102.787, 196.488 102.454 C 199.909 102.107, 207.198 99.995, 213.488 97.528 C 219.545 95.153, 226.975 92.736, 230 92.157 L 235.500 91.105 230.750 91.430 C 224.647 91.847, 224.800 91.222, 231.780 87.219 C 234.926 85.415, 239.300 82.363, 241.500 80.437 L 245.500 76.935 237.134 81.218 C 232.533 83.573, 226.908 87.230, 224.634 89.345 C 219.857 93.789, 217.737 94.987, 208.502 98.463 C 195.002 103.544, 194.569 102.085, 205.878 89.634 C 212.483 82.363, 216.862 74.087, 215.797 70.892 C 215.596 70.288, 214.827 72.149, 214.089 75.029 M 101.439 76.583 C 99.267 83.229, 96.091 89.308, 88.158 102 C 87.299 103.375, 86.720 105.730, 86.871 107.233 C 87.023 108.736, 86.219 111.661, 85.085 113.733 C 83.951 115.805, 81.220 122.872, 79.016 129.438 C 76.813 136.004, 74.651 141.629, 74.213 141.938 C 73.774 142.247, 73.319 143.850, 73.202 145.500 C 72.937 149.234, 71.082 159.624, 70.330 161.581 C 69.846 162.843, 70.156 162.838, 72.636 161.546 C 74.211 160.725, 79.370 158.302, 84.100 156.162 C 89.841 153.564, 95.160 150.139, 100.100 145.860 C 107.801 139.189, 121.042 129.305, 123.587 128.328 C 124.820 127.855, 131.648 118.177, 134.402 113 C 135.786 110.397, 128.248 119.328, 125.819 123.167 C 124.544 125.184, 122.150 127.620, 120.500 128.580 C 118.850 129.540, 114.736 132.502, 111.358 135.163 C 104.522 140.547, 104.034 140.750, 103.921 138.250 C 103.874 137.205, 103.639 137.003, 103.338 137.750 C 102.210 140.545, 100.810 138.790, 101.169 135.030 L 101.547 131.060 98.774 133.717 C 97.248 135.178, 96 136.740, 96 137.187 C 96 138.489, 98.783 138.124, 99.338 136.750 C 99.615 136.063, 99.878 137.236, 99.921 139.358 C 100.019 144.166, 93.811 150.445, 84.500 154.953 C 75.424 159.347, 73.999 159.600, 74.003 156.817 C 74.008 151.538, 79.352 134.805, 84.164 125 C 92.258 108.505, 94.358 103.624, 94.125 101.848 C 94.004 100.930, 96.064 98.379, 98.767 96.099 C 102.772 92.722, 111.790 79.442, 110.762 78.434 C 110.031 77.717, 105 79.387, 105 80.347 C 105 83.437, 100.030 92.910, 96.500 96.548 C 94.300 98.816, 91.698 101.757, 90.718 103.085 C 89.384 104.894, 89.478 104.371, 91.094 101 C 92.280 98.525, 94.818 94.349, 96.733 91.719 C 101.096 85.729, 104.510 77.110, 103.085 75.685 C 102.392 74.992, 101.865 75.280, 101.439 76.583 M 47.757 85.744 C 46.719 86.910, 45.972 90.525, 45.536 96.500 C 44.822 106.296, 39.477 143.170, 37.883 149.301 C 37.340 151.392, 36.727 154.542, 36.521 156.301 C 33.855 179.060, 33.436 192.950, 35.978 174.306 C 36.638 169.462, 37.834 162.350, 38.636 158.500 C 40.145 151.252, 40.496 149.246, 44.065 127.500 C 46.170 114.674, 49.957 84.742, 49.537 84.244 C 49.418 84.103, 48.617 84.778, 47.757 85.744 M 121.627 98.355 C 120.597 101.025, 117.847 106.054, 115.515 109.531 C 113.184 113.008, 110.028 118.023, 108.503 120.676 C 106.977 123.329, 104.853 126.469, 103.782 127.653 C 101.938 129.691, 101.931 129.797, 103.667 129.653 C 107.807 129.308, 124.580 101.106, 123.822 95.765 C 123.570 93.990, 123.095 94.550, 121.627 98.355 M 177.991 107.025 C 171.170 107.825, 161.700 111.227, 154.413 115.498 C 144.995 121.017, 149.777 120.173, 161.485 114.250 C 165.592 112.172, 166.209 112.053, 164.985 113.575 C 163.675 115.204, 163.854 115.181, 166.500 113.386 C 171.031 110.310, 174.671 109.180, 183.998 107.954 C 188.672 107.339, 192.685 106.648, 192.915 106.418 C 193.519 105.815, 185.562 106.138, 177.991 107.025 M 18.911 113.750 C 17.564 125.117, 26.050 152.221, 32.892 158.405 C 35.560 160.816, 35.621 159.605, 33 156.273 C 31.900 154.874, 31 153.046, 31 152.210 C 31 151.373, 29.960 149.296, 28.689 147.594 C 24.356 141.794, 21.039 129.542, 21.015 119.250 C 21.007 115.760, 20.558 113, 20 113 C 19.450 113, 18.960 113.338, 18.911 113.750 M 1.607 115.582 C 0.578 118.263, 0.935 119.467, 2.250 117.752 C 3.333 116.338, 3.672 116.313, 4.789 117.561 C 5.499 118.352, 5.653 119, 5.133 119 C 4.613 119, 4.421 119.895, 4.707 120.989 C 4.993 122.083, 5.621 122.734, 6.102 122.437 C 6.583 122.139, 6.709 122.594, 6.382 123.448 C 6.019 124.392, 6.331 125, 7.176 125 C 9.636 125, 15.230 155.020, 15.840 171.500 C 16.393 186.428, 17.737 186.084, 17.797 171 C 17.839 160.673, 17.126 155.211, 13.623 139 C 10.043 122.434, 9.228 119.995, 6.196 116.750 C 3.237 113.584, 2.450 113.384, 1.607 115.582 M 3.500 128.648 C 3.154 130.767, 2.242 134.525, 1.474 137 C -0.991 144.937, 2.112 199.817, 5.248 203.750 C 7.843 207.005, 12.221 201.320, 14.964 191.132 C 16.737 184.548, 15.426 185.021, 13.496 191.663 C 11.275 199.301, 9.296 203, 7.430 203 C 6.595 203, 6.023 202.438, 6.159 201.750 C 6.294 201.063, 5.862 198.911, 5.197 196.969 C 4.503 194.940, 4.059 188.985, 4.152 182.969 C 4.241 177.211, 3.969 166.650, 3.546 159.500 C 3.079 151.596, 3.195 142.398, 3.840 136.034 C 4.897 125.617, 4.698 121.307, 3.500 128.648 M 133.927 128.331 C 128.297 130.888, 119.313 137.305, 116 141.136 C 108.524 149.781, 100.990 157.418, 101.590 155.744 C 103.247 151.119, 81.312 176.235, 76.040 185 C 74.220 188.025, 71.640 191.805, 70.305 193.399 C 67.231 197.072, 61.672 208, 62.879 208 C 63.378 208, 64.032 207.359, 64.332 206.576 C 65.396 203.804, 70.152 196.818, 70.641 197.308 C 70.915 197.582, 70.685 199.537, 70.130 201.653 C 68.394 208.272, 65.784 222.118, 66.195 222.528 C 66.541 222.875, 69.075 212.406, 72.252 197.500 C 74.320 187.799, 80.197 179.947, 101.061 159.015 C 122.428 137.579, 124.882 135.462, 134.207 130.437 C 140.018 127.305, 139.800 125.663, 133.927 128.331 M 330.377 175.467 C 320.109 186.183, 318.326 216.189, 326.096 247.500 C 328.028 255.285, 329.548 265.123, 330.423 275.509 C 331.952 293.659, 332.933 296.762, 339.616 304.585 C 342.184 307.590, 344.108 310.150, 343.892 310.274 C 343.677 310.398, 342.600 311.008, 341.500 311.628 C 338.901 313.094, 339.297 318.838, 342.151 321.063 C 343.892 322.421, 343.962 322.787, 342.681 323.850 C 341.390 324.921, 341.442 325.537, 343.093 328.787 C 349.639 341.673, 351.274 347.212, 350.672 354.460 C 349.864 364.194, 348.516 368.193, 344.367 373.159 C 342.404 375.509, 341.293 377.598, 341.898 377.799 C 343.634 378.378, 343.186 381.522, 341.099 383.410 C 340.053 384.357, 338.910 386.789, 338.558 388.815 C 338.207 390.842, 337.432 393.738, 336.838 395.251 C 336.053 397.247, 336.064 398.372, 336.878 399.353 C 337.566 400.182, 337.814 403.081, 337.521 406.852 C 337.227 410.639, 337.431 413, 338.053 413 C 339.006 413, 339.141 411.389, 339.035 401.312 C 339.010 399.009, 339.442 396.845, 339.995 396.503 C 340.548 396.161, 341 395.432, 341 394.882 C 341 394.332, 340.480 394.203, 339.844 394.596 C 339.011 395.111, 338.875 394.373, 339.358 391.958 C 340.324 387.131, 342.543 384.218, 346.520 382.556 C 350.410 380.931, 351.357 379.534, 347.600 380.962 C 343.721 382.437, 343.366 378.486, 347.006 374.340 C 350.319 370.567, 351.822 365.803, 352.909 355.633 C 353.601 349.160, 353.429 348.017, 350.938 342.521 C 345.517 330.559, 343.786 323.894, 345.583 321.909 C 347.046 320.292, 346.968 320.025, 344.584 318.463 C 341.839 316.664, 341.099 314, 343.345 314 C 344.085 314, 345.509 313.095, 346.509 311.990 C 348.557 309.727, 348.276 309.268, 339.479 300.486 C 334.272 295.288, 332.998 290.739, 333.009 277.384 L 333.019 266.500 335.909 271.500 C 339.659 277.988, 344.626 282.774, 346.089 281.311 C 346.857 280.543, 345.682 278.847, 341.983 275.387 C 334.044 267.962, 331.143 260.672, 326.045 235.343 C 323.738 223.885, 323.246 201.985, 325.061 191.582 C 329.875 163.992, 349.745 166.396, 375.243 197.652 C 382.536 206.593, 400.991 232.801, 404.487 239.183 C 405.185 240.457, 406.936 243.661, 408.378 246.303 C 409.820 248.945, 411 251.687, 411 252.398 C 411 255.782, 414.488 257, 424.182 257 C 440.202 257, 446.163 257.912, 445.421 260.249 C 444.848 262.054, 445.050 262.023, 447.979 259.857 C 450.867 257.722, 452.177 257.506, 462.269 257.503 L 473.379 257.500 475.677 251.567 C 476.942 248.304, 479.019 244.479, 480.295 243.067 C 481.570 241.655, 483.855 238.804, 485.372 236.731 C 486.889 234.658, 488.486 233.182, 488.920 233.450 C 489.975 234.102, 492.807 230.860, 498.049 223 C 524.645 183.118, 554.630 164.949, 563.389 183.408 C 569.238 195.732, 569.619 226.634, 564.174 247 C 558.610 267.814, 558.593 267.851, 550.778 275.721 C 546.835 279.692, 543.895 283.229, 544.247 283.580 C 545.750 285.084, 550.944 281.261, 554.099 276.328 C 558.503 269.441, 559.350 269.619, 558.501 277.250 C 556.483 295.404, 555.424 298.936, 550.630 303.530 C 544.440 309.461, 542.312 313.587, 545.070 314.308 C 546.668 314.726, 546.947 315.364, 546.431 317.418 C 545.937 319.388, 546.321 320.439, 548.046 321.836 L 550.309 323.669 547.707 329.084 C 546.277 332.063, 544.095 338.424, 542.860 343.219 L 540.615 351.938 542.823 356.359 C 544.037 358.791, 545.699 361.335, 546.515 362.013 C 547.332 362.690, 548 364.385, 548 365.778 C 548 367.171, 549.084 369.732, 550.409 371.469 C 551.733 373.206, 553.480 376.173, 554.289 378.064 C 555.099 379.954, 557.443 383.075, 559.498 385 L 563.234 388.500 561.720 385.498 C 560.886 383.846, 559.259 381.639, 558.102 380.593 C 555.824 378.531, 555.139 375.357, 557.250 376.645 C 557.938 377.064, 556.560 375.196, 554.188 372.493 C 551.243 369.136, 550.039 366.959, 550.388 365.624 C 550.705 364.412, 549.910 362.496, 548.298 360.585 C 542.922 354.210, 542.590 351.897, 545.580 341.665 C 547.053 336.624, 549.100 330.830, 550.129 328.790 C 552.350 324.386, 552.505 321.664, 550.625 320.104 C 549.868 319.476, 548.951 317.095, 548.586 314.813 C 547.981 311.031, 548.226 310.346, 551.343 307.082 C 556.839 301.327, 558.367 296.448, 560.039 279.321 C 560.532 274.273, 562.317 264.823, 564.005 258.321 C 573.319 222.460, 572.185 187.516, 561.400 178.047 C 558.315 175.337, 557.229 175, 551.600 175 C 536.281 175, 518.003 190.608, 494.544 223.722 C 491.340 228.244, 488.342 231.711, 487.882 231.427 C 487.422 231.143, 485.797 232.778, 484.273 235.061 C 482.748 237.344, 479.739 241.207, 477.586 243.645 C 475.161 246.393, 473.441 249.490, 473.065 251.790 L 472.459 255.500 443.668 255.460 C 412.894 255.416, 413.053 255.442, 413.015 250.446 C 413.007 249.316, 411.650 246.263, 410 243.661 C 408.350 241.059, 407 238.271, 407 237.465 C 407 236.659, 406.337 236, 405.526 236 C 404.715 236, 403.319 234.584, 402.424 232.853 C 398.852 225.945, 385.856 206.931, 378.078 197.232 C 364.490 180.289, 351.067 171, 340.169 171 C 334.948 171, 334.431 171.236, 330.377 175.467 M 30.590 198.500 C 28.284 211.423, 27.456 214.677, 23.776 225.281 C 20.445 234.875, 20.084 235.200, 19.480 229.131 C 19.256 226.882, 18.321 223.570, 17.401 221.771 C 14.777 216.635, 8.800 207.867, 8.279 208.388 C 8.019 208.647, 9.233 210.931, 10.975 213.463 C 15.486 220.020, 17.722 225.616, 18.552 232.427 L 19.275 238.354 21.294 234.427 C 26.533 224.239, 33.952 195.635, 32.756 190.231 C 32.546 189.279, 31.571 193, 30.590 198.500 M 63.595 232.701 C 61.581 243.501, 59.662 260.508, 60.263 262.230 C 60.507 262.929, 61.035 261.025, 61.436 258 C 61.838 254.975, 63.037 246.246, 64.102 238.602 C 66.306 222.779, 66.035 219.618, 63.595 232.701 M 0.116 227.071 C 0.052 228.484, 0.851 233.659, 1.890 238.571 C 5.139 253.916, 5.309 258.435, 3.110 271 C 2.004 277.325, 0.862 285.200, 0.573 288.500 L 0.048 294.500 1.516 290.059 C 2.323 287.617, 3.702 280.422, 4.581 274.070 C 5.459 267.718, 6.400 262.162, 6.672 261.722 C 7.886 259.758, 6.904 251.572, 4.127 240.500 C 2.472 233.900, 0.918 227.600, 0.675 226.500 C 0.328 224.932, 0.207 225.056, 0.116 227.071 M 393.376 243.108 L 393.402 252.500 386.373 266 C 382.508 273.425, 374.244 290.697, 368.010 304.382 L 356.675 329.263 357.837 337.995 C 359.336 349.247, 359.261 354.122, 357.480 361.500 C 355.230 370.818, 355.840 371.344, 358.641 362.500 C 360.840 355.559, 361.204 352.448, 361.389 339 C 361.625 321.780, 360.976 324.237, 371.684 300.041 C 380.013 281.218, 388.903 263.899, 392.126 260.215 C 393.707 258.409, 395 257.179, 395 257.482 C 395 257.785, 397.300 256.451, 400.112 254.517 C 402.924 252.582, 405.650 251, 406.171 251 C 406.692 251, 406.841 250.552, 406.502 250.004 C 405.733 248.759, 401.241 250.971, 398.593 253.898 C 395.380 257.448, 394.070 256.622, 395.185 251.750 C 396.151 247.530, 395.652 239.935, 394.140 235.849 C 393.662 234.557, 393.361 237.416, 393.376 243.108 M 499.693 272.821 C 498.701 273.012, 498.027 273.468, 498.195 273.834 C 501.487 281.016, 512.798 300.586, 515.367 303.545 C 520.078 308.972, 520.867 307.423, 516.383 301.550 C 512.380 296.308, 505.775 284.031, 503.167 276.987 C 501.915 273.605, 501.044 272.560, 499.693 272.821 M 55.664 312.985 C 54.748 334.140, 54.831 364, 55.805 364 C 56.248 364, 56.723 351.738, 56.861 336.750 C 56.999 321.762, 57.282 307.771, 57.489 305.657 C 57.697 303.544, 57.520 300.878, 57.097 299.733 C 56.642 298.504, 56.056 303.927, 55.664 312.985 M 392 309 C 390.755 309.805, 390.840 309.977, 392.500 310.016 C 395.219 310.081, 397.370 311.875, 399.372 315.750 L 401.051 319 396.674 319 C 393.781 319, 391.172 319.763, 388.985 321.250 C 385.386 323.696, 381.126 330.790, 382.621 331.849 C 383.127 332.207, 384.085 333.739, 384.750 335.252 C 387.032 340.447, 395.439 343.474, 401.209 341.180 C 403.857 340.127, 408 333.907, 408 330.984 C 408 329.539, 406.663 326.589, 405.028 324.428 C 401.931 320.335, 401.326 318.399, 402.968 317.833 C 403.584 317.621, 403.590 316.955, 402.983 316 C 402.195 314.759, 402.023 314.845, 401.985 316.500 C 401.940 318.469, 401.922 318.470, 400.810 316.553 C 399.964 315.096, 399.972 314.509, 400.840 314.220 C 402.967 313.511, 402.035 311.070, 399.050 309.526 C 395.641 307.763, 394.093 307.647, 392 309 M 518.923 321.804 C 519.964 324.446, 522.175 329.959, 523.835 334.054 C 525.495 338.149, 527.776 344.650, 528.904 348.500 C 531.288 356.634, 533.887 361.225, 537.420 363.540 C 542.276 366.722, 542.515 364.426, 537.805 359.848 C 534.604 356.737, 532.810 353.975, 532.009 350.922 C 528.823 338.778, 527.332 334.800, 522.771 326.263 C 517.270 315.968, 516.078 314.586, 518.923 321.804 M 464.804 321.750 C 463.411 323.368, 461.188 327.429, 457.963 334.250 C 457.247 335.762, 456.063 337, 455.331 337 C 453.691 337, 453.586 338.626, 455.162 339.600 C 455.820 340.007, 457.119 339.336, 458.159 338.053 L 459.993 335.787 463.475 338.844 C 469.288 343.948, 478.936 344.043, 483.463 339.041 C 484.848 337.510, 485.678 337.292, 487.139 338.074 C 490.310 339.772, 492.551 337.808, 490.038 335.534 C 488.917 334.520, 488 333.187, 488 332.573 C 488 330.470, 481.809 323.943, 477.943 321.971 C 473.075 319.488, 466.841 319.383, 464.804 321.750 M 9.148 376.250 C 7.947 382.987, 6.337 392.550, 5.570 397.500 C 4.804 402.450, 3.237 410.274, 2.088 414.887 C -0.311 424.524, -0.515 427.291, 1.601 421.511 C 4.887 412.533, 13.138 365.805, 11.693 364.359 C 11.494 364.161, 10.350 369.512, 9.148 376.250 M 436.810 372.495 C 437.415 377.682, 436.302 380.105, 434.462 377.605 C 433.293 376.016, 431.543 375.667, 423.627 375.440 C 418.435 375.292, 413.275 374.682, 412.159 374.085 C 411.044 373.488, 408.950 373, 407.507 373 C 406.012 373, 405.148 372.570, 405.500 372 C 405.840 371.450, 405.878 371, 405.585 371 C 404.460 371, 402 377.035, 402 379.795 C 402 382.898, 404.035 385.294, 408.021 386.884 C 410.347 387.812, 410.366 387.877, 408.332 387.937 C 404.730 388.042, 402.846 386.859, 401.428 383.600 C 400.686 381.895, 400.061 381.237, 400.039 382.137 C 399.970 385.008, 406.374 393.437, 410 395.248 C 416.506 398.498, 426.324 396.622, 429.618 391.500 C 430.814 389.640, 430.660 389.495, 427.411 389.423 C 425.490 389.381, 423.261 388.689, 422.457 387.886 C 421.176 386.604, 421.752 386.460, 427.141 386.708 C 432.033 386.934, 433.559 386.636, 434.630 385.246 C 436.731 382.518, 439.035 373.986, 438.377 371.367 C 437.469 367.747, 436.349 368.552, 436.810 372.495 M 389.167 371.750 C 388.670 372.712, 387.734 375.141, 387.088 377.147 C 386.127 380.129, 385.312 380.907, 382.616 381.412 C 380.803 381.752, 378.235 383.248, 376.910 384.735 C 375.584 386.222, 375.175 386.935, 376 386.317 C 380.198 383.177, 382.329 384.205, 385.704 391 C 387.479 394.575, 390.185 398.875, 391.716 400.555 C 393.247 402.235, 393.972 402.910, 393.326 402.055 C 392.681 401.200, 390.911 397.575, 389.394 394 C 387.877 390.425, 385.712 386.600, 384.584 385.500 L 382.532 383.500 384.577 383.205 C 386.123 382.982, 387.133 381.336, 388.720 376.455 C 390.781 370.117, 390.954 368.288, 389.167 371.750 M 480.500 384 C 480.133 384.594, 481.303 385, 483.382 385 C 488.517 385, 488.678 386.663, 483.599 387.236 C 479.188 387.733, 474.089 390.587, 474.031 392.591 C 473.971 394.691, 465.994 401.824, 460.825 404.400 C 454.265 407.669, 448.439 407.759, 430.863 404.865 C 418.578 402.842, 417.631 402.815, 412.834 404.365 C 410.049 405.264, 405.335 406, 402.359 406 L 396.949 406 398.486 408.973 C 400.892 413.626, 404.990 425.490, 405.099 428.121 C 405.170 429.824, 405.582 429.278, 406.550 426.198 C 407.945 421.763, 406.900 418.613, 401.353 410.527 C 399.267 407.487, 399.718 406.694, 403.142 407.378 C 407.102 408.170, 408.918 410.531, 409.004 415 C 409.068 418.289, 409.285 418.048, 412.604 411 L 416.136 403.500 417.957 405.723 C 419.613 407.746, 420.369 407.890, 426.388 407.328 C 434.039 406.614, 433.859 406.181, 430.099 416.246 C 426.518 425.831, 427.685 425.443, 432.492 415.450 C 435.833 408.503, 436.302 407.978, 438.801 408.390 C 440.285 408.635, 442.089 408.873, 442.809 408.918 C 443.529 408.963, 443.881 409.384, 443.591 409.852 C 443.302 410.321, 445.103 410.034, 447.594 409.214 C 450.228 408.346, 452.487 408.094, 452.993 408.611 C 453.930 409.568, 450.727 426.773, 449.018 429.966 C 447.525 432.755, 447.703 432.946, 450.936 432.018 C 456.314 430.476, 468.347 423.592, 471.947 419.998 C 479.136 412.821, 494 390.129, 494 386.332 C 494 383.479, 482.093 381.423, 480.500 384 M 482.448 393.439 C 481.229 395.300, 480.185 395.876, 478.820 395.443 C 476.352 394.660, 474.579 396.191, 470.411 402.707 C 466.740 408.445, 465.877 409.186, 466.749 405.852 L 467.311 403.703 464.125 405.585 C 459.024 408.598, 455.206 413.209, 454.465 417.250 C 453.654 421.671, 454.649 421.999, 458.673 418.641 C 462.235 415.668, 467.914 412.685, 470.419 412.472 C 473.006 412.253, 475.958 408.634, 480.995 399.509 C 485.020 392.217, 486.040 387.956, 482.448 393.439 M 338.559 416.885 C 337.080 419.747, 337.079 420.253, 338.556 423.108 C 339.454 424.846, 339.905 427.243, 339.578 428.546 C 339.256 429.828, 339.386 431.121, 339.867 431.418 C 340.348 431.715, 341.023 433.366, 341.367 435.087 C 341.800 437.250, 342.434 438.047, 343.421 437.669 C 344.272 437.342, 345.544 438.207, 346.569 439.810 C 347.514 441.290, 349.162 443.341, 350.230 444.369 C 351.562 445.651, 351.957 446.907, 351.488 448.369 C 347.600 460.490, 347.449 470.413, 351.037 477.841 C 353.659 483.267, 353.561 484.169, 349.568 491.338 C 340.292 507.991, 337.092 530.219, 342.581 539.876 C 343.637 541.733, 345.105 544.358, 345.845 545.710 C 346.912 547.661, 347.709 548.039, 349.698 547.540 L 352.207 546.910 351.353 553.205 C 350.884 556.667, 350.552 565.125, 350.615 572 C 350.774 589.422, 353.755 597.106, 368.351 617.718 C 377.935 631.253, 378.942 633.258, 389.329 659.500 C 410.685 713.454, 413.034 727.103, 404.035 744.931 C 400.688 751.562, 398.729 753.265, 391.808 755.564 C 384.497 757.992, 377 768.377, 377 776.075 C 377 784.882, 402.559 788.732, 423.149 783.026 C 434.652 779.838, 438.122 775.695, 440.968 761.750 C 441.614 758.587, 442.544 756, 443.036 756 C 444.726 756, 446.023 752.193, 445.144 749.815 C 444.115 747.035, 444.682 745, 446.485 745 C 448.099 745, 451.814 738.941, 451.245 737.234 C 451.018 736.555, 450.196 736, 449.417 736 C 447.666 736, 447.545 734.333, 449.250 733.709 C 450.109 733.395, 449.795 732.574, 448.250 731.087 C 445.547 728.486, 445.492 726.992, 447.693 716 C 449.692 706.016, 449.640 706.125, 451.350 708.463 C 452.543 710.096, 452.742 710.116, 453.301 708.657 C 453.708 707.599, 454.546 707.261, 455.712 707.686 C 457.333 708.278, 457.317 708.114, 455.533 705.920 C 451.878 701.425, 446.599 696, 445.879 696 C 443.854 696, 422.761 674.070, 415.582 664.500 C 411.043 658.450, 406.500 652.825, 405.487 652 C 404.474 651.175, 405.671 653.200, 408.148 656.500 C 419.433 671.537, 421 673.739, 421 674.565 C 421 675.049, 418.958 673.208, 416.462 670.473 C 413.967 667.738, 412.491 666.499, 413.184 667.720 C 413.877 668.941, 422.255 677.217, 431.802 686.111 C 442.461 696.041, 448.721 702.554, 448.021 702.987 C 446.140 704.149, 443.291 729.635, 444.776 732.012 C 446.244 734.364, 446.416 742, 445 742 C 444.450 742, 444 741.550, 444 741 C 444 740.450, 443.490 740, 442.866 740 C 442.080 740, 441.886 742.156, 442.233 747.013 C 442.663 753.017, 442.508 753.989, 441.158 753.763 C 439.904 753.554, 439.336 755.189, 438.387 761.741 C 437.731 766.274, 436.353 771.449, 435.324 773.241 C 433.283 776.798, 425.748 781.224, 423.320 780.293 C 421.350 779.537, 422.310 774.245, 424.753 772.390 C 425.714 771.660, 426.007 771.049, 425.405 771.032 C 423.645 770.981, 421.241 774.226, 420.287 777.941 C 419.266 781.915, 418.122 782.379, 406.680 783.451 C 397.316 784.328, 396.812 783.685, 399.833 774.701 C 401.842 768.729, 401.847 768.587, 399.970 770.847 C 398.899 772.138, 397.516 775.063, 396.897 777.347 C 396.278 779.631, 395.600 782.094, 395.391 782.819 C 394.977 784.253, 392.754 783.859, 387.250 781.374 C 384.429 780.100, 384.001 779.417, 384.009 776.203 C 384.021 771.678, 389.075 762.428, 392.053 761.483 C 393.207 761.117, 393.906 760.573, 393.607 760.273 C 391.365 758.032, 383.190 768.212, 381.598 775.229 C 380.503 780.054, 380.302 780.319, 379.223 778.357 C 375.877 772.274, 384.508 759.071, 393.549 756.443 C 406.861 752.573, 413.626 734.291, 409.626 713 C 408.133 705.058, 402.440 686.992, 396.706 672 C 395.338 668.425, 391.740 658.777, 388.709 650.561 C 385.678 642.344, 382.028 634.155, 380.599 632.364 C 377.759 628.805, 377.311 627.015, 379.250 626.973 C 379.938 626.959, 379.350 626.233, 377.944 625.360 C 371.320 621.246, 357.592 598.838, 354.444 587 C 351.666 576.555, 352.709 553, 355.950 553 C 356.780 553, 362.968 559.505, 366.652 564.250 C 369.127 567.436, 370.010 567.702, 369.975 565.250 C 369.961 564.288, 366.943 560.350, 363.267 556.500 C 354.807 547.637, 351.227 542.136, 349.747 535.722 L 348.574 530.641 346.419 535.571 L 344.264 540.500 343.561 536.350 C 341.167 522.221, 343.854 504.458, 349.962 494.037 C 351.425 491.542, 352.979 488.600, 353.416 487.500 C 354.190 485.555, 354.240 485.562, 355.265 487.766 C 356.114 489.590, 355.932 490.466, 354.329 492.266 C 351.812 495.090, 348.874 500.285, 346.704 505.750 C 344.193 512.073, 345.473 510.890, 348.891 503.729 C 350.537 500.280, 352.968 496.439, 354.293 495.195 L 356.702 492.931 358.387 497.343 C 360.277 502.292, 364 506.518, 364 503.715 C 364 501.305, 359.239 488.220, 356.099 482 C 351.381 472.655, 349.686 455.548, 353.259 453.340 C 353.806 453.002, 357.123 455.825, 360.629 459.613 L 367.005 466.500 363.583 461 C 361.701 457.975, 359 454.244, 357.580 452.708 C 356.160 451.173, 354.089 448.135, 352.979 445.958 C 351.868 443.781, 350.526 442, 349.997 442 C 348.765 442, 344.462 433.499, 343.544 429.250 C 343.157 427.462, 342.457 426, 341.988 426 C 340.367 426, 339.822 421.843, 341.054 418.871 C 342.884 414.451, 340.712 412.722, 338.559 416.885 M 462.262 418.425 C 454.086 422.405, 450.420 425.753, 452.242 427.576 C 453.151 428.484, 466.656 421.052, 469.427 418.119 C 473.807 413.483, 472.284 413.548, 462.262 418.425 M 556.976 422.019 C 555.853 426.950, 555.098 428.470, 553.820 428.373 C 552.599 428.280, 551.818 429.590, 550.958 433.175 C 549.889 437.631, 542.521 448.854, 541.400 447.734 C 541.166 447.499, 541.681 445.614, 542.545 443.545 C 544.738 438.298, 543.738 438.030, 541.406 443.240 C 540.358 445.583, 537.925 449.290, 536 451.478 L 532.500 455.455 535.500 453.573 C 539.115 451.305, 548.233 443.930, 549.173 442.514 C 549.543 441.956, 551.741 438.462, 554.057 434.750 C 556.373 431.038, 558.549 428, 558.892 428 C 559.963 428, 567.829 440.253, 570.124 445.495 C 573 452.065, 574.973 459.626, 574.988 464.132 C 574.997 466.998, 575.811 468.581, 578.839 471.632 C 591.462 484.351, 594.177 492.359, 591.503 508.984 C 589.031 524.348, 590.514 532.562, 597.376 541.500 C 598.859 543.431, 598.910 543.397, 598.865 540.500 C 598.839 538.850, 598.866 532.934, 598.923 527.352 C 598.981 521.771, 598.583 516.034, 598.039 514.602 C 596.511 510.583, 598.392 511.482, 603.337 517.135 C 610.219 525.002, 613.220 531.318, 614.677 541 C 616.573 553.593, 616.541 553.857, 613.464 550.966 L 610.928 548.584 612.464 552.260 C 614.036 556.021, 614.600 563.489, 613.250 562.654 C 612.837 562.400, 612.658 564.173, 612.851 566.595 C 613.279 571.969, 611.738 572.358, 609.416 567.464 C 607.128 562.642, 606.966 563.376, 608.637 571 C 609.638 575.564, 609.879 580.502, 609.447 587.578 C 608.707 599.688, 607.800 601.851, 605.636 596.671 C 603.537 591.647, 603.343 591.976, 603.819 599.750 C 604.243 606.686, 603.413 607.328, 601.326 601.678 C 600.209 598.653, 600.145 598.813, 599.995 605 C 599.839 611.424, 599.821 611.465, 598.394 608.500 L 596.951 605.500 597.438 608.500 C 597.705 610.150, 598.220 613.750, 598.581 616.500 C 599.343 622.294, 601.332 624.870, 608.750 629.667 C 611.638 631.534, 614 633.498, 614 634.031 C 614 634.564, 614.450 635, 615 635 C 615.550 635, 616 634.325, 616 633.500 C 616 631.819, 618.545 631.455, 619.500 633 C 620.555 634.707, 621.877 634.112, 623.388 631.250 L 624.840 628.500 625.954 631.405 L 627.068 634.309 629.940 631.557 C 631.938 629.643, 633.419 628.998, 634.806 629.438 C 636.234 629.892, 637.385 629.326, 638.867 627.441 C 640.005 625.995, 641.513 625.017, 642.218 625.267 C 644.429 626.052, 650.759 622.183, 654.133 617.985 C 655.913 615.769, 657.841 614.114, 658.418 614.306 C 658.994 614.498, 662.140 612.927, 665.409 610.814 C 678.597 602.290, 690.645 601.893, 702.316 609.597 L 706.132 612.116 704.902 609.817 C 704.225 608.552, 701.449 604.462, 698.732 600.726 C 693.034 592.893, 690.779 591.528, 673.500 585.466 C 659.568 580.578, 647.424 575.103, 641.207 570.907 L 636.831 567.953 638.762 570.727 C 640.831 573.696, 643.274 580.060, 642.603 580.731 C 641.921 581.413, 635 571.817, 635 570.190 C 635 569.352, 634.697 568.970, 634.326 569.341 C 633.956 569.711, 633.737 572.824, 633.842 576.257 L 634.031 582.500 631.545 578.530 C 630.179 576.346, 628.371 571.531, 627.529 567.829 C 625.139 557.321, 621.068 545.025, 617.984 539 C 616.435 535.975, 613.938 530.675, 612.435 527.223 C 610.932 523.771, 608.195 519.622, 606.351 518.004 C 602.528 514.646, 602.118 513.585, 605 514.500 C 606.419 514.950, 607 514.680, 607 513.567 C 607 510.577, 609.803 512.057, 625.112 523.136 C 645.271 537.724, 659.566 549.700, 670.565 561.215 C 680.564 571.683, 698.081 594.539, 703.032 603.577 C 704.816 606.834, 707.974 612.425, 710.050 616 C 722.566 637.562, 729.327 664.090, 727.240 683.454 C 726.206 693.044, 722.273 705.572, 719.813 707.109 C 719.215 707.483, 719.109 710.825, 719.539 715.760 C 720.301 724.485, 719.748 726.866, 717.411 724.926 C 716.231 723.947, 716 724.512, 716 728.378 C 716 732.612, 715.795 733, 713.559 733 C 710.516 733, 709.165 734.953, 711.360 736.181 C 714.019 737.669, 713.342 739.999, 710.250 740.005 C 708.737 740.007, 704.112 741.327, 699.971 742.938 C 695.753 744.579, 688.498 746.365, 683.471 747.001 C 671.592 748.503, 666.277 750.248, 655.500 756.184 C 643.153 762.986, 636.145 764.831, 633.750 761.911 C 631.610 759.304, 631.585 758.014, 633.524 750.568 C 634.363 747.349, 634.869 744.536, 634.650 744.317 C 634.431 744.098, 633.314 747.370, 632.167 751.588 C 630.239 758.681, 630.200 759.485, 631.646 762.282 L 633.210 765.307 626.145 764.650 C 614.928 763.608, 613.707 762.727, 614.192 756.024 C 614.441 752.577, 615.791 747.906, 617.744 743.732 C 619.477 740.030, 620.713 737, 620.490 737 C 619.256 737, 614.526 747.005, 613.113 752.605 C 611.295 759.806, 609.671 761.281, 609.181 756.174 C 608.679 750.943, 611.939 742.148, 615.935 737.952 C 620.770 732.874, 625.940 731.500, 640.213 731.500 C 652.667 731.500, 654.026 731.032, 655.460 726.250 C 656.372 723.208, 654.603 723.382, 653.195 726.472 C 650.625 732.111, 643.846 730.683, 638.742 723.427 C 636.559 720.324, 635.394 719.338, 635.177 720.409 C 634.228 725.077, 630.993 717.808, 629.455 707.550 C 628.560 701.581, 626.998 701.708, 627.006 707.750 C 627.016 716.615, 631.304 724.784, 634.811 722.617 C 635.941 721.919, 640.261 726.406, 639.342 727.324 C 638.971 727.696, 637.914 728, 636.995 728 C 633.551 728, 618.382 733.322, 615.345 735.595 C 613.609 736.894, 611.203 739.553, 609.998 741.503 C 607.617 745.357, 602.682 748.476, 600.370 747.589 C 599.573 747.283, 598.050 747.576, 596.985 748.241 C 592.805 750.852, 592.811 747.610, 596.999 740.932 C 599.226 737.382, 599.799 736.068, 598.279 738 C 591.474 746.649, 588.186 749.272, 585.257 748.389 C 583.741 747.932, 580.587 747.601, 578.250 747.653 C 574.235 747.743, 572.833 746.839, 574.953 745.529 C 575.478 745.205, 576.858 743.603, 578.022 741.970 C 580.964 737.837, 578.030 737.861, 574.342 742 C 571.706 744.959, 569.682 745.583, 566.582 744.393 C 564.323 743.526, 564.629 742.194, 567.172 741.820 C 570.619 741.312, 570.376 739.406, 566.638 737.633 C 559.820 734.397, 557.745 737.852, 563.074 743.564 C 566.852 747.614, 565.161 748.998, 559.042 746.865 C 555.804 745.736, 553.300 747.058, 554.622 749.198 C 554.892 749.635, 554.188 755.354, 553.056 761.907 C 551.925 768.460, 551 775.640, 551 777.862 C 551 789.426, 547.920 794.745, 539.822 797.172 C 533.826 798.968, 532.500 797.074, 532.500 786.715 C 532.500 782.197, 532.833 777.375, 533.240 776 C 533.666 774.560, 533.242 774.984, 532.240 777 C 530.945 779.604, 530.518 782.858, 530.570 789.712 C 530.650 800.401, 531.099 799.935, 520 800.690 C 508.095 801.499, 506.621 800.523, 507.219 792.224 C 507.502 788.297, 508.594 783.660, 509.845 781.076 C 511.023 778.643, 511.811 776.478, 511.597 776.264 C 510.111 774.777, 503.213 794.918, 504.497 796.996 C 505.688 798.923, 503.172 798.738, 499.451 796.626 C 495.674 794.482, 495.507 794.175, 495.663 789.675 C 495.764 786.783, 497.036 782.371, 498.964 778.234 C 501.309 773.200, 501.613 772.005, 500.166 773.500 C 498.053 775.684, 494 785.897, 494 789.038 C 494 790.117, 493.489 791, 492.864 791 C 492.098 791, 491.928 789.616, 492.342 786.750 C 493.603 778.028, 495.147 774.792, 501.102 768.390 C 504.374 764.873, 507.527 760.759, 508.109 759.248 C 510.082 754.126, 512.099 741.517, 511.484 738.152 C 511.074 735.907, 511.223 735.020, 511.936 735.461 C 513.258 736.277, 513.264 736.341, 511.573 731.500 C 510.540 728.541, 510.311 724.247, 510.692 715 C 511.399 697.864, 508.875 681.864, 502.363 662.195 C 500.486 656.526, 499.213 651.464, 499.534 650.945 C 499.855 650.425, 499.690 650, 499.167 650 C 497.093 650, 497.058 654.967, 499.100 659.670 C 506.709 677.196, 510.021 700.142, 508.672 726 C 508.572 727.925, 508.845 730.288, 509.280 731.250 C 510.770 734.549, 508.185 733.010, 501.992 726.913 C 498.172 723.152, 496.063 721.623, 496.472 722.913 C 497.568 726.365, 496.350 725.317, 491.910 718.987 C 489.590 715.680, 487.525 713.141, 487.322 713.345 C 487.118 713.549, 489.437 717.388, 492.475 721.875 C 500.161 733.227, 499.149 734.158, 490.707 723.500 C 488.529 720.750, 486.467 718.680, 486.125 718.899 C 485.783 719.119, 484.042 716.869, 482.256 713.899 C 480.470 710.930, 479.006 708.962, 479.004 709.527 C 479.002 710.093, 479.594 711.443, 480.321 712.527 C 488.144 724.213, 486.378 725.331, 476.078 715.214 C 471.470 710.687, 469.649 709.355, 470.610 711.214 C 472.860 715.563, 470.332 714.734, 464.627 709.250 C 460.740 705.514, 460.145 705.173, 461.842 707.654 C 463.029 709.389, 464 711.437, 464 712.204 C 464 713.990, 465.999 716, 467.775 716 C 469.564 716, 483 723.979, 483 725.042 C 483 725.489, 480.542 725.602, 477.538 725.292 C 471.036 724.621, 462.425 728.190, 459.024 732.966 C 456.383 736.676, 456.420 737.878, 459.084 734.861 C 460.914 732.787, 461.088 732.743, 460.514 734.500 C 460.154 735.600, 459.364 738.638, 458.758 741.250 C 457.522 746.582, 456.339 747.360, 455.716 743.250 L 455.300 740.500 455.150 743.257 C 454.851 748.748, 459.965 751.329, 474.432 752.990 C 483.587 754.042, 488.897 753.174, 499.667 748.866 C 510.141 744.677, 510.410 744.890, 507.404 755.013 C 506.168 759.172, 504.478 761.709, 499.933 766.226 C 493.418 772.701, 491 778.415, 491 787.336 C 491 799.651, 508.838 805.953, 531.519 801.651 C 549.703 798.201, 551.905 795.767, 553.049 777.855 C 553.512 770.595, 554.662 763.225, 556.073 758.471 L 558.351 750.800 562.175 751.412 C 564.279 751.748, 566 751.666, 566 751.230 C 566 749.778, 571.058 749.992, 573.428 751.545 C 575.300 752.771, 588.500 753.190, 588.500 752.022 C 588.500 751.935, 591.281 751.697, 594.680 751.494 C 598.079 751.290, 602.161 750.451, 603.752 749.629 L 606.643 748.133 606.572 752.985 C 606.343 768.488, 630.128 771.826, 654 759.642 C 664.665 754.198, 670.727 752.078, 681.500 750.026 C 689.333 748.534, 712.121 741.905, 713.830 740.621 C 714.562 740.071, 714.961 738.575, 714.716 737.296 C 714.375 735.513, 714.806 734.836, 716.563 734.395 C 719.109 733.756, 720.237 731.782, 719.362 729.500 C 718.097 726.203, 736.449 727.830, 743.500 731.640 C 745.551 732.748, 757.063 730.852, 777 726.122 C 781.675 725.012, 791.545 723.402, 798.933 722.542 C 806.657 721.644, 813.031 720.404, 813.933 719.624 C 814.795 718.879, 817.575 718.001, 820.110 717.673 C 825.474 716.979, 836 713.238, 836 712.026 C 836 711.569, 832.934 710.264, 829.188 709.126 C 823.986 707.546, 820.736 705.679, 815.437 701.231 C 809.310 696.086, 805.328 693.551, 804.112 694.021 C 803.898 694.103, 803.448 693.784, 803.112 693.312 C 802.775 692.840, 801.150 691.621, 799.500 690.603 C 796.089 688.499, 806.143 697.794, 812.688 702.796 C 817.843 706.736, 826.643 710.977, 829.691 710.990 C 833.878 711.009, 832.967 712.808, 828.248 713.841 C 815.363 716.660, 809.177 716.038, 798.500 710.848 L 792.500 707.932 796 711.006 C 797.925 712.697, 801.619 715.075, 804.209 716.290 C 806.799 717.506, 808.936 718.779, 808.959 719.121 C 808.982 719.462, 805.311 720.064, 800.802 720.457 C 792.304 721.198, 785.381 722.373, 768.717 725.902 C 755.570 728.687, 745.608 729.801, 741.167 728.983 C 737.357 728.281, 737.601 728.044, 744.236 726.003 C 746.291 725.371, 748.222 724.450, 748.526 723.957 C 748.831 723.464, 747.150 723.761, 744.790 724.619 C 741.552 725.795, 738.431 726.028, 732.063 725.568 C 722.426 724.873, 722.456 724.886, 723.956 722.081 C 724.810 720.487, 724.717 718.786, 723.565 714.908 C 722.111 710.010, 722.148 709.598, 724.565 703.662 C 725.946 700.273, 727.745 693.450, 728.564 688.500 C 729.383 683.550, 730.282 678.459, 730.561 677.187 C 731.271 673.957, 745.018 667.575, 755.910 665.419 C 767.887 663.048, 775.569 663.809, 785.361 668.337 C 789.685 670.337, 792.716 671.362, 792.096 670.616 C 791.477 669.870, 788.165 667.971, 784.735 666.396 C 772.840 660.932, 754.197 662.077, 738.673 669.224 C 731.160 672.683, 730.046 672.345, 730.015 666.598 C 729.991 662.082, 724.161 639.458, 720.916 631.290 C 708.741 600.639, 678.614 561.091, 650.500 538.853 C 638.835 529.626, 621.469 517.405, 616.831 515.160 C 607.864 510.819, 598.578 500.446, 593.037 488.579 C 589.245 480.458, 586.604 476.361, 582.144 471.680 C 576.308 465.555, 576.251 465.438, 575.755 458.500 C 575.171 450.339, 572.521 443.819, 565.062 432.192 C 562.040 427.480, 559.624 422.409, 559.189 419.863 L 558.451 415.539 556.976 422.019 M 451.621 434.640 C 449.542 435.766, 448.546 435.883, 448.039 435.063 C 447.619 434.384, 446.627 435.502, 445.571 437.843 C 439.765 450.719, 424.721 456.400, 414.833 449.450 C 412.200 447.599, 409.526 444.435, 407.793 441.119 C 406.109 437.894, 405 436.568, 405 437.777 C 405 440.946, 411.294 449.277, 415.588 451.791 C 420.819 454.853, 429.566 454.504, 436.217 450.966 C 443.161 447.272, 452.706 439.470, 454.482 436.035 C 456.245 432.626, 455.768 432.393, 451.621 434.640 M 556.747 482.500 C 558.213 488.341, 557.274 498.254, 554.578 505.404 C 551.669 513.116, 551.811 515.251, 554.838 509.317 C 560.075 499.052, 561.102 488.644, 557.511 482.217 L 555.994 479.500 556.747 482.500 M 519.349 527.073 C 518.232 528.958, 516.146 532.563, 514.714 535.083 C 511.908 540.025, 498.815 552.946, 498.271 551.312 C 498.089 550.767, 499.304 547.281, 500.970 543.567 C 504.688 535.281, 504.887 532.933, 501.358 539 C 498.759 543.468, 494.699 555.032, 495.461 555.795 C 497.547 557.880, 516.067 539.279, 519.609 531.543 C 522.547 525.126, 522.364 521.990, 519.349 527.073 M 13.670 535.750 C 11.668 541.663, 9.749 548.525, 9.406 551 C 9.062 553.475, 7.963 558.425, 6.964 562 C 5.964 565.575, 4.867 572.100, 4.526 576.500 C 4.185 580.900, 3.516 586.075, 3.041 588 C 1.714 593.366, 0.695 605.605, 1.651 604.678 C 2.118 604.226, 3.691 595.226, 5.147 584.678 C 8.208 562.499, 12.628 543.542, 18.770 526.250 C 19.014 525.563, 18.786 525, 18.262 525 C 17.738 525, 15.672 529.837, 13.670 535.750 M 32.117 545.250 C 30.559 560.868, 30.345 565, 31.093 565 C 32.103 565, 38.245 557.252, 40.881 552.654 L 43.261 548.500 40.600 551.500 C 39.136 553.150, 37.225 555.513, 36.354 556.750 C 33.266 561.136, 32.777 559.368, 33.520 546.500 C 34.417 530.946, 33.615 530.231, 32.117 545.250 M 627 539.171 C 627 539.780, 630.896 544.153, 635.658 548.889 C 640.420 553.625, 643.803 556.790, 643.178 555.922 C 642.552 555.053, 641.889 553.358, 641.706 552.154 C 641.328 549.681, 634.098 541.822, 632.888 542.569 C 632.455 542.837, 631.640 542.196, 631.078 541.146 C 629.896 538.937, 627 537.534, 627 539.171 M 869.648 544.027 C 864.922 545.443, 860.389 549.120, 857.015 554.275 C 853.816 559.161, 853.556 562.534, 856.733 557.940 C 866.025 544.497, 878.090 540.939, 888.924 548.447 C 900.404 556.403, 903.222 573.808, 894.212 581.113 C 892.721 582.323, 892.255 583.044, 893.177 582.716 C 895.214 581.991, 896.359 583.321, 897.949 588.256 C 900.208 595.269, 894.010 602.874, 885.673 603.318 C 883.420 603.438, 882.424 603.922, 882.736 604.743 C 883.362 606.390, 887.395 605.419, 892.500 602.392 C 897.580 599.379, 903.806 594, 902.212 594 C 901.546 594, 901 592.815, 901 591.366 C 901 589.917, 900.483 587.008, 899.852 584.901 C 898.904 581.737, 899.013 580.089, 900.475 575.440 C 906.386 556.646, 888.467 538.386, 869.648 544.027 M 483.836 550.822 C 479.801 554.663, 474.475 559.691, 472 561.994 L 467.500 566.183 472.500 562.927 C 478.907 558.755, 489.724 549.384, 491.100 546.813 C 493.269 542.760, 490.971 544.028, 483.836 550.822 M 50.415 547.489 C 45.947 554.308, 37.017 584.435, 36.332 595 L 35.846 602.500 37.901 600 C 39.031 598.625, 39.966 596.782, 39.978 595.904 C 39.990 595.026, 40.722 592.860, 41.604 591.091 C 42.487 589.323, 42.997 587.664, 42.739 587.406 C 42.481 587.147, 41.704 588.300, 41.013 589.968 C 39.344 593.999, 37.639 593.861, 38.318 589.750 C 39.453 582.872, 47.241 557.206, 50 551.250 C 53.025 544.719, 53.186 543.260, 50.415 547.489 M 13.521 553.965 C 13.193 554.496, 12.688 564.059, 12.399 575.215 C 12.020 589.833, 12.172 595.032, 12.944 593.826 C 13.863 592.388, 15.276 553, 14.408 553 C 14.249 553, 13.850 553.434, 13.521 553.965 M 858.028 564.977 C 858.836 567.896, 858.678 568.767, 857.041 570.404 C 853.030 574.414, 840.248 573.983, 841.323 569.873 C 841.857 567.831, 839.597 567.226, 838.438 569.101 C 835.590 573.708, 851.242 576.627, 857.250 572.609 C 860.369 570.524, 860.918 566.596, 858.532 563.441 C 857.193 561.669, 857.149 561.804, 858.028 564.977 M 882.724 565.822 C 890.269 573.190, 889.061 579.145, 879.473 581.853 C 873.654 583.496, 868.775 582.364, 863.864 578.232 L 860.638 575.517 862.379 578.175 C 863.336 579.636, 864.768 581.081, 865.560 581.385 C 867.993 582.318, 867.211 584.460, 861.636 592.125 C 853.871 602.802, 852.822 605.301, 852.249 614.487 C 851.784 621.939, 851.977 623.079, 854.613 628.462 C 860.501 640.488, 874.052 650.415, 891.500 655.486 C 894.800 656.445, 898.534 657.628, 899.797 658.115 C 901.060 658.602, 903.218 659, 904.592 659 C 906.933 659, 907.048 659.237, 906.415 662.750 C 906.043 664.813, 905.244 667.121, 904.639 667.880 C 903.727 669.025, 904.132 669.127, 907.020 668.479 C 908.934 668.050, 911.090 667.691, 911.811 667.682 C 913.924 667.657, 916.206 662.217, 915.484 658.927 C 914.867 656.118, 913 654.777, 913 657.142 C 913 660.167, 891.149 654.696, 879.142 648.665 C 863.907 641.013, 857.513 634.160, 854.470 622.222 C 853.173 617.133, 853.079 614.938, 853.972 610.637 C 855.165 604.887, 861.764 592.736, 863.209 593.629 C 863.697 593.931, 865.084 591.842, 866.290 588.986 L 868.484 583.794 872.960 584.299 C 880.211 585.116, 883.184 584.155, 886.675 579.866 C 889.452 576.454, 889.737 575.569, 888.945 572.808 C 887.988 569.471, 883.848 564.546, 880.500 562.762 C 879.400 562.176, 880.401 563.553, 882.724 565.822 M 376.546 592 C 377.421 605.844, 377.943 606.859, 390.174 618.543 C 399.781 627.719, 420 644.094, 420 642.699 C 420 642.498, 414.616 637.528, 408.035 631.655 C 395.430 620.404, 391.557 615.220, 389.328 606.616 L 388.002 601.500 388.553 606 C 388.856 608.475, 389.757 611.811, 390.556 613.412 C 392.810 617.931, 391.660 617.528, 386.767 612.086 C 382.075 606.867, 378.109 598.042, 376.843 590 C 376.292 586.501, 376.226 586.946, 376.546 592 M 979 600.049 C 972.146 604.862, 970.016 605.888, 968 605.347 C 966.625 604.978, 962.328 604.593, 958.451 604.492 C 953.901 604.372, 947.697 603.194, 940.951 601.169 C 927.713 597.195, 914.731 594.948, 911.186 596.018 C 908.889 596.711, 909.176 596.841, 913.171 596.914 C 918.582 597.014, 932.338 600.128, 942.676 603.594 C 946.623 604.917, 951.884 606, 954.367 606 C 956.850 606, 959.140 606.417, 959.454 606.926 C 960.372 608.410, 949.476 609.362, 945.888 608.111 C 944.135 607.500, 942.544 607, 942.351 607 C 942.158 607, 942 608.589, 942 610.532 C 942 617.030, 934.521 628.760, 930.134 629.143 C 929.235 629.221, 932.601 629.622, 937.614 630.034 C 942.626 630.446, 947.741 631.326, 948.980 631.989 C 950.810 632.969, 951.513 632.916, 952.723 631.706 C 954.042 630.387, 953.599 630.134, 948.856 629.494 C 941.492 628.500, 941.407 628.333, 946.236 624.335 C 952.097 619.484, 959.566 611.814, 960.196 610 C 960.645 608.706, 961.212 608.759, 964.320 610.387 C 967.847 612.234, 967.911 612.373, 967.297 616.887 C 966.540 622.451, 966.967 622.240, 976.798 612.196 C 982.850 606.013, 985.314 604.677, 983.126 608.765 C 981.717 611.396, 970.179 621.995, 968.693 622.022 C 968.037 622.034, 966.375 622.911, 965 623.970 L 962.500 625.896 966.472 625.003 C 971.676 623.834, 971.750 624.049, 968.023 629.466 C 963.349 636.260, 949.968 647.186, 941.148 651.411 C 936.942 653.426, 931.813 655.920, 929.750 656.954 C 925.730 658.969, 925.203 658.638, 927.532 655.559 C 929.192 653.363, 929.418 652, 928.121 652 C 927.227 652, 924.504 657.673, 925.143 658.207 C 925.335 658.368, 924.455 659.956, 923.188 661.736 C 921.921 663.516, 920.517 667.296, 920.067 670.137 C 919.492 673.779, 918.550 675.837, 916.875 677.114 C 913.870 679.407, 906.265 680.665, 904.725 679.125 C 904.106 678.506, 901.665 678, 899.300 678 C 894.882 678, 894.104 677.296, 896.200 675.200 C 897.133 674.267, 896.884 674, 895.078 674 C 893.331 674, 893.013 673.690, 893.796 672.750 C 894.613 671.769, 893.616 671.570, 889.168 671.824 C 883.528 672.146, 883.499 672.133, 883.301 669.211 C 883.148 666.960, 883.674 666.014, 885.551 665.159 C 886.898 664.545, 888 663.583, 888 663.021 C 888 662.460, 888.788 661.964, 889.750 661.921 C 890.914 661.869, 891.056 661.665, 890.175 661.313 C 889.447 661.022, 887.967 661.732, 886.886 662.892 C 885.806 664.051, 884.505 665, 883.996 665 C 882.434 665, 881.159 668.379, 881.684 671.128 C 882.150 673.564, 882.470 673.701, 886.591 673.237 C 890.203 672.830, 891 673.035, 891 674.370 C 891 675.266, 891.661 676, 892.469 676 C 893.294 676, 893.709 676.594, 893.417 677.357 C 893.042 678.333, 894.214 678.895, 897.597 679.358 C 900.183 679.713, 902.863 680.471, 903.553 681.044 C 904.430 681.772, 906.691 681.649, 911.079 680.636 C 918.021 679.032, 920.940 676.397, 920.978 671.700 C 921.030 665.079, 924.717 661.560, 938.229 655.236 C 952.254 648.670, 966.929 635.915, 971 626.751 C 972.038 624.413, 974.977 620.475, 977.530 618 C 982.796 612.896, 989 601.550, 989 597.025 C 989 593.064, 988.910 593.092, 979 600.049 M 981 600.530 C 978.525 602.398, 975.228 604.462, 973.673 605.116 C 971.681 605.955, 970.986 606.840, 971.320 608.116 C 971.581 609.112, 971.165 610.448, 970.397 611.086 C 968.444 612.707, 968.657 614, 970.878 614 C 973.353 614, 975.117 611.808, 974.042 610.068 C 973.460 609.127, 974.175 607.911, 976.349 606.145 C 986.641 597.785, 989.984 593.750, 981 600.530 M 897.139 613.033 C 895.841 614.115, 895.176 615, 895.662 615 C 896.148 615, 897.398 616.584, 898.441 618.520 C 900.625 622.576, 909.460 627.436, 917.256 628.869 C 922.901 629.907, 929.497 626.514, 932.998 620.771 C 935.472 616.713, 935.729 614.129, 933.429 616.429 C 932.284 617.573, 929.854 618, 924.488 618 C 916.163 618, 914.405 619.206, 919.010 621.759 C 924.932 625.042, 925.620 625.743, 924.270 627.113 C 922.736 628.669, 913.343 627.122, 907.464 624.345 C 903.167 622.315, 898.675 615.700, 899.591 612.750 C 900.268 610.572, 900.066 610.595, 897.139 613.033 M 669.932 623.395 C 666.319 624.648, 661.937 626.515, 660.194 627.544 C 656.796 629.552, 648.294 639.597, 645.626 644.757 C 642.960 649.911, 643.777 649.743, 647.136 644.446 C 654.018 633.595, 658.522 629.417, 667.047 625.981 C 676.970 621.981, 685.833 621.074, 692.568 623.368 C 695.192 624.263, 697.512 624.821, 697.724 624.610 C 697.935 624.398, 695.979 623.499, 693.376 622.612 C 686.777 620.364, 677.810 620.663, 669.932 623.395 M 582.620 638.727 C 583.239 645.790, 583.197 645.975, 580.725 646.914 C 577.935 647.975, 577.155 649.850, 574.032 663 C 571.251 674.713, 571.364 678.506, 574.583 681.489 C 576.003 682.805, 578.141 684.035, 579.333 684.221 C 581.199 684.513, 580.945 684.874, 577.500 686.827 C 574.131 688.737, 573.936 689.005, 576.262 688.525 C 577.781 688.212, 580.392 687.124, 582.062 686.108 L 585.101 684.261 580.300 681.880 C 576.838 680.163, 575.404 678.823, 575.157 677.072 C 574.581 672.991, 576.060 664.083, 577.563 662.580 C 578.633 661.510, 578.680 661.060, 577.755 660.752 C 574.121 659.540, 582.392 645.288, 587.250 644.389 C 587.663 644.312, 588.337 644.180, 588.750 644.095 C 589.163 644.009, 588.712 643.481, 587.750 642.920 C 586.788 642.359, 586 641.418, 586 640.828 C 586 640.167, 586.672 640.270, 587.750 641.097 C 588.884 641.967, 588.751 641.571, 587.372 639.970 C 586.201 638.611, 584.510 636.150, 583.614 634.500 C 582.017 631.558, 581.998 631.640, 582.620 638.727 M 48.860 649.500 C 48.534 650.050, 47.271 653.538, 46.052 657.250 C 44.834 660.962, 43.311 664.053, 42.668 664.118 C 42.026 664.183, 42.850 664.553, 44.500 664.940 C 48.650 665.913, 48.758 665.778, 49.523 658.634 C 50.222 652.101, 49.906 647.736, 48.860 649.500 M 636.623 656.250 C 628.258 669.350, 622.779 684.274, 621.663 697 C 621.159 702.740, 621.202 702.974, 622.025 699 C 622.538 696.525, 623.383 693.600, 623.902 692.500 C 624.420 691.400, 625.759 687.350, 626.877 683.500 C 627.995 679.650, 631.227 671.775, 634.061 666 C 642.018 649.781, 642.902 646.416, 636.623 656.250 M 779.589 672.404 C 792.234 675.321, 806.507 685.364, 812.472 695.543 C 813.909 697.994, 815.542 700, 816.101 700 C 817.305 700, 816.825 699.131, 811.907 692.417 C 802.565 679.663, 790.939 671.994, 780 671.370 L 773.500 671 779.589 672.404 M 647.263 689.750 C 646.365 691.813, 645.440 696.727, 645.209 700.671 C 644.759 708.362, 646.604 713.303, 652.615 720.500 C 654.554 722.822, 654.280 721.948, 651.402 716.630 C 646.882 708.277, 645.696 698.276, 648.314 690.593 C 650.200 685.058, 649.539 684.528, 647.263 689.750 M 568 700 C 568 700.550, 569.350 701, 571 701 C 573.249 701, 574 701.462, 574 702.845 C 574 704.852, 571.051 708, 569.171 708 C 567.639 708, 567.645 708.033, 570.142 713.667 C 572.142 718.180, 572.328 718.334, 572.951 716 C 573.382 714.384, 573.185 713.391, 572.394 713.193 C 570.685 712.764, 569.863 710.203, 571.175 709.392 C 571.774 709.022, 572.713 709.522, 573.262 710.503 C 574.158 712.105, 574.398 711.992, 575.611 709.393 C 576.354 707.802, 577.533 705.694, 578.231 704.708 C 579.318 703.173, 579.142 702.639, 577 700.980 C 574.392 698.961, 568 698.265, 568 700 M 894.994 704.934 C 887.675 707.161, 882.765 711.553, 878.842 719.384 C 874.999 727.056, 868.881 731.875, 861.095 733.362 C 854.760 734.572, 852.926 738.595, 857.380 741.513 C 864.582 746.232, 876.575 747.681, 884.628 744.804 C 887.299 743.850, 888.266 744.002, 891.246 745.843 C 893.166 747.029, 895.920 748, 897.368 748 C 901.202 748, 900.695 749.973, 894.926 757.500 C 878.518 778.909, 879.326 799.368, 897.343 818.660 L 904.212 826.015 906.356 838.758 C 907.535 845.766, 908.624 850.600, 908.776 849.500 C 908.927 848.400, 908.157 842.570, 907.065 836.544 C 905.972 830.519, 905.246 825.420, 905.452 825.215 C 905.658 825.009, 907.083 825.663, 908.618 826.670 C 910.154 827.676, 912.781 829.007, 914.455 829.628 C 932.781 836.426, 933.430 836.802, 932.636 840.139 C 932.421 841.041, 932.650 842.391, 933.145 843.139 C 933.725 844.017, 933.948 842.746, 933.772 839.558 L 933.500 834.616 924 830.996 C 911.288 826.151, 905.417 823.017, 899.841 818.099 C 887.431 807.154, 882.606 791.348, 886.975 775.954 C 888.943 769.019, 889.800 768.554, 896.037 771.033 C 907.627 775.640, 926.465 772.740, 936.351 764.826 L 940.202 761.743 949.851 765.974 C 962.041 771.318, 963.195 771.695, 959.506 769.126 C 957.860 767.979, 953.027 765.601, 948.767 763.843 C 938.780 759.719, 939.535 759.023, 950.187 762.532 C 965.528 767.587, 980.936 775.784, 982.434 779.689 C 982.738 780.480, 983.430 780.852, 983.972 780.517 C 985.079 779.833, 988.088 781.231, 990.328 783.470 C 991.572 784.715, 994.428 784.851, 1008.080 784.313 C 1018.379 783.908, 1023.535 783.372, 1022.130 782.853 C 1020.236 782.152, 1020.077 781.725, 1021.037 779.930 C 1021.656 778.774, 1021.942 777.608, 1021.672 777.339 C 1021.403 777.070, 1020.899 777.742, 1020.553 778.832 C 1018.869 784.140, 1014.526 782.243, 1015.499 776.624 C 1015.891 774.356, 1016.374 771.150, 1016.571 769.500 L 1016.930 766.500 1015.268 769.500 C 1014.354 771.150, 1013.583 774.525, 1013.553 777 L 1013.500 781.500 1007.500 781.780 C 999.869 782.136, 996.626 781.390, 997.409 779.458 C 998.917 775.737, 998.989 774.738, 997.573 777.172 C 995.557 780.635, 992.878 779.959, 976.922 771.961 C 966.060 766.516, 952.827 761.414, 943.409 759.040 C 936.664 757.339, 935.750 755.549, 934.485 741.547 C 933.142 726.672, 929.995 719.075, 922.132 711.720 C 915.120 705.162, 903.664 702.297, 894.994 704.934 M 891 707.768 C 880.095 713.688, 877.532 730.767, 886.492 737.815 C 888.157 739.124, 889.001 740.554, 888.651 741.468 C 887.388 744.758, 895.788 746.037, 904.882 743.941 C 911.091 742.509, 911.153 743.435, 905.216 748.893 C 900.425 753.298, 899.443 755.151, 899.945 758.838 C 900.066 759.721, 899.484 759.971, 898.232 759.574 C 896.245 758.943, 894.204 760.670, 892.076 764.783 C 890.045 768.707, 897.731 771.417, 911.021 771.463 C 920.956 771.498, 921.919 771.315, 928.298 768.174 C 936.871 763.954, 938.772 761.394, 936.539 757.076 C 935.664 755.384, 934.571 754, 934.110 754 C 933.649 754, 933.186 750.080, 933.080 745.288 C 932.670 726.696, 926.898 714.614, 915.643 708.786 C 909.657 705.688, 895.882 705.119, 891 707.768 M 876.666 726.150 C 874.049 730.080, 867.135 734.254, 862.607 734.638 C 850.221 735.688, 860.449 743.852, 874.282 743.956 C 877.462 743.980, 881.711 743.312, 883.723 742.471 L 887.382 740.942 884.262 738.093 C 881.496 735.566, 879.974 732.062, 878.791 725.500 C 878.460 723.658, 878.291 723.710, 876.666 726.150 M 466.411 729.483 C 463.508 730.929, 461.353 732.703, 461.249 733.733 C 461.150 734.705, 460.780 737.993, 460.428 741.039 C 459.710 747.243, 460.393 748.320, 465.679 749.320 C 468.594 749.872, 468.914 749.669, 469.525 746.887 C 470.213 743.753, 475.450 737, 477.192 737 C 477.734 737, 476.996 738.404, 475.553 740.120 C 472.199 744.106, 469.662 748.996, 470.509 749.843 C 470.871 750.204, 475.516 750.500, 480.833 750.500 C 489.227 750.500, 491.306 750.138, 496.625 747.750 C 499.994 746.237, 504.166 744.717, 505.896 744.371 C 509.894 743.571, 510.314 742.820, 509.492 737.950 C 508.712 733.333, 506.571 731.812, 500.490 731.556 C 498.215 731.460, 494.758 730.396, 492.809 729.191 C 487.432 725.868, 473.353 726.023, 466.411 729.483 M 986.779 734 C 987.346 734.825, 989.695 738.875, 991.998 743 C 994.301 747.125, 995.932 749.712, 995.624 748.750 C 995.315 747.788, 995.283 747, 995.552 747 C 996.256 747, 1004.886 760.451, 1008.704 767.500 C 1010.492 770.800, 1011.965 773.140, 1011.977 772.700 C 1012.052 770.059, 995.323 743.126, 989.802 737 C 987.572 734.525, 986.211 733.175, 986.779 734 M 297.985 742.750 C 297.960 747.447, 295.101 758.056, 290.965 768.798 C 286.531 780.314, 285.736 784.258, 289.461 776.255 C 293.355 767.892, 296.736 757.867, 298.004 750.926 C 299.780 741.200, 299.667 741.362, 302.776 744.097 C 305.338 746.350, 305.325 746.300, 302.563 743.246 C 298.976 739.282, 298.004 739.176, 297.985 742.750 M 305.748 749.750 C 302.626 753.247, 291 783.725, 291 788.412 C 291 791.970, 296.431 798.050, 300.867 799.458 C 302.196 799.880, 303.326 801.496, 303.973 803.902 C 305.310 808.864, 307.548 810.744, 314.700 812.909 C 319.754 814.439, 328.113 819.145, 332.840 823.120 C 333.848 823.967, 334.502 823.906, 335.471 822.874 C 336.984 821.262, 346.322 793.458, 345.833 792.019 C 345.650 791.480, 343.283 797.556, 340.573 805.520 C 335.025 821.822, 334.804 822.022, 327.680 817.129 C 325.381 815.550, 320.027 812.814, 315.782 811.049 C 309.912 808.608, 307.576 807.050, 306.023 804.538 L 303.982 801.235 308.118 788.367 C 312.703 774.101, 313.400 772.821, 315.246 775.271 C 316.700 777.200, 323.115 780.042, 325.718 779.910 C 326.698 779.860, 325.966 779.379, 324.092 778.840 C 316.755 776.732, 312.163 771.237, 315.200 768.200 C 315.860 767.540, 315.973 766.980, 315.450 766.955 C 314.928 766.930, 315.850 766.274, 317.500 765.496 L 320.500 764.082 317.500 764.670 C 315.850 764.994, 314.218 765.538, 313.874 765.879 C 313.274 766.475, 309.087 779.183, 305.516 791.250 C 304.580 794.413, 303.494 797, 303.103 797 C 301.983 797, 293.315 791.319, 292.552 790.085 C 291.788 788.848, 294.233 779.658, 296.965 773.500 C 297.941 771.300, 300.205 765.571, 301.996 760.768 C 306.292 749.247, 306.159 749.323, 315.471 753.052 C 319.717 754.752, 323.406 755.927, 323.671 755.663 C 323.935 755.399, 323.104 754.861, 321.825 754.468 C 320.546 754.075, 316.866 752.459, 313.647 750.877 C 306.723 747.473, 307.661 747.607, 305.748 749.750 M 177.385 762.617 C 160.199 768.712, 152.564 794.493, 160.938 818.157 C 162.554 822.723, 163.770 826.563, 163.641 826.692 C 163.512 826.821, 161.178 826.256, 158.453 825.435 C 142.784 820.717, 114.467 824.733, 86.006 835.710 C 67.417 842.879, 55.951 843.965, 39.671 840.098 C 28.781 837.510, 27.282 837.430, 29.020 839.524 C 31.374 842.360, 29.520 841.856, 19.496 836.933 C 7.739 831.160, 8.371 831.280, 7.717 834.699 C 7.353 836.607, 7.945 838.373, 9.740 840.726 C 11.136 842.557, 11.997 844.336, 11.653 844.680 C 11.100 845.233, 9.957 844.046, 5.281 838.060 C 4.611 837.202, 4.924 838.902, 5.977 841.837 C 7.030 844.773, 9.730 849.610, 11.978 852.587 L 16.065 858 11.032 858 C 8.265 858, 6 858.398, 6 858.884 C 6 860.093, 12.695 866.038, 17.163 868.795 C 19.178 870.039, 24.306 875.431, 28.559 880.778 C 32.811 886.125, 37.872 892.167, 39.805 894.205 C 42.719 897.279, 43.106 898.167, 42.073 899.412 C 41.388 900.237, 41.059 901.287, 41.342 901.744 C 41.625 902.201, 40.723 902.669, 39.339 902.784 C 32.819 903.324, 34.294 906.565, 41.203 906.880 C 44.021 907.009, 48.565 907.538, 51.300 908.057 C 54.035 908.576, 56.552 909, 56.892 909 C 57.233 909, 58.131 907.600, 58.889 905.889 C 60.236 902.846, 60.379 902.792, 65.383 903.424 C 74.329 904.553, 76.997 905.196, 76.445 906.089 C 75.607 907.445, 78.142 914.882, 79.912 916.262 C 81.252 917.307, 81.327 917.266, 80.389 916 C 79.778 915.175, 79.023 912.840, 78.712 910.812 C 77.924 905.679, 79.314 904.798, 86.065 906.152 C 94.025 907.749, 132.444 908.322, 147.520 907.069 C 177.184 904.602, 213.481 894.303, 222.882 885.684 C 226.968 881.939, 229.979 874.205, 229.990 867.432 C 230.014 852.745, 223.320 840.933, 206.852 826.604 C 195.638 816.847, 193.598 811.648, 199.544 807.973 C 203.339 805.627, 206.017 805.196, 210 806.289 C 211.375 806.666, 210.588 806.064, 208.250 804.950 C 203.310 802.595, 203.123 801.832, 206.500 797.817 C 209.712 794, 210.400 791.110, 209.163 786.630 L 208.169 783.027 211.429 785.513 C 213.222 786.881, 214.984 788, 215.344 788 C 218.652 788, 210.558 770.291, 205.481 766.418 C 198.473 761.072, 186.362 759.434, 177.385 762.617 M 179.222 763.405 C 173.431 765.301, 168.540 769.210, 165.610 774.284 C 162.876 779.019, 158.955 791.083, 159.086 794.355 C 159.163 796.285, 159.248 796.249, 159.935 794 C 163.216 783.254, 166.356 780.568, 179.875 776.946 L 191.016 773.961 195.196 775.981 C 200.234 778.415, 200 778.399, 200 776.297 C 200 775.046, 201.013 775.583, 203.813 778.317 C 205.910 780.365, 207.924 781.742, 208.289 781.378 C 208.653 781.013, 209.648 781.293, 210.500 782 C 215.058 785.783, 212.406 776.002, 207.236 769.962 C 205.346 767.754, 202.442 765.246, 200.783 764.388 C 196.577 762.213, 184.539 761.664, 179.222 763.405 M 185.668 778.750 C 185.235 779.438, 182.979 780, 180.653 780 C 171.497 780, 164.231 786.139, 163.426 794.556 C 163.165 797.275, 162.708 800.288, 162.409 801.250 C 161.521 804.109, 163.520 803.237, 164.701 800.250 C 165.701 797.717, 165.796 797.678, 165.894 799.750 C 166.003 802.065, 166.886 802.564, 168.550 801.250 C 169.073 800.837, 169.162 800.928, 168.750 801.450 C 167.563 802.953, 167.871 804, 169.500 804 C 170.325 804, 171 804.477, 171 805.059 C 171 805.641, 171.412 805.864, 171.915 805.553 C 172.418 805.242, 173.027 805.553, 173.268 806.244 C 173.585 807.148, 174.321 806.956, 175.897 805.556 C 178.065 803.631, 178.079 803.631, 177.356 805.556 C 176.709 807.278, 176.818 807.343, 178.313 806.128 C 179.356 805.279, 180 805.171, 180 805.844 C 180 806.475, 181.364 806.162, 183.250 805.096 C 185.037 804.087, 189.650 802.213, 193.500 800.934 C 200.762 798.521, 203.488 796.825, 205.176 793.670 C 207.585 789.170, 200.569 781.892, 193.775 781.845 C 188.995 781.811, 187.171 781.121, 186.791 779.203 C 186.542 777.949, 186.246 777.830, 185.668 778.750 M 965.256 784.737 C 964.161 787.063, 961.614 789.705, 958.510 791.737 C 955.767 793.532, 953.887 795, 954.333 795 C 954.778 795, 954.436 795.707, 953.571 796.571 C 951.899 798.244, 951.492 800, 952.777 800 C 954.288 800, 966.908 786.460, 967.922 783.750 C 969.490 779.558, 967.316 780.363, 965.256 784.737 M 919.989 785.250 C 916.702 790.640, 917.691 793.587, 925.895 802.849 C 932.465 810.268, 935.264 811.332, 946.336 810.620 C 956.489 809.968, 960.382 810.827, 960.820 813.817 C 961.032 815.270, 960.614 816, 959.570 816 C 957.403 816, 957.579 817.990, 959.750 818.041 C 960.853 818.067, 962.372 819.941, 963.859 823.108 C 966.044 827.764, 966.316 827.994, 967.547 826.236 C 970.349 822.236, 970.363 819.284, 967.588 817.466 C 963.419 814.734, 964.517 814, 972.772 814 C 987.484 814, 1009.377 805.806, 1016.668 797.571 C 1021.488 792.126, 1023.860 793.503, 1020.581 799.844 C 1018.699 803.483, 1010.810 829.929, 1011.230 831.189 C 1011.797 832.891, 1024.058 793.670, 1024.028 790.250 L 1024 787 1011.750 787.044 C 990.769 787.118, 983.413 790.054, 992.047 794.906 C 995.641 796.926, 996.709 797.077, 1001.548 796.243 C 1007.754 795.174, 1008.702 795.983, 1003.463 797.877 C 1001.269 798.670, 999.030 800.576, 997.566 802.896 C 994.783 807.304, 992.255 809.083, 985.572 811.338 C 980.964 812.892, 968 813.696, 968 812.427 C 968 812.112, 970.475 808.691, 973.500 804.825 C 977.654 799.516, 979 796.982, 979 794.471 C 979 792.148, 979.527 791.007, 980.750 790.684 C 981.712 790.430, 979.575 790.465, 976 790.761 C 969.676 791.285, 969.321 791.467, 962.906 797.485 C 954.852 805.040, 948.841 808.083, 940.675 808.738 L 934.478 809.235 929.088 804.389 C 921.044 797.157, 918.072 789.198, 921.557 784.223 C 922.413 783, 922.856 782, 922.542 782 C 922.228 782, 921.079 783.462, 919.989 785.250 M 759 786.763 C 759 787.309, 763.364 791.037, 768.698 795.046 C 803.421 821.145, 821.281 852.869, 829.476 903 C 831.055 912.657, 832.786 944, 831.741 944 C 831.426 944, 827.757 937.447, 823.586 929.438 C 819.416 921.430, 813.774 911.192, 811.049 906.688 C 807.760 901.253, 805.414 895.811, 804.071 890.500 C 798.829 869.779, 785.154 834, 782.475 834 C 781.930 834, 782.524 835.441, 789.269 850.500 C 795.775 865.023, 804.355 892.979, 802.787 894.546 C 802.574 894.759, 799.596 891.573, 796.169 887.467 C 792.742 883.360, 789.483 880, 788.927 880 C 788.371 880, 786.923 879.042, 785.708 877.872 C 775.581 868.111, 734.854 847.180, 721 844.615 C 719.075 844.258, 722.225 845.708, 728 847.835 C 742.212 853.071, 748.003 855.762, 760.693 863.025 C 788.929 879.186, 804.490 895.579, 819.999 925.500 C 822.850 931, 826.449 937.588, 827.998 940.141 C 829.546 942.693, 831.449 947.643, 832.226 951.141 C 833.511 956.926, 835.726 959.315, 835.340 954.500 C 835.251 953.400, 834.702 944.400, 834.119 934.500 C 832.500 907.026, 831.125 899.602, 820.972 863.503 C 819.426 858.005, 818.283 853.384, 818.432 853.234 C 820.205 851.461, 836.268 895.942, 841.459 917 C 842.340 920.575, 843.685 925.075, 844.447 927 C 847.526 934.777, 851.107 948.431, 853.007 959.641 C 854.112 966.164, 855.483 972.850, 856.053 974.500 C 856.623 976.150, 858.060 987.962, 859.246 1000.750 C 860.431 1013.538, 861.761 1024, 862.201 1024 C 863.236 1024, 863.244 1024.216, 861.508 1005.500 C 860.692 996.700, 860.008 984.325, 859.989 978 C 859.957 967.295, 859.519 960.309, 857.065 931.327 C 855.799 916.382, 850.584 888.100, 847.552 879.743 C 844.744 872.001, 845.701 870.928, 849.553 877.500 C 854.097 885.254, 853.323 882.406, 848.398 873.250 C 839.063 855.895, 829.785 844.003, 811.926 826.500 L 801.722 816.500 809.618 825.569 C 825.999 844.380, 839.499 864.793, 845.745 880.194 C 850.480 891.871, 854.810 917.012, 856.993 945.500 C 858.088 959.800, 858.960 972.625, 858.929 974 C 858.833 978.323, 857.352 973.392, 856.526 966 C 855.229 954.386, 852.040 940.296, 848.444 930.292 C 846.509 924.907, 843.128 914.425, 840.932 907 C 827.818 862.657, 808.414 827.617, 784.742 805.527 C 775.698 797.088, 773.812 794.336, 780.856 799.855 C 785.289 803.329, 789.529 805.664, 788.562 804.100 C 787.644 802.615, 789.299 802.699, 790.815 804.215 C 791.484 804.884, 795.408 807.246, 799.536 809.465 C 813.984 817.232, 825.112 826.061, 844.915 845.471 C 876.649 876.574, 878.236 878.211, 884.722 886.525 C 894.065 898.500, 895.337 899.972, 894.056 897.318 C 890.136 889.199, 847.069 844.352, 826.361 826.824 C 811.344 814.113, 791.649 801.738, 775.500 794.867 C 771.650 793.229, 767.487 791.238, 766.250 790.444 C 765.013 789.650, 762.875 788.273, 761.500 787.385 C 760.125 786.497, 759 786.217, 759 786.763 M 218 788.021 C 218 791.751, 232.577 802, 237.881 802 C 241.007 802, 244 803.770, 244 805.619 C 244 806.470, 243.492 806.997, 242.870 806.790 C 242.249 806.583, 240.483 807.670, 238.947 809.207 C 236.957 811.197, 235.054 812.043, 232.327 812.150 C 229.759 812.250, 229.324 812.429, 231.003 812.692 C 232.380 812.908, 235.980 812.455, 239.003 811.685 C 244.030 810.404, 244.526 810.024, 244.806 807.238 C 245.155 803.766, 242.211 801, 238.167 801 C 234.144 801, 223.928 794.883, 220.846 790.628 C 219.281 788.468, 218 787.295, 218 788.021 M 1005.500 812.044 C 1001.650 815.319, 996.475 819.558, 994 821.463 C 988.748 825.505, 970.634 834.816, 967.005 835.338 C 964.825 835.652, 964.478 836.254, 964.258 840.099 C 964.020 844.252, 962.127 857.305, 959.872 870.347 C 959.316 873.563, 959.095 876.429, 959.382 876.715 C 960.170 877.504, 961.599 869.853, 965.240 845.341 L 966.304 838.181 974.492 834.533 C 984.644 830.009, 995.941 822.814, 1002.437 816.734 C 1005.152 814.192, 1007.696 812.312, 1008.089 812.555 C 1008.482 812.798, 1009.733 811.423, 1010.868 809.499 C 1012.004 807.574, 1012.835 806.020, 1012.716 806.044 C 1012.597 806.069, 1009.350 808.769, 1005.500 812.044 M 352.754 815.713 C 351.376 819.446, 349.926 823.993, 349.530 825.818 C 349.135 827.642, 348.226 829.360, 347.511 829.634 C 346.365 830.074, 340.333 828.833, 336.537 827.376 C 335.697 827.054, 335.255 827.539, 335.350 828.681 C 335.460 830.015, 336.914 830.830, 340.808 831.740 C 344.543 832.612, 347.061 833.975, 349.308 836.339 C 351.114 838.239, 355.020 840.634, 358.303 841.855 C 364.933 844.319, 386.582 848.111, 395.500 848.370 C 398.800 848.466, 402.106 848.759, 402.846 849.022 C 404.175 849.494, 405.241 847.182, 412.417 828.272 C 413.925 824.297, 416.249 819.439, 417.580 817.478 C 420.557 813.090, 420.615 812.456, 417.860 814.386 C 415.741 815.870, 411.634 824.537, 408.379 834.394 C 404.975 844.703, 405.698 844.357, 389.048 843.639 C 367.029 842.690, 355.061 840.040, 350.617 835.129 C 348.930 833.266, 350.109 826.578, 354.145 815.105 C 355.189 812.137, 355.867 809.533, 355.651 809.318 C 355.436 809.102, 354.132 811.980, 352.754 815.713 M 171.035 813.934 C 169.661 816.502, 169.725 821.944, 171.194 827.437 C 172.291 831.539, 172.678 831.933, 175.944 832.283 C 179.132 832.624, 179.032 832.681, 174.973 832.832 C 172.300 832.931, 169.561 832.381, 168.288 831.489 C 164.880 829.102, 164.111 831.838, 167.396 834.664 C 171.451 838.152, 177.316 837.814, 187.500 833.507 C 190.085 832.413, 191.058 832.272, 190.250 833.107 C 189.563 833.818, 189 835.246, 189 836.279 C 189 837.313, 187.834 841.074, 186.409 844.636 L 183.817 851.114 188.724 856.307 C 196.208 864.229, 199.125 869.872, 199.548 877.250 L 199.907 883.500 199.018 877.289 C 197.966 869.930, 194.689 863.938, 187.432 856.100 C 182.608 850.890, 182.312 850.294, 183.644 848.474 C 185.238 846.295, 188.441 836.107, 187.749 835.415 C 187.508 835.175, 185.385 835.658, 183.030 836.489 C 177.048 838.600, 171.152 838.390, 167.105 835.923 C 163.266 833.583, 162.042 834.386, 162.015 839.264 L 162 842.029 156.250 839.127 C 148.699 835.316, 140.725 833.004, 135.068 832.985 C 132.556 832.976, 129.904 832.592, 129.176 832.130 C 126.740 830.586, 143.414 832.258, 148.765 834.095 L 154.030 835.903 158.999 832.210 L 163.969 828.517 160.234 827.214 C 152.882 824.646, 141.578 823.736, 132.265 824.961 C 123.055 826.172, 108.202 829.624, 106.500 830.949 C 105.950 831.377, 103.655 832.008, 101.400 832.351 C 95.691 833.221, 81.898 837.959, 80.235 839.622 C 79.477 840.380, 77.996 841, 76.943 841 C 73.765 841, 66 843.352, 66 844.314 C 66 844.809, 66.617 844.977, 67.372 844.687 C 68.127 844.398, 70.939 843.916, 73.622 843.616 L 78.500 843.071 73.200 844.439 C 60.840 847.630, 55.395 847.468, 44.085 843.577 C 31.589 839.278, 31.906 839.304, 35.560 842.862 C 39.148 846.354, 47.376 851.659, 55.750 855.879 C 61.795 858.926, 63.352 858.952, 60.750 855.965 C 60.062 855.176, 60.625 855.488, 62 856.660 C 66.423 860.429, 71.422 862.991, 74.500 863.067 C 76.829 863.124, 77.084 863.304, 75.642 863.871 C 74.006 864.515, 74.408 865.285, 78.999 870.309 C 81.868 873.448, 85.404 876.313, 86.858 876.676 C 88.311 877.038, 91.592 878.620, 94.148 880.191 C 98.497 882.863, 99.079 882.971, 103.177 881.875 C 106.918 880.875, 107.990 880.954, 110.528 882.416 C 112.163 883.357, 112.600 883.780, 111.500 883.356 C 106.968 881.609, 102.179 882.523, 97.794 885.972 C 94.311 888.712, 93.957 888.845, 95.921 886.679 C 97.252 885.210, 98.152 883.859, 97.921 883.678 C 97.689 883.496, 95.800 882.325, 93.723 881.075 L 89.946 878.804 86.601 881.356 C 84.760 882.759, 82.298 885.841, 81.128 888.204 C 79.959 890.567, 79.001 891.747, 79.001 890.828 C 79 889.781, 77.597 888.695, 75.250 887.924 C 73.188 887.247, 69.771 885.605, 67.657 884.275 C 62.836 881.242, 61.423 881.790, 58.805 887.707 C 55.546 895.076, 57.575 900.044, 64.500 901.649 C 71.314 903.228, 78 903.308, 78 901.809 C 78 901.154, 78.608 901.449, 79.350 902.464 C 80.300 903.764, 82.406 904.452, 86.460 904.788 C 92.123 905.258, 92.209 905.226, 91.604 902.883 C 91.003 900.554, 91.015 900.549, 92.114 902.676 C 95.153 908.552, 151.920 906.753, 181.410 899.845 C 191.196 897.553, 193.815 895.661, 197.114 888.500 C 198.127 886.300, 198.961 885.175, 198.966 886 C 198.971 886.825, 197.846 889.477, 196.465 891.893 C 195.083 894.310, 194.141 896.474, 194.370 896.704 C 194.962 897.296, 209.379 892.357, 214.121 889.938 C 231.465 881.090, 233.868 861.941, 220.095 842.330 C 214.612 834.522, 204.246 824.692, 202.289 825.443 C 201.593 825.710, 201.131 825.597, 201.262 825.193 C 201.616 824.097, 194.170 815.287, 192.202 814.473 C 188.137 812.792, 184 812.230, 183.985 813.355 C 183.974 814.141, 183.723 814.113, 183.185 813.265 C 182.584 812.319, 181.831 812.430, 179.957 813.742 C 176.472 816.184, 174.701 816.253, 175.310 813.924 C 175.587 812.864, 175.405 812.249, 174.907 812.558 C 174.408 812.866, 174 813.740, 174 814.500 C 174 815.260, 173.485 816.200, 172.855 816.590 C 172.065 817.078, 171.867 816.477, 172.216 814.649 C 172.817 811.508, 172.452 811.287, 171.035 813.934 M 421.543 816.070 C 421.907 816.658, 420.850 819.696, 419.195 822.820 C 417.540 825.944, 414.078 833.225, 411.502 839 C 408.926 844.775, 405.981 850.407, 404.956 851.515 C 403.651 852.926, 403.374 853.976, 404.031 855.015 C 404.547 855.832, 404.976 857.351, 404.985 858.392 C 405.013 861.886, 418.631 871.702, 420.650 869.683 C 420.916 869.417, 419.565 868.681, 417.647 868.049 C 414.713 867.080, 410.625 864, 412.274 864 C 412.559 864, 416.327 865.685, 420.646 867.745 L 428.500 871.489 441.500 871.410 C 448.650 871.366, 456.054 871.094, 457.953 870.806 C 462.136 870.171, 463.311 868, 459.472 868 C 456.979 868, 456.821 867.757, 457.362 864.750 C 458.283 859.629, 459.060 852.398, 458.571 853.500 C 458.326 854.050, 457.608 857.127, 456.974 860.338 C 455.920 865.678, 455.515 866.305, 452.232 867.677 C 441.937 871.978, 413.241 865.876, 408.299 858.334 C 406.406 855.444, 409.293 847.019, 417.617 831.137 C 420.028 826.538, 422 822.220, 422 821.542 C 422 820.864, 422.900 819.495, 424 818.500 C 426.688 816.067, 426.518 815, 423.441 815 C 421.878 815, 421.139 815.417, 421.543 816.070 M 931 825.550 C 931 827.174, 934.661 832.960, 937.692 836.126 C 940.755 839.325, 941.276 840.659, 942.122 847.475 C 943.461 858.263, 941.419 859.994, 929.655 858.043 C 917.693 856.060, 911.146 850.152, 921.668 850.836 C 925.070 851.057, 928.060 850.591, 930.418 849.472 C 933.773 847.880, 935.195 846, 933.044 846 C 932.519 846, 930.441 844.881, 928.426 843.514 C 921.249 838.644, 912.984 838.024, 913.015 842.358 C 913.040 845.857, 916.695 859.495, 921.897 875.500 C 929.400 898.584, 936.897 923.090, 937.740 927.285 C 938.700 932.066, 940.400 932.542, 940.821 928.147 C 941.031 925.953, 940.772 925.023, 940.071 925.456 C 939.400 925.871, 939 924.994, 939 923.110 C 939 920.597, 932.679 901.348, 920.575 867 C 919.315 863.425, 918.002 859.322, 917.657 857.882 L 917.028 855.265 920.857 857.159 C 925.471 859.442, 935.362 861.184, 938.923 860.341 C 943.890 859.166, 945 857.261, 945 849.914 L 945 843.138 951.250 841.705 C 954.688 840.917, 957.876 840.609, 958.336 841.022 C 959.713 842.257, 957.140 856.736, 953.390 868.855 C 951.457 875.100, 950.051 880.384, 950.264 880.598 C 950.478 880.811, 952.291 875.702, 954.293 869.243 C 960.986 847.652, 962.050 838, 957.738 838 C 957.178 838, 956.116 837.212, 955.377 836.250 C 954.118 834.611, 953.994 834.636, 953.426 836.651 C 953.092 837.834, 951.847 839.035, 950.659 839.320 C 949.472 839.605, 947.573 840.130, 946.441 840.486 C 944.876 840.978, 944.111 840.538, 943.252 838.653 C 942.630 837.289, 941.229 835.890, 940.138 835.544 C 939.046 835.197, 936.722 832.683, 934.972 829.957 C 932.002 825.327, 931 824.216, 931 825.550 M 471.199 832.697 C 475.742 833.088, 475.838 833.162, 474.081 834.919 C 472.412 836.588, 462.586 863.919, 463.372 864.706 C 463.561 864.895, 465.917 859.085, 468.608 851.794 C 475.502 833.115, 473.754 834.222, 495.252 834.922 C 505.015 835.240, 513.003 835.211, 513.002 834.857 C 513.001 834.503, 506.137 833.946, 497.750 833.619 C 489.363 833.292, 478.900 832.860, 474.500 832.659 C 470.100 832.458, 468.615 832.475, 471.199 832.697 M 13.608 840.692 C 16.020 848.708, 21.321 859.279, 25.546 864.500 C 27.772 867.250, 29.919 870.036, 30.319 870.692 C 30.719 871.347, 26.873 869.598, 21.773 866.804 C 12.313 861.621, 10.062 860.163, 13.343 861.345 C 22.426 864.616, 22.798 862.030, 14.774 851.398 C 11.323 846.826, 8.151 843.066, 7.724 843.042 C 6.322 842.966, 9.806 848.593, 15.035 854.851 C 17.861 858.233, 19.711 861, 19.146 861 C 18.580 861, 17.840 860.550, 17.500 860 C 16.557 858.475, 7.744 858.712, 8.220 860.250 C 9.007 862.798, 36 879.432, 36 877.369 C 36 876.962, 34.987 875.488, 33.750 874.093 C 32.513 872.698, 33.318 873.144, 35.539 875.085 C 43.201 881.779, 56.223 889.411, 57.361 887.875 C 57.514 887.669, 58.572 885.867, 59.713 883.872 L 61.788 880.244 55.941 876.121 C 49.241 871.396, 44.899 865.624, 42.479 858.227 C 40.974 853.623, 40.193 852.736, 35.147 849.897 C 32.041 848.149, 25.831 844.308, 21.346 841.360 C 16.861 838.412, 12.968 836, 12.694 836 C 12.420 836, 12.831 838.111, 13.608 840.692 M 95.500 837.090 C 93.850 837.460, 93.175 837.853, 94 837.963 C 94.844 838.075, 94.189 838.763, 92.500 839.536 C 88.611 841.317, 89.046 841.307, 98 839.408 C 107.937 837.301, 131.896 837.358, 142.629 839.514 C 150.746 841.145, 163.816 846.748, 171.259 851.788 C 177.614 856.091, 178.908 856.531, 175 853.059 C 162.952 842.356, 147.727 837.344, 124.642 836.482 C 116.864 836.192, 108.025 836.367, 105 836.871 C 101.975 837.375, 99.275 837.478, 99 837.101 C 98.725 836.725, 97.150 836.719, 95.500 837.090 M 509.559 838.532 C 507.744 839.905, 507.736 840, 509.434 840 C 511.795 840, 511.138 843.571, 507.073 852.834 C 503.686 860.551, 499 876.083, 499 879.593 C 499 881.247, 498.321 882.100, 496.750 882.420 C 482.278 885.369, 465.824 881.644, 462.034 874.563 C 461.171 872.952, 460.285 872.315, 459.707 872.893 C 459.130 873.470, 459.640 875.366, 461.046 877.868 C 464.319 883.692, 468.624 885.158, 484.250 885.768 C 496.953 886.264, 497 886.274, 497 888.698 C 497 894.728, 500.312 896.825, 514.022 899.476 C 528.862 902.344, 538.772 903.014, 549.073 901.845 L 558.647 900.758 567.931 904.473 C 581.726 909.992, 589.054 911.720, 603.965 912.972 C 614.357 913.845, 618.180 914.566, 620.718 916.135 C 622.736 917.382, 628.541 918.904, 635.753 920.078 C 650.431 922.466, 650 922.279, 650 926.246 C 650 928.066, 650.675 930.518, 651.499 931.696 C 653.439 934.465, 663.488 937.722, 672.750 938.584 L 680 939.258 680 942.679 C 680 950.873, 686.803 956.966, 698.831 959.543 C 710.054 961.948, 714.256 963.077, 713.774 963.559 C 713.539 963.795, 704.156 964.462, 692.923 965.043 C 668.299 966.316, 649.122 968.948, 635.002 972.993 C 629.228 974.647, 623.710 976, 622.739 976 C 621.767 976, 620.191 976.430, 619.236 976.956 C 618.281 977.482, 614.800 978.642, 611.500 979.534 C 599.731 982.714, 582.348 989.287, 572.830 994.157 C 563.109 999.129, 557.992 1003.621, 553.484 1011.138 C 551.817 1013.918, 550.519 1014.715, 545.984 1015.741 C 537.906 1017.569, 527.130 1020.980, 526.570 1021.886 C 526.302 1022.321, 529.612 1021.654, 533.925 1020.404 C 549.996 1015.750, 551.304 1015.735, 557.445 1020.132 C 560.416 1022.260, 563.431 1024, 564.146 1024 C 564.860 1024, 564.332 1023.256, 562.973 1022.346 C 561.613 1021.436, 559.039 1019.614, 557.254 1018.298 L 554.008 1015.904 555.954 1012.090 C 561.961 1000.316, 582.315 989.799, 617 980.550 C 623.875 978.717, 633.775 976.060, 639 974.646 C 665.377 967.507, 717.632 963.645, 729.216 967.980 C 736.209 970.596, 760.086 991.259, 763.142 997.339 C 764.292 999.628, 765.925 1002.288, 766.771 1003.250 C 768.206 1004.882, 768.037 1005, 764.268 1005 C 760.048 1005, 750.957 1007.539, 735.156 1013.130 C 721.833 1017.845, 725.265 1017.772, 741.077 1013.005 C 755.240 1008.735, 767.212 1006.395, 769.058 1007.536 C 769.696 1007.930, 769.890 1009.301, 769.518 1010.784 C 768.987 1012.901, 769.118 1013.147, 770.269 1012.192 C 771.707 1010.998, 775.026 1014.015, 780.071 1021.099 C 781.967 1023.762, 785 1025.069, 785 1023.223 C 785 1022.796, 783.187 1020.658, 780.971 1018.473 C 778.755 1016.288, 775.879 1012.475, 774.579 1010 C 773.280 1007.525, 771.239 1004.617, 770.044 1003.537 C 768.849 1002.457, 765.918 998.857, 763.530 995.537 C 759.329 989.695, 742.994 974.435, 738.975 972.597 C 737.889 972.101, 737 971.313, 737 970.847 C 737 969.705, 738.739 969.769, 739.461 970.937 C 740.584 972.754, 750.578 976.739, 757 977.930 C 760.575 978.594, 765.670 979.766, 768.323 980.536 C 771.968 981.594, 773.051 981.638, 772.760 980.718 C 772.403 979.585, 765.184 976.926, 758.693 975.535 C 756.354 975.034, 755.996 974.564, 756.547 972.717 C 757.177 970.601, 757.141 970.586, 755.764 972.391 C 753.918 974.809, 748.768 974.010, 743.602 970.504 C 741.622 969.161, 739.321 968.323, 738.488 968.643 C 737.656 968.962, 736.418 968.792, 735.737 968.265 C 735.057 967.737, 731.462 966.254, 727.750 964.968 C 719.657 962.165, 719.850 963.681, 725 943.376 C 727.200 934.703, 729 927.170, 729 926.636 C 729 924.033, 727.586 927.717, 725.528 935.680 C 720.092 956.712, 718.447 962, 717.338 962 C 714.862 962, 691.842 954.960, 688.135 953.069 C 683.796 950.855, 683.337 950.063, 682.454 943.262 C 681.920 939.152, 682.403 937.131, 685.980 928.500 C 688.260 923, 691.030 916.138, 692.135 913.250 C 694.240 907.747, 695.278 907.117, 698.527 909.364 C 699.612 910.114, 703.914 910.942, 708.086 911.203 C 716.968 911.760, 719.597 913.290, 732.500 925.413 L 740.500 932.930 735.821 937.215 C 730.658 941.943, 729.043 944.743, 726.625 953.154 C 724.042 962.141, 724.872 962.280, 727.916 953.369 C 731.266 943.563, 733.533 940.193, 738.747 937.262 L 742.705 935.038 747.160 939.769 C 752.600 945.545, 761.760 957.803, 765.489 964.295 C 767.004 966.933, 768.462 968.871, 768.730 968.604 C 770.635 966.698, 755.682 946.831, 741.691 932.678 C 723.811 914.593, 716.755 909.875, 705.565 908.526 C 696.100 907.384, 691.624 904.789, 697.250 903.706 C 699.269 903.317, 699.231 903.258, 696.876 903.136 C 695.432 903.061, 692.338 902.325, 690 901.500 C 684.131 899.429, 683.971 899.592, 688.800 902.723 C 694.145 906.189, 694.110 906.708, 687.607 920.808 C 684.640 927.238, 682.040 933.400, 681.829 934.500 C 680.988 938.884, 657.335 934.952, 652.666 929.652 C 651.419 928.237, 650.989 926.598, 651.323 924.535 C 652.324 918.348, 660.177 889.491, 661.193 888.268 C 661.917 887.395, 661.920 887, 661.203 887 C 660.041 887, 658.613 891.123, 653.927 908 C 652.171 914.325, 650.674 919.582, 650.601 919.682 C 650.246 920.171, 634.242 917.848, 632.500 917.054 C 631.400 916.554, 628.858 915.875, 626.850 915.546 C 621.317 914.638, 620.636 913.193, 621.283 903.729 C 621.810 896.024, 625.782 876.334, 627.972 870.573 C 628.607 868.903, 628.608 868, 627.975 868 C 627.439 868, 627 868.165, 627 868.366 C 627 868.567, 625.680 873.763, 624.066 879.913 C 622.453 886.063, 620.596 895.357, 619.940 900.566 C 619.285 905.775, 618.409 910.247, 617.994 910.504 C 615.383 912.117, 580.052 907.533, 576.096 905.067 C 574.033 903.781, 572.274 865.719, 573.914 857.873 L 575.091 852.246 580.162 851.573 C 582.951 851.203, 585.010 850.677, 584.737 850.404 C 584.464 850.131, 580.486 850.378, 575.897 850.954 C 571.307 851.529, 564.166 852.048, 560.026 852.107 C 552.813 852.210, 552.678 852.254, 556.780 853.172 C 559.417 853.762, 563.348 853.783, 567.025 853.227 C 570.306 852.730, 573.168 852.501, 573.385 852.719 C 573.603 852.936, 573.102 855.676, 572.273 858.807 C 571.115 863.179, 570.936 866.936, 571.500 875 C 573.624 905.382, 573.601 904.065, 572 903.410 C 571.175 903.072, 569.304 902.362, 567.842 901.832 C 563.812 900.371, 563.462 895.397, 566.553 883.500 C 566.839 882.400, 566.305 882.850, 565.367 884.500 C 564.428 886.150, 563.399 890.104, 563.080 893.286 L 562.500 899.073 548.500 899.613 C 527.268 900.432, 502.688 896.023, 499.948 890.903 C 498.038 887.333, 502.571 869.582, 511.670 845 C 512.395 843.042, 512.645 836.989, 512 837.031 C 511.725 837.049, 510.626 837.724, 509.559 838.532 M 914.440 842.297 C 912.670 846.908, 920.273 850.880, 926.688 848.694 C 931.138 847.178, 931.195 845.938, 926.910 843.795 C 921.666 841.173, 915.170 840.392, 914.440 842.297 M 110.500 843.892 C 107.200 844.854, 102.120 846.864, 99.211 848.357 C 94.586 850.732, 93.458 850.944, 90.211 850.042 C 88.170 849.475, 84.389 849.009, 81.809 849.006 C 79.229 849.003, 76.840 848.550, 76.500 848 C 76.160 847.450, 76.273 847, 76.750 847 C 77.227 847, 78.491 846.327, 79.559 845.505 C 81.227 844.220, 80.960 844.227, 77.662 845.555 C 75.551 846.405, 71.276 847.540, 68.162 848.077 C 65.048 848.614, 61.375 849.331, 60 849.670 L 57.500 850.287 60 851.044 C 61.375 851.460, 66.908 851.845, 72.294 851.900 C 81.644 851.995, 94.859 854.370, 96.063 856.171 C 96.373 856.635, 100.198 856.057, 104.563 854.887 C 110.200 853.376, 115.773 852.722, 123.793 852.630 C 130.004 852.558, 134.068 852.258, 132.824 851.962 C 130.736 851.466, 130.825 851.315, 133.971 850.012 L 137.380 848.600 132.440 847.319 C 125.449 845.507, 117.543 845.699, 109.708 847.871 C 105.996 848.901, 102.749 849.403, 102.493 848.988 C 102.035 848.247, 110.110 844.984, 117 843.125 C 118.925 842.605, 119.600 842.172, 118.500 842.161 C 117.400 842.151, 113.800 842.930, 110.500 843.892 M 277.457 857.863 C 272.677 860.778, 270.564 864.748, 270.406 871.113 C 270.276 876.336, 270.472 876.848, 273.223 878.473 C 276.875 880.630, 275.802 882.061, 269.770 883.084 C 266 883.724, 266.319 883.810, 272.500 883.825 C 276.350 883.833, 281.525 884.069, 284 884.348 C 286.475 884.627, 287.375 884.642, 286 884.381 C 274.437 882.187, 268.098 869.791, 274.593 862.072 C 276.137 860.237, 278.773 858.137, 280.450 857.407 C 282.128 856.676, 282.825 856.062, 282 856.043 C 281.175 856.023, 279.131 856.842, 277.457 857.863 M 324.722 864.445 C 325.052 867.715, 325.921 871.540, 326.654 872.945 C 330.300 879.931, 325.251 891.014, 316.100 896.112 C 314.120 897.215, 313.400 897.808, 314.500 897.430 C 315.600 897.052, 317.404 896.544, 318.509 896.301 C 321.261 895.695, 327.793 886.621, 328.609 882.268 C 328.977 880.312, 328.765 876.492, 328.138 873.779 C 327.512 871.067, 326.980 867.869, 326.955 866.674 C 326.930 865.478, 326.283 863.150, 325.516 861.500 C 324.194 858.653, 324.153 858.803, 324.722 864.445 M 742.500 866.505 C 750.739 873.893, 762.684 886.099, 766.470 891 C 778.974 907.187, 793.500 932.089, 798.844 946.500 C 800.476 950.900, 803.202 957.577, 804.903 961.338 C 806.604 965.099, 808.709 970.724, 809.582 973.838 C 812.397 983.884, 814.981 990.246, 821.475 1003.120 C 824.977 1010.061, 828.399 1017.599, 829.079 1019.870 C 829.760 1022.142, 830.726 1024, 831.226 1024 C 832.402 1024, 831.541 1021.227, 827.502 1012 C 825.696 1007.875, 822.449 1000.450, 820.286 995.500 C 818.123 990.550, 815.313 982.929, 814.041 978.564 C 812.769 974.200, 808.864 964.397, 805.364 956.780 C 801.864 949.163, 799 942.686, 799 942.387 C 799 940.293, 786.333 917.357, 779.732 907.500 C 765.540 886.304, 758.643 878.236, 747.624 869.935 C 743.156 866.569, 740.850 865.025, 742.500 866.505 M 985.006 873.205 C 984.325 877.767, 983.653 887.035, 983.512 893.801 L 983.256 906.102 986.128 908.974 C 987.708 910.554, 989 912.847, 989 914.071 C 989 916.032, 989.274 915.893, 991.309 912.898 C 992.989 910.426, 993.261 909.412, 992.309 909.177 C 991.323 908.933, 990.948 905.479, 990.791 895.177 L 990.582 881.500 990.041 896.500 L 989.500 911.500 987.500 908.548 C 984.979 904.827, 984.299 890.753, 985.919 875.857 C 987.268 863.462, 986.704 861.825, 985.006 873.205 M 965 869.879 C 965 871.463, 963.666 878.101, 962.036 884.629 C 959.404 895.166, 956.914 907.911, 953.884 926.355 C 953.355 929.575, 952.207 935.200, 951.332 938.855 C 949.520 946.426, 948.964 951.456, 950.067 950.292 C 950.933 949.377, 954.258 933.038, 956.537 918.500 C 957.399 913, 959.646 901.691, 961.530 893.369 C 965.077 877.698, 966.743 867, 965.638 867 C 965.287 867, 965 868.296, 965 869.879 M 864.688 873.701 C 865.685 875.462, 870.325 882.320, 875 888.942 C 879.675 895.563, 887.430 908.523, 892.233 917.741 C 897.036 926.958, 900.973 934.156, 900.983 933.735 C 901.067 930.009, 878.841 890.785, 871.326 881.398 C 868.639 878.042, 865.639 874.217, 864.659 872.898 C 863.010 870.679, 863.012 870.739, 864.688 873.701 M 31.443 881.926 C 39.307 892.146, 43.705 895.433, 53.702 898.561 L 57.903 899.875 56.952 897.372 C 56.428 895.996, 55.994 893.662, 55.988 892.185 C 55.974 889.276, 47.106 883.992, 33.295 878.663 L 27.090 876.269 31.443 881.926 M 865.068 879.840 C 864.966 881.862, 871.088 899.283, 872.504 901 C 873.185 901.825, 874.774 905.650, 876.036 909.500 C 877.299 913.350, 878.534 915.893, 878.782 915.151 C 879.030 914.410, 878.737 912.835, 878.132 911.651 C 877.527 910.468, 875.628 905.450, 873.912 900.500 C 871.087 892.346, 869.590 888.541, 866.245 881 C 865.635 879.625, 865.105 879.103, 865.068 879.840 M 764.639 911.500 C 766.735 914.800, 769.912 920.343, 771.699 923.819 C 773.486 927.294, 775.833 930.894, 776.914 931.819 C 777.995 932.743, 781.832 938.413, 785.441 944.417 C 792.714 956.520, 793.635 957.800, 792.026 953.568 C 790.410 949.318, 779.893 931.619, 778.482 930.776 C 777.816 930.378, 775.163 926.328, 772.586 921.776 C 770.009 917.224, 766.309 911.700, 764.364 909.500 L 760.828 905.500 764.639 911.500 M 726.550 912.837 C 727.072 913.298, 731.550 916.553, 736.500 920.070 C 741.450 923.588, 751.307 932.324, 758.404 939.483 C 771.321 952.513, 775.806 955.703, 764.492 943.814 C 748.211 926.704, 757.873 933.696, 777.069 952.914 C 795.818 971.685, 797.719 973.245, 789.967 963.500 C 780.127 951.129, 767.695 939.745, 754 930.566 C 747.125 925.958, 738.229 919.895, 734.230 917.094 C 727.894 912.654, 723.713 910.337, 726.550 912.837 M 81 919.901 C 81 920.397, 83.065 922.838, 85.589 925.327 L 90.178 929.851 85.339 930.474 C 76.191 931.651, 61.546 934.121, 61.107 934.560 C 60.345 935.322, 63.233 935.012, 72 933.392 C 82.945 931.370, 105.206 931.150, 107.711 933.040 C 109.387 934.305, 109.396 934.276, 107.859 932.590 C 106.692 931.310, 104.437 930.704, 100.053 930.492 C 93.160 930.159, 88.044 927.373, 84.500 922.025 C 82.534 919.057, 81 918.127, 81 919.901 M 881 924.164 C 881 925.524, 881.650 928.856, 882.444 931.568 C 888.520 952.320, 889.501 960.936, 889.472 993.250 C 889.451 1016.042, 889.746 1024, 890.611 1024 C 892.076 1024, 893.554 985.270, 892.560 972.898 C 891.683 961.982, 889.467 949.652, 886.433 938.804 C 885.095 934.021, 884 929.382, 884 928.495 C 884 925.532, 885.710 927.893, 887.063 932.724 C 887.798 935.351, 889.461 939.063, 890.757 940.974 C 894.068 945.853, 894.224 945.887, 892.636 941.386 C 890.364 934.945, 885.388 925.653, 883.109 923.595 C 881.019 921.707, 881 921.712, 881 924.164 M 958.736 929.390 C 957.340 938.665, 957.903 949.838, 960.157 957.596 C 962.997 967.369, 963.557 966.460, 961.082 956.096 C 958.866 946.817, 959.093 938.660, 961.647 935.838 C 963.161 934.165, 963.169 933.843, 961.739 932.250 C 960.874 931.288, 960.011 929.150, 959.820 927.500 C 959.532 925.022, 959.344 925.350, 958.736 929.390 M 336.500 935.271 C 331.867 937.862, 328 944.516, 328 949.897 C 328 952.061, 327.157 954.338, 325.765 955.936 C 324.536 957.346, 324.176 957.938, 324.965 957.250 C 327.098 955.392, 329.788 955.735, 331.011 958.021 C 332.404 960.623, 331.684 961.691, 327.989 962.503 C 326.345 962.864, 325 963.529, 325 963.982 C 325 964.434, 327.036 964.192, 329.524 963.443 C 335.789 961.557, 337.591 962.362, 335.060 965.916 C 334 967.404, 332.847 969.945, 332.498 971.561 C 331.991 973.912, 332.257 973.673, 333.831 970.367 C 335.118 967.663, 336.783 965.883, 338.649 965.218 L 341.500 964.202 338.340 963.035 C 332.245 960.783, 328.258 952.504, 330.038 945.799 C 333.742 931.843, 352.112 929.466, 359.429 941.995 C 362.065 946.509, 362.211 955.502, 359.710 959.319 C 358.744 960.794, 358.317 962, 358.761 962 C 360.697 962, 362.999 955.918, 362.984 950.846 C 362.940 936.535, 348.949 928.307, 336.500 935.271 M 93.720 939.742 C 86.611 940.110, 85.118 942, 91.937 942 C 94.037 942, 96.288 942.642, 96.939 943.427 C 97.627 944.255, 100.932 945.120, 104.812 945.488 C 108.490 945.837, 112.940 946.314, 114.699 946.548 C 116.459 946.782, 118.173 946.529, 118.508 945.987 C 118.844 945.444, 120.779 944.944, 122.809 944.877 C 125.520 944.786, 124.802 944.510, 120.107 943.839 C 116.590 943.336, 111.092 942.042, 107.888 940.962 C 104.684 939.883, 101.711 939.088, 101.282 939.196 C 100.852 939.304, 97.449 939.549, 93.720 939.742 M 169.217 946.250 C 168.601 947.487, 167.906 950.750, 167.673 953.500 C 167.440 956.250, 166.112 961.537, 164.721 965.249 C 163.331 968.961, 162.569 971.766, 163.028 971.483 C 163.487 971.199, 164.144 971.425, 164.490 971.984 C 165.738 974.004, 167.073 973.004, 165.944 970.895 C 163.537 966.397, 167.012 958.903, 173.411 954.789 C 176.337 952.908, 175.011 952.735, 170.851 954.455 C 169.443 955.037, 169.274 954.576, 169.694 951.318 C 169.965 949.218, 170.595 947.072, 171.093 946.550 C 172.228 945.362, 172.268 944, 171.169 944 C 170.712 944, 169.834 945.013, 169.217 946.250 M 976.500 947 C 975.400 947.473, 975.063 947.891, 975.750 947.930 C 977.858 948.048, 977.156 953.556, 974.030 961.425 C 971.375 968.108, 968.893 978.939, 969.086 983 C 969.126 983.825, 971.260 978.122, 973.829 970.326 L 978.500 956.152 981.166 958.455 L 983.831 960.759 981.975 971.637 C 980.954 977.620, 979.640 989.487, 979.054 998.008 C 978.468 1006.528, 977.791 1015.975, 977.551 1019 C 977.292 1022.252, 977.456 1023.887, 977.952 1023 C 978.413 1022.175, 979.279 1013.400, 979.876 1003.500 C 980.978 985.238, 984.050 964.550, 985.940 962.660 C 986.510 962.090, 989.344 960.601, 992.238 959.352 C 995.132 958.103, 996.767 957.062, 995.872 957.040 C 994.977 957.018, 992.550 957.708, 990.480 958.573 C 988.410 959.438, 985.696 959.889, 984.449 959.577 C 981.640 958.871, 977.560 950.962, 978.491 948.027 C 978.845 946.912, 978.992 946.032, 978.817 946.070 C 978.643 946.109, 977.600 946.527, 976.500 947 M 931.471 962.362 C 935.522 970.536, 940.046 981.025, 941.526 985.671 C 944.398 994.690, 945.743 996.277, 944.027 988.622 C 942.901 983.596, 944.197 975.075, 948.124 961.687 C 949.223 957.940, 949.949 954.115, 949.737 953.187 C 949.196 950.817, 946.257 960.802, 944.346 971.500 C 942.434 982.204, 941.628 983.467, 939.981 978.342 C 938.595 974.028, 927.902 952.586, 925.598 949.500 C 924.777 948.400, 927.420 954.188, 931.471 962.362 M 454.920 959.324 C 449.601 962.137, 447.075 966.174, 446.089 973.439 C 445.447 978.171, 445.552 978.790, 446.870 978.053 C 447.978 977.433, 448.321 975.847, 448.130 972.242 C 447.304 956.678, 471.661 952.937, 478.160 967.629 C 483.726 980.212, 470.138 992.263, 456.710 986.652 C 454.902 985.897, 452.608 985.624, 451.492 986.033 C 448.501 987.126, 455.822 988.494, 464.684 988.497 C 473.129 988.500, 476.342 986.282, 479.912 977.982 C 481.967 973.206, 481.977 973.199, 487.843 972.518 C 492.875 971.934, 495.047 972.282, 502.998 974.946 C 514.216 978.704, 515.613 978.480, 505.715 974.511 C 499.614 972.064, 497.173 971.630, 489.911 971.699 L 481.322 971.780 480.167 968.586 C 476.568 958.632, 464.560 954.226, 454.920 959.324 M 794.281 959.500 C 796.017 963.547, 811.622 988, 812.468 988 C 812.955 988, 801.136 964.966, 799.785 963.282 C 799.248 962.612, 798.433 962.162, 797.975 962.282 C 797.516 962.402, 796.401 961.600, 795.496 960.500 C 794.592 959.400, 794.045 958.950, 794.281 959.500 M 222.011 969.493 C 215.594 973.627, 216.504 973.528, 208.816 970.938 C 204.266 969.405, 201.642 969.068, 198.597 969.624 C 196.344 970.035, 193.992 970.281, 193.371 970.170 C 192.750 970.059, 192.006 970.870, 191.717 971.973 C 191.231 973.834, 191.346 973.871, 193.319 972.489 C 196.317 970.390, 204.986 970.623, 211.162 972.970 L 216.346 974.939 222.268 970.897 C 225.524 968.674, 228.456 967.123, 228.782 967.449 C 229.701 968.368, 229.131 984.092, 228.041 987.873 C 226.471 993.322, 224.422 995.640, 217.774 999.492 C 214.323 1001.492, 212.625 1002.819, 214 1002.443 C 217.937 1001.364, 225.260 995.719, 227.338 992.162 C 230.848 986.151, 231.642 967.381, 228.432 966.311 C 227.895 966.132, 225.006 967.564, 222.011 969.493 M 525.835 967.771 C 523.017 969.619, 516.152 974.790, 514.500 976.309 C 513.950 976.815, 515.075 976.452, 517 975.502 C 518.925 974.553, 521.924 972.426, 523.664 970.776 C 525.530 969.006, 527.319 968.079, 528.025 968.516 C 529.910 969.680, 528.283 979.033, 525.685 981.970 C 523.999 983.875, 523.937 984.104, 525.412 982.970 C 527.460 981.395, 527.463 981.881, 525.479 992.500 C 525.044 994.831, 525.262 994.607, 526.455 991.500 C 529.308 984.071, 531.433 969.004, 529.850 967.422 C 528.678 966.249, 528.076 966.302, 525.835 967.771 M 784.710 1000.314 C 784.405 1001.107, 784.514 1002.149, 784.950 1002.628 C 785.387 1003.108, 787.211 1007.657, 789.004 1012.737 C 790.798 1017.818, 792.880 1022.486, 793.632 1023.110 C 795.716 1024.839, 795.370 1022.977, 792.087 1014.776 C 787.039 1002.168, 785.304 998.766, 784.710 1000.314 M 449 1005.957 C 449 1008.251, 455.493 1011.953, 462.225 1013.497 C 473.072 1015.984, 504.913 1013.699, 510.669 1010.020 C 512.381 1008.925, 512.370 1008.890, 510.502 1009.488 C 503.321 1011.786, 496.504 1012.466, 480.500 1012.482 C 460.944 1012.502, 455.469 1011.560, 451.385 1007.476 C 450.073 1006.164, 449 1005.480, 449 1005.957 M 638 1013.480 C 624.158 1015.533, 610.018 1020.603, 611.491 1022.985 C 611.802 1023.488, 613.506 1023.073, 615.278 1022.062 C 620.274 1019.213, 630.881 1016.053, 642.193 1014.044 C 653.883 1011.969, 650.899 1011.567, 638 1013.480" stroke="none" fill="black" fill-rule="evenodd"/>
</svg>